<svg width="196" height="68" viewBox="0 0 196 68" fill="none" xmlns="http://www.w3.org/2000/svg">
<rect x="0.5" y="0.5" width="195" height="67" rx="33.5" fill="white" stroke="url(#paint0_linear_67_2)"/>
<g clip-path="url(#clip0_67_2)">
<path d="M56.703 16.4355H52.265V16.4386H36V32.4709L38.176 32.5135C38.196 32.5165 38.2528 32.5165 38.3433 32.5165C39.419 32.5165 45.1829 32.3872 50.4128 29.7403L48.3948 25.82C45.5681 27.25 42.456 27.79 40.438 27.9939V20.8395H52.2665V35.0144C50.8639 34.167 49.2204 33.6772 47.4633 33.6772C42.367 33.6772 38.2205 37.7861 38.2205 42.8396C38.2205 47.8931 42.3685 52.0005 47.4633 52.0005C52.5581 52.0005 56.7045 47.8916 56.7045 42.8396C56.7045 42.7468 56.7015 42.6555 56.6999 42.5627H56.7045V16.4355H56.703ZM47.4618 47.5995C44.8131 47.5995 42.6585 45.4653 42.6585 42.8396C42.6585 40.214 44.8131 38.0781 47.4618 38.0781C50.1104 38.0781 52.2635 40.214 52.2635 42.8396C52.2635 45.4653 50.1104 47.5995 47.4618 47.5995Z" fill="url(#paint1_linear_67_2)"/>
<path d="M80.8171 42.5627H80.8202V16.4355H76.3852V16.4386H60.1172V32.4709L62.2932 32.5135C62.3162 32.5165 62.3715 32.5165 62.4636 32.5165C63.5393 32.5165 69.3032 32.3872 74.533 29.7403L72.5135 25.82C69.6868 27.25 66.5778 27.79 64.5567 27.9939V20.8395H76.3852V35.0144C74.9826 34.167 73.3376 33.6772 71.5789 33.6772C66.4826 33.6772 62.3377 37.7861 62.3377 42.8396C62.3377 47.8931 66.4826 52.0005 71.5789 52.0005C76.6753 52.0005 80.8217 47.8916 80.8217 42.8396C80.8217 42.7468 80.8186 42.6555 80.8171 42.5627ZM71.5789 47.5995C68.9303 47.5995 66.7773 45.4653 66.7773 42.8396C66.7773 40.214 68.9303 38.0781 71.5789 38.0781C74.2276 38.0781 76.3822 40.214 76.3822 42.8396C76.3822 45.4653 74.2276 47.5995 71.5789 47.5995Z" fill="url(#paint2_linear_67_2)"/>
<path d="M144.708 39.9471C139.956 39.9471 136.087 36.1136 136.087 31.4008C136.087 26.688 139.954 22.8545 144.708 22.8545C149.462 22.8545 153.329 26.688 153.329 31.4008C153.329 36.1136 149.462 39.9471 144.708 39.9471ZM144.708 26.9603C142.237 26.9603 140.229 28.9531 140.229 31.4008C140.229 33.8484 142.237 35.8413 144.708 35.8413C147.179 35.8413 149.188 33.85 149.188 31.4008C149.188 28.9516 147.179 26.9603 144.708 26.9603Z" fill="#2EB1F7"/>
<path d="M160 16H155.55V51.6471H160V16Z" fill="#2EB1F7"/>
<path d="M128.055 22.9854H123.873V51.6484H128.055V22.9854Z" fill="#2EB1F7"/>
<path d="M133.573 22.9854H129.391V51.6484H133.573V22.9854Z" fill="#2EB1F7"/>
<path d="M122.131 22.9883H110.918V27.3907H122.131V22.9883Z" fill="#2EB1F7"/>
<path d="M115.367 32.25V51.4115C115.101 51.4541 114.842 51.489 114.598 51.5179C113.405 51.6533 112.449 51.7035 111.86 51.7172H111.774L110.919 51.6959V32.5558C112.65 32.5634 114.584 32.3352 114.584 32.3352C114.828 32.3139 115.087 32.285 115.367 32.25Z" fill="#2EB1F7"/>
<path d="M122.131 22.9883V35.1338C120.573 35.7073 119.047 36.0937 117.679 36.3447V22.9883H122.131Z" fill="#2EB1F7"/>
<path d="M107.901 51.6469V47.2354H84.6305V51.6469H107.901Z" fill="#2EB1F7"/>
<path d="M101.691 22.8564V28.7801H90.8427V22.8564H85.6006V43.4829H106.931V22.8564H101.689H101.691ZM101.691 38.7883H90.8427V33.1689H101.691V38.7883Z" fill="#2EB1F7"/>
<path d="M142.004 47.2356H159.121V51.6471H137.554V42.29H142.004V47.2356Z" fill="#2EB1F7"/>
<path d="M121.445 45.0283C119.383 46.0749 117.184 46.6378 115.367 46.9512C115.101 46.9938 114.842 47.0363 114.598 47.0729C114.196 47.1231 113.829 47.1733 113.491 47.2082C110.129 47.6068 111.759 47.6494 110.919 47.5505L111.774 51.7172H111.86C112.449 51.7035 113.405 51.6533 114.598 51.5179C114.842 51.489 115.101 51.454 115.367 51.4114C117.673 51.0767 120.649 50.3785 123.472 48.947L121.447 45.0298L121.445 45.0283Z" fill="#2EB1F7"/>
<path d="M118.786 31.5733C118.405 31.6798 118.038 31.765 117.679 31.8517C116.854 32.0297 116.062 32.1575 115.365 32.2503C115.084 32.2853 114.827 32.3142 114.583 32.3355C114.583 32.3355 112.649 32.5637 110.918 32.5561V36.8292L112.319 36.8581H112.491C112.815 36.8581 113.562 36.8444 114.596 36.7577C114.834 36.7364 115.092 36.7151 115.365 36.6786C116.056 36.6071 116.838 36.5006 117.679 36.3439C119.045 36.0944 120.575 35.7035 122.134 35.133V30.3457C121.014 30.8721 119.878 31.2782 118.786 31.5703V31.5733Z" fill="#2EB1F7"/>
<path d="M127.34 40.5008C124.074 42.1559 120.566 42.7142 118.436 42.8907V38.937C120.238 38.7605 123.015 38.2767 125.538 37.002L127.34 40.4993V40.5008Z" fill="#2EB1F7"/>
</g>
<defs>
<linearGradient id="paint0_linear_67_2" x1="9.51224e-07" y1="32" x2="198" y2="32.5" gradientUnits="userSpaceOnUse">
<stop stop-color="#15B1E4"/>
<stop offset="1" stop-color="#B800FF"/>
</linearGradient>
<linearGradient id="paint1_linear_67_2" x1="26.9751" y1="11.2238" x2="82.1604" y2="66.8931" gradientUnits="userSpaceOnUse">
<stop stop-color="#15B1E4"/>
<stop offset="1" stop-color="#B800FF"/>
</linearGradient>
<linearGradient id="paint2_linear_67_2" x1="38.1881" y1="-1.56826" x2="91.0124" y2="51.7179" gradientUnits="userSpaceOnUse">
<stop stop-color="#15B1E4"/>
<stop offset="1" stop-color="#B800FF"/>
</linearGradient>
<clipPath id="clip0_67_2">
<rect width="124" height="36" fill="white" transform="translate(36 16)"/>
</clipPath>
</defs>
</svg>
