<svg width="196" height="68" viewBox="0 0 196 68" fill="none" xmlns="http://www.w3.org/2000/svg">
<rect x="0.5" y="0.5" width="195" height="67" rx="33.5" fill="white" stroke="url(#paint0_linear_174_7)"/>
<g clip-path="url(#clip0_174_7)">
<path d="M96.745 42.1767V16H92.3004H76V32.0675L78.1796 32.1098C78.2009 32.1098 78.2579 32.1098 78.3505 32.1098C79.4296 32.1098 85.2026 31.9792 90.4449 29.3284L88.4221 25.3997C85.5908 26.8328 82.4746 27.3729 80.4482 27.5776V20.4122H92.3004V34.6124C90.8972 33.7617 89.2447 33.2746 87.4854 33.2746C82.3784 33.2746 78.2259 37.3903 78.2259 42.4555C78.2259 47.5207 82.3784 51.6329 87.4854 51.6329C92.5924 51.6329 96.7486 47.5172 96.7486 42.4555C96.7486 42.3638 96.7486 42.272 96.745 42.1767ZM87.489 47.2242C84.8358 47.2242 82.6776 45.0852 82.6776 42.4555C82.6776 39.8259 84.8358 37.6833 87.489 37.6833C90.1422 37.6833 92.304 39.8223 92.304 42.4555C92.304 45.0887 90.1458 47.2242 87.489 47.2242ZM99.7437 35.4384H118.658V39.847C118.658 39.8682 118.658 39.9247 118.658 40.0129C118.658 41.0825 118.53 46.8077 115.852 52L111.642 49.8045C112.112 48.6467 113.751 46.3771 114.003 39.8435H99.7472V35.4348L99.7437 35.4384ZM119.004 29.7413V34.15H99.4837V29.7413H106.425V26.4128H110.834V29.7413H119.004ZM114.21 25.0785H100.004V21.5911H114.21V19.4874H100.004V16H118.658V28.4495H114.21V25.0785Z" fill="url(#paint1_linear_174_7)"/>
</g>
<defs>
<linearGradient id="paint0_linear_174_7" x1="9.51224e-07" y1="32" x2="198" y2="32.5" gradientUnits="userSpaceOnUse">
<stop stop-color="#15B1E4"/>
<stop offset="1" stop-color="#B800FF"/>
</linearGradient>
<linearGradient id="paint1_linear_174_7" x1="85.0281" y1="21.8029" x2="119.485" y2="47.302" gradientUnits="userSpaceOnUse">
<stop offset="0.15" stop-color="#2EB1F7"/>
<stop offset="0.76" stop-color="#9056FF"/>
</linearGradient>
<clipPath id="clip0_174_7">
<rect width="43" height="36" fill="white" transform="translate(76 16)"/>
</clipPath>
</defs>
</svg>
