<svg width="196" height="68" viewBox="0 0 196 68" fill="none" xmlns="http://www.w3.org/2000/svg">
<rect width="196" height="68" rx="34" fill="white"/>
<g clip-path="url(#clip0_19_241)">
<path d="M105.555 51.9985C100.45 51.9985 96.2952 47.8377 96.2952 42.7249C96.2952 37.6122 100.45 33.4497 105.555 33.4497C110.66 33.4497 114.815 37.6105 114.815 42.7249C114.815 47.8394 110.66 51.9985 105.555 51.9985ZM105.555 37.905C102.902 37.905 100.744 40.0675 100.744 42.7249C100.744 45.3824 102.903 47.5432 105.555 47.5432C108.207 47.5432 110.366 45.3806 110.366 42.7249C110.366 40.0693 108.207 37.905 105.555 37.905Z" fill="#2EB1F7"/>
<path d="M133.333 51.9985C128.228 51.9985 124.073 47.8377 124.073 42.7249C124.073 37.6122 128.228 33.4497 133.333 33.4497C138.439 33.4497 142.593 37.6105 142.593 42.7249C142.593 47.8394 138.439 51.9985 133.333 51.9985ZM133.333 37.905C130.68 37.905 128.522 40.0675 128.522 42.7249C128.522 45.3824 130.682 47.5432 133.333 47.5432C135.985 47.5432 138.145 45.3806 138.145 42.7249C138.145 40.0693 135.985 37.905 133.333 37.905Z" fill="#2EB1F7"/>
<path d="M68.6948 16.084H64.2597L48 16.0857V32.2784L50.1748 32.3212C50.1953 32.3229 50.2517 32.3229 50.3424 32.3229C51.4178 32.3229 57.1779 32.1928 62.4081 29.5183L60.3906 25.5596C57.5643 27.003 54.4543 27.5492 52.4368 27.7547V20.5307H64.2597V34.8451C62.8577 33.989 61.2146 33.4958 59.4587 33.4958C54.3637 33.4958 50.2193 37.6446 50.2193 42.7488C50.2193 47.853 54.3654 52.0001 59.4587 52.0001C64.5521 52.0001 68.6965 47.8513 68.6965 42.7488C68.6965 42.6546 68.6948 42.5622 68.6914 42.468H68.6965V16.084H68.6948ZM59.457 47.5551C56.8086 47.5551 54.6561 45.4011 54.6561 42.7488C54.6561 40.0965 56.8103 37.9408 59.457 37.9408C62.1037 37.9408 64.2563 40.0983 64.2563 42.7488C64.2563 45.3994 62.1054 47.5551 59.457 47.5551Z" fill="url(#paint0_linear_19_241)"/>
<path d="M92.8005 42.468H92.8022V16.084H88.3688L72.1074 16.0857V32.2784L74.2822 32.3212C74.3044 32.3229 74.3609 32.3229 74.4532 32.3229C75.5286 32.3229 81.2888 32.1928 86.5189 29.5183L84.4997 25.5596C81.6735 27.003 78.5669 27.5492 76.5459 27.7547V20.5307H88.3706V34.8451C86.9686 33.989 85.3238 33.4958 83.5662 33.4958C78.4711 33.4958 74.3284 37.6446 74.3284 42.7488C74.3284 47.853 78.4711 52.0001 83.5662 52.0001C88.6612 52.0001 92.8056 47.8513 92.8056 42.7488C92.8056 42.6546 92.8039 42.5622 92.8005 42.468ZM83.5662 47.5551C80.9178 47.5551 78.7669 45.4011 78.7669 42.7488C78.7669 40.0965 80.9178 37.9408 83.5662 37.9408C86.2146 37.9408 88.3671 40.0983 88.3671 42.7488C88.3671 45.3994 86.2129 47.5551 83.5662 47.5551Z" fill="url(#paint1_linear_19_241)"/>
<path d="M131.294 29.4651C127.625 31.3417 123.694 31.9701 121.3 32.1756V52H116.852V16H121.3V27.6981C123.321 27.4909 126.44 26.9447 129.271 25.4978L131.292 29.4651H131.294Z" fill="#2EB1F7"/>
<path d="M149.002 16H144.553V51.9983H149.002V16Z" fill="#2EB1F7"/>
</g>
<defs>
<linearGradient id="paint0_linear_19_241" x1="38.9777" y1="10.8205" x2="94.7095" y2="66.4694" gradientUnits="userSpaceOnUse">
<stop stop-color="#15B1E4"/>
<stop offset="1" stop-color="#B800FF"/>
</linearGradient>
<linearGradient id="paint1_linear_19_241" x1="50.1867" y1="-2.09837" x2="103.533" y2="51.1705" gradientUnits="userSpaceOnUse">
<stop stop-color="#15B1E4"/>
<stop offset="1" stop-color="#B800FF"/>
</linearGradient>
<clipPath id="clip0_19_241">
<rect width="101" height="36" fill="white" transform="translate(48 16)"/>
</clipPath>
</defs>
</svg>
