<svg width="445" height="755" viewBox="0 0 445 755" fill="none" xmlns="http://www.w3.org/2000/svg">
<rect width="445" height="755" fill="url(#paint0_linear_174_5)"/>
<path d="M42.488 262.016H37.896V273.328H36.216V262.016H31.608V260.512H42.488V262.016ZM42.6635 264.176H44.3115V265.584C44.7115 264.896 45.8155 263.952 47.6075 263.952C48.1675 263.952 48.5355 264 48.8555 264.112V265.68C48.5035 265.52 48.0555 265.424 47.4955 265.424C45.6235 265.424 44.3115 266.928 44.3115 268.592V273.328H42.6635V264.176ZM53.7353 273.552C51.1433 273.552 49.2073 271.488 49.2073 268.752C49.2073 266.016 51.1433 263.952 53.7353 263.952C55.3993 263.952 56.5193 264.752 56.9833 265.536V264.176H58.6313V273.328H56.9833V271.968C56.5193 272.752 55.3993 273.552 53.7353 273.552ZM53.8793 272.096C55.7353 272.096 57.0153 270.656 57.0153 268.752C57.0153 266.848 55.7353 265.408 53.8793 265.408C52.0393 265.408 50.8233 266.848 50.8233 268.752C50.8233 270.656 52.0393 272.096 53.8793 272.096ZM60.8985 264.176H62.5465V265.568C62.9305 264.896 63.9705 263.952 65.6505 263.952C67.8105 263.952 69.3305 265.504 69.3305 267.968V273.328H67.6825V268.256C67.6825 266.4 66.7865 265.392 65.2985 265.392C63.6985 265.392 62.5465 266.896 62.5465 268.592V273.328H60.8985V264.176ZM74.9441 263.952C77.1841 263.952 78.8641 265.056 78.9441 266.608H77.3281C77.2641 265.84 76.2241 265.296 74.8961 265.296C73.5681 265.296 72.6081 265.824 72.6081 266.512C72.6081 267.264 73.1841 267.728 75.4241 268.032C78.1761 268.4 79.1521 269.296 79.1521 270.72C79.1521 272.496 77.2801 273.552 75.0081 273.552C72.5601 273.552 70.9921 272.368 70.8801 270.768H72.4961C72.5921 271.488 73.4241 272.208 75.0561 272.208C76.4641 272.208 77.5361 271.632 77.5361 270.816C77.5361 270.064 76.8321 269.632 74.6401 269.344C72.1441 269.008 70.9921 268.208 70.9921 266.608C70.9921 264.992 72.7041 263.952 74.9441 263.952ZM85.3978 264.176V265.632H83.3658V273.328H81.7178V265.632H79.9098V264.176H81.7178V262.624C81.7178 261.104 82.5978 260.048 84.1658 260.048C84.5658 260.048 84.9498 260.08 85.2378 260.144V261.536C85.0138 261.488 84.6938 261.488 84.4538 261.488C83.7818 261.488 83.3658 261.92 83.3658 262.672V264.176H85.3978ZM90.584 263.952C93.288 263.952 95.256 266 95.256 268.752C95.256 271.504 93.288 273.552 90.584 273.552C87.864 273.552 85.896 271.504 85.896 268.752C85.896 266 87.864 263.952 90.584 263.952ZM90.584 265.408C88.76 265.408 87.512 266.848 87.512 268.752C87.512 270.656 88.76 272.096 90.584 272.096C92.392 272.096 93.64 270.656 93.64 268.752C93.64 266.848 92.392 265.408 90.584 265.408ZM97.0404 264.176H98.6884V265.584C99.0884 264.896 100.192 263.952 101.984 263.952C102.544 263.952 102.912 264 103.232 264.112V265.68C102.88 265.52 102.432 265.424 101.872 265.424C100 265.424 98.6884 266.928 98.6884 268.592V273.328H97.0404V264.176ZM104.549 264.176H106.197V265.472C106.613 264.8 107.429 263.952 108.965 263.952C110.325 263.952 111.365 264.704 111.813 265.872C112.357 264.72 113.509 263.952 115.061 263.952C117.013 263.952 118.421 265.44 118.421 267.76V273.328H116.773V268.032C116.773 266.384 115.973 265.392 114.677 265.392C113.301 265.392 112.309 266.736 112.309 268.4V273.328H110.661V268.096C110.661 266.384 109.845 265.392 108.565 265.392C107.205 265.392 106.197 266.736 106.197 268.384V273.328H104.549V264.176ZM126.692 273.328V261.984H124.036V260.512H128.372V273.328H126.692ZM136.726 266.464V267.904H131.126V266.464H136.726ZM138.597 260.112H140.245V265.568C140.629 264.896 141.669 263.952 143.349 263.952C145.509 263.952 147.029 265.504 147.029 267.968V273.328H145.381V268.256C145.381 266.4 144.485 265.392 142.997 265.392C141.397 265.392 140.245 266.896 140.245 268.592V273.328H138.597V260.112ZM153.297 263.952C156.001 263.952 157.969 266 157.969 268.752C157.969 271.504 156.001 273.552 153.297 273.552C150.577 273.552 148.609 271.504 148.609 268.752C148.609 266 150.577 263.952 153.297 263.952ZM153.297 265.408C151.473 265.408 150.225 266.848 150.225 268.752C150.225 270.656 151.473 272.096 153.297 272.096C155.105 272.096 156.353 270.656 156.353 268.752C156.353 266.848 155.105 265.408 153.297 265.408ZM167.977 273.328H166.329V271.936C165.945 272.608 164.905 273.552 163.225 273.552C161.065 273.552 159.545 272 159.545 269.536V264.176H161.193V269.248C161.193 271.104 162.089 272.112 163.577 272.112C165.177 272.112 166.329 270.608 166.329 268.912V264.176H167.977V273.328ZM170.246 264.176H171.894V265.584C172.294 264.896 173.398 263.952 175.19 263.952C175.75 263.952 176.118 264 176.438 264.112V265.68C176.086 265.52 175.638 265.424 175.078 265.424C173.206 265.424 171.894 266.928 171.894 268.592V273.328H170.246V264.176ZM188.782 264.176H190.478L186.606 273.328H184.862L181.006 264.176H182.798L185.79 271.456L188.782 264.176ZM192.649 259.952C193.289 259.952 193.753 260.416 193.753 261.04C193.753 261.664 193.289 262.128 192.649 262.128C192.025 262.128 191.561 261.664 191.561 261.04C191.561 260.416 192.025 259.952 192.649 259.952ZM193.481 273.344H191.833V264.176H193.481V273.344ZM199.795 273.552C197.203 273.552 195.267 271.488 195.267 268.752C195.267 266.016 197.203 263.952 199.795 263.952C201.459 263.952 202.579 264.752 203.043 265.536V260.112H204.691V273.328H203.043V271.968C202.579 272.752 201.459 273.552 199.795 273.552ZM199.939 272.096C201.795 272.096 203.075 270.656 203.075 268.752C203.075 266.848 201.795 265.408 199.939 265.408C198.099 265.408 196.883 266.848 196.883 268.752C196.883 270.656 198.099 272.096 199.939 272.096ZM211.071 273.552C208.399 273.552 206.479 271.504 206.479 268.752C206.479 266 208.399 263.952 211.071 263.952C213.743 263.952 215.647 266 215.647 268.752C215.647 268.96 215.647 269.2 215.615 269.424H208.127C208.303 270.992 209.439 272.16 211.071 272.16C212.319 272.16 213.295 271.584 213.631 270.832H215.311C214.815 272.416 213.167 273.552 211.071 273.552ZM214.031 268.08C213.839 266.48 212.719 265.344 211.071 265.344C209.423 265.344 208.303 266.496 208.127 268.08H214.031ZM221.628 263.952C224.332 263.952 226.3 266 226.3 268.752C226.3 271.504 224.332 273.552 221.628 273.552C218.908 273.552 216.94 271.504 216.94 268.752C216.94 266 218.908 263.952 221.628 263.952ZM221.628 265.408C219.804 265.408 218.556 266.848 218.556 268.752C218.556 270.656 219.804 272.096 221.628 272.096C223.436 272.096 224.684 270.656 224.684 268.752C224.684 266.848 223.436 265.408 221.628 265.408ZM231.684 263.952C233.924 263.952 235.604 265.056 235.684 266.608H234.068C234.004 265.84 232.964 265.296 231.636 265.296C230.308 265.296 229.348 265.824 229.348 266.512C229.348 267.264 229.924 267.728 232.164 268.032C234.916 268.4 235.892 269.296 235.892 270.72C235.892 272.496 234.02 273.552 231.748 273.552C229.3 273.552 227.732 272.368 227.62 270.768H229.236C229.332 271.488 230.164 272.208 231.796 272.208C233.204 272.208 234.276 271.632 234.276 270.816C234.276 270.064 233.572 269.632 231.38 269.344C228.884 269.008 227.732 268.208 227.732 266.608C227.732 264.992 229.444 263.952 231.684 263.952ZM242.635 259.952C243.275 259.952 243.739 260.416 243.739 261.04C243.739 261.664 243.275 262.128 242.635 262.128C242.011 262.128 241.547 261.664 241.547 261.04C241.547 260.416 242.011 259.952 242.635 259.952ZM243.467 273.344H241.819V264.176H243.467V273.344ZM245.734 264.176H247.382V265.568C247.766 264.896 248.806 263.952 250.486 263.952C252.646 263.952 254.166 265.504 254.166 267.968V273.328H252.517V268.256C252.517 266.4 251.622 265.392 250.134 265.392C248.534 265.392 247.382 266.896 247.382 268.592V273.328H245.734V264.176ZM261.16 262.128C260.536 262.128 260.072 261.664 260.072 261.04C260.072 260.416 260.536 259.952 261.16 259.952C261.8 259.952 262.264 260.416 262.264 261.04C262.264 261.664 261.8 262.128 261.16 262.128ZM259.64 277.312C259.208 277.312 258.808 277.264 258.456 277.184V275.76C258.744 275.84 259.048 275.872 259.352 275.872C259.976 275.872 260.344 275.472 260.344 274.752V264.176H261.992V274.832C261.992 276.32 261.112 277.312 259.64 277.312ZM272.482 273.328H270.834V271.936C270.45 272.608 269.41 273.552 267.73 273.552C265.57 273.552 264.05 272 264.05 269.536V264.176H265.698V269.248C265.698 271.104 266.594 272.112 268.082 272.112C269.682 272.112 270.834 270.608 270.834 268.912V264.176H272.482V273.328ZM278.35 263.952C280.59 263.952 282.27 265.056 282.35 266.608H280.734C280.67 265.84 279.63 265.296 278.302 265.296C276.974 265.296 276.014 265.824 276.014 266.512C276.014 267.264 276.59 267.728 278.83 268.032C281.582 268.4 282.558 269.296 282.558 270.72C282.558 272.496 280.686 273.552 278.414 273.552C275.966 273.552 274.398 272.368 274.286 270.768H275.902C275.998 271.488 276.83 272.208 278.462 272.208C279.87 272.208 280.942 271.632 280.942 270.816C280.942 270.064 280.238 269.632 278.046 269.344C275.55 269.008 274.398 268.208 274.398 266.608C274.398 264.992 276.11 263.952 278.35 263.952ZM289.027 264.176V265.632H286.995V273.328H285.347V265.632H283.315V264.176H285.347V261.392H286.995V264.176H289.027ZM296.652 273.328V261.984H293.996V260.512H298.332V273.328H296.652ZM305.742 273.616C303.038 273.616 301.006 271.392 301.006 266.912C301.006 262.432 303.038 260.208 305.742 260.208C308.43 260.208 310.462 262.432 310.462 266.912C310.462 271.392 308.43 273.616 305.742 273.616ZM305.742 272.128C307.47 272.128 308.846 270.4 308.846 266.912C308.846 263.44 307.47 261.696 305.742 261.696C303.998 261.696 302.622 263.44 302.622 266.912C302.622 270.4 303.998 272.128 305.742 272.128ZM316.424 264.176H318.072V265.472C318.488 264.8 319.304 263.952 320.84 263.952C322.2 263.952 323.24 264.704 323.688 265.872C324.232 264.72 325.384 263.952 326.936 263.952C328.888 263.952 330.296 265.44 330.296 267.76V273.328H328.648V268.032C328.648 266.384 327.848 265.392 326.552 265.392C325.176 265.392 324.184 266.736 324.184 268.4V273.328H322.536V268.096C322.536 266.384 321.72 265.392 320.44 265.392C319.08 265.392 318.072 266.736 318.072 268.384V273.328H316.424V264.176ZM333.139 259.952C333.779 259.952 334.243 260.416 334.243 261.04C334.243 261.664 333.779 262.128 333.139 262.128C332.515 262.128 332.051 261.664 332.051 261.04C332.051 260.416 332.515 259.952 333.139 259.952ZM333.971 273.344H332.323V264.176H333.971V273.344ZM336.237 264.176H337.885V265.568C338.269 264.896 339.309 263.952 340.989 263.952C343.149 263.952 344.669 265.504 344.669 267.968V273.328H343.021V268.256C343.021 266.4 342.125 265.392 340.637 265.392C339.037 265.392 337.885 266.896 337.885 268.592V273.328H336.237V264.176ZM354.907 273.328H353.259V271.936C352.875 272.608 351.835 273.552 350.155 273.552C347.995 273.552 346.475 272 346.475 269.536V264.176H348.123V269.248C348.123 271.104 349.019 272.112 350.507 272.112C352.107 272.112 353.259 270.608 353.259 268.912V264.176H354.907V273.328ZM361.975 264.176V265.632H359.943V273.328H358.295V265.632H356.263V264.176H358.295V261.392H359.943V264.176H361.975ZM367.171 273.552C364.499 273.552 362.579 271.504 362.579 268.752C362.579 266 364.499 263.952 367.171 263.952C369.843 263.952 371.747 266 371.747 268.752C371.747 268.96 371.747 269.2 371.715 269.424H364.227C364.403 270.992 365.539 272.16 367.171 272.16C368.419 272.16 369.395 271.584 369.731 270.832H371.411C370.915 272.416 369.267 273.552 367.171 273.552ZM370.131 268.08C369.939 266.48 368.819 265.344 367.171 265.344C365.523 265.344 364.403 266.496 364.227 268.08H370.131ZM377.12 263.952C379.36 263.952 381.04 265.056 381.12 266.608H379.504C379.44 265.84 378.4 265.296 377.072 265.296C375.744 265.296 374.784 265.824 374.784 266.512C374.784 267.264 375.36 267.728 377.6 268.032C380.352 268.4 381.328 269.296 381.328 270.72C381.328 272.496 379.456 273.552 377.184 273.552C374.736 273.552 373.168 272.368 373.056 270.768H374.672C374.768 271.488 375.6 272.208 377.232 272.208C378.64 272.208 379.712 271.632 379.712 270.816C379.712 270.064 379.008 269.632 376.816 269.344C374.32 269.008 373.168 268.208 373.168 266.608C373.168 264.992 374.88 263.952 377.12 263.952ZM383.266 269.776L382.866 260.512H384.898L384.482 269.776H383.266ZM383.874 273.584C383.202 273.584 382.69 273.072 382.69 272.4C382.69 271.744 383.202 271.232 383.874 271.232C384.546 271.232 385.058 271.744 385.058 272.4C385.058 273.072 384.546 273.584 383.874 273.584Z" fill="black"/>
<path d="M32.376 530.512H36.92C40.248 530.512 42.2 532.288 42.2 534.96C42.2 537.632 40.248 539.408 36.92 539.408H34.056V543.328H32.376V530.512ZM36.792 537.888C39.112 537.888 40.52 536.864 40.52 534.96C40.52 533.056 39.112 532.032 36.792 532.032H34.056V537.888H36.792ZM43.6635 534.176H45.3115V535.584C45.7115 534.896 46.8155 533.952 48.6075 533.952C49.1675 533.952 49.5355 534 49.8555 534.112V535.68C49.5035 535.52 49.0555 535.424 48.4955 535.424C46.6235 535.424 45.3115 536.928 45.3115 538.592V543.328H43.6635V534.176ZM54.8953 533.952C57.5993 533.952 59.5673 536 59.5673 538.752C59.5673 541.504 57.5993 543.552 54.8953 543.552C52.1753 543.552 50.2073 541.504 50.2073 538.752C50.2073 536 52.1753 533.952 54.8953 533.952ZM54.8953 535.408C53.0713 535.408 51.8233 536.848 51.8233 538.752C51.8233 540.656 53.0713 542.096 54.8953 542.096C56.7033 542.096 57.9513 540.656 57.9513 538.752C57.9513 536.848 56.7033 535.408 54.8953 535.408ZM69.8796 540.224C69.3836 542.208 67.7036 543.552 65.5756 543.552C62.8556 543.552 60.8716 541.504 60.8716 538.752C60.8716 536 62.8396 533.952 65.5436 533.952C67.7036 533.952 69.3996 535.344 69.8476 537.248H68.1676C67.7996 536.16 66.8396 535.408 65.5436 535.408C63.7196 535.408 62.4876 536.848 62.4876 538.752C62.4876 540.656 63.7196 542.096 65.5436 542.096C66.8396 542.096 67.8316 541.328 68.1996 540.224H69.8796ZM75.6905 543.552C73.0185 543.552 71.0985 541.504 71.0985 538.752C71.0985 536 73.0185 533.952 75.6905 533.952C78.3625 533.952 80.2665 536 80.2665 538.752C80.2665 538.96 80.2665 539.2 80.2345 539.424H72.7465C72.9225 540.992 74.0585 542.16 75.6905 542.16C76.9385 542.16 77.9145 541.584 78.2505 540.832H79.9305C79.4345 542.416 77.7865 543.552 75.6905 543.552ZM78.6505 538.08C78.4585 536.48 77.3385 535.344 75.6905 535.344C74.0425 535.344 72.9225 536.496 72.7465 538.08H78.6505ZM85.6398 533.952C87.8798 533.952 89.5598 535.056 89.6398 536.608H88.0238C87.9598 535.84 86.9198 535.296 85.5918 535.296C84.2638 535.296 83.3038 535.824 83.3038 536.512C83.3038 537.264 83.8798 537.728 86.1198 538.032C88.8718 538.4 89.8478 539.296 89.8478 540.72C89.8478 542.496 87.9758 543.552 85.7038 543.552C83.2558 543.552 81.6878 542.368 81.5758 540.768H83.1918C83.2878 541.488 84.1198 542.208 85.7518 542.208C87.1598 542.208 88.2318 541.632 88.2318 540.816C88.2318 540.064 87.5278 539.632 85.3358 539.344C82.8398 539.008 81.6878 538.208 81.6878 536.608C81.6878 534.992 83.3998 533.952 85.6398 533.952ZM95.2104 533.952C97.4504 533.952 99.1304 535.056 99.2104 536.608H97.5944C97.5304 535.84 96.4904 535.296 95.1624 535.296C93.8344 535.296 92.8744 535.824 92.8744 536.512C92.8744 537.264 93.4504 537.728 95.6904 538.032C98.4424 538.4 99.4184 539.296 99.4184 540.72C99.4184 542.496 97.5464 543.552 95.2744 543.552C92.8264 543.552 91.2584 542.368 91.1464 540.768H92.7624C92.8584 541.488 93.6904 542.208 95.3224 542.208C96.7304 542.208 97.8024 541.632 97.8024 540.816C97.8024 540.064 97.0984 539.632 94.9064 539.344C92.4104 539.008 91.2584 538.208 91.2584 536.608C91.2584 534.992 92.9704 533.952 95.2104 533.952ZM113.569 543.328H111.921V541.936C111.537 542.608 110.497 543.552 108.817 543.552C106.657 543.552 105.137 542 105.137 539.536V534.176H106.785V539.248C106.785 541.104 107.681 542.112 109.169 542.112C110.769 542.112 111.921 540.608 111.921 538.912V534.176H113.569V543.328ZM120.734 543.552C119.07 543.552 117.95 542.752 117.486 541.968V547.216H115.838V534.176H117.486V535.536C117.95 534.752 119.07 533.952 120.734 533.952C123.326 533.952 125.262 536.016 125.262 538.752C125.262 541.488 123.326 543.552 120.734 543.552ZM120.59 542.096C122.43 542.096 123.646 540.656 123.646 538.752C123.646 536.848 122.43 535.408 120.59 535.408C118.734 535.408 117.454 536.848 117.454 538.752C117.454 540.656 118.734 542.096 120.59 542.096ZM136.014 534.176V535.632H133.982V543.328H132.334V535.632H130.302V534.176H132.334V531.392H133.982V534.176H136.014ZM141.305 533.952C144.009 533.952 145.977 536 145.977 538.752C145.977 541.504 144.009 543.552 141.305 543.552C138.585 543.552 136.617 541.504 136.617 538.752C136.617 536 138.585 533.952 141.305 533.952ZM141.305 535.408C139.481 535.408 138.233 536.848 138.233 538.752C138.233 540.656 139.481 542.096 141.305 542.096C143.113 542.096 144.361 540.656 144.361 538.752C144.361 536.848 143.113 535.408 141.305 535.408ZM151.413 543.328V542.24L155.957 537.68C157.589 536.032 158.229 534.992 158.229 534.08C158.229 532.576 157.205 531.696 155.605 531.696C153.877 531.696 152.949 533.008 152.949 534.432H151.269C151.269 532.112 152.949 530.208 155.621 530.208C158.197 530.208 159.893 531.76 159.893 534.064C159.893 535.44 159.109 536.608 157.189 538.576L153.829 541.872H160.325V543.328H151.413ZM166.361 543.616C163.657 543.616 161.625 541.392 161.625 536.912C161.625 532.432 163.657 530.208 166.361 530.208C169.049 530.208 171.081 532.432 171.081 536.912C171.081 541.392 169.049 543.616 166.361 543.616ZM166.361 542.128C168.089 542.128 169.465 540.4 169.465 536.912C169.465 533.44 168.089 531.696 166.361 531.696C164.617 531.696 163.241 533.44 163.241 536.912C163.241 540.4 164.617 542.128 166.361 542.128ZM177.135 543.616C174.431 543.616 172.399 541.392 172.399 536.912C172.399 532.432 174.431 530.208 177.135 530.208C179.823 530.208 181.855 532.432 181.855 536.912C181.855 541.392 179.823 543.616 177.135 543.616ZM177.135 542.128C178.863 542.128 180.239 540.4 180.239 536.912C180.239 533.44 178.863 531.696 177.135 531.696C175.391 531.696 174.015 533.44 174.015 536.912C174.015 540.4 175.391 542.128 177.135 542.128ZM187.909 543.616C185.205 543.616 183.173 541.392 183.173 536.912C183.173 532.432 185.205 530.208 187.909 530.208C190.597 530.208 192.629 532.432 192.629 536.912C192.629 541.392 190.597 543.616 187.909 543.616ZM187.909 542.128C189.637 542.128 191.013 540.4 191.013 536.912C191.013 533.44 189.637 531.696 187.909 531.696C186.165 531.696 184.789 533.44 184.789 536.912C184.789 540.4 186.165 542.128 187.909 542.128ZM198.591 530.112H200.239V535.568C200.623 534.896 201.663 533.952 203.343 533.952C205.503 533.952 207.023 535.504 207.023 537.968V543.328H205.375V538.256C205.375 536.4 204.479 535.392 202.991 535.392C201.391 535.392 200.239 536.896 200.239 538.592V543.328H198.591V530.112ZM213.292 533.952C215.996 533.952 217.964 536 217.964 538.752C217.964 541.504 215.996 543.552 213.292 543.552C210.572 543.552 208.604 541.504 208.604 538.752C208.604 536 210.572 533.952 213.292 533.952ZM213.292 535.408C211.468 535.408 210.22 536.848 210.22 538.752C210.22 540.656 211.468 542.096 213.292 542.096C215.1 542.096 216.348 540.656 216.348 538.752C216.348 536.848 215.1 535.408 213.292 535.408ZM227.972 543.328H226.324V541.936C225.94 542.608 224.9 543.552 223.22 543.552C221.06 543.552 219.54 542 219.54 539.536V534.176H221.188V539.248C221.188 541.104 222.084 542.112 223.572 542.112C225.172 542.112 226.324 540.608 226.324 538.912V534.176H227.972V543.328ZM230.24 534.176H231.888V535.584C232.288 534.896 233.392 533.952 235.184 533.952C235.744 533.952 236.112 534 236.432 534.112V535.68C236.08 535.52 235.632 535.424 235.072 535.424C233.2 535.424 231.888 536.928 231.888 538.592V543.328H230.24V534.176ZM241.348 533.952C243.588 533.952 245.268 535.056 245.349 536.608H243.732C243.668 535.84 242.628 535.296 241.3 535.296C239.972 535.296 239.012 535.824 239.012 536.512C239.012 537.264 239.588 537.728 241.828 538.032C244.58 538.4 245.556 539.296 245.556 540.72C245.556 542.496 243.684 543.552 241.412 543.552C238.964 543.552 237.396 542.368 237.284 540.768H238.9C238.996 541.488 239.828 542.208 241.46 542.208C242.868 542.208 243.94 541.632 243.94 540.816C243.94 540.064 243.236 539.632 241.044 539.344C238.548 539.008 237.396 538.208 237.396 536.608C237.396 534.992 239.108 533.952 241.348 533.952ZM256.38 543.552C254.716 543.552 253.596 542.752 253.132 541.968V547.216H251.484V534.176H253.132V535.536C253.596 534.752 254.716 533.952 256.38 533.952C258.972 533.952 260.908 536.016 260.908 538.752C260.908 541.488 258.972 543.552 256.38 543.552ZM256.236 542.096C258.076 542.096 259.292 540.656 259.292 538.752C259.292 536.848 258.076 535.408 256.236 535.408C254.38 535.408 253.1 536.848 253.1 538.752C253.1 540.656 254.38 542.096 256.236 542.096ZM266.807 543.552C264.135 543.552 262.215 541.504 262.215 538.752C262.215 536 264.135 533.952 266.807 533.952C269.479 533.952 271.383 536 271.383 538.752C271.383 538.96 271.383 539.2 271.351 539.424H263.863C264.039 540.992 265.175 542.16 266.807 542.16C268.055 542.16 269.031 541.584 269.367 540.832H271.047C270.551 542.416 268.903 543.552 266.807 543.552ZM269.767 538.08C269.575 536.48 268.455 535.344 266.807 535.344C265.159 535.344 264.039 536.496 263.863 538.08H269.767ZM273.156 534.176H274.804V535.584C275.204 534.896 276.308 533.952 278.1 533.952C278.66 533.952 279.028 534 279.348 534.112V535.68C278.996 535.52 278.548 535.424 277.988 535.424C276.116 535.424 274.804 536.928 274.804 538.592V543.328H273.156V534.176ZM284.829 534.176H286.477V535.472C286.893 534.8 287.709 533.952 289.245 533.952C290.605 533.952 291.645 534.704 292.093 535.872C292.637 534.72 293.789 533.952 295.341 533.952C297.293 533.952 298.701 535.44 298.701 537.76V543.328H297.053V538.032C297.053 536.384 296.253 535.392 294.957 535.392C293.581 535.392 292.589 536.736 292.589 538.4V543.328H290.941V538.096C290.941 536.384 290.125 535.392 288.845 535.392C287.485 535.392 286.477 536.736 286.477 538.384V543.328H284.829V534.176ZM304.935 533.952C307.639 533.952 309.607 536 309.607 538.752C309.607 541.504 307.639 543.552 304.935 543.552C302.215 543.552 300.247 541.504 300.247 538.752C300.247 536 302.215 533.952 304.935 533.952ZM304.935 535.408C303.111 535.408 301.863 536.848 301.863 538.752C301.863 540.656 303.111 542.096 304.935 542.096C306.743 542.096 307.991 540.656 307.991 538.752C307.991 536.848 306.743 535.408 304.935 535.408ZM311.392 534.176H313.04V535.568C313.424 534.896 314.464 533.952 316.144 533.952C318.304 533.952 319.824 535.504 319.824 537.968V543.328H318.176V538.256C318.176 536.4 317.28 535.392 315.792 535.392C314.192 535.392 313.04 536.896 313.04 538.592V543.328H311.392V534.176ZM326.497 534.176V535.632H324.465V543.328H322.817V535.632H320.785V534.176H322.817V531.392H324.465V534.176H326.497ZM327.877 530.112H329.525V535.568C329.909 534.896 330.949 533.952 332.629 533.952C334.789 533.952 336.309 535.504 336.309 537.968V543.328H334.661V538.256C334.661 536.4 333.765 535.392 332.277 535.392C330.677 535.392 329.525 536.896 329.525 538.592V543.328H327.877V530.112ZM338.545 539.776L338.145 530.512H340.177L339.761 539.776H338.545ZM339.153 543.584C338.481 543.584 337.969 543.072 337.969 542.4C337.969 541.744 338.481 541.232 339.153 541.232C339.825 541.232 340.337 541.744 340.337 542.4C340.337 543.072 339.825 543.584 339.153 543.584Z" fill="black"/>
<rect x="30" y="29" width="386" height="218" fill="#D9D9D9"/>
<rect x="30" y="299" width="386" height="218" fill="#D9D9D9"/>
<rect x="31.5" y="610.5" width="195" height="67" rx="33.5" fill="white" stroke="url(#paint1_linear_174_5)"/>
<path d="M81.3857 640V628.364H88.4084V629.614H82.7947V633.545H88.0447V634.795H82.7947V638.75H88.4993V640H81.3857ZM91.7663 631.273L93.8572 634.841L95.9482 631.273H97.4936L94.6754 635.636L97.4936 640H95.9482L93.8572 636.614L91.7663 640H90.2209L92.9936 635.636L90.2209 631.273H91.7663ZM99.407 643.273V631.273H100.702V632.659H100.862C100.96 632.508 101.096 632.314 101.271 632.08C101.449 631.841 101.702 631.629 102.032 631.443C102.365 631.254 102.816 631.159 103.384 631.159C104.119 631.159 104.767 631.343 105.327 631.71C105.888 632.078 106.326 632.598 106.64 633.273C106.954 633.947 107.112 634.742 107.112 635.659C107.112 636.583 106.954 637.384 106.64 638.062C106.326 638.737 105.89 639.259 105.333 639.631C104.776 639.998 104.134 640.182 103.407 640.182C102.846 640.182 102.397 640.089 102.06 639.903C101.723 639.714 101.464 639.5 101.282 639.261C101.1 639.019 100.96 638.818 100.862 638.659H100.748V643.273H99.407ZM100.725 635.636C100.725 636.295 100.822 636.877 101.015 637.381C101.208 637.881 101.49 638.273 101.862 638.557C102.233 638.837 102.687 638.977 103.225 638.977C103.786 638.977 104.254 638.83 104.629 638.534C105.007 638.235 105.291 637.833 105.481 637.33C105.674 636.822 105.771 636.258 105.771 635.636C105.771 635.023 105.676 634.47 105.487 633.977C105.301 633.481 105.019 633.089 104.64 632.801C104.265 632.509 103.793 632.364 103.225 632.364C102.68 632.364 102.221 632.502 101.85 632.778C101.479 633.051 101.199 633.434 101.009 633.926C100.82 634.415 100.725 634.985 100.725 635.636ZM112.816 640.182C111.975 640.182 111.25 639.996 110.64 639.625C110.034 639.25 109.566 638.727 109.237 638.057C108.911 637.383 108.748 636.598 108.748 635.705C108.748 634.811 108.911 634.023 109.237 633.341C109.566 632.655 110.024 632.121 110.612 631.739C111.202 631.352 111.892 631.159 112.68 631.159C113.134 631.159 113.583 631.235 114.026 631.386C114.469 631.538 114.873 631.784 115.237 632.125C115.6 632.462 115.89 632.909 116.106 633.466C116.322 634.023 116.43 634.708 116.43 635.523V636.091H109.702V634.932H115.066C115.066 634.439 114.968 634 114.771 633.614C114.577 633.227 114.301 632.922 113.941 632.699C113.585 632.475 113.165 632.364 112.68 632.364C112.146 632.364 111.683 632.496 111.293 632.761C110.907 633.023 110.61 633.364 110.401 633.784C110.193 634.205 110.089 634.655 110.089 635.136V635.909C110.089 636.568 110.202 637.127 110.43 637.585C110.661 638.04 110.981 638.386 111.39 638.625C111.799 638.86 112.274 638.977 112.816 638.977C113.168 638.977 113.487 638.928 113.771 638.83C114.058 638.727 114.307 638.576 114.515 638.375C114.723 638.17 114.884 637.917 114.998 637.614L116.293 637.977C116.157 638.417 115.928 638.803 115.606 639.136C115.284 639.466 114.886 639.723 114.413 639.909C113.939 640.091 113.407 640.182 112.816 640.182ZM118.469 640V631.273H119.765V632.591H119.856C120.015 632.159 120.303 631.809 120.719 631.54C121.136 631.271 121.606 631.136 122.129 631.136C122.227 631.136 122.35 631.138 122.498 631.142C122.646 631.146 122.757 631.152 122.833 631.159V632.523C122.788 632.511 122.683 632.494 122.521 632.472C122.362 632.445 122.193 632.432 122.015 632.432C121.591 632.432 121.212 632.521 120.879 632.699C120.549 632.873 120.288 633.116 120.094 633.426C119.905 633.733 119.81 634.083 119.81 634.477V640H118.469ZM124.423 640V631.273H125.763V640H124.423ZM125.104 629.818C124.843 629.818 124.618 629.729 124.428 629.551C124.243 629.373 124.15 629.159 124.15 628.909C124.15 628.659 124.243 628.445 124.428 628.267C124.618 628.089 124.843 628 125.104 628C125.366 628 125.589 628.089 125.775 628.267C125.964 628.445 126.059 628.659 126.059 628.909C126.059 629.159 125.964 629.373 125.775 629.551C125.589 629.729 125.366 629.818 125.104 629.818ZM131.879 640.182C131.038 640.182 130.312 639.996 129.702 639.625C129.096 639.25 128.629 638.727 128.299 638.057C127.973 637.383 127.81 636.598 127.81 635.705C127.81 634.811 127.973 634.023 128.299 633.341C128.629 632.655 129.087 632.121 129.674 631.739C130.265 631.352 130.954 631.159 131.742 631.159C132.197 631.159 132.646 631.235 133.089 631.386C133.532 631.538 133.935 631.784 134.299 632.125C134.663 632.462 134.952 632.909 135.168 633.466C135.384 634.023 135.492 634.708 135.492 635.523V636.091H128.765V634.932H134.129C134.129 634.439 134.03 634 133.833 633.614C133.64 633.227 133.363 632.922 133.004 632.699C132.647 632.475 132.227 632.364 131.742 632.364C131.208 632.364 130.746 632.496 130.356 632.761C129.969 633.023 129.672 633.364 129.464 633.784C129.255 634.205 129.151 634.655 129.151 635.136V635.909C129.151 636.568 129.265 637.127 129.492 637.585C129.723 638.04 130.043 638.386 130.452 638.625C130.862 638.86 131.337 638.977 131.879 638.977C132.231 638.977 132.549 638.928 132.833 638.83C133.121 638.727 133.369 638.576 133.577 638.375C133.786 638.17 133.947 637.917 134.06 637.614L135.356 637.977C135.219 638.417 134.99 638.803 134.668 639.136C134.346 639.466 133.949 639.723 133.475 639.909C133.002 640.091 132.469 640.182 131.879 640.182ZM138.873 634.75V640H137.532V631.273H138.827V632.636H138.941C139.146 632.193 139.456 631.837 139.873 631.568C140.29 631.295 140.827 631.159 141.487 631.159C142.077 631.159 142.594 631.28 143.038 631.523C143.481 631.761 143.826 632.125 144.072 632.614C144.318 633.098 144.441 633.712 144.441 634.455V640H143.1V634.545C143.1 633.86 142.922 633.326 142.566 632.943C142.21 632.557 141.721 632.364 141.1 632.364C140.672 632.364 140.29 632.456 139.952 632.642C139.619 632.828 139.356 633.098 139.163 633.455C138.969 633.811 138.873 634.242 138.873 634.75ZM150.437 640.182C149.619 640.182 148.914 639.989 148.323 639.602C147.732 639.216 147.278 638.684 146.96 638.006C146.641 637.328 146.482 636.553 146.482 635.682C146.482 634.795 146.645 634.013 146.971 633.335C147.3 632.653 147.759 632.121 148.346 631.739C148.937 631.352 149.626 631.159 150.414 631.159C151.028 631.159 151.581 631.273 152.073 631.5C152.566 631.727 152.969 632.045 153.283 632.455C153.598 632.864 153.793 633.341 153.869 633.886H152.528C152.425 633.489 152.198 633.136 151.846 632.83C151.497 632.519 151.028 632.364 150.437 632.364C149.914 632.364 149.456 632.5 149.062 632.773C148.672 633.042 148.367 633.422 148.147 633.915C147.931 634.403 147.823 634.977 147.823 635.636C147.823 636.311 147.929 636.898 148.141 637.398C148.357 637.898 148.66 638.286 149.05 638.562C149.444 638.839 149.906 638.977 150.437 638.977C150.785 638.977 151.102 638.917 151.386 638.795C151.67 638.674 151.91 638.5 152.107 638.273C152.304 638.045 152.444 637.773 152.528 637.455H153.869C153.793 637.97 153.605 638.434 153.306 638.847C153.011 639.256 152.619 639.581 152.13 639.824C151.645 640.062 151.081 640.182 150.437 640.182ZM159.488 640.182C158.647 640.182 157.922 639.996 157.312 639.625C156.706 639.25 156.238 638.727 155.908 638.057C155.583 637.383 155.42 636.598 155.42 635.705C155.42 634.811 155.583 634.023 155.908 633.341C156.238 632.655 156.696 632.121 157.283 631.739C157.874 631.352 158.564 631.159 159.352 631.159C159.806 631.159 160.255 631.235 160.698 631.386C161.141 631.538 161.545 631.784 161.908 632.125C162.272 632.462 162.562 632.909 162.778 633.466C162.994 634.023 163.102 634.708 163.102 635.523V636.091H156.374V634.932H161.738C161.738 634.439 161.639 634 161.442 633.614C161.249 633.227 160.973 632.922 160.613 632.699C160.257 632.475 159.836 632.364 159.352 632.364C158.817 632.364 158.355 632.496 157.965 632.761C157.579 633.023 157.281 633.364 157.073 633.784C156.865 634.205 156.761 634.655 156.761 635.136V635.909C156.761 636.568 156.874 637.127 157.102 637.585C157.333 638.04 157.653 638.386 158.062 638.625C158.471 638.86 158.946 638.977 159.488 638.977C159.84 638.977 160.158 638.928 160.442 638.83C160.73 638.727 160.978 638.576 161.187 638.375C161.395 638.17 161.556 637.917 161.67 637.614L162.965 637.977C162.829 638.417 162.6 638.803 162.278 639.136C161.956 639.466 161.558 639.723 161.085 639.909C160.611 640.091 160.079 640.182 159.488 640.182ZM169.641 640V631.273H170.982V640H169.641ZM170.323 629.818C170.062 629.818 169.836 629.729 169.647 629.551C169.461 629.373 169.369 629.159 169.369 628.909C169.369 628.659 169.461 628.445 169.647 628.267C169.836 628.089 170.062 628 170.323 628C170.585 628 170.808 628.089 170.994 628.267C171.183 628.445 171.278 628.659 171.278 628.909C171.278 629.159 171.183 629.373 170.994 629.551C170.808 629.729 170.585 629.818 170.323 629.818ZM177.234 631.273V632.409H172.711V631.273H177.234ZM174.029 629.182H175.37V637.5C175.37 637.879 175.425 638.163 175.535 638.352C175.648 638.538 175.792 638.663 175.967 638.727C176.145 638.788 176.332 638.818 176.529 638.818C176.677 638.818 176.798 638.811 176.893 638.795C176.987 638.777 177.063 638.761 177.12 638.75L177.393 639.955C177.302 639.989 177.175 640.023 177.012 640.057C176.849 640.095 176.643 640.114 176.393 640.114C176.014 640.114 175.643 640.032 175.279 639.869C174.919 639.706 174.62 639.458 174.381 639.125C174.147 638.792 174.029 638.371 174.029 637.864V629.182ZM90.6918 650.273V651.409H85.9872V650.273H90.6918ZM87.3963 659V649.068C87.3963 648.568 87.5137 648.152 87.7486 647.818C87.9834 647.485 88.2884 647.235 88.6634 647.068C89.0384 646.902 89.4342 646.818 89.8509 646.818C90.1804 646.818 90.4493 646.845 90.6577 646.898C90.866 646.951 91.0213 647 91.1236 647.045L90.7372 648.205C90.669 648.182 90.5743 648.153 90.4531 648.119C90.3357 648.085 90.1804 648.068 89.9872 648.068C89.544 648.068 89.224 648.18 89.027 648.403C88.8338 648.627 88.7372 648.955 88.7372 649.386V659H87.3963ZM95.7571 659.182C94.9692 659.182 94.2779 658.994 93.6832 658.619C93.0923 658.244 92.6302 657.72 92.2969 657.045C91.9673 656.371 91.8026 655.583 91.8026 654.682C91.8026 653.773 91.9673 652.979 92.2969 652.301C92.6302 651.623 93.0923 651.097 93.6832 650.722C94.2779 650.347 94.9692 650.159 95.7571 650.159C96.545 650.159 97.2344 650.347 97.8253 650.722C98.42 651.097 98.8821 651.623 99.2116 652.301C99.545 652.979 99.7116 653.773 99.7116 654.682C99.7116 655.583 99.545 656.371 99.2116 657.045C98.8821 657.72 98.42 658.244 97.8253 658.619C97.2344 658.994 96.545 659.182 95.7571 659.182ZM95.7571 657.977C96.3556 657.977 96.848 657.824 97.2344 657.517C97.6207 657.21 97.9067 656.807 98.0923 656.307C98.2779 655.807 98.3707 655.265 98.3707 654.682C98.3707 654.098 98.2779 653.555 98.0923 653.051C97.9067 652.547 97.6207 652.14 97.2344 651.83C96.848 651.519 96.3556 651.364 95.7571 651.364C95.1586 651.364 94.6662 651.519 94.2798 651.83C93.8935 652.14 93.6075 652.547 93.4219 653.051C93.2363 653.555 93.1435 654.098 93.1435 654.682C93.1435 655.265 93.2363 655.807 93.4219 656.307C93.6075 656.807 93.8935 657.21 94.2798 657.517C94.6662 657.824 95.1586 657.977 95.7571 657.977ZM101.759 659V650.273H103.054V651.591H103.145C103.304 651.159 103.592 650.809 104.009 650.54C104.425 650.271 104.895 650.136 105.418 650.136C105.516 650.136 105.639 650.138 105.787 650.142C105.935 650.146 106.046 650.152 106.122 650.159V651.523C106.077 651.511 105.973 651.494 105.81 651.472C105.651 651.445 105.482 651.432 105.304 651.432C104.88 651.432 104.501 651.521 104.168 651.699C103.838 651.873 103.577 652.116 103.384 652.426C103.194 652.733 103.099 653.083 103.099 653.477V659H101.759ZM111.393 647.364H113.007L116.234 652.795H116.371L119.598 647.364H121.212L117.007 654.205V659H115.598V654.205L111.393 647.364ZM125.163 659.182C124.375 659.182 123.684 658.994 123.089 658.619C122.499 658.244 122.036 657.72 121.703 657.045C121.374 656.371 121.209 655.583 121.209 654.682C121.209 653.773 121.374 652.979 121.703 652.301C122.036 651.623 122.499 651.097 123.089 650.722C123.684 650.347 124.375 650.159 125.163 650.159C125.951 650.159 126.641 650.347 127.232 650.722C127.826 651.097 128.288 651.623 128.618 652.301C128.951 652.979 129.118 653.773 129.118 654.682C129.118 655.583 128.951 656.371 128.618 657.045C128.288 657.72 127.826 658.244 127.232 658.619C126.641 658.994 125.951 659.182 125.163 659.182ZM125.163 657.977C125.762 657.977 126.254 657.824 126.641 657.517C127.027 657.21 127.313 656.807 127.499 656.307C127.684 655.807 127.777 655.265 127.777 654.682C127.777 654.098 127.684 653.555 127.499 653.051C127.313 652.547 127.027 652.14 126.641 651.83C126.254 651.519 125.762 651.364 125.163 651.364C124.565 651.364 124.072 651.519 123.686 651.83C123.3 652.14 123.014 652.547 122.828 653.051C122.643 653.555 122.55 654.098 122.55 654.682C122.55 655.265 122.643 655.807 122.828 656.307C123.014 656.807 123.3 657.21 123.686 657.517C124.072 657.824 124.565 657.977 125.163 657.977ZM136.665 655.432V650.273H138.006V659H136.665V657.523H136.574C136.369 657.966 136.051 658.343 135.619 658.653C135.188 658.96 134.642 659.114 133.983 659.114C133.438 659.114 132.953 658.994 132.528 658.756C132.104 658.513 131.771 658.15 131.528 657.665C131.286 657.176 131.165 656.561 131.165 655.818V650.273H132.506V655.727C132.506 656.364 132.684 656.871 133.04 657.25C133.4 657.629 133.858 657.818 134.415 657.818C134.748 657.818 135.087 657.733 135.432 657.562C135.78 657.392 136.072 657.131 136.307 656.778C136.545 656.426 136.665 655.977 136.665 655.432ZM140.462 659V650.273H141.757V651.591H141.848C142.007 651.159 142.295 650.809 142.712 650.54C143.128 650.271 143.598 650.136 144.121 650.136C144.219 650.136 144.342 650.138 144.49 650.142C144.638 650.146 144.75 650.152 144.825 650.159V651.523C144.78 651.511 144.676 651.494 144.513 651.472C144.354 651.445 144.185 651.432 144.007 651.432C143.583 651.432 143.204 651.521 142.871 651.699C142.541 651.873 142.28 652.116 142.087 652.426C141.897 652.733 141.803 653.083 141.803 653.477V659H140.462ZM152.597 652.227L151.392 652.568C151.316 652.367 151.205 652.172 151.057 651.983C150.913 651.79 150.716 651.631 150.466 651.506C150.216 651.381 149.896 651.318 149.506 651.318C148.972 651.318 148.527 651.441 148.17 651.688C147.818 651.93 147.642 652.239 147.642 652.614C147.642 652.947 147.763 653.21 148.006 653.403C148.248 653.597 148.627 653.758 149.142 653.886L150.438 654.205C151.218 654.394 151.799 654.684 152.182 655.074C152.564 655.46 152.756 655.958 152.756 656.568C152.756 657.068 152.612 657.515 152.324 657.909C152.04 658.303 151.642 658.614 151.131 658.841C150.619 659.068 150.025 659.182 149.347 659.182C148.456 659.182 147.72 658.989 147.136 658.602C146.553 658.216 146.184 657.652 146.028 656.909L147.301 656.591C147.422 657.061 147.652 657.413 147.989 657.648C148.33 657.883 148.775 658 149.324 658C149.949 658 150.445 657.867 150.812 657.602C151.184 657.333 151.369 657.011 151.369 656.636C151.369 656.333 151.263 656.08 151.051 655.875C150.839 655.667 150.513 655.511 150.074 655.409L148.619 655.068C147.82 654.879 147.233 654.585 146.858 654.188C146.487 653.786 146.301 653.284 146.301 652.682C146.301 652.189 146.439 651.754 146.716 651.375C146.996 650.996 147.377 650.699 147.858 650.483C148.343 650.267 148.892 650.159 149.506 650.159C150.369 650.159 151.047 650.348 151.54 650.727C152.036 651.106 152.388 651.606 152.597 652.227ZM158.433 659.182C157.592 659.182 156.867 658.996 156.257 658.625C155.651 658.25 155.183 657.727 154.854 657.057C154.528 656.383 154.365 655.598 154.365 654.705C154.365 653.811 154.528 653.023 154.854 652.341C155.183 651.655 155.642 651.121 156.229 650.739C156.82 650.352 157.509 650.159 158.297 650.159C158.751 650.159 159.2 650.235 159.643 650.386C160.087 650.538 160.49 650.784 160.854 651.125C161.217 651.462 161.507 651.909 161.723 652.466C161.939 653.023 162.047 653.708 162.047 654.523V655.091H155.32V653.932H160.683C160.683 653.439 160.585 653 160.388 652.614C160.195 652.227 159.918 651.922 159.558 651.699C159.202 651.475 158.782 651.364 158.297 651.364C157.763 651.364 157.301 651.496 156.911 651.761C156.524 652.023 156.227 652.364 156.018 652.784C155.81 653.205 155.706 653.655 155.706 654.136V654.909C155.706 655.568 155.82 656.127 156.047 656.585C156.278 657.04 156.598 657.386 157.007 657.625C157.416 657.86 157.892 657.977 158.433 657.977C158.786 657.977 159.104 657.928 159.388 657.83C159.676 657.727 159.924 657.576 160.132 657.375C160.34 657.17 160.501 656.917 160.615 656.614L161.911 656.977C161.774 657.417 161.545 657.803 161.223 658.136C160.901 658.466 160.503 658.723 160.03 658.909C159.556 659.091 159.024 659.182 158.433 659.182ZM165.428 647.364V659H164.087V647.364H165.428ZM171.77 650.273V651.409H167.065V650.273H171.77ZM168.474 659V649.068C168.474 648.568 168.592 648.152 168.827 647.818C169.062 647.485 169.366 647.235 169.741 647.068C170.116 646.902 170.512 646.818 170.929 646.818C171.259 646.818 171.527 646.845 171.736 646.898C171.944 646.951 172.099 647 172.202 647.045L171.815 648.205C171.747 648.182 171.652 648.153 171.531 648.119C171.414 648.085 171.259 648.068 171.065 648.068C170.622 648.068 170.302 648.18 170.105 648.403C169.912 648.627 169.815 648.955 169.815 649.386V659H168.474Z" fill="black"/>
<defs>
<linearGradient id="paint0_linear_174_5" x1="222.5" y1="0" x2="222.5" y2="755" gradientUnits="userSpaceOnUse">
<stop stop-color="#DCD8FF"/>
<stop offset="1" stop-color="white"/>
</linearGradient>
<linearGradient id="paint1_linear_174_5" x1="31" y1="642" x2="229" y2="642.5" gradientUnits="userSpaceOnUse">
<stop stop-color="#15B1E4"/>
<stop offset="1" stop-color="#B800FF"/>
</linearGradient>
</defs>
</svg>
