<svg width="445" height="755" viewBox="0 0 445 755" fill="none" xmlns="http://www.w3.org/2000/svg">
<rect width="445" height="755" fill="url(#paint0_linear_173_4)"/>
<path d="M131.816 273.328L130.536 270.16H124.376L123.096 273.328H121.336L126.616 260.512H128.392L133.656 273.328H131.816ZM124.968 268.672H129.944L127.464 262.48L124.968 268.672ZM136.72 260.512V273.328H135.04V260.512H136.72ZM153.994 270.144V260H155.578V270.144H153.994ZM147.29 268.08C144.618 268.08 142.954 266.4 142.954 264.112C142.954 261.824 144.618 260.144 147.29 260.144C149.962 260.144 151.61 261.824 151.61 264.112C151.61 266.4 149.962 268.08 147.29 268.08ZM147.29 266.736C148.906 266.736 150.026 265.728 150.026 264.112C150.026 262.496 148.906 261.472 147.29 261.472C145.658 261.472 144.538 262.496 144.538 264.112C144.538 265.728 145.658 266.736 147.29 266.736ZM144.154 273.488V269.024H145.77V272.048H155.946V273.488H144.154ZM170.553 260.16V264.592H158.873V260.16H170.553ZM168.985 263.376V261.376H160.457V263.376H168.985ZM171.545 266.864H165.497V268.096H170.601V271.36H160.393V272.32H170.841V273.504H158.841V270.24H169.049V269.28H158.809V268.096H163.929V266.864H157.897V265.632H171.545V266.864ZM188.3 270.144V260H189.884V270.144H188.3ZM181.596 268.08C178.924 268.08 177.26 266.4 177.26 264.112C177.26 261.824 178.924 260.144 181.596 260.144C184.268 260.144 185.916 261.824 185.916 264.112C185.916 266.4 184.268 268.08 181.596 268.08ZM181.596 266.736C183.212 266.736 184.332 265.728 184.332 264.112C184.332 262.496 183.212 261.472 181.596 261.472C179.964 261.472 178.844 262.496 178.844 264.112C178.844 265.728 179.964 266.736 181.596 266.736ZM178.46 273.488V269.024H180.076V272.048H190.252V273.488H178.46ZM203.371 260H204.955V268.16H203.371V260ZM197.003 264.688C195.979 266.336 194.379 267.504 192.411 267.76V266.288C195.003 265.824 196.619 263.184 196.651 260.128L198.235 260.224C198.235 261.344 198.027 262.432 197.643 263.408L201.979 266.416L201.083 267.568L197.003 264.688ZM193.243 270.288V268.912H204.955V273.664H203.355V270.288H193.243ZM214.089 264.928C210.793 264.928 208.089 264.256 208.089 262.432C208.089 260.624 210.793 259.952 214.089 259.952C217.385 259.952 220.089 260.624 220.089 262.432C220.089 264.256 217.385 264.928 214.089 264.928ZM214.089 263.712C216.473 263.712 218.457 263.344 218.457 262.432C218.457 261.536 216.473 261.152 214.089 261.152C211.705 261.152 209.721 261.536 209.721 262.432C209.721 263.344 211.705 263.712 214.089 263.712ZM207.273 267.008V265.776H220.921V267.008H207.273ZM208.217 273.504V270.24H218.425V269.28H208.185V268.096H219.977V271.36H209.769V272.32H220.217V273.504H208.217ZM234.108 267.024H240.156V268.256H226.508V267.024H232.54V265.808H227.5V260.16H239.244V261.344H229.084V262.416H239.02V263.552H229.084V264.624H239.372V265.808H234.108V267.024ZM233.324 269.184C236.588 269.184 239.324 269.792 239.324 271.44C239.324 273.088 236.588 273.712 233.324 273.712C230.06 273.712 227.324 273.088 227.324 271.44C227.324 269.792 230.06 269.184 233.324 269.184ZM233.324 272.528C235.548 272.528 237.66 272.224 237.66 271.44C237.66 270.672 235.548 270.352 233.324 270.352C231.1 270.352 228.988 270.672 228.988 271.44C228.988 272.224 231.1 272.528 233.324 272.528ZM250.811 261.296V262.592H241.531V261.296H245.371V259.76H246.971V261.296H250.811ZM253.947 263.744H255.867V265.264H253.947V270.24H252.363V260H253.947V263.744ZM246.171 268.96C243.899 268.96 242.123 267.952 242.123 266.16C242.123 264.368 243.899 263.36 246.171 263.36C248.443 263.36 250.203 264.368 250.203 266.16C250.203 267.952 248.443 268.96 246.171 268.96ZM246.171 264.576C244.635 264.576 243.659 265.248 243.659 266.16C243.659 267.088 244.635 267.744 246.171 267.744C247.707 267.744 248.683 267.088 248.683 266.16C248.683 265.248 247.707 264.576 246.171 264.576ZM244.123 269.744V272.08H254.315V273.488H242.523V269.744H244.123ZM273.182 262.608H275.102V264.112H273.182V267.552H271.598V260H273.182V262.608ZM265.598 264.496C264.67 266.016 263.054 267.072 261.006 267.28V265.856C263.262 265.552 264.654 263.888 264.862 261.712H261.182V260.352H269.902V261.712H266.446C266.414 262.24 266.318 262.752 266.174 263.232L270.334 265.792L269.55 266.976L265.598 264.496ZM267.534 268C270.814 268 273.39 268.784 273.39 270.832C273.39 272.88 270.814 273.664 267.534 273.664C264.27 273.664 261.678 272.88 261.678 270.832C261.678 268.784 264.27 268 267.534 268ZM267.534 272.352C269.87 272.352 271.694 271.888 271.694 270.832C271.694 269.792 269.87 269.312 267.534 269.312C265.214 269.312 263.374 269.792 263.374 270.832C263.374 271.888 265.214 272.352 267.534 272.352ZM287.18 270.16V266.256H284.94V264.848H287.18V262.928H284.94V261.52H287.18V260H288.748V270.16H287.18ZM284.14 260.336V267.728H276.46V260.336H284.14ZM282.572 266.352V261.712H278.012V266.352H282.572ZM278.732 272.064H289.036V273.488H277.116V269.056H278.732V272.064ZM306.399 260H307.983V267.424H306.399V264.464H302.719C301.535 266.304 298.959 267.12 295.551 267.12V265.744C299.407 265.728 301.823 264.56 301.823 262.096V261.68H295.551V260.336H303.423V261.824C303.423 262.24 303.375 262.64 303.311 263.008H306.399V260ZM296.351 273.488V268.176H307.983V273.488H296.351ZM297.935 269.52V272.144H306.399V269.52H297.935ZM321.822 260H323.326V268.416H321.822V264.576H319.502V268.272H317.998V260.08H319.502V263.088H321.822V260ZM313.838 264.992C313.118 266.64 311.934 267.728 310.19 268.032V266.56C312.334 266 313.15 263.456 313.15 260.16L314.67 260.208C314.67 261.392 314.558 262.48 314.334 263.456L317.582 266.896L316.494 267.872L313.838 264.992ZM311.358 270.528V269.168H323.326V273.664H321.758V270.528H311.358Z" fill="black"/>
<path d="M112.512 530H114.016V543.664H112.512V536.992H110.288V543.424H108.784V530.08H110.288V535.504H112.512V530ZM102.848 541.44H104.608C105.776 541.44 106.96 541.248 107.792 540.912V542.304C106.976 542.656 105.664 542.848 104.432 542.848H101.296V530.496H107.2V531.904H102.848V541.44ZM130.239 535.536V537.056H128.319V543.664H126.735V530H128.319V535.536H130.239ZM121.855 530.4C121.839 532.528 121.663 534.432 121.311 536.08L125.615 541.904L124.335 542.816L120.815 537.936C119.839 540.912 118.191 542.688 116.063 542.848V541.248C118.799 540.816 120.223 536.08 120.239 530.336L121.855 530.4ZM145.309 535.408V536.928H143.421V543.664H141.837V530H143.421V535.408H145.309ZM136.285 538.688V541.36C138.093 541.36 139.741 541.2 140.701 540.784V542.272C139.725 542.672 138.109 542.848 136.237 542.848H131.021V541.36H134.717V538.688C132.717 538.352 131.357 536.736 131.357 534.528C131.357 532.032 133.085 530.288 135.501 530.288C137.901 530.288 139.677 532.032 139.677 534.528C139.677 536.736 138.285 538.352 136.285 538.688ZM132.909 534.528C132.909 536.112 133.901 537.328 135.501 537.328C137.085 537.328 138.125 536.112 138.125 534.528C138.125 532.928 137.085 531.712 135.501 531.712C133.901 531.712 132.909 532.928 132.909 534.528ZM164.544 535.536V537.056H162.624V543.664H161.04V530H162.624V535.536H164.544ZM155.888 531.952C155.872 533.552 155.728 535.008 155.472 536.288L159.856 541.792L158.608 542.736L155.008 538.08C154.08 540.912 152.48 542.608 150.416 542.848V541.28C152.832 540.832 154.24 537.024 154.288 531.952H150.736V530.496H159.328V531.952H155.888ZM179.615 533.024V534.528H177.695V538.16H176.111V530H177.695V533.024H179.615ZM173.791 530.336V537.408H165.807V530.336H173.791ZM172.223 536.048V531.68H167.375V536.048H172.223ZM166.143 540.288V538.912H177.695V543.664H176.095V540.288H166.143ZM194.686 535.536V537.056H192.846V543.664H191.31V530H192.846V535.536H194.686ZM180.702 531.936V530.496H184.622V533.584C184.622 538.72 183.614 542.208 180.702 542.336V540.864C182.51 540.624 183.086 537.872 183.086 533.728V531.936H180.702ZM185.326 531.936V530.496H189.214V533.792C189.214 539.28 187.902 542.672 184.894 542.816V541.344C186.814 541.12 187.678 538.48 187.678 533.936V531.936H185.326ZM206.636 530H208.22V543.664H206.636V530ZM201.308 531.952C201.292 533.536 201.132 534.992 200.876 536.272L205.34 541.792L204.092 542.736L200.412 538.048C199.468 540.912 197.836 542.608 195.772 542.848V541.28C198.204 540.832 199.644 537.024 199.708 531.952H196.092V530.496H204.812V531.952H201.308ZM225.871 540.144V530H227.455V540.144H225.871ZM219.167 538.08C216.495 538.08 214.831 536.4 214.831 534.112C214.831 531.824 216.495 530.144 219.167 530.144C221.839 530.144 223.487 531.824 223.487 534.112C223.487 536.4 221.839 538.08 219.167 538.08ZM219.167 536.736C220.783 536.736 221.903 535.728 221.903 534.112C221.903 532.496 220.783 531.472 219.167 531.472C217.535 531.472 216.415 532.496 216.415 534.112C216.415 535.728 217.535 536.736 219.167 536.736ZM216.031 543.488V539.024H217.647V542.048H227.823V543.488H216.031ZM244.062 532.88V534.384H242.142V538.16H240.558V530H242.142V532.88H244.062ZM234.334 534.688C233.342 536.336 231.774 537.504 229.806 537.76V536.288C232.398 535.824 233.918 533.184 233.95 530.128L235.534 530.224C235.534 531.344 235.342 532.432 234.958 533.408L239.246 536.432L238.35 537.568L234.334 534.688ZM230.59 540.288V538.912H242.142V543.664H240.542V540.288H230.59ZM250.38 529.968V532.16H254.012V533.568H245.148V532.16H248.764V529.968H250.38ZM259.132 535.536V537.056H257.212V543.664H255.628V530H257.212V535.536H259.132ZM249.58 534.656C251.804 534.656 253.372 536.32 253.372 538.832C253.372 541.344 251.804 543.008 249.58 543.008C247.356 543.008 245.772 541.344 245.772 538.832C245.772 536.32 247.356 534.656 249.58 534.656ZM249.58 541.632C250.844 541.632 251.836 540.576 251.836 538.832C251.836 537.088 250.844 536.032 249.58 536.032C248.3 536.032 247.308 537.088 247.308 538.832C247.308 540.576 248.3 541.632 249.58 541.632ZM260.891 535.296V530H262.491V533.888H272.715V535.296H260.891ZM259.915 538.208V536.8H273.563V538.208H259.915ZM260.859 543.504V539.424H262.475V542.096H272.859V543.504H260.859ZM288.462 534.032V537.536H286.958V530.08H288.462V532.576H290.782V530H292.286V537.984H290.782V534.032H288.462ZM282.83 534.592C282.126 536.192 280.926 537.264 279.15 537.584V536.144C281.31 535.536 282.11 533.184 282.11 530.16L283.63 530.208C283.63 531.264 283.534 532.24 283.326 533.12L286.574 536.144L285.534 537.184L282.83 534.592ZM286.43 538.256C289.694 538.256 292.494 538.944 292.494 540.96C292.494 542.976 289.694 543.664 286.43 543.664C283.166 543.664 280.366 542.976 280.366 540.96C280.366 538.944 283.166 538.256 286.43 538.256ZM286.43 542.368C288.67 542.368 290.814 542 290.814 540.96C290.814 539.92 288.67 539.552 286.43 539.552C284.19 539.552 282.046 539.92 282.046 540.96C282.046 542 284.19 542.368 286.43 542.368ZM305.501 537.68V533.632H302.205V532.224H305.501V530H307.085V537.68H305.501ZM298.797 534.448C297.821 536.032 296.253 537.136 294.253 537.408V535.968C296.813 535.488 298.317 533.04 298.349 530.128L299.933 530.224C299.933 531.28 299.757 532.272 299.421 533.168L303.581 536.016L302.701 537.136L298.797 534.448ZM301.293 538.128C304.605 538.128 307.197 538.896 307.197 540.896C307.197 542.896 304.605 543.664 301.293 543.664C297.981 543.664 295.389 542.896 295.389 540.896C295.389 538.896 297.981 538.128 301.293 538.128ZM301.293 542.368C303.645 542.368 305.517 541.904 305.517 540.896C305.517 539.888 303.645 539.424 301.293 539.424C298.941 539.424 297.069 539.888 297.069 540.896C297.069 541.904 298.941 542.368 301.293 542.368ZM318.139 531.136V532.368H309.323V531.136H313.115V529.76H314.715V531.136H318.139ZM320.587 538.336V536.64H318.523V535.296H320.587V533.712H318.523V532.368H320.587V530H322.155V538.336H320.587ZM313.915 538.048C311.627 538.048 309.979 537.184 309.979 535.584C309.979 533.984 311.627 533.12 313.915 533.12C316.203 533.12 317.835 533.984 317.835 535.584C317.835 537.184 316.203 538.048 313.915 538.048ZM313.915 534.32C312.315 534.32 311.483 534.864 311.483 535.584C311.483 536.304 312.315 536.864 313.915 536.864C315.499 536.864 316.331 536.304 316.331 535.584C316.331 534.864 315.499 534.32 313.915 534.32ZM316.411 538.704C319.707 538.704 322.299 539.344 322.299 541.184C322.299 543.008 319.707 543.664 316.411 543.664C313.099 543.664 310.491 543.008 310.491 541.184C310.491 539.344 313.099 538.704 316.411 538.704ZM316.411 542.432C318.763 542.432 320.635 542.064 320.635 541.184C320.635 540.304 318.763 539.936 316.411 539.936C314.043 539.936 312.171 540.304 312.171 541.184C312.171 542.064 314.043 542.432 316.411 542.432ZM338.462 543.328L337.182 540.16H331.022L329.742 543.328H327.982L333.262 530.512H335.038L340.302 543.328H338.462ZM331.614 538.672H336.59L334.11 532.48L331.614 538.672ZM342.423 529.952C343.063 529.952 343.527 530.416 343.527 531.04C343.527 531.664 343.063 532.128 342.423 532.128C341.799 532.128 341.335 531.664 341.335 531.04C341.335 530.416 341.799 529.952 342.423 529.952ZM343.255 543.344H341.607V534.176H343.255V543.344Z" fill="black"/>
<rect x="30" y="29" width="386" height="218" fill="#D9D9D9"/>
<rect x="30" y="299" width="386" height="218" fill="#D9D9D9"/>
<rect x="31.5" y="610.5" width="195" height="67" rx="33.5" fill="white" stroke="url(#paint1_linear_173_4)"/>
<path d="M99.778 639.406C99.76 640.648 99.688 641.8 99.544 642.826L103.252 648.946L101.83 649.792L99.112 645.184C98.374 648.028 97.024 649.666 95.062 649.954V648.262C97.06 647.812 97.996 644.338 98.068 639.406H95.224V637.786H98.068V635.464H99.778V637.786H102.568V639.406H99.778ZM108.076 635.5H109.768V650.872H108.076V635.5ZM104.098 641.728V635.59H105.79V650.602H104.098V643.402H101.956V641.728H104.098ZM122.42 636.796V638.182H111.98V636.796H116.3V635.23H118.1V636.796H122.42ZM124.634 635.5H126.416V644.644H124.634V641.746H122.222V640.162H124.634V635.5ZM117.2 644.536C114.698 644.536 112.718 643.546 112.718 641.782C112.718 640.036 114.698 639.028 117.2 639.028C119.702 639.028 121.664 640.036 121.664 641.782C121.664 643.546 119.702 644.536 117.2 644.536ZM117.2 640.36C115.49 640.36 114.41 640.972 114.41 641.782C114.41 642.592 115.49 643.222 117.2 643.222C118.91 643.222 119.972 642.592 119.972 641.782C119.972 640.972 118.91 640.36 117.2 640.36ZM113.33 650.674V645.508H126.362V650.674H113.33ZM115.094 646.93V649.252H124.598V646.93H115.094ZM135.127 635.464V637.93H139.213V639.514H129.241V637.93H133.309V635.464H135.127ZM144.973 641.728V643.438H142.813V650.872H141.031V635.5H142.813V641.728H144.973ZM134.227 640.738C136.729 640.738 138.493 642.61 138.493 645.436C138.493 648.262 136.729 650.134 134.227 650.134C131.725 650.134 129.943 648.262 129.943 645.436C129.943 642.61 131.725 640.738 134.227 640.738ZM134.227 648.586C135.649 648.586 136.765 647.398 136.765 645.436C136.765 643.474 135.649 642.286 134.227 642.286C132.787 642.286 131.671 643.474 131.671 645.436C131.671 647.398 132.787 648.586 134.227 648.586ZM158.417 650.872V635.5H160.199V650.872H158.417ZM146.573 649.918V648.226C150.767 648.208 153.287 644.95 153.287 639.802V637.696H146.573V636.058H155.105V639.766C155.105 645.922 151.829 649.918 146.573 649.918Z" fill="black"/>
<defs>
<linearGradient id="paint0_linear_173_4" x1="222.5" y1="0" x2="222.5" y2="755" gradientUnits="userSpaceOnUse">
<stop stop-color="#DCD8FF"/>
<stop offset="1" stop-color="white"/>
</linearGradient>
<linearGradient id="paint1_linear_173_4" x1="31" y1="642" x2="229" y2="642.5" gradientUnits="userSpaceOnUse">
<stop stop-color="#15B1E4"/>
<stop offset="1" stop-color="#B800FF"/>
</linearGradient>
</defs>
</svg>
