<svg width="445" height="755" viewBox="0 0 445 755" fill="none" xmlns="http://www.w3.org/2000/svg">
<rect x="0.25" y="0.25" width="444.5" height="754.5" fill="url(#paint0_linear_174_11)" fill-opacity="0.7" stroke="white" stroke-width="0.5"/>
<path d="M104.16 273.328L109.376 261.984H102.528V260.512H111.312V261.632L105.936 273.328H104.16ZM112.594 271.328L111.794 274.944H110.482L110.994 271.328H112.594ZM118.421 273.616C115.733 273.616 113.877 272.112 113.877 269.968C113.877 268.032 115.413 266.96 116.565 266.688C115.573 266.384 114.325 265.344 114.325 263.712C114.325 261.792 115.973 260.208 118.421 260.208C120.853 260.208 122.501 261.808 122.501 263.712C122.501 265.344 121.253 266.384 120.261 266.688C121.429 266.96 122.949 268.032 122.949 269.968C122.949 272.112 121.093 273.616 118.421 273.616ZM118.421 265.936C119.877 265.936 120.901 264.976 120.901 263.76C120.901 262.576 119.925 261.616 118.421 261.616C116.917 261.616 115.941 262.544 115.941 263.728C115.941 264.96 116.965 265.936 118.421 265.936ZM118.421 272.208C120.181 272.208 121.317 271.2 121.317 269.872C121.317 268.528 120.085 267.488 118.421 267.488C116.741 267.488 115.509 268.528 115.509 269.872C115.509 271.2 116.645 272.208 118.421 272.208ZM128.905 273.616C126.201 273.616 124.169 271.392 124.169 266.912C124.169 262.432 126.201 260.208 128.905 260.208C131.593 260.208 133.625 262.432 133.625 266.912C133.625 271.392 131.593 273.616 128.905 273.616ZM128.905 272.128C130.633 272.128 132.009 270.4 132.009 266.912C132.009 263.44 130.633 261.696 128.905 261.696C127.161 261.696 125.785 263.44 125.785 266.912C125.785 270.4 127.161 272.128 128.905 272.128ZM146.302 270.192V265.552H141.374V264.256H146.302V262.736H141.374V261.44H146.302V260H147.87V270.192H146.302ZM144.638 268.032C143.758 268.384 142.126 268.544 140.238 268.544H135.566V260.256H137.166V267.2H140.35C142.158 267.2 143.726 267.04 144.638 266.704V268.032ZM137.854 272.08H148.158V273.488H136.238V269.664H137.854V272.08ZM161.709 260H163.213V273.664H161.709V266.992H159.485V273.424H157.981V260.08H159.485V265.504H161.709V260ZM152.045 271.44H153.805C154.973 271.44 156.157 271.248 156.989 270.912V272.304C156.173 272.656 154.861 272.848 153.629 272.848H150.493V260.496H156.397V261.904H152.045V271.44ZM180.608 267.552V265.536H178.368V264.16H180.608V262.576H178.368V261.2H180.608V260H182.176V267.552H180.608ZM177.568 260.336V266.768H169.888V260.336H177.568ZM176 265.408V261.68H171.44V265.408H176ZM176.384 268C179.696 268 182.304 268.784 182.304 270.832C182.304 272.88 179.696 273.664 176.384 273.664C173.072 273.664 170.48 272.88 170.48 270.832C170.48 268.784 173.072 268 176.384 268ZM176.384 272.352C178.736 272.352 180.608 271.888 180.608 270.832C180.608 269.792 178.736 269.312 176.384 269.312C174.032 269.312 172.16 269.792 172.16 270.832C172.16 271.888 174.032 272.352 176.384 272.352ZM198.671 262.896V264.4H196.751V268.16H195.167V260H196.751V262.896H198.671ZM189.087 264.96C188.143 266.512 186.559 267.552 184.575 267.76V266.32C186.863 265.984 188.271 264.208 188.431 261.712H184.751V260.352H193.471V261.712H190.015C189.999 262.4 189.871 263.04 189.679 263.648L193.871 266.464L193.023 267.648L189.087 264.96ZM185.199 270.288V268.912H196.751V273.664H195.151V270.288H185.199ZM200.349 268.56V260.496H212.205V261.968H201.965V267.088H212.365V268.56H200.349ZM199.453 273.008V271.52H213.101V273.008H199.453ZM228.812 265.536V267.056H226.892V273.664H225.308V260H226.892V265.536H228.812ZM216.732 271.392H220.588C221.884 271.392 223.292 271.152 224.124 270.752V272.192C223.292 272.608 221.868 272.848 220.556 272.848H215.164V265.84H221.132V261.952H215.132V260.496H222.716V267.296H216.732V271.392ZM243.882 265.536V267.056H241.962V273.664H240.378V260H241.962V265.536H243.882ZM230.234 272.848V260.496H237.834V272.848H230.234ZM231.818 261.968V271.376H236.25V261.968H231.818ZM258.953 265.536V267.056H257.033V273.664H255.449V260H257.033V265.536H258.953ZM245.161 261.952V260.496H252.601V263.792C252.601 269.232 249.801 272.816 245.161 272.816V271.312C248.873 271.296 250.985 268.4 250.985 263.824V261.952H245.161ZM275.052 269.504V261.952H264.716V260.48H276.668V269.504H275.052ZM272.428 271.552H277.548V273.008H263.9V271.552H266.556V266.064H268.14V271.552H270.828V266.064H272.428V271.552ZM290.603 260H292.107V273.664H290.603V267.008H288.379V273.424H286.875V260.08H288.379V265.504H290.603V260ZM283.339 261.936C283.323 263.472 283.243 264.848 283.099 266.064L286.427 271.92L285.131 272.656L282.699 268.24C282.027 271.008 280.827 272.544 279.083 272.848V271.296C280.891 270.8 281.787 267.184 281.819 261.936H279.291V260.496H285.723V261.936H283.339ZM301.641 271.552H307.689V273.008H294.041V271.552H300.025V268.976H294.953V264.048H305.225V261.904H294.953V260.496H306.793V265.408H296.537V267.568H307.001V268.976H301.641V271.552ZM324.572 270.144V266.272H322.332V264.864H324.572V262.96H322.332V261.552H324.572V260H326.14V270.144H324.572ZM321.628 260.24V267.936H313.836V260.24H315.388V262.592H320.076V260.24H321.628ZM315.388 266.576H320.076V263.936H315.388V266.576ZM316.124 272.048H326.428V273.488H314.508V269.12H316.124V272.048ZM341.099 260V270.144H339.515V260H341.099ZM333.147 264.88C332.123 266.592 330.523 267.824 328.555 268.08V266.592C331.147 266.128 332.747 263.312 332.779 260.128L334.363 260.224C334.363 261.392 334.155 262.528 333.771 263.552L338.155 266.784L337.211 267.936L333.147 264.88ZM331.115 272.08H341.467V273.488H329.515V269.136H331.115V272.08Z" fill="black"/>
<path d="M123.176 530H124.744V543.664H123.176V539.856H120.872L120.984 538.368H123.176V534.912H120.984L120.872 533.424H123.176V530ZM116.44 530.32C118.824 530.32 120.472 532.336 120.472 536.672C120.472 541.008 118.824 543.024 116.44 543.024C114.04 543.024 112.392 541.008 112.392 536.672C112.392 532.336 114.04 530.32 116.44 530.32ZM116.44 541.568C117.848 541.568 118.888 540.144 118.888 536.672C118.888 533.216 117.848 531.776 116.44 531.776C115.016 531.776 113.96 533.216 113.96 536.672C113.96 540.144 115.016 541.568 116.44 541.568ZM138.167 543.664V530H139.751V543.664H138.167ZM131.639 538.896C129.175 538.896 127.415 537.136 127.415 534.592C127.415 532.048 129.175 530.288 131.639 530.288C134.087 530.288 135.863 532.048 135.863 534.592C135.863 537.136 134.087 538.896 131.639 538.896ZM131.639 537.456C133.255 537.456 134.311 536.224 134.311 534.592C134.311 532.96 133.255 531.712 131.639 531.712C130.007 531.712 128.967 532.96 128.967 534.592C128.967 536.224 130.007 537.456 131.639 537.456ZM126.951 542.848V541.36H132.535C134.407 541.36 136.087 541.152 137.015 540.72V542.192C136.103 542.608 134.407 542.848 132.439 542.848H126.951ZM149.637 541.536H155.669V543.008H142.021V541.536H148.021V538.224H142.917V530.496H154.773V531.968H144.533V536.752H154.933V538.224H149.637V541.536ZM172.536 537.68V533.632H169.24V532.224H172.536V530H174.12V537.68H172.536ZM165.832 534.448C164.856 536.032 163.288 537.136 161.288 537.408V535.968C163.848 535.488 165.352 533.04 165.384 530.128L166.968 530.224C166.968 531.28 166.792 532.272 166.456 533.168L170.616 536.016L169.736 537.136L165.832 534.448ZM168.328 538.128C171.64 538.128 174.232 538.896 174.232 540.896C174.232 542.896 171.64 543.664 168.328 543.664C165.016 543.664 162.424 542.896 162.424 540.896C162.424 538.896 165.016 538.128 168.328 538.128ZM168.328 542.368C170.68 542.368 172.552 541.904 172.552 540.896C172.552 539.888 170.68 539.424 168.328 539.424C165.976 539.424 164.104 539.888 164.104 540.896C164.104 541.904 165.976 542.368 168.328 542.368ZM183.943 541.52H189.975V543.008H176.327V541.52H182.327V538.24H177.223V530.496H189.063V538.24H183.943V541.52ZM178.807 531.984V536.768H187.479V531.984H178.807ZM202.694 537.792V535.648H200.454V534.288H202.694V532.592H200.454V531.232H202.694V530H204.262V537.792H202.694ZM199.75 530.24V536.992H191.958V530.24H193.51V532.192H198.214V530.24H199.75ZM193.51 535.68H198.214V533.472H193.51V535.68ZM198.47 538.224C201.782 538.224 204.374 538.976 204.374 540.944C204.374 542.912 201.782 543.664 198.47 543.664C195.158 543.664 192.566 542.912 192.566 540.944C192.566 538.976 195.158 538.224 198.47 538.224ZM198.47 542.368C200.822 542.368 202.678 541.936 202.678 540.944C202.678 539.968 200.822 539.52 198.47 539.52C196.118 539.52 194.262 539.968 194.262 540.944C194.262 541.936 196.118 542.368 198.47 542.368ZM213.604 538.576H217.748V530H219.332V540.704H217.748V539.856H213.604V538.576ZM211.332 535.36C208.964 535.36 207.284 534.416 207.284 532.688C207.284 530.976 208.964 530.032 211.332 530.032C213.716 530.032 215.38 530.976 215.38 532.688C215.38 534.416 213.716 535.36 211.332 535.36ZM211.332 531.28C209.892 531.28 208.836 531.744 208.836 532.688C208.836 533.632 209.892 534.112 211.332 534.112C212.772 534.112 213.828 533.632 213.828 532.688C213.828 531.744 212.772 531.28 211.332 531.28ZM210.244 540.08V537.632H206.468V536.32H212.116C213.988 536.32 215.652 536.176 216.596 535.776V537.088C215.732 537.472 214.02 537.632 212.068 537.632H211.828V540.08H210.244ZM209.316 542.144H219.684V543.488H207.732V539.344H209.316V542.144ZM236.903 530H238.487V543.664H236.903V530ZM231.191 541.36H231.287C233.127 541.36 234.791 541.2 235.767 540.784V542.272C234.791 542.672 233.175 542.848 231.303 542.848H225.703V541.36H229.607V537.568H226.503V530.448H228.087V536.096H234.599V537.568H231.191V541.36ZM248.486 534.736C247.35 536.896 244.694 538 241.206 538V536.576C245.03 536.56 247.478 535.024 247.478 532.368V531.728H241.206V530.336H249.078V532.16C249.078 532.544 249.046 532.912 248.982 533.264H252.054V530H253.638V540.16H252.054V534.736H248.486ZM243.622 542.064H253.926V543.488H242.006V539.136H243.622V542.064ZM268.212 532.8H270.132V534.32H268.212V537.472H266.628V530H268.212V532.8ZM264.068 531.872C264.068 535.632 260.932 537.232 256.196 537.232V535.856C260.052 535.84 262.468 534.624 262.468 532.144V531.68H256.196V530.336H264.068V531.872ZM262.564 537.936C265.844 537.936 268.42 538.704 268.42 540.8C268.42 542.896 265.844 543.664 262.564 543.664C259.3 543.664 256.708 542.896 256.708 540.8C256.708 538.704 259.3 537.936 262.564 537.936ZM262.564 542.336C264.9 542.336 266.74 541.888 266.74 540.8C266.74 539.728 264.9 539.248 262.564 539.248C260.244 539.248 258.388 539.728 258.388 540.8C258.388 541.888 260.244 542.336 262.564 542.336ZM284.051 530V540.256H282.547V530H284.051ZM279.171 540.016V533.984H276.771V532.528H279.171V530.08H280.659V540.016H279.171ZM274.451 535.392C273.731 536.976 272.563 538.064 270.915 538.352V536.864C273.075 536.272 273.875 533.504 273.875 530.16L275.395 530.208C275.395 531.552 275.251 532.8 274.979 533.888L278.291 537.184L277.251 538.208L274.451 535.392ZM273.811 542.048H284.387V543.488H272.195V539.248H273.811V542.048ZM297.25 530H298.85V543.664H297.25V537.056H294.722V535.568H297.25V530ZM288.29 541.392H291.938C293.234 541.392 294.642 541.136 295.474 540.736V542.192C294.642 542.608 293.25 542.848 291.938 542.848H286.706V530.496H294.514V531.952H288.29V535.84H293.746V537.296H288.29V541.392ZM319.509 532.8V534.32H317.589V537.424H316.005V530H317.589V532.8H319.509ZM313.445 531.824C313.445 535.552 310.309 537.04 305.573 537.04V535.664C309.429 535.648 311.845 534.544 311.845 532.096V531.68H305.573V530.336H313.445V531.824ZM306.165 543.488V538.176H317.589V543.488H306.165ZM307.749 539.52V542.144H316.005V539.52H307.749ZM326.963 533.872C325.443 535.936 323.107 537.232 320.611 537.248V535.744C323.555 535.76 326.339 533.136 326.931 529.904L328.563 530.16C328.403 531.04 328.115 531.888 327.731 532.656L333.587 535.904L332.851 537.232L326.963 533.872ZM333.939 538.688V540.16H327.907V543.984H326.291V540.16H320.291V538.688H333.939Z" fill="black"/>
<rect x="30" y="29" width="386" height="218" fill="#D9D9D9"/>
<rect x="30" y="299" width="386" height="218" fill="#D9D9D9"/>
<rect x="125.5" y="612.5" width="195" height="67" rx="33.5" fill="white" stroke="url(#paint1_linear_174_11)"/>
<path d="M193.778 641.406C193.76 642.648 193.688 643.8 193.544 644.826L197.252 650.946L195.83 651.792L193.112 647.184C192.374 650.028 191.024 651.666 189.062 651.954V650.262C191.06 649.812 191.996 646.338 192.068 641.406H189.224V639.786H192.068V637.464H193.778V639.786H196.568V641.406H193.778ZM202.076 637.5H203.768V652.872H202.076V637.5ZM198.098 643.728V637.59H199.79V652.602H198.098V645.402H195.956V643.728H198.098ZM216.42 638.796V640.182H205.98V638.796H210.3V637.23H212.1V638.796H216.42ZM218.634 637.5H220.416V646.644H218.634V643.746H216.222V642.162H218.634V637.5ZM211.2 646.536C208.698 646.536 206.718 645.546 206.718 643.782C206.718 642.036 208.698 641.028 211.2 641.028C213.702 641.028 215.664 642.036 215.664 643.782C215.664 645.546 213.702 646.536 211.2 646.536ZM211.2 642.36C209.49 642.36 208.41 642.972 208.41 643.782C208.41 644.592 209.49 645.222 211.2 645.222C212.91 645.222 213.972 644.592 213.972 643.782C213.972 642.972 212.91 642.36 211.2 642.36ZM207.33 652.674V647.508H220.362V652.674H207.33ZM209.094 648.93V651.252H218.598V648.93H209.094ZM229.127 637.464V639.93H233.213V641.514H223.241V639.93H227.309V637.464H229.127ZM238.973 643.728V645.438H236.813V652.872H235.031V637.5H236.813V643.728H238.973ZM228.227 642.738C230.729 642.738 232.493 644.61 232.493 647.436C232.493 650.262 230.729 652.134 228.227 652.134C225.725 652.134 223.943 650.262 223.943 647.436C223.943 644.61 225.725 642.738 228.227 642.738ZM228.227 650.586C229.649 650.586 230.765 649.398 230.765 647.436C230.765 645.474 229.649 644.286 228.227 644.286C226.787 644.286 225.671 645.474 225.671 647.436C225.671 649.398 226.787 650.586 228.227 650.586ZM252.417 652.872V637.5H254.199V652.872H252.417ZM240.573 651.918V650.226C244.767 650.208 247.287 646.95 247.287 641.802V639.696H240.573V638.058H249.105V641.766C249.105 647.922 245.829 651.918 240.573 651.918Z" fill="black"/>
<defs>
<linearGradient id="paint0_linear_174_11" x1="222.5" y1="0" x2="222.5" y2="755" gradientUnits="userSpaceOnUse">
<stop stop-color="white"/>
<stop offset="1" stop-color="white" stop-opacity="0"/>
</linearGradient>
<linearGradient id="paint1_linear_174_11" x1="125" y1="644" x2="323" y2="644.5" gradientUnits="userSpaceOnUse">
<stop stop-color="#15B1E4"/>
<stop offset="1" stop-color="#B800FF"/>
</linearGradient>
</defs>
</svg>
