<svg width="445" height="755" viewBox="0 0 445 755" fill="none" xmlns="http://www.w3.org/2000/svg">
<rect x="0.25" y="0.25" width="444.5" height="754.5" fill="url(#paint0_linear_67_4)" fill-opacity="0.7" stroke="white" stroke-width="0.5"/>
<path d="M107.746 259.512H109.426V266.808C109.426 269.384 110.914 271.096 113.346 271.096C115.778 271.096 117.25 269.384 117.25 266.808V259.512H118.93V266.808C118.93 270.328 116.738 272.632 113.346 272.632C109.938 272.632 107.746 270.328 107.746 266.808V259.512ZM121.1 263.176H122.748V264.568C123.132 263.896 124.172 262.952 125.852 262.952C128.012 262.952 129.532 264.504 129.532 266.968V272.328H127.884V267.256C127.884 265.4 126.988 264.392 125.5 264.392C123.9 264.392 122.748 265.896 122.748 267.592V272.328H121.1V263.176ZM133.194 272.328H131.546V259.112H133.194V272.328ZM139.668 262.952C142.372 262.952 144.34 265 144.34 267.752C144.34 270.504 142.372 272.552 139.668 272.552C136.948 272.552 134.98 270.504 134.98 267.752C134.98 265 136.948 262.952 139.668 262.952ZM139.668 264.408C137.844 264.408 136.596 265.848 136.596 267.752C136.596 269.656 137.844 271.096 139.668 271.096C141.476 271.096 142.724 269.656 142.724 267.752C142.724 265.848 141.476 264.408 139.668 264.408ZM154.653 269.224C154.157 271.208 152.477 272.552 150.349 272.552C147.629 272.552 145.645 270.504 145.645 267.752C145.645 265 147.613 262.952 150.317 262.952C152.477 262.952 154.173 264.344 154.621 266.248H152.941C152.573 265.16 151.613 264.408 150.317 264.408C148.493 264.408 147.261 265.848 147.261 267.752C147.261 269.656 148.493 271.096 150.317 271.096C151.613 271.096 152.605 270.328 152.973 269.224H154.653ZM162.832 272.328L159.712 268.136L157.904 270.04V272.328H156.256V259.112H157.904V268.072L162.464 263.176H164.4L160.752 267.032L164.784 272.328H162.832ZM166.691 258.952C167.331 258.952 167.795 259.416 167.795 260.04C167.795 260.664 167.331 261.128 166.691 261.128C166.067 261.128 165.603 260.664 165.603 260.04C165.603 259.416 166.067 258.952 166.691 258.952ZM167.523 272.344H165.875V263.176H167.523V272.344ZM169.79 263.176H171.438V264.568C171.822 263.896 172.862 262.952 174.542 262.952C176.702 262.952 178.222 264.504 178.222 266.968V272.328H176.574V267.256C176.574 265.4 175.678 264.392 174.19 264.392C172.59 264.392 171.438 265.896 171.438 267.592V272.328H169.79V263.176ZM184.715 276.44C182.091 276.44 180.699 274.92 180.379 273.192H182.059C182.251 274.168 183.067 275.016 184.715 275.016C186.379 275.016 187.531 273.896 187.531 272.104V270.84C187.067 271.624 185.947 272.424 184.283 272.424C181.691 272.424 179.755 270.392 179.755 267.704C179.755 265 181.691 262.952 184.283 262.952C185.947 262.952 187.067 263.752 187.531 264.536V263.176H189.179V272.12C189.179 274.648 187.339 276.44 184.715 276.44ZM184.427 271C186.283 271 187.563 269.576 187.563 267.704C187.563 265.832 186.283 264.408 184.427 264.408C182.587 264.408 181.371 265.832 181.371 267.704C181.371 269.576 182.587 271 184.427 271ZM200.411 263.176V264.632H198.379V272.328H196.731V264.632H194.699V263.176H196.731V260.392H198.379V263.176H200.411ZM201.791 259.112H203.439V264.568C203.823 263.896 204.863 262.952 206.543 262.952C208.703 262.952 210.223 264.504 210.223 266.968V272.328H208.575V267.256C208.575 265.4 207.679 264.392 206.191 264.392C204.591 264.392 203.439 265.896 203.439 267.592V272.328H201.791V259.112ZM216.396 272.552C213.724 272.552 211.804 270.504 211.804 267.752C211.804 265 213.724 262.952 216.396 262.952C219.068 262.952 220.972 265 220.972 267.752C220.972 267.96 220.972 268.2 220.94 268.424H213.452C213.628 269.992 214.764 271.16 216.396 271.16C217.644 271.16 218.62 270.584 218.956 269.832H220.636C220.14 271.416 218.492 272.552 216.396 272.552ZM219.356 267.08C219.164 265.48 218.044 264.344 216.396 264.344C214.748 264.344 213.628 265.496 213.452 267.08H219.356ZM226.989 259.512H231.533C234.861 259.512 236.813 261.288 236.813 263.96C236.813 266.632 234.861 268.408 231.533 268.408H228.669V272.328H226.989V259.512ZM231.405 266.888C233.725 266.888 235.133 265.864 235.133 263.96C235.133 262.056 233.725 261.032 231.405 261.032H228.669V266.888H231.405ZM242.246 272.552C239.654 272.552 237.718 270.488 237.718 267.752C237.718 265.016 239.654 262.952 242.246 262.952C243.91 262.952 245.03 263.752 245.494 264.536V263.176H247.142V272.328H245.494V270.968C245.03 271.752 243.91 272.552 242.246 272.552ZM242.39 271.096C244.246 271.096 245.526 269.656 245.526 267.752C245.526 265.848 244.246 264.408 242.39 264.408C240.55 264.408 239.334 265.848 239.334 267.752C239.334 269.656 240.55 271.096 242.39 271.096ZM253.01 262.952C255.25 262.952 256.93 264.056 257.01 265.608H255.394C255.33 264.84 254.29 264.296 252.962 264.296C251.634 264.296 250.674 264.824 250.674 265.512C250.674 266.264 251.25 266.728 253.49 267.032C256.242 267.4 257.218 268.296 257.218 269.72C257.218 271.496 255.346 272.552 253.074 272.552C250.626 272.552 249.058 271.368 248.946 269.768H250.562C250.658 270.488 251.49 271.208 253.122 271.208C254.53 271.208 255.602 270.632 255.602 269.816C255.602 269.064 254.898 268.632 252.706 268.344C250.21 268.008 249.058 267.208 249.058 265.608C249.058 263.992 250.77 262.952 253.01 262.952ZM263.687 263.176V264.632H261.655V272.328H260.007V264.632H257.975V263.176H260.007V260.392H261.655V263.176H263.687ZM265.835 261.624C266.459 261.624 266.939 262.12 266.939 262.744C266.939 263.368 266.459 263.864 265.835 263.864C265.195 263.864 264.715 263.368 264.715 262.744C264.715 262.12 265.195 261.624 265.835 261.624ZM265.835 267.992C266.459 267.992 266.939 268.472 266.939 269.112C266.939 269.736 266.459 270.216 265.835 270.216C265.195 270.216 264.715 269.736 264.715 269.112C264.715 268.472 265.195 267.992 265.835 267.992ZM272.924 259.512H274.604V266.808C274.604 269.384 276.092 271.096 278.524 271.096C280.956 271.096 282.428 269.384 282.428 266.808V259.512H284.108V266.808C284.108 270.328 281.916 272.632 278.524 272.632C275.116 272.632 272.924 270.328 272.924 266.808V259.512ZM291.078 263.176V264.632H289.046V272.328H287.398V264.632H285.366V263.176H287.398V260.392H289.046V263.176H291.078ZM293.275 258.952C293.915 258.952 294.379 259.416 294.379 260.04C294.379 260.664 293.915 261.128 293.275 261.128C292.651 261.128 292.187 260.664 292.187 260.04C292.187 259.416 292.651 258.952 293.275 258.952ZM294.107 272.344H292.459V263.176H294.107V272.344ZM298.021 272.328H296.373V259.112H298.021V272.328ZM301.103 258.952C301.743 258.952 302.207 259.416 302.207 260.04C302.207 260.664 301.743 261.128 301.103 261.128C300.479 261.128 300.015 260.664 300.015 260.04C300.015 259.416 300.479 258.952 301.103 258.952ZM301.935 272.344H300.287V263.176H301.935V272.344ZM305.802 270.888H311.834V272.328H303.594V271.176L309.338 264.616H303.802V263.176H311.546V264.328L305.802 270.888ZM313.994 258.952C314.634 258.952 315.098 259.416 315.098 260.04C315.098 260.664 314.634 261.128 313.994 261.128C313.37 261.128 312.906 260.664 312.906 260.04C312.906 259.416 313.37 258.952 313.994 258.952ZM314.826 272.344H313.178V263.176H314.826V272.344ZM317.093 263.176H318.741V264.568C319.125 263.896 320.165 262.952 321.845 262.952C324.005 262.952 325.525 264.504 325.525 266.968V272.328H323.877V267.256C323.877 265.4 322.981 264.392 321.493 264.392C319.893 264.392 318.741 265.896 318.741 267.592V272.328H317.093V263.176ZM332.018 276.44C329.394 276.44 328.002 274.92 327.682 273.192H329.362C329.554 274.168 330.37 275.016 332.018 275.016C333.682 275.016 334.834 273.896 334.834 272.104V270.84C334.37 271.624 333.25 272.424 331.586 272.424C328.994 272.424 327.058 270.392 327.058 267.704C327.058 265 328.994 262.952 331.586 262.952C333.25 262.952 334.37 263.752 334.834 264.536V263.176H336.482V272.12C336.482 274.648 334.642 276.44 332.018 276.44ZM331.73 271C333.586 271 334.866 269.576 334.866 267.704C334.866 265.832 333.586 264.408 331.73 264.408C329.89 264.408 328.674 265.832 328.674 267.704C328.674 269.576 329.89 271 331.73 271ZM75.7366 281.512H77.4166V294.328H75.7366V288.536H68.2966V294.328H66.6166V281.512H68.2966V287H75.7366V281.512ZM80.5795 280.952C81.2195 280.952 81.6835 281.416 81.6835 282.04C81.6835 282.664 81.2195 283.128 80.5795 283.128C79.9555 283.128 79.4915 282.664 79.4915 282.04C79.4915 281.416 79.9555 280.952 80.5795 280.952ZM81.4115 294.344H79.7635V285.176H81.4115V294.344ZM87.2779 284.952C89.5179 284.952 91.1979 286.056 91.2779 287.608H89.6619C89.5979 286.84 88.5579 286.296 87.2299 286.296C85.9019 286.296 84.9419 286.824 84.9419 287.512C84.9419 288.264 85.5179 288.728 87.7579 289.032C90.5099 289.4 91.4859 290.296 91.4859 291.72C91.4859 293.496 89.6139 294.552 87.3419 294.552C84.8939 294.552 83.3259 293.368 83.2139 291.768H84.8299C84.9259 292.488 85.7579 293.208 87.3899 293.208C88.7979 293.208 89.8699 292.632 89.8699 291.816C89.8699 291.064 89.1659 290.632 86.9739 290.344C84.4779 290.008 83.3259 289.208 83.3259 287.608C83.3259 285.992 85.0379 284.952 87.2779 284.952ZM97.9548 285.176V286.632H95.9228V294.328H94.2748V286.632H92.2428V285.176H94.2748V282.392H95.9228V285.176H97.9548ZM103.246 284.952C105.95 284.952 107.918 287 107.918 289.752C107.918 292.504 105.95 294.552 103.246 294.552C100.526 294.552 98.5579 292.504 98.5579 289.752C98.5579 287 100.526 284.952 103.246 284.952ZM103.246 286.408C101.422 286.408 100.174 287.848 100.174 289.752C100.174 291.656 101.422 293.096 103.246 293.096C105.054 293.096 106.302 291.656 106.302 289.752C106.302 287.848 105.054 286.408 103.246 286.408ZM109.702 285.176H111.35V286.584C111.75 285.896 112.854 284.952 114.646 284.952C115.206 284.952 115.574 285 115.894 285.112V286.68C115.542 286.52 115.094 286.424 114.534 286.424C112.662 286.424 111.35 287.928 111.35 289.592V294.328H109.702V285.176ZM118.026 280.952C118.666 280.952 119.13 281.416 119.13 282.04C119.13 282.664 118.666 283.128 118.026 283.128C117.402 283.128 116.938 282.664 116.938 282.04C116.938 281.416 117.402 280.952 118.026 280.952ZM118.858 294.344H117.21V285.176H118.858V294.344ZM129.653 291.224C129.157 293.208 127.477 294.552 125.349 294.552C122.629 294.552 120.645 292.504 120.645 289.752C120.645 287 122.613 284.952 125.317 284.952C127.477 284.952 129.173 286.344 129.621 288.248H127.941C127.573 287.16 126.613 286.408 125.317 286.408C123.493 286.408 122.261 287.848 122.261 289.752C122.261 291.656 123.493 293.096 125.317 293.096C126.613 293.096 127.605 292.328 127.973 291.224H129.653ZM135.4 294.552C132.808 294.552 130.872 292.488 130.872 289.752C130.872 287.016 132.808 284.952 135.4 284.952C137.064 284.952 138.184 285.752 138.648 286.536V285.176H140.296V294.328H138.648V292.968C138.184 293.752 137.064 294.552 135.4 294.552ZM135.544 293.096C137.4 293.096 138.68 291.656 138.68 289.752C138.68 287.848 137.4 286.408 135.544 286.408C133.704 286.408 132.488 287.848 132.488 289.752C132.488 291.656 133.704 293.096 135.544 293.096ZM144.211 294.328H142.563V281.112H144.211V294.328ZM150.722 281.512H152.29L160.05 291.496V281.432H161.746V294.248H160.162L152.402 284.264V294.328H150.722V281.512ZM168.199 294.552C165.527 294.552 163.607 292.504 163.607 289.752C163.607 287 165.527 284.952 168.199 284.952C170.871 284.952 172.775 287 172.775 289.752C172.775 289.96 172.775 290.2 172.743 290.424H165.255C165.431 291.992 166.567 293.16 168.199 293.16C169.447 293.16 170.423 292.584 170.759 291.832H172.439C171.943 293.416 170.295 294.552 168.199 294.552ZM171.159 289.08C170.967 287.48 169.847 286.344 168.199 286.344C166.551 286.344 165.431 287.496 165.255 289.08H171.159ZM186.239 285.176H187.871L184.639 294.328H182.975L180.559 287.32L178.159 294.328H176.495L173.263 285.176H174.975L177.375 292.28L179.759 285.176H181.423L183.823 292.328L186.239 285.176ZM192.61 284.952C194.85 284.952 196.53 286.056 196.61 287.608H194.994C194.93 286.84 193.89 286.296 192.562 286.296C191.234 286.296 190.274 286.824 190.274 287.512C190.274 288.264 190.85 288.728 193.09 289.032C195.842 289.4 196.818 290.296 196.818 291.72C196.818 293.496 194.946 294.552 192.674 294.552C190.226 294.552 188.658 293.368 188.546 291.768H190.162C190.258 292.488 191.09 293.208 192.722 293.208C194.13 293.208 195.202 292.632 195.202 291.816C195.202 291.064 194.498 290.632 192.306 290.344C189.81 290.008 188.658 289.208 188.658 287.608C188.658 285.992 190.37 284.952 192.61 284.952ZM206.793 294.552C204.201 294.552 202.265 292.488 202.265 289.752C202.265 287.016 204.201 284.952 206.793 284.952C208.457 284.952 209.577 285.752 210.041 286.536V285.176H211.689V294.328H210.041V292.968C209.577 293.752 208.457 294.552 206.793 294.552ZM206.937 293.096C208.793 293.096 210.073 291.656 210.073 289.752C210.073 287.848 208.793 286.408 206.937 286.408C205.097 286.408 203.881 287.848 203.881 289.752C203.881 291.656 205.097 293.096 206.937 293.096ZM213.956 285.176H215.604V286.568C215.988 285.896 217.028 284.952 218.708 284.952C220.868 284.952 222.388 286.504 222.388 288.968V294.328H220.74V289.256C220.74 287.4 219.844 286.392 218.356 286.392C216.756 286.392 215.604 287.896 215.604 289.592V294.328H213.956V285.176ZM228.45 294.552C225.858 294.552 223.922 292.488 223.922 289.752C223.922 287.016 225.858 284.952 228.45 284.952C230.114 284.952 231.234 285.752 231.698 286.536V281.112H233.346V294.328H231.698V292.968C231.234 293.752 230.114 294.552 228.45 294.552ZM228.594 293.096C230.45 293.096 231.73 291.656 231.73 289.752C231.73 287.848 230.45 286.408 228.594 286.408C226.754 286.408 225.538 287.848 225.538 289.752C225.538 291.656 226.754 293.096 228.594 293.096ZM246.017 294.616C242.145 294.616 239.297 291.784 239.297 287.912C239.297 284.04 242.145 281.208 246.017 281.208C249.329 281.208 251.617 283.128 252.289 285.816H250.577C250.033 284.008 248.385 282.76 246.049 282.76C243.105 282.76 240.977 284.904 240.977 287.912C240.977 290.904 243.121 293.064 246.049 293.064C248.449 293.064 250.241 291.656 250.705 289.832H252.417C251.857 292.504 249.409 294.616 246.017 294.616ZM262.384 294.328H260.736V292.936C260.352 293.608 259.312 294.552 257.632 294.552C255.472 294.552 253.952 293 253.952 290.536V285.176H255.6V290.248C255.6 292.104 256.496 293.112 257.984 293.112C259.584 293.112 260.736 291.608 260.736 289.912V285.176H262.384V294.328ZM266.301 294.328H264.653V281.112H266.301V294.328ZM273.367 285.176V286.632H271.335V294.328H269.687V286.632H267.655V285.176H269.687V282.392H271.335V285.176H273.367ZM282.971 294.328H281.323V292.936C280.939 293.608 279.899 294.552 278.219 294.552C276.059 294.552 274.539 293 274.539 290.536V285.176H276.187V290.248C276.187 292.104 277.083 293.112 278.571 293.112C280.171 293.112 281.323 291.608 281.323 289.912V285.176H282.971V294.328ZM285.24 285.176H286.888V286.584C287.288 285.896 288.392 284.952 290.184 284.952C290.744 284.952 291.112 285 291.432 285.112V286.68C291.08 286.52 290.632 286.424 290.072 286.424C288.2 286.424 286.888 287.928 286.888 289.592V294.328H285.24V285.176ZM296.311 294.552C293.719 294.552 291.783 292.488 291.783 289.752C291.783 287.016 293.719 284.952 296.311 284.952C297.975 284.952 299.095 285.752 299.559 286.536V285.176H301.207V294.328H299.559V292.968C299.095 293.752 297.975 294.552 296.311 294.552ZM296.455 293.096C298.311 293.096 299.591 291.656 299.591 289.752C299.591 287.848 298.311 286.408 296.455 286.408C294.615 286.408 293.399 287.848 293.399 289.752C293.399 291.656 294.615 293.096 296.455 293.096ZM305.123 294.328H303.475V281.112H305.123V294.328ZM317.794 294.616C313.922 294.616 311.074 291.784 311.074 287.912C311.074 284.04 313.922 281.208 317.794 281.208C321.106 281.208 323.394 283.128 324.066 285.816H322.354C321.81 284.008 320.162 282.76 317.826 282.76C314.882 282.76 312.754 284.904 312.754 287.912C312.754 290.904 314.898 293.064 317.826 293.064C320.226 293.064 322.018 291.656 322.482 289.832H324.194C323.634 292.504 321.186 294.616 317.794 294.616ZM330.145 284.952C332.849 284.952 334.817 287 334.817 289.752C334.817 292.504 332.849 294.552 330.145 294.552C327.425 294.552 325.457 292.504 325.457 289.752C325.457 287 327.425 284.952 330.145 284.952ZM330.145 286.408C328.321 286.408 327.073 287.848 327.073 289.752C327.073 291.656 328.321 293.096 330.145 293.096C331.953 293.096 333.201 291.656 333.201 289.752C333.201 287.848 331.953 286.408 330.145 286.408ZM336.601 285.176H338.249V286.568C338.633 285.896 339.673 284.952 341.353 284.952C343.513 284.952 345.033 286.504 345.033 288.968V294.328H343.385V289.256C343.385 287.4 342.489 286.392 341.001 286.392C339.401 286.392 338.249 287.896 338.249 289.592V294.328H336.601V285.176ZM351.706 285.176V286.632H349.674V294.328H348.026V286.632H345.994V285.176H348.026V282.392H349.674V285.176H351.706ZM356.901 294.552C354.229 294.552 352.309 292.504 352.309 289.752C352.309 287 354.229 284.952 356.901 284.952C359.573 284.952 361.477 287 361.477 289.752C361.477 289.96 361.477 290.2 361.445 290.424H353.957C354.133 291.992 355.269 293.16 356.901 293.16C358.149 293.16 359.125 292.584 359.461 291.832H361.141C360.645 293.416 358.997 294.552 356.901 294.552ZM359.861 289.08C359.669 287.48 358.549 286.344 356.901 286.344C355.253 286.344 354.133 287.496 353.957 289.08H359.861ZM363.25 285.176H364.898V286.568C365.282 285.896 366.322 284.952 368.002 284.952C370.162 284.952 371.682 286.504 371.682 288.968V294.328H370.034V289.256C370.034 287.4 369.138 286.392 367.65 286.392C366.05 286.392 364.898 287.896 364.898 289.592V294.328H363.25V285.176ZM378.355 285.176V286.632H376.323V294.328H374.675V286.632H372.643V285.176H374.675V282.392H376.323V285.176H378.355Z" fill="black"/>
<path d="M48.5113 563V551.364H55.534V552.614H49.9204V556.545H55.1704V557.795H49.9204V561.75H55.6249V563H48.5113ZM63.7538 556.227L62.5492 556.568C62.4735 556.367 62.3617 556.172 62.214 555.983C62.0701 555.79 61.8731 555.631 61.6231 555.506C61.3731 555.381 61.053 555.318 60.6629 555.318C60.1288 555.318 59.6837 555.441 59.3276 555.688C58.9754 555.93 58.7992 556.239 58.7992 556.614C58.7992 556.947 58.9204 557.21 59.1629 557.403C59.4053 557.597 59.7841 557.758 60.2992 557.886L61.5947 558.205C62.375 558.394 62.9564 558.684 63.339 559.074C63.7216 559.46 63.9129 559.958 63.9129 560.568C63.9129 561.068 63.7689 561.515 63.4811 561.909C63.197 562.303 62.7992 562.614 62.2879 562.841C61.7765 563.068 61.1818 563.182 60.5038 563.182C59.6136 563.182 58.8769 562.989 58.2936 562.602C57.7102 562.216 57.3409 561.652 57.1856 560.909L58.4583 560.591C58.5795 561.061 58.8087 561.413 59.1458 561.648C59.4867 561.883 59.9318 562 60.4811 562C61.1061 562 61.6023 561.867 61.9697 561.602C62.3409 561.333 62.5265 561.011 62.5265 560.636C62.5265 560.333 62.4204 560.08 62.2083 559.875C61.9962 559.667 61.6704 559.511 61.2311 559.409L59.7765 559.068C58.9773 558.879 58.3901 558.585 58.0151 558.188C57.6439 557.786 57.4583 557.284 57.4583 556.682C57.4583 556.189 57.5966 555.754 57.8731 555.375C58.1534 554.996 58.5341 554.699 59.0151 554.483C59.5 554.267 60.0492 554.159 60.6629 554.159C61.5265 554.159 62.2045 554.348 62.697 554.727C63.1932 555.106 63.5454 555.606 63.7538 556.227ZM71.7932 556.227L70.5886 556.568C70.5129 556.367 70.4011 556.172 70.2534 555.983C70.1094 555.79 69.9125 555.631 69.6625 555.506C69.4125 555.381 69.0924 555.318 68.7022 555.318C68.1682 555.318 67.7231 555.441 67.367 555.688C67.0147 555.93 66.8386 556.239 66.8386 556.614C66.8386 556.947 66.9598 557.21 67.2022 557.403C67.4447 557.597 67.8235 557.758 68.3386 557.886L69.6341 558.205C70.4144 558.394 70.9958 558.684 71.3784 559.074C71.761 559.46 71.9522 559.958 71.9522 560.568C71.9522 561.068 71.8083 561.515 71.5204 561.909C71.2363 562.303 70.8386 562.614 70.3272 562.841C69.8159 563.068 69.2212 563.182 68.5432 563.182C67.653 563.182 66.9163 562.989 66.3329 562.602C65.7496 562.216 65.3803 561.652 65.225 560.909L66.4977 560.591C66.6189 561.061 66.8481 561.413 67.1852 561.648C67.5261 561.883 67.9712 562 68.5204 562C69.1454 562 69.6416 561.867 70.0091 561.602C70.3803 561.333 70.5659 561.011 70.5659 560.636C70.5659 560.333 70.4598 560.08 70.2477 559.875C70.0356 559.667 69.7098 559.511 69.2704 559.409L67.8159 559.068C67.0166 558.879 66.4295 558.585 66.0545 558.188C65.6833 557.786 65.4977 557.284 65.4977 556.682C65.4977 556.189 65.636 555.754 65.9125 555.375C66.1928 554.996 66.5735 554.699 67.0545 554.483C67.5394 554.267 68.0886 554.159 68.7022 554.159C69.5659 554.159 70.2439 554.348 70.7363 554.727C71.2325 555.106 71.5848 555.606 71.7932 556.227ZM77.3098 563.182C76.4689 563.182 75.7435 562.996 75.1337 562.625C74.5276 562.25 74.0598 561.727 73.7303 561.057C73.4045 560.383 73.2416 559.598 73.2416 558.705C73.2416 557.811 73.4045 557.023 73.7303 556.341C74.0598 555.655 74.5181 555.121 75.1053 554.739C75.6962 554.352 76.3856 554.159 77.1734 554.159C77.628 554.159 78.0768 554.235 78.52 554.386C78.9632 554.538 79.3666 554.784 79.7303 555.125C80.0939 555.462 80.3837 555.909 80.5996 556.466C80.8155 557.023 80.9234 557.708 80.9234 558.523V559.091H74.1962V557.932H79.5598C79.5598 557.439 79.4613 557 79.2643 556.614C79.0712 556.227 78.7947 555.922 78.4348 555.699C78.0787 555.475 77.6583 555.364 77.1734 555.364C76.6393 555.364 76.1772 555.496 75.7871 555.761C75.4007 556.023 75.1034 556.364 74.895 556.784C74.6867 557.205 74.5825 557.655 74.5825 558.136V558.909C74.5825 559.568 74.6962 560.127 74.9234 560.585C75.1545 561.04 75.4746 561.386 75.8837 561.625C76.2928 561.86 76.7681 561.977 77.3098 561.977C77.6621 561.977 77.9803 561.928 78.2643 561.83C78.5522 561.727 78.8003 561.576 79.0087 561.375C79.217 561.17 79.378 560.917 79.4916 560.614L80.7871 560.977C80.6507 561.417 80.4215 561.803 80.0996 562.136C79.7776 562.466 79.3799 562.723 78.9064 562.909C78.4329 563.091 77.9007 563.182 77.3098 563.182ZM83.9841 557.75V563H82.6432V554.273H83.9387V555.636H84.0523C84.2568 555.193 84.5675 554.837 84.9841 554.568C85.4008 554.295 85.9387 554.159 86.5978 554.159C87.1887 554.159 87.7057 554.28 88.1489 554.523C88.5921 554.761 88.9368 555.125 89.183 555.614C89.4292 556.098 89.5523 556.712 89.5523 557.455V563H88.2114V557.545C88.2114 556.86 88.0334 556.326 87.6773 555.943C87.3212 555.557 86.8326 555.364 86.2114 555.364C85.7834 555.364 85.4008 555.456 85.0637 555.642C84.7303 555.828 84.4671 556.098 84.2739 556.455C84.0807 556.811 83.9841 557.242 83.9841 557.75ZM95.478 554.273V555.409H90.9553V554.273H95.478ZM92.2735 552.182H93.6144V560.5C93.6144 560.879 93.6693 561.163 93.7792 561.352C93.8928 561.538 94.0368 561.663 94.211 561.727C94.389 561.788 94.5765 561.818 94.7735 561.818C94.9212 561.818 95.0424 561.811 95.1371 561.795C95.2318 561.777 95.3076 561.761 95.3644 561.75L95.6371 562.955C95.5462 562.989 95.4193 563.023 95.2565 563.057C95.0936 563.095 94.8871 563.114 94.6371 563.114C94.2583 563.114 93.8871 563.032 93.5235 562.869C93.1636 562.706 92.8644 562.458 92.6258 562.125C92.3909 561.792 92.2735 561.371 92.2735 560.864V552.182ZM97.1751 563V554.273H98.516V563H97.1751ZM97.8569 552.818C97.5955 552.818 97.3702 552.729 97.1808 552.551C96.9952 552.373 96.9024 552.159 96.9024 551.909C96.9024 551.659 96.9952 551.445 97.1808 551.267C97.3702 551.089 97.5955 551 97.8569 551C98.1183 551 98.3418 551.089 98.5274 551.267C98.7168 551.445 98.8115 551.659 98.8115 551.909C98.8115 552.159 98.7168 552.373 98.5274 552.551C98.3418 552.729 98.1183 552.818 97.8569 552.818ZM103.22 563.205C102.667 563.205 102.165 563.1 101.714 562.892C101.264 562.68 100.906 562.375 100.641 561.977C100.375 561.576 100.243 561.091 100.243 560.523C100.243 560.023 100.341 559.617 100.538 559.307C100.735 558.992 100.999 558.746 101.328 558.568C101.658 558.39 102.021 558.258 102.419 558.17C102.821 558.08 103.224 558.008 103.629 557.955C104.16 557.886 104.589 557.835 104.919 557.801C105.252 557.763 105.495 557.701 105.646 557.614C105.802 557.527 105.879 557.375 105.879 557.159V557.114C105.879 556.553 105.726 556.117 105.419 555.807C105.116 555.496 104.656 555.341 104.038 555.341C103.398 555.341 102.896 555.481 102.533 555.761C102.169 556.042 101.913 556.341 101.766 556.659L100.493 556.205C100.72 555.674 101.023 555.261 101.402 554.966C101.785 554.667 102.201 554.458 102.652 554.341C103.107 554.22 103.553 554.159 103.993 554.159C104.273 554.159 104.595 554.193 104.959 554.261C105.326 554.326 105.68 554.46 106.021 554.665C106.366 554.869 106.652 555.178 106.879 555.591C107.107 556.004 107.22 556.557 107.22 557.25V563H105.879V561.818H105.811C105.72 562.008 105.569 562.21 105.357 562.426C105.144 562.642 104.862 562.826 104.51 562.977C104.158 563.129 103.728 563.205 103.22 563.205ZM103.425 562C103.955 562 104.402 561.896 104.766 561.688C105.133 561.479 105.41 561.21 105.595 560.881C105.785 560.551 105.879 560.205 105.879 559.841V558.614C105.822 558.682 105.697 558.744 105.504 558.801C105.315 558.854 105.095 558.902 104.845 558.943C104.599 558.981 104.358 559.015 104.124 559.045C103.892 559.072 103.705 559.095 103.561 559.114C103.213 559.159 102.887 559.233 102.584 559.335C102.285 559.434 102.042 559.583 101.857 559.784C101.675 559.981 101.584 560.25 101.584 560.591C101.584 561.057 101.756 561.409 102.101 561.648C102.449 561.883 102.891 562 103.425 562ZM110.688 551.364V563H109.348V551.364H110.688ZM126.414 551.364V563H125.05L118.709 553.864H118.595V563H117.186V551.364H118.55L124.914 560.523H125.027V551.364H126.414ZM132.277 563.182C131.489 563.182 130.798 562.994 130.203 562.619C129.612 562.244 129.15 561.72 128.817 561.045C128.487 560.371 128.322 559.583 128.322 558.682C128.322 557.773 128.487 556.979 128.817 556.301C129.15 555.623 129.612 555.097 130.203 554.722C130.798 554.347 131.489 554.159 132.277 554.159C133.065 554.159 133.754 554.347 134.345 554.722C134.94 555.097 135.402 555.623 135.731 556.301C136.065 556.979 136.231 557.773 136.231 558.682C136.231 559.583 136.065 560.371 135.731 561.045C135.402 561.72 134.94 562.244 134.345 562.619C133.754 562.994 133.065 563.182 132.277 563.182ZM132.277 561.977C132.875 561.977 133.368 561.824 133.754 561.517C134.14 561.21 134.426 560.807 134.612 560.307C134.798 559.807 134.89 559.265 134.89 558.682C134.89 558.098 134.798 557.555 134.612 557.051C134.426 556.547 134.14 556.14 133.754 555.83C133.368 555.519 132.875 555.364 132.277 555.364C131.678 555.364 131.186 555.519 130.8 555.83C130.413 556.14 130.127 556.547 129.942 557.051C129.756 557.555 129.663 558.098 129.663 558.682C129.663 559.265 129.756 559.807 129.942 560.307C130.127 560.807 130.413 561.21 130.8 561.517C131.186 561.824 131.678 561.977 132.277 561.977ZM144.14 556.227L142.935 556.568C142.86 556.367 142.748 556.172 142.6 555.983C142.456 555.79 142.259 555.631 142.009 555.506C141.759 555.381 141.439 555.318 141.049 555.318C140.515 555.318 140.07 555.441 139.714 555.688C139.362 555.93 139.185 556.239 139.185 556.614C139.185 556.947 139.307 557.21 139.549 557.403C139.792 557.597 140.17 557.758 140.685 557.886L141.981 558.205C142.761 558.394 143.343 558.684 143.725 559.074C144.108 559.46 144.299 559.958 144.299 560.568C144.299 561.068 144.155 561.515 143.867 561.909C143.583 562.303 143.185 562.614 142.674 562.841C142.163 563.068 141.568 563.182 140.89 563.182C140 563.182 139.263 562.989 138.68 562.602C138.096 562.216 137.727 561.652 137.572 560.909L138.845 560.591C138.966 561.061 139.195 561.413 139.532 561.648C139.873 561.883 140.318 562 140.867 562C141.492 562 141.989 561.867 142.356 561.602C142.727 561.333 142.913 561.011 142.913 560.636C142.913 560.333 142.807 560.08 142.595 559.875C142.382 559.667 142.057 559.511 141.617 559.409L140.163 559.068C139.364 558.879 138.776 558.585 138.401 558.188C138.03 557.786 137.845 557.284 137.845 556.682C137.845 556.189 137.983 555.754 138.259 555.375C138.54 554.996 138.92 554.699 139.401 554.483C139.886 554.267 140.435 554.159 141.049 554.159C141.913 554.159 142.591 554.348 143.083 554.727C143.579 555.106 143.932 555.606 144.14 556.227ZM149.793 554.273V555.409H145.27V554.273H149.793ZM146.588 552.182H147.929V560.5C147.929 560.879 147.984 561.163 148.094 561.352C148.208 561.538 148.352 561.663 148.526 561.727C148.704 561.788 148.892 561.818 149.088 561.818C149.236 561.818 149.357 561.811 149.452 561.795C149.547 561.777 149.623 561.761 149.679 561.75L149.952 562.955C149.861 562.989 149.734 563.023 149.571 563.057C149.409 563.095 149.202 563.114 148.952 563.114C148.573 563.114 148.202 563.032 147.838 562.869C147.479 562.706 147.179 562.458 146.941 562.125C146.706 561.792 146.588 561.371 146.588 560.864V552.182ZM154.058 563.205C153.505 563.205 153.003 563.1 152.553 562.892C152.102 562.68 151.744 562.375 151.479 561.977C151.214 561.576 151.081 561.091 151.081 560.523C151.081 560.023 151.179 559.617 151.376 559.307C151.573 558.992 151.837 558.746 152.166 558.568C152.496 558.39 152.859 558.258 153.257 558.17C153.659 558.08 154.062 558.008 154.467 557.955C154.998 557.886 155.428 557.835 155.757 557.801C156.09 557.763 156.333 557.701 156.484 557.614C156.64 557.527 156.717 557.375 156.717 557.159V557.114C156.717 556.553 156.564 556.117 156.257 555.807C155.954 555.496 155.494 555.341 154.876 555.341C154.236 555.341 153.734 555.481 153.371 555.761C153.007 556.042 152.751 556.341 152.604 556.659L151.331 556.205C151.558 555.674 151.861 555.261 152.24 554.966C152.623 554.667 153.039 554.458 153.49 554.341C153.945 554.22 154.392 554.159 154.831 554.159C155.111 554.159 155.433 554.193 155.797 554.261C156.164 554.326 156.518 554.46 156.859 554.665C157.204 554.869 157.49 555.178 157.717 555.591C157.945 556.004 158.058 556.557 158.058 557.25V563H156.717V561.818H156.649C156.558 562.008 156.407 562.21 156.195 562.426C155.983 562.642 155.7 562.826 155.348 562.977C154.996 563.129 154.566 563.205 154.058 563.205ZM154.263 562C154.793 562 155.24 561.896 155.604 561.688C155.971 561.479 156.248 561.21 156.433 560.881C156.623 560.551 156.717 560.205 156.717 559.841V558.614C156.661 558.682 156.536 558.744 156.342 558.801C156.153 558.854 155.933 558.902 155.683 558.943C155.437 558.981 155.197 559.015 154.962 559.045C154.731 559.072 154.543 559.095 154.399 559.114C154.051 559.159 153.725 559.233 153.422 559.335C153.123 559.434 152.88 559.583 152.695 559.784C152.513 559.981 152.422 560.25 152.422 560.591C152.422 561.057 152.594 561.409 152.939 561.648C153.287 561.883 153.729 562 154.263 562ZM161.527 551.364V563H160.186V551.364H161.527ZM167.185 566.455C166.538 566.455 165.981 566.371 165.515 566.205C165.049 566.042 164.661 565.826 164.35 565.557C164.043 565.292 163.799 565.008 163.617 564.705L164.685 563.955C164.807 564.114 164.96 564.295 165.146 564.5C165.331 564.708 165.585 564.888 165.907 565.04C166.233 565.195 166.659 565.273 167.185 565.273C167.89 565.273 168.471 565.102 168.93 564.761C169.388 564.42 169.617 563.886 169.617 563.159V561.386H169.503C169.405 561.545 169.265 561.742 169.083 561.977C168.905 562.208 168.647 562.415 168.31 562.597C167.977 562.775 167.526 562.864 166.958 562.864C166.253 562.864 165.621 562.697 165.06 562.364C164.503 562.03 164.062 561.545 163.736 560.909C163.414 560.273 163.253 559.5 163.253 558.591C163.253 557.697 163.411 556.919 163.725 556.256C164.039 555.589 164.477 555.074 165.038 554.71C165.598 554.343 166.246 554.159 166.981 554.159C167.549 554.159 168 554.254 168.333 554.443C168.67 554.629 168.928 554.841 169.106 555.08C169.288 555.314 169.428 555.508 169.526 555.659H169.663V554.273H170.958V563.25C170.958 564 170.788 564.61 170.447 565.08C170.11 565.553 169.655 565.9 169.083 566.119C168.515 566.343 167.882 566.455 167.185 566.455ZM167.14 561.659C167.678 561.659 168.132 561.536 168.503 561.29C168.875 561.044 169.157 560.689 169.35 560.227C169.543 559.765 169.64 559.212 169.64 558.568C169.64 557.939 169.545 557.384 169.356 556.903C169.166 556.422 168.886 556.045 168.515 555.773C168.144 555.5 167.685 555.364 167.14 555.364C166.572 555.364 166.098 555.508 165.719 555.795C165.344 556.083 165.062 556.47 164.873 556.955C164.687 557.439 164.594 557.977 164.594 558.568C164.594 559.174 164.689 559.71 164.878 560.176C165.072 560.638 165.356 561.002 165.731 561.267C166.11 561.528 166.579 561.659 167.14 561.659ZM173.093 563V554.273H174.433V563H173.093ZM173.774 552.818C173.513 552.818 173.288 552.729 173.098 552.551C172.913 552.373 172.82 552.159 172.82 551.909C172.82 551.659 172.913 551.445 173.098 551.267C173.288 551.089 173.513 551 173.774 551C174.036 551 174.259 551.089 174.445 551.267C174.634 551.445 174.729 551.659 174.729 551.909C174.729 552.159 174.634 552.373 174.445 552.551C174.259 552.729 174.036 552.818 173.774 552.818ZM179.138 563.205C178.585 563.205 178.083 563.1 177.632 562.892C177.181 562.68 176.823 562.375 176.558 561.977C176.293 561.576 176.16 561.091 176.16 560.523C176.16 560.023 176.259 559.617 176.456 559.307C176.653 558.992 176.916 558.746 177.246 558.568C177.575 558.39 177.939 558.258 178.337 558.17C178.738 558.08 179.141 558.008 179.547 557.955C180.077 557.886 180.507 557.835 180.837 557.801C181.17 557.763 181.412 557.701 181.564 557.614C181.719 557.527 181.797 557.375 181.797 557.159V557.114C181.797 556.553 181.643 556.117 181.337 555.807C181.033 555.496 180.573 555.341 179.956 555.341C179.316 555.341 178.814 555.481 178.45 555.761C178.087 556.042 177.831 556.341 177.683 556.659L176.41 556.205C176.638 555.674 176.941 555.261 177.319 554.966C177.702 554.667 178.119 554.458 178.569 554.341C179.024 554.22 179.471 554.159 179.91 554.159C180.191 554.159 180.513 554.193 180.876 554.261C181.244 554.326 181.598 554.46 181.939 554.665C182.283 554.869 182.569 555.178 182.797 555.591C183.024 556.004 183.138 556.557 183.138 557.25V563H181.797V561.818H181.729C181.638 562.008 181.486 562.21 181.274 562.426C181.062 562.642 180.78 562.826 180.427 562.977C180.075 563.129 179.645 563.205 179.138 563.205ZM179.342 562C179.872 562 180.319 561.896 180.683 561.688C181.051 561.479 181.327 561.21 181.513 560.881C181.702 560.551 181.797 560.205 181.797 559.841V558.614C181.74 558.682 181.615 558.744 181.422 558.801C181.232 558.854 181.013 558.902 180.763 558.943C180.516 558.981 180.276 559.015 180.041 559.045C179.81 559.072 179.622 559.095 179.479 559.114C179.13 559.159 178.804 559.233 178.501 559.335C178.202 559.434 177.96 559.583 177.774 559.784C177.592 559.981 177.501 560.25 177.501 560.591C177.501 561.057 177.674 561.409 178.018 561.648C178.367 561.883 178.808 562 179.342 562ZM186.242 563.091C185.962 563.091 185.722 562.991 185.521 562.79C185.32 562.589 185.22 562.348 185.22 562.068C185.22 561.788 185.32 561.547 185.521 561.347C185.722 561.146 185.962 561.045 186.242 561.045C186.523 561.045 186.763 561.146 186.964 561.347C187.165 561.547 187.265 561.788 187.265 562.068C187.265 562.254 187.218 562.424 187.123 562.58C187.032 562.735 186.909 562.86 186.754 562.955C186.602 563.045 186.432 563.091 186.242 563.091ZM186.242 556.614C185.962 556.614 185.722 556.513 185.521 556.312C185.32 556.112 185.22 555.871 185.22 555.591C185.22 555.311 185.32 555.07 185.521 554.869C185.722 554.669 185.962 554.568 186.242 554.568C186.523 554.568 186.763 554.669 186.964 554.869C187.165 555.07 187.265 555.311 187.265 555.591C187.265 555.777 187.218 555.947 187.123 556.102C187.032 556.258 186.909 556.383 186.754 556.477C186.602 556.568 186.432 556.614 186.242 556.614ZM203.077 555H201.668C201.584 554.595 201.439 554.239 201.23 553.932C201.026 553.625 200.776 553.367 200.48 553.159C200.189 552.947 199.865 552.788 199.509 552.682C199.153 552.576 198.781 552.523 198.395 552.523C197.69 552.523 197.052 552.701 196.48 553.057C195.912 553.413 195.459 553.938 195.122 554.631C194.789 555.324 194.622 556.174 194.622 557.182C194.622 558.189 194.789 559.04 195.122 559.733C195.459 560.426 195.912 560.951 196.48 561.307C197.052 561.663 197.69 561.841 198.395 561.841C198.781 561.841 199.153 561.788 199.509 561.682C199.865 561.576 200.189 561.419 200.48 561.21C200.776 560.998 201.026 560.739 201.23 560.432C201.439 560.121 201.584 559.765 201.668 559.364H203.077C202.971 559.958 202.778 560.491 202.497 560.96C202.217 561.43 201.868 561.83 201.452 562.159C201.035 562.485 200.567 562.733 200.048 562.903C199.533 563.074 198.982 563.159 198.395 563.159C197.403 563.159 196.52 562.917 195.747 562.432C194.975 561.947 194.367 561.258 193.923 560.364C193.48 559.47 193.259 558.409 193.259 557.182C193.259 555.955 193.48 554.894 193.923 554C194.367 553.106 194.975 552.417 195.747 551.932C196.52 551.447 197.403 551.205 198.395 551.205C198.982 551.205 199.533 551.29 200.048 551.46C200.567 551.631 201.035 551.881 201.452 552.21C201.868 552.536 202.217 552.934 202.497 553.403C202.778 553.869 202.971 554.402 203.077 555ZM204.852 563V554.273H206.147V555.591H206.238C206.397 555.159 206.685 554.809 207.102 554.54C207.519 554.271 207.988 554.136 208.511 554.136C208.61 554.136 208.733 554.138 208.88 554.142C209.028 554.146 209.14 554.152 209.216 554.159V555.523C209.17 555.511 209.066 555.494 208.903 555.472C208.744 555.445 208.575 555.432 208.397 555.432C207.973 555.432 207.594 555.521 207.261 555.699C206.932 555.873 206.67 556.116 206.477 556.426C206.288 556.733 206.193 557.083 206.193 557.477V563H204.852ZM213.053 563.205C212.5 563.205 211.998 563.1 211.548 562.892C211.097 562.68 210.739 562.375 210.474 561.977C210.209 561.576 210.076 561.091 210.076 560.523C210.076 560.023 210.174 559.617 210.371 559.307C210.568 558.992 210.832 558.746 211.161 558.568C211.491 558.39 211.854 558.258 212.252 558.17C212.654 558.08 213.057 558.008 213.462 557.955C213.993 557.886 214.423 557.835 214.752 557.801C215.085 557.763 215.328 557.701 215.479 557.614C215.635 557.527 215.712 557.375 215.712 557.159V557.114C215.712 556.553 215.559 556.117 215.252 555.807C214.949 555.496 214.489 555.341 213.871 555.341C213.231 555.341 212.729 555.481 212.366 555.761C212.002 556.042 211.746 556.341 211.599 556.659L210.326 556.205C210.553 555.674 210.856 555.261 211.235 554.966C211.618 554.667 212.034 554.458 212.485 554.341C212.94 554.22 213.387 554.159 213.826 554.159C214.106 554.159 214.428 554.193 214.792 554.261C215.159 554.326 215.513 554.46 215.854 554.665C216.199 554.869 216.485 555.178 216.712 555.591C216.94 556.004 217.053 556.557 217.053 557.25V563H215.712V561.818H215.644C215.553 562.008 215.402 562.21 215.19 562.426C214.978 562.642 214.695 562.826 214.343 562.977C213.991 563.129 213.561 563.205 213.053 563.205ZM213.258 562C213.788 562 214.235 561.896 214.599 561.688C214.966 561.479 215.243 561.21 215.428 560.881C215.618 560.551 215.712 560.205 215.712 559.841V558.614C215.656 558.682 215.531 558.744 215.337 558.801C215.148 558.854 214.928 558.902 214.678 558.943C214.432 558.981 214.192 559.015 213.957 559.045C213.726 559.072 213.538 559.095 213.394 559.114C213.046 559.159 212.72 559.233 212.417 559.335C212.118 559.434 211.875 559.583 211.69 559.784C211.508 559.981 211.417 560.25 211.417 560.591C211.417 561.057 211.589 561.409 211.934 561.648C212.282 561.883 212.724 562 213.258 562ZM223.067 554.273V555.409H218.363V554.273H223.067ZM219.772 563V553.068C219.772 552.568 219.889 552.152 220.124 551.818C220.359 551.485 220.664 551.235 221.039 551.068C221.414 550.902 221.81 550.818 222.226 550.818C222.556 550.818 222.825 550.845 223.033 550.898C223.241 550.951 223.397 551 223.499 551.045L223.113 552.205C223.044 552.182 222.95 552.153 222.828 552.119C222.711 552.085 222.556 552.068 222.363 552.068C221.919 552.068 221.599 552.18 221.402 552.403C221.209 552.627 221.113 552.955 221.113 553.386V563H219.772ZM228.422 554.273V555.409H223.899V554.273H228.422ZM225.217 552.182H226.558V560.5C226.558 560.879 226.613 561.163 226.723 561.352C226.837 561.538 226.981 561.663 227.155 561.727C227.333 561.788 227.52 561.818 227.717 561.818C227.865 561.818 227.986 561.811 228.081 561.795C228.176 561.777 228.251 561.761 228.308 561.75L228.581 562.955C228.49 562.989 228.363 563.023 228.2 563.057C228.037 563.095 227.831 563.114 227.581 563.114C227.202 563.114 226.831 563.032 226.467 562.869C226.107 562.706 225.808 562.458 225.57 562.125C225.335 561.792 225.217 561.371 225.217 560.864V552.182ZM233.684 563.182C232.843 563.182 232.118 562.996 231.508 562.625C230.902 562.25 230.434 561.727 230.105 561.057C229.779 560.383 229.616 559.598 229.616 558.705C229.616 557.811 229.779 557.023 230.105 556.341C230.434 555.655 230.893 555.121 231.48 554.739C232.071 554.352 232.76 554.159 233.548 554.159C234.002 554.159 234.451 554.235 234.894 554.386C235.338 554.538 235.741 554.784 236.105 555.125C236.468 555.462 236.758 555.909 236.974 556.466C237.19 557.023 237.298 557.708 237.298 558.523V559.091H230.571V557.932H235.934C235.934 557.439 235.836 557 235.639 556.614C235.446 556.227 235.169 555.922 234.809 555.699C234.453 555.475 234.033 555.364 233.548 555.364C233.014 555.364 232.552 555.496 232.161 555.761C231.775 556.023 231.478 556.364 231.269 556.784C231.061 557.205 230.957 557.655 230.957 558.136V558.909C230.957 559.568 231.071 560.127 231.298 560.585C231.529 561.04 231.849 561.386 232.258 561.625C232.667 561.86 233.143 561.977 233.684 561.977C234.036 561.977 234.355 561.928 234.639 561.83C234.927 561.727 235.175 561.576 235.383 561.375C235.591 561.17 235.752 560.917 235.866 560.614L237.161 560.977C237.025 561.417 236.796 561.803 236.474 562.136C236.152 562.466 235.754 562.723 235.281 562.909C234.807 563.091 234.275 563.182 233.684 563.182ZM242.313 563.182C241.586 563.182 240.944 562.998 240.387 562.631C239.83 562.259 239.394 561.737 239.08 561.062C238.766 560.384 238.608 559.583 238.608 558.659C238.608 557.742 238.766 556.947 239.08 556.273C239.394 555.598 239.832 555.078 240.393 554.71C240.953 554.343 241.601 554.159 242.336 554.159C242.904 554.159 243.353 554.254 243.682 554.443C244.016 554.629 244.269 554.841 244.444 555.08C244.622 555.314 244.76 555.508 244.858 555.659H244.972V551.364H246.313V563H245.018V561.659H244.858C244.76 561.818 244.62 562.019 244.438 562.261C244.256 562.5 243.997 562.714 243.66 562.903C243.323 563.089 242.874 563.182 242.313 563.182ZM242.495 561.977C243.033 561.977 243.487 561.837 243.858 561.557C244.23 561.273 244.512 560.881 244.705 560.381C244.898 559.877 244.995 559.295 244.995 558.636C244.995 557.985 244.9 557.415 244.711 556.926C244.521 556.434 244.241 556.051 243.87 555.778C243.499 555.502 243.04 555.364 242.495 555.364C241.927 555.364 241.453 555.509 241.074 555.801C240.699 556.089 240.417 556.481 240.228 556.977C240.042 557.47 239.949 558.023 239.949 558.636C239.949 559.258 240.044 559.822 240.233 560.33C240.427 560.833 240.711 561.235 241.086 561.534C241.465 561.83 241.934 561.977 242.495 561.977ZM256.883 551.364V563H255.474V552.841H255.406L252.565 554.727V553.295L255.474 551.364H256.883ZM259.91 563V561.977L263.751 557.773C264.202 557.28 264.573 556.852 264.864 556.489C265.156 556.121 265.372 555.777 265.512 555.455C265.656 555.129 265.728 554.788 265.728 554.432C265.728 554.023 265.63 553.669 265.433 553.369C265.239 553.07 264.974 552.839 264.637 552.676C264.3 552.513 263.921 552.432 263.501 552.432C263.054 552.432 262.664 552.525 262.33 552.71C262.001 552.892 261.745 553.148 261.563 553.477C261.385 553.807 261.296 554.193 261.296 554.636H259.955C259.955 553.955 260.113 553.356 260.427 552.841C260.741 552.326 261.169 551.924 261.711 551.636C262.256 551.348 262.868 551.205 263.546 551.205C264.228 551.205 264.832 551.348 265.359 551.636C265.885 551.924 266.298 552.312 266.597 552.801C266.897 553.29 267.046 553.833 267.046 554.432C267.046 554.86 266.969 555.278 266.813 555.688C266.662 556.093 266.397 556.545 266.018 557.045C265.643 557.542 265.122 558.148 264.455 558.864L261.842 561.659V561.75H267.251V563H259.91ZM274.3 556.557V557.807H269.209V556.557H274.3ZM277.822 563L274.641 551.364H276.072L278.504 560.841H278.618L281.095 551.364H282.686L285.163 560.841H285.277L287.709 551.364H289.141L285.959 563H284.504L281.936 553.727H281.845L279.277 563H277.822ZM293.241 563.182C292.4 563.182 291.675 562.996 291.065 562.625C290.459 562.25 289.991 561.727 289.662 561.057C289.336 560.383 289.173 559.598 289.173 558.705C289.173 557.811 289.336 557.023 289.662 556.341C289.991 555.655 290.449 555.121 291.037 554.739C291.627 554.352 292.317 554.159 293.105 554.159C293.559 554.159 294.008 554.235 294.451 554.386C294.894 554.538 295.298 554.784 295.662 555.125C296.025 555.462 296.315 555.909 296.531 556.466C296.747 557.023 296.855 557.708 296.855 558.523V559.091H290.127V557.932H295.491C295.491 557.439 295.393 557 295.196 556.614C295.002 556.227 294.726 555.922 294.366 555.699C294.01 555.475 293.59 555.364 293.105 555.364C292.571 555.364 292.108 555.496 291.718 555.761C291.332 556.023 291.035 556.364 290.826 556.784C290.618 557.205 290.514 557.655 290.514 558.136V558.909C290.514 559.568 290.627 560.127 290.855 560.585C291.086 561.04 291.406 561.386 291.815 561.625C292.224 561.86 292.699 561.977 293.241 561.977C293.593 561.977 293.912 561.928 294.196 561.83C294.483 561.727 294.732 561.576 294.94 561.375C295.148 561.17 295.309 560.917 295.423 560.614L296.718 560.977C296.582 561.417 296.353 561.803 296.031 562.136C295.709 562.466 295.311 562.723 294.838 562.909C294.364 563.091 293.832 563.182 293.241 563.182ZM302.234 563.182C301.393 563.182 300.667 562.996 300.057 562.625C299.451 562.25 298.984 561.727 298.654 561.057C298.328 560.383 298.165 559.598 298.165 558.705C298.165 557.811 298.328 557.023 298.654 556.341C298.984 555.655 299.442 555.121 300.029 554.739C300.62 554.352 301.309 554.159 302.097 554.159C302.552 554.159 303.001 554.235 303.444 554.386C303.887 554.538 304.29 554.784 304.654 555.125C305.018 555.462 305.307 555.909 305.523 556.466C305.739 557.023 305.847 557.708 305.847 558.523V559.091H299.12V557.932H304.484C304.484 557.439 304.385 557 304.188 556.614C303.995 556.227 303.718 555.922 303.359 555.699C303.002 555.475 302.582 555.364 302.097 555.364C301.563 555.364 301.101 555.496 300.711 555.761C300.324 556.023 300.027 556.364 299.819 556.784C299.61 557.205 299.506 557.655 299.506 558.136V558.909C299.506 559.568 299.62 560.127 299.847 560.585C300.078 561.04 300.398 561.386 300.807 561.625C301.217 561.86 301.692 561.977 302.234 561.977C302.586 561.977 302.904 561.928 303.188 561.83C303.476 561.727 303.724 561.576 303.932 561.375C304.141 561.17 304.302 560.917 304.415 560.614L305.711 560.977C305.574 561.417 305.345 561.803 305.023 562.136C304.701 562.466 304.304 562.723 303.83 562.909C303.357 563.091 302.824 563.182 302.234 563.182ZM308.817 559.818L308.794 558.159H309.067L312.885 554.273H314.544L310.476 558.386H310.362L308.817 559.818ZM307.567 563V551.364H308.908V563H307.567ZM313.112 563L309.703 558.682L310.658 557.75L314.817 563H313.112ZM329.676 555H328.266C328.183 554.595 328.037 554.239 327.829 553.932C327.624 553.625 327.374 553.367 327.079 553.159C326.787 552.947 326.463 552.788 326.107 552.682C325.751 552.576 325.38 552.523 324.994 552.523C324.289 552.523 323.651 552.701 323.079 553.057C322.511 553.413 322.058 553.938 321.721 554.631C321.388 555.324 321.221 556.174 321.221 557.182C321.221 558.189 321.388 559.04 321.721 559.733C322.058 560.426 322.511 560.951 323.079 561.307C323.651 561.663 324.289 561.841 324.994 561.841C325.38 561.841 325.751 561.788 326.107 561.682C326.463 561.576 326.787 561.419 327.079 561.21C327.374 560.998 327.624 560.739 327.829 560.432C328.037 560.121 328.183 559.765 328.266 559.364H329.676C329.569 559.958 329.376 560.491 329.096 560.96C328.816 561.43 328.467 561.83 328.051 562.159C327.634 562.485 327.166 562.733 326.647 562.903C326.132 563.074 325.581 563.159 324.994 563.159C324.001 563.159 323.119 562.917 322.346 562.432C321.573 561.947 320.965 561.258 320.522 560.364C320.079 559.47 319.857 558.409 319.857 557.182C319.857 555.955 320.079 554.894 320.522 554C320.965 553.106 321.573 552.417 322.346 551.932C323.119 551.447 324.001 551.205 324.994 551.205C325.581 551.205 326.132 551.29 326.647 551.46C327.166 551.631 327.634 551.881 328.051 552.21C328.467 552.536 328.816 552.934 329.096 553.403C329.376 553.869 329.569 554.402 329.676 555ZM336.951 559.432V554.273H338.292V563H336.951V561.523H336.86C336.655 561.966 336.337 562.343 335.905 562.653C335.473 562.96 334.928 563.114 334.269 563.114C333.723 563.114 333.239 562.994 332.814 562.756C332.39 562.513 332.057 562.15 331.814 561.665C331.572 561.176 331.451 560.561 331.451 559.818V554.273H332.792V559.727C332.792 560.364 332.97 560.871 333.326 561.25C333.686 561.629 334.144 561.818 334.701 561.818C335.034 561.818 335.373 561.733 335.718 561.562C336.066 561.392 336.358 561.131 336.593 560.778C336.831 560.426 336.951 559.977 336.951 559.432ZM340.428 563V554.273H341.723V555.591H341.814C341.973 555.159 342.261 554.809 342.678 554.54C343.094 554.271 343.564 554.136 344.087 554.136C344.185 554.136 344.308 554.138 344.456 554.142C344.604 554.146 344.715 554.152 344.791 554.159V555.523C344.746 555.511 344.642 555.494 344.479 555.472C344.32 555.445 344.151 555.432 343.973 555.432C343.549 555.432 343.17 555.521 342.837 555.699C342.507 555.873 342.246 556.116 342.053 556.426C341.863 556.733 341.768 557.083 341.768 557.477V563H340.428ZM346.061 563V554.273H347.356V555.591H347.447C347.606 555.159 347.894 554.809 348.311 554.54C348.727 554.271 349.197 554.136 349.72 554.136C349.818 554.136 349.941 554.138 350.089 554.142C350.237 554.146 350.349 554.152 350.424 554.159V555.523C350.379 555.511 350.275 555.494 350.112 555.472C349.953 555.445 349.784 555.432 349.606 555.432C349.182 555.432 348.803 555.521 348.47 555.699C348.14 555.873 347.879 556.116 347.686 556.426C347.496 556.733 347.402 557.083 347.402 557.477V563H346.061ZM351.694 563V554.273H353.035V563H351.694ZM352.376 552.818C352.114 552.818 351.889 552.729 351.7 552.551C351.514 552.373 351.421 552.159 351.421 551.909C351.421 551.659 351.514 551.445 351.7 551.267C351.889 551.089 352.114 551 352.376 551C352.637 551 352.86 551.089 353.046 551.267C353.235 551.445 353.33 551.659 353.33 551.909C353.33 552.159 353.235 552.373 353.046 552.551C352.86 552.729 352.637 552.818 352.376 552.818ZM358.716 563.182C357.898 563.182 357.193 562.989 356.603 562.602C356.012 562.216 355.557 561.684 355.239 561.006C354.921 560.328 354.762 559.553 354.762 558.682C354.762 557.795 354.924 557.013 355.25 556.335C355.58 555.653 356.038 555.121 356.625 554.739C357.216 554.352 357.906 554.159 358.693 554.159C359.307 554.159 359.86 554.273 360.353 554.5C360.845 554.727 361.248 555.045 361.563 555.455C361.877 555.864 362.072 556.341 362.148 556.886H360.807C360.705 556.489 360.478 556.136 360.125 555.83C359.777 555.519 359.307 555.364 358.716 555.364C358.193 555.364 357.735 555.5 357.341 555.773C356.951 556.042 356.646 556.422 356.426 556.915C356.21 557.403 356.103 557.977 356.103 558.636C356.103 559.311 356.209 559.898 356.421 560.398C356.637 560.898 356.94 561.286 357.33 561.562C357.724 561.839 358.186 561.977 358.716 561.977C359.065 561.977 359.381 561.917 359.665 561.795C359.949 561.674 360.19 561.5 360.387 561.273C360.584 561.045 360.724 560.773 360.807 560.455H362.148C362.072 560.97 361.885 561.434 361.585 561.847C361.29 562.256 360.898 562.581 360.409 562.824C359.924 563.062 359.36 563.182 358.716 563.182ZM369.288 559.432V554.273H370.629V563H369.288V561.523H369.197C368.993 561.966 368.675 562.343 368.243 562.653C367.811 562.96 367.265 563.114 366.606 563.114C366.061 563.114 365.576 562.994 365.152 562.756C364.728 562.513 364.394 562.15 364.152 561.665C363.909 561.176 363.788 560.561 363.788 559.818V554.273H365.129V559.727C365.129 560.364 365.307 560.871 365.663 561.25C366.023 561.629 366.481 561.818 367.038 561.818C367.372 561.818 367.711 561.733 368.055 561.562C368.404 561.392 368.695 561.131 368.93 560.778C369.169 560.426 369.288 559.977 369.288 559.432ZM374.106 551.364V563H372.765V551.364H374.106ZM381.742 559.432V554.273H383.083V563H381.742V561.523H381.651C381.447 561.966 381.128 562.343 380.697 562.653C380.265 562.96 379.719 563.114 379.06 563.114C378.515 563.114 378.03 562.994 377.606 562.756C377.181 562.513 376.848 562.15 376.606 561.665C376.363 561.176 376.242 560.561 376.242 559.818V554.273H377.583V559.727C377.583 560.364 377.761 560.871 378.117 561.25C378.477 561.629 378.935 561.818 379.492 561.818C379.825 561.818 380.164 561.733 380.509 561.562C380.858 561.392 381.149 561.131 381.384 560.778C381.623 560.426 381.742 559.977 381.742 559.432ZM385.219 563V554.273H386.514V555.636H386.628C386.81 555.17 387.103 554.809 387.509 554.551C387.914 554.29 388.401 554.159 388.969 554.159C389.545 554.159 390.024 554.29 390.406 554.551C390.793 554.809 391.094 555.17 391.31 555.636H391.401C391.624 555.186 391.959 554.828 392.406 554.562C392.853 554.294 393.389 554.159 394.014 554.159C394.795 554.159 395.433 554.403 395.929 554.892C396.425 555.377 396.673 556.133 396.673 557.159V563H395.332V557.159C395.332 556.515 395.156 556.055 394.804 555.778C394.452 555.502 394.037 555.364 393.56 555.364C392.946 555.364 392.471 555.549 392.134 555.92C391.797 556.288 391.628 556.754 391.628 557.318V563H390.264V557.023C390.264 556.527 390.103 556.127 389.781 555.824C389.459 555.517 389.045 555.364 388.537 555.364C388.189 555.364 387.863 555.456 387.56 555.642C387.261 555.828 387.018 556.085 386.832 556.415C386.651 556.741 386.56 557.117 386.56 557.545V563H385.219Z" fill="black"/>
<rect x="30" y="29" width="386" height="218" fill="#D9D9D9"/>
<rect x="30" y="320" width="386" height="218" fill="#D9D9D9"/>
<rect x="125.5" y="612.5" width="195" height="67" rx="33.5" fill="white" stroke="url(#paint1_linear_67_4)"/>
<path d="M175.386 642V630.364H182.408V631.614H176.795V635.545H182.045V636.795H176.795V640.75H182.499V642H175.386ZM185.766 633.273L187.857 636.841L189.948 633.273H191.494L188.675 637.636L191.494 642H189.948L187.857 638.614L185.766 642H184.221L186.994 637.636L184.221 633.273H185.766ZM193.407 645.273V633.273H194.702V634.659H194.862C194.96 634.508 195.096 634.314 195.271 634.08C195.449 633.841 195.702 633.629 196.032 633.443C196.365 633.254 196.816 633.159 197.384 633.159C198.119 633.159 198.767 633.343 199.327 633.71C199.888 634.078 200.326 634.598 200.64 635.273C200.954 635.947 201.112 636.742 201.112 637.659C201.112 638.583 200.954 639.384 200.64 640.062C200.326 640.737 199.89 641.259 199.333 641.631C198.776 641.998 198.134 642.182 197.407 642.182C196.846 642.182 196.397 642.089 196.06 641.903C195.723 641.714 195.464 641.5 195.282 641.261C195.1 641.019 194.96 640.818 194.862 640.659H194.748V645.273H193.407ZM194.725 637.636C194.725 638.295 194.822 638.877 195.015 639.381C195.208 639.881 195.49 640.273 195.862 640.557C196.233 640.837 196.687 640.977 197.225 640.977C197.786 640.977 198.254 640.83 198.629 640.534C199.007 640.235 199.291 639.833 199.481 639.33C199.674 638.822 199.771 638.258 199.771 637.636C199.771 637.023 199.676 636.47 199.487 635.977C199.301 635.481 199.019 635.089 198.64 634.801C198.265 634.509 197.793 634.364 197.225 634.364C196.68 634.364 196.221 634.502 195.85 634.778C195.479 635.051 195.199 635.434 195.009 635.926C194.82 636.415 194.725 636.985 194.725 637.636ZM206.816 642.182C205.975 642.182 205.25 641.996 204.64 641.625C204.034 641.25 203.566 640.727 203.237 640.057C202.911 639.383 202.748 638.598 202.748 637.705C202.748 636.811 202.911 636.023 203.237 635.341C203.566 634.655 204.024 634.121 204.612 633.739C205.202 633.352 205.892 633.159 206.68 633.159C207.134 633.159 207.583 633.235 208.026 633.386C208.469 633.538 208.873 633.784 209.237 634.125C209.6 634.462 209.89 634.909 210.106 635.466C210.322 636.023 210.43 636.708 210.43 637.523V638.091H203.702V636.932H209.066C209.066 636.439 208.968 636 208.771 635.614C208.577 635.227 208.301 634.922 207.941 634.699C207.585 634.475 207.165 634.364 206.68 634.364C206.146 634.364 205.683 634.496 205.293 634.761C204.907 635.023 204.61 635.364 204.401 635.784C204.193 636.205 204.089 636.655 204.089 637.136V637.909C204.089 638.568 204.202 639.127 204.43 639.585C204.661 640.04 204.981 640.386 205.39 640.625C205.799 640.86 206.274 640.977 206.816 640.977C207.168 640.977 207.487 640.928 207.771 640.83C208.058 640.727 208.307 640.576 208.515 640.375C208.723 640.17 208.884 639.917 208.998 639.614L210.293 639.977C210.157 640.417 209.928 640.803 209.606 641.136C209.284 641.466 208.886 641.723 208.413 641.909C207.939 642.091 207.407 642.182 206.816 642.182ZM212.469 642V633.273H213.765V634.591H213.856C214.015 634.159 214.303 633.809 214.719 633.54C215.136 633.271 215.606 633.136 216.129 633.136C216.227 633.136 216.35 633.138 216.498 633.142C216.646 633.146 216.757 633.152 216.833 633.159V634.523C216.788 634.511 216.683 634.494 216.521 634.472C216.362 634.445 216.193 634.432 216.015 634.432C215.591 634.432 215.212 634.521 214.879 634.699C214.549 634.873 214.288 635.116 214.094 635.426C213.905 635.733 213.81 636.083 213.81 636.477V642H212.469ZM218.423 642V633.273H219.763V642H218.423ZM219.104 631.818C218.843 631.818 218.618 631.729 218.428 631.551C218.243 631.373 218.15 631.159 218.15 630.909C218.15 630.659 218.243 630.445 218.428 630.267C218.618 630.089 218.843 630 219.104 630C219.366 630 219.589 630.089 219.775 630.267C219.964 630.445 220.059 630.659 220.059 630.909C220.059 631.159 219.964 631.373 219.775 631.551C219.589 631.729 219.366 631.818 219.104 631.818ZM225.879 642.182C225.038 642.182 224.312 641.996 223.702 641.625C223.096 641.25 222.629 640.727 222.299 640.057C221.973 639.383 221.81 638.598 221.81 637.705C221.81 636.811 221.973 636.023 222.299 635.341C222.629 634.655 223.087 634.121 223.674 633.739C224.265 633.352 224.954 633.159 225.742 633.159C226.197 633.159 226.646 633.235 227.089 633.386C227.532 633.538 227.935 633.784 228.299 634.125C228.663 634.462 228.952 634.909 229.168 635.466C229.384 636.023 229.492 636.708 229.492 637.523V638.091H222.765V636.932H228.129C228.129 636.439 228.03 636 227.833 635.614C227.64 635.227 227.363 634.922 227.004 634.699C226.647 634.475 226.227 634.364 225.742 634.364C225.208 634.364 224.746 634.496 224.356 634.761C223.969 635.023 223.672 635.364 223.464 635.784C223.255 636.205 223.151 636.655 223.151 637.136V637.909C223.151 638.568 223.265 639.127 223.492 639.585C223.723 640.04 224.043 640.386 224.452 640.625C224.862 640.86 225.337 640.977 225.879 640.977C226.231 640.977 226.549 640.928 226.833 640.83C227.121 640.727 227.369 640.576 227.577 640.375C227.786 640.17 227.947 639.917 228.06 639.614L229.356 639.977C229.219 640.417 228.99 640.803 228.668 641.136C228.346 641.466 227.949 641.723 227.475 641.909C227.002 642.091 226.469 642.182 225.879 642.182ZM232.873 636.75V642H231.532V633.273H232.827V634.636H232.941C233.146 634.193 233.456 633.837 233.873 633.568C234.29 633.295 234.827 633.159 235.487 633.159C236.077 633.159 236.594 633.28 237.038 633.523C237.481 633.761 237.826 634.125 238.072 634.614C238.318 635.098 238.441 635.712 238.441 636.455V642H237.1V636.545C237.1 635.86 236.922 635.326 236.566 634.943C236.21 634.557 235.721 634.364 235.1 634.364C234.672 634.364 234.29 634.456 233.952 634.642C233.619 634.828 233.356 635.098 233.163 635.455C232.969 635.811 232.873 636.242 232.873 636.75ZM244.437 642.182C243.619 642.182 242.914 641.989 242.323 641.602C241.732 641.216 241.278 640.684 240.96 640.006C240.641 639.328 240.482 638.553 240.482 637.682C240.482 636.795 240.645 636.013 240.971 635.335C241.3 634.653 241.759 634.121 242.346 633.739C242.937 633.352 243.626 633.159 244.414 633.159C245.028 633.159 245.581 633.273 246.073 633.5C246.566 633.727 246.969 634.045 247.283 634.455C247.598 634.864 247.793 635.341 247.869 635.886H246.528C246.425 635.489 246.198 635.136 245.846 634.83C245.497 634.519 245.028 634.364 244.437 634.364C243.914 634.364 243.456 634.5 243.062 634.773C242.672 635.042 242.367 635.422 242.147 635.915C241.931 636.403 241.823 636.977 241.823 637.636C241.823 638.311 241.929 638.898 242.141 639.398C242.357 639.898 242.66 640.286 243.05 640.562C243.444 640.839 243.906 640.977 244.437 640.977C244.785 640.977 245.102 640.917 245.386 640.795C245.67 640.674 245.91 640.5 246.107 640.273C246.304 640.045 246.444 639.773 246.528 639.455H247.869C247.793 639.97 247.605 640.434 247.306 640.847C247.011 641.256 246.619 641.581 246.13 641.824C245.645 642.062 245.081 642.182 244.437 642.182ZM253.488 642.182C252.647 642.182 251.922 641.996 251.312 641.625C250.706 641.25 250.238 640.727 249.908 640.057C249.583 639.383 249.42 638.598 249.42 637.705C249.42 636.811 249.583 636.023 249.908 635.341C250.238 634.655 250.696 634.121 251.283 633.739C251.874 633.352 252.564 633.159 253.352 633.159C253.806 633.159 254.255 633.235 254.698 633.386C255.141 633.538 255.545 633.784 255.908 634.125C256.272 634.462 256.562 634.909 256.778 635.466C256.994 636.023 257.102 636.708 257.102 637.523V638.091H250.374V636.932H255.738C255.738 636.439 255.639 636 255.442 635.614C255.249 635.227 254.973 634.922 254.613 634.699C254.257 634.475 253.836 634.364 253.352 634.364C252.817 634.364 252.355 634.496 251.965 634.761C251.579 635.023 251.281 635.364 251.073 635.784C250.865 636.205 250.761 636.655 250.761 637.136V637.909C250.761 638.568 250.874 639.127 251.102 639.585C251.333 640.04 251.653 640.386 252.062 640.625C252.471 640.86 252.946 640.977 253.488 640.977C253.84 640.977 254.158 640.928 254.442 640.83C254.73 640.727 254.978 640.576 255.187 640.375C255.395 640.17 255.556 639.917 255.67 639.614L256.965 639.977C256.829 640.417 256.6 640.803 256.278 641.136C255.956 641.466 255.558 641.723 255.085 641.909C254.611 642.091 254.079 642.182 253.488 642.182ZM263.641 642V633.273H264.982V642H263.641ZM264.323 631.818C264.062 631.818 263.836 631.729 263.647 631.551C263.461 631.373 263.369 631.159 263.369 630.909C263.369 630.659 263.461 630.445 263.647 630.267C263.836 630.089 264.062 630 264.323 630C264.585 630 264.808 630.089 264.994 630.267C265.183 630.445 265.278 630.659 265.278 630.909C265.278 631.159 265.183 631.373 264.994 631.551C264.808 631.729 264.585 631.818 264.323 631.818ZM271.234 633.273V634.409H266.711V633.273H271.234ZM268.029 631.182H269.37V639.5C269.37 639.879 269.425 640.163 269.535 640.352C269.648 640.538 269.792 640.663 269.967 640.727C270.145 640.788 270.332 640.818 270.529 640.818C270.677 640.818 270.798 640.811 270.893 640.795C270.987 640.777 271.063 640.761 271.12 640.75L271.393 641.955C271.302 641.989 271.175 642.023 271.012 642.057C270.849 642.095 270.643 642.114 270.393 642.114C270.014 642.114 269.643 642.032 269.279 641.869C268.919 641.706 268.62 641.458 268.381 641.125C268.147 640.792 268.029 640.371 268.029 639.864V631.182ZM184.692 652.273V653.409H179.987V652.273H184.692ZM181.396 661V651.068C181.396 650.568 181.514 650.152 181.749 649.818C181.983 649.485 182.288 649.235 182.663 649.068C183.038 648.902 183.434 648.818 183.851 648.818C184.18 648.818 184.449 648.845 184.658 648.898C184.866 648.951 185.021 649 185.124 649.045L184.737 650.205C184.669 650.182 184.574 650.153 184.453 650.119C184.336 650.085 184.18 650.068 183.987 650.068C183.544 650.068 183.224 650.18 183.027 650.403C182.834 650.627 182.737 650.955 182.737 651.386V661H181.396ZM189.757 661.182C188.969 661.182 188.278 660.994 187.683 660.619C187.092 660.244 186.63 659.72 186.297 659.045C185.967 658.371 185.803 657.583 185.803 656.682C185.803 655.773 185.967 654.979 186.297 654.301C186.63 653.623 187.092 653.097 187.683 652.722C188.278 652.347 188.969 652.159 189.757 652.159C190.545 652.159 191.234 652.347 191.825 652.722C192.42 653.097 192.882 653.623 193.212 654.301C193.545 654.979 193.712 655.773 193.712 656.682C193.712 657.583 193.545 658.371 193.212 659.045C192.882 659.72 192.42 660.244 191.825 660.619C191.234 660.994 190.545 661.182 189.757 661.182ZM189.757 659.977C190.356 659.977 190.848 659.824 191.234 659.517C191.621 659.21 191.907 658.807 192.092 658.307C192.278 657.807 192.371 657.265 192.371 656.682C192.371 656.098 192.278 655.555 192.092 655.051C191.907 654.547 191.621 654.14 191.234 653.83C190.848 653.519 190.356 653.364 189.757 653.364C189.159 653.364 188.666 653.519 188.28 653.83C187.893 654.14 187.607 654.547 187.422 655.051C187.236 655.555 187.143 656.098 187.143 656.682C187.143 657.265 187.236 657.807 187.422 658.307C187.607 658.807 187.893 659.21 188.28 659.517C188.666 659.824 189.159 659.977 189.757 659.977ZM195.759 661V652.273H197.054V653.591H197.145C197.304 653.159 197.592 652.809 198.009 652.54C198.425 652.271 198.895 652.136 199.418 652.136C199.516 652.136 199.639 652.138 199.787 652.142C199.935 652.146 200.046 652.152 200.122 652.159V653.523C200.077 653.511 199.973 653.494 199.81 653.472C199.651 653.445 199.482 653.432 199.304 653.432C198.88 653.432 198.501 653.521 198.168 653.699C197.838 653.873 197.577 654.116 197.384 654.426C197.194 654.733 197.099 655.083 197.099 655.477V661H195.759ZM205.393 649.364H207.007L210.234 654.795H210.371L213.598 649.364H215.212L211.007 656.205V661H209.598V656.205L205.393 649.364ZM219.163 661.182C218.375 661.182 217.684 660.994 217.089 660.619C216.499 660.244 216.036 659.72 215.703 659.045C215.374 658.371 215.209 657.583 215.209 656.682C215.209 655.773 215.374 654.979 215.703 654.301C216.036 653.623 216.499 653.097 217.089 652.722C217.684 652.347 218.375 652.159 219.163 652.159C219.951 652.159 220.641 652.347 221.232 652.722C221.826 653.097 222.288 653.623 222.618 654.301C222.951 654.979 223.118 655.773 223.118 656.682C223.118 657.583 222.951 658.371 222.618 659.045C222.288 659.72 221.826 660.244 221.232 660.619C220.641 660.994 219.951 661.182 219.163 661.182ZM219.163 659.977C219.762 659.977 220.254 659.824 220.641 659.517C221.027 659.21 221.313 658.807 221.499 658.307C221.684 657.807 221.777 657.265 221.777 656.682C221.777 656.098 221.684 655.555 221.499 655.051C221.313 654.547 221.027 654.14 220.641 653.83C220.254 653.519 219.762 653.364 219.163 653.364C218.565 653.364 218.072 653.519 217.686 653.83C217.3 654.14 217.014 654.547 216.828 655.051C216.643 655.555 216.55 656.098 216.55 656.682C216.55 657.265 216.643 657.807 216.828 658.307C217.014 658.807 217.3 659.21 217.686 659.517C218.072 659.824 218.565 659.977 219.163 659.977ZM230.665 657.432V652.273H232.006V661H230.665V659.523H230.574C230.369 659.966 230.051 660.343 229.619 660.653C229.188 660.96 228.642 661.114 227.983 661.114C227.438 661.114 226.953 660.994 226.528 660.756C226.104 660.513 225.771 660.15 225.528 659.665C225.286 659.176 225.165 658.561 225.165 657.818V652.273H226.506V657.727C226.506 658.364 226.684 658.871 227.04 659.25C227.4 659.629 227.858 659.818 228.415 659.818C228.748 659.818 229.087 659.733 229.432 659.562C229.78 659.392 230.072 659.131 230.307 658.778C230.545 658.426 230.665 657.977 230.665 657.432ZM234.462 661V652.273H235.757V653.591H235.848C236.007 653.159 236.295 652.809 236.712 652.54C237.128 652.271 237.598 652.136 238.121 652.136C238.219 652.136 238.342 652.138 238.49 652.142C238.638 652.146 238.75 652.152 238.825 652.159V653.523C238.78 653.511 238.676 653.494 238.513 653.472C238.354 653.445 238.185 653.432 238.007 653.432C237.583 653.432 237.204 653.521 236.871 653.699C236.541 653.873 236.28 654.116 236.087 654.426C235.897 654.733 235.803 655.083 235.803 655.477V661H234.462ZM246.597 654.227L245.392 654.568C245.316 654.367 245.205 654.172 245.057 653.983C244.913 653.79 244.716 653.631 244.466 653.506C244.216 653.381 243.896 653.318 243.506 653.318C242.972 653.318 242.527 653.441 242.17 653.688C241.818 653.93 241.642 654.239 241.642 654.614C241.642 654.947 241.763 655.21 242.006 655.403C242.248 655.597 242.627 655.758 243.142 655.886L244.438 656.205C245.218 656.394 245.799 656.684 246.182 657.074C246.564 657.46 246.756 657.958 246.756 658.568C246.756 659.068 246.612 659.515 246.324 659.909C246.04 660.303 245.642 660.614 245.131 660.841C244.619 661.068 244.025 661.182 243.347 661.182C242.456 661.182 241.72 660.989 241.136 660.602C240.553 660.216 240.184 659.652 240.028 658.909L241.301 658.591C241.422 659.061 241.652 659.413 241.989 659.648C242.33 659.883 242.775 660 243.324 660C243.949 660 244.445 659.867 244.812 659.602C245.184 659.333 245.369 659.011 245.369 658.636C245.369 658.333 245.263 658.08 245.051 657.875C244.839 657.667 244.513 657.511 244.074 657.409L242.619 657.068C241.82 656.879 241.233 656.585 240.858 656.188C240.487 655.786 240.301 655.284 240.301 654.682C240.301 654.189 240.439 653.754 240.716 653.375C240.996 652.996 241.377 652.699 241.858 652.483C242.343 652.267 242.892 652.159 243.506 652.159C244.369 652.159 245.047 652.348 245.54 652.727C246.036 653.106 246.388 653.606 246.597 654.227ZM252.433 661.182C251.592 661.182 250.867 660.996 250.257 660.625C249.651 660.25 249.183 659.727 248.854 659.057C248.528 658.383 248.365 657.598 248.365 656.705C248.365 655.811 248.528 655.023 248.854 654.341C249.183 653.655 249.642 653.121 250.229 652.739C250.82 652.352 251.509 652.159 252.297 652.159C252.751 652.159 253.2 652.235 253.643 652.386C254.087 652.538 254.49 652.784 254.854 653.125C255.217 653.462 255.507 653.909 255.723 654.466C255.939 655.023 256.047 655.708 256.047 656.523V657.091H249.32V655.932H254.683C254.683 655.439 254.585 655 254.388 654.614C254.195 654.227 253.918 653.922 253.558 653.699C253.202 653.475 252.782 653.364 252.297 653.364C251.763 653.364 251.301 653.496 250.911 653.761C250.524 654.023 250.227 654.364 250.018 654.784C249.81 655.205 249.706 655.655 249.706 656.136V656.909C249.706 657.568 249.82 658.127 250.047 658.585C250.278 659.04 250.598 659.386 251.007 659.625C251.416 659.86 251.892 659.977 252.433 659.977C252.786 659.977 253.104 659.928 253.388 659.83C253.676 659.727 253.924 659.576 254.132 659.375C254.34 659.17 254.501 658.917 254.615 658.614L255.911 658.977C255.774 659.417 255.545 659.803 255.223 660.136C254.901 660.466 254.503 660.723 254.03 660.909C253.556 661.091 253.024 661.182 252.433 661.182ZM259.428 649.364V661H258.087V649.364H259.428ZM265.77 652.273V653.409H261.065V652.273H265.77ZM262.474 661V651.068C262.474 650.568 262.592 650.152 262.827 649.818C263.062 649.485 263.366 649.235 263.741 649.068C264.116 648.902 264.512 648.818 264.929 648.818C265.259 648.818 265.527 648.845 265.736 648.898C265.944 648.951 266.099 649 266.202 649.045L265.815 650.205C265.747 650.182 265.652 650.153 265.531 650.119C265.414 650.085 265.259 650.068 265.065 650.068C264.622 650.068 264.302 650.18 264.105 650.403C263.912 650.627 263.815 650.955 263.815 651.386V661H262.474Z" fill="black"/>
<defs>
<linearGradient id="paint0_linear_67_4" x1="222.5" y1="0" x2="222.5" y2="755" gradientUnits="userSpaceOnUse">
<stop stop-color="white"/>
<stop offset="1" stop-color="white" stop-opacity="0"/>
</linearGradient>
<linearGradient id="paint1_linear_67_4" x1="125" y1="644" x2="323" y2="644.5" gradientUnits="userSpaceOnUse">
<stop stop-color="#15B1E4"/>
<stop offset="1" stop-color="#B800FF"/>
</linearGradient>
</defs>
</svg>
