<svg width="445" height="755" viewBox="0 0 445 755" fill="none" xmlns="http://www.w3.org/2000/svg">
<rect width="445" height="755" fill="url(#paint0_linear_172_2)"/>
<path d="M127.376 273.328V261.984H124.72V260.512H129.056V273.328H127.376ZM142.962 260H144.546V273.664H142.962V260ZM137.906 260.4C137.89 262.496 137.714 264.384 137.362 266.016L141.778 271.904L140.498 272.816L136.866 267.856C135.858 270.864 134.194 272.688 132.034 272.848V271.248C134.77 270.816 136.274 266.08 136.29 260.336L137.906 260.4ZM159.233 263.248H161.153V264.768H159.233V270.144H157.649V260H159.233V263.248ZM155.089 262.192C155.089 266.08 151.905 268 147.217 268V266.576C151.041 266.56 153.489 265.104 153.489 262.384V261.728H147.217V260.336H155.089V262.192ZM149.409 269.184V272.048H159.601V273.488H147.809V269.184H149.409ZM180.388 265.536V267.056H178.548V273.664H177.012V260H178.548V265.536H180.388ZM174.228 261.936C174.212 263.808 174.116 265.408 173.94 266.736L176.676 272.224L175.444 272.88L173.556 268.88C172.948 271.28 171.908 272.48 170.388 272.848L168.996 269.104C168.388 271.36 167.364 272.48 165.892 272.848V271.264C167.444 270.72 168.164 267.744 168.212 261.936H166.356V260.496H170.884V261.936H169.732C169.716 263.792 169.62 265.36 169.46 266.704L171.076 270.816C172.148 269.696 172.676 266.8 172.708 261.936H171.46V260.496H175.86V261.936H174.228ZM192.339 273.664V260H193.923V273.664H192.339ZM181.955 272.848V265.84H188.067V261.952H181.923V260.496H189.651V267.296H183.539V271.392H187.539C188.835 271.392 190.243 271.136 191.075 270.736V272.192C190.243 272.608 188.819 272.848 187.491 272.848H181.955ZM209.414 264.608H211.702V262.576H209.414L209.318 261.216H211.702V260H213.27V267.552H211.702V265.968H209.318L209.414 264.608ZM208.95 263.616C208.95 265.68 207.334 267.088 204.742 267.088C202.166 267.088 200.55 265.68 200.55 263.616C200.55 261.568 202.166 260.144 204.742 260.144C207.334 260.144 208.95 261.568 208.95 263.616ZM202.118 263.616C202.118 264.976 203.174 265.76 204.742 265.76C206.31 265.76 207.366 264.976 207.366 263.616C207.366 262.256 206.31 261.472 204.742 261.472C203.174 261.472 202.118 262.256 202.118 263.616ZM207.558 268C210.822 268 213.398 268.784 213.398 270.832C213.398 272.88 210.822 273.664 207.558 273.664C204.294 273.664 201.734 272.88 201.734 270.832C201.734 268.784 204.294 268 207.558 268ZM207.558 272.352C209.862 272.352 211.702 271.888 211.702 270.832C211.702 269.792 209.862 269.312 207.558 269.312C205.254 269.312 203.414 269.792 203.414 270.832C203.414 271.888 205.254 272.352 207.558 272.352ZM227.844 262.608H229.764V264.112H227.844V267.552H226.26V260H227.844V262.608ZM220.132 264.288C219.14 265.888 217.54 267.008 215.508 267.28V265.84C218.1 265.376 219.62 263.008 219.652 260.128L221.236 260.224C221.236 261.232 221.06 262.176 220.74 263.04L224.98 265.792L224.164 266.96L220.132 264.288ZM222.196 268C225.476 268 228.052 268.784 228.052 270.832C228.052 272.88 225.476 273.664 222.196 273.664C218.932 273.664 216.34 272.88 216.34 270.832C216.34 268.784 218.932 268 222.196 268ZM222.196 272.352C224.532 272.352 226.356 271.888 226.356 270.832C226.356 269.792 224.532 269.312 222.196 269.312C219.876 269.312 218.036 269.792 218.036 270.832C218.036 271.888 219.876 272.352 222.196 272.352ZM238.163 271.536H244.195V273.008H230.547V271.536H236.547V268.224H231.443V260.496H243.299V261.968H233.059V266.752H243.459V268.224H238.163V271.536ZM252.278 273.328V261.984H249.622V260.512H253.958V273.328H252.278ZM261.368 273.616C258.664 273.616 256.632 271.392 256.632 266.912C256.632 262.432 258.664 260.208 261.368 260.208C264.056 260.208 266.088 262.432 266.088 266.912C266.088 271.392 264.056 273.616 261.368 273.616ZM261.368 272.128C263.096 272.128 264.472 270.4 264.472 266.912C264.472 263.44 263.096 261.696 261.368 261.696C259.624 261.696 258.248 263.44 258.248 266.912C258.248 270.4 259.624 272.128 261.368 272.128ZM280.126 260.08V265.904H268.446V260.08H270.014V261.728H278.574V260.08H280.126ZM270.014 264.64H278.574V262.944H270.014V264.64ZM267.47 267.248H281.118V268.592H275.086V270.72H273.486V268.592H267.47V267.248ZM270.03 269.824V272.16H280.414V273.504H268.414V269.824H270.03ZM299.073 263.248H300.993V264.768H299.073V270.144H297.489V260H299.073V263.248ZM295.169 260.336V267.712H287.185V260.336H295.169ZM293.601 266.336V261.712H288.753V266.336H293.601ZM289.249 269.056V272.048H299.441V273.488H287.649V269.056H289.249ZM313.408 260H314.912V273.664H313.408V260ZM310.112 265.696V260.08H311.6V273.424H310.112V267.2H308.304C308.208 271.248 307.12 273.024 305.136 273.024C303.072 273.024 301.952 271.088 301.952 266.672C301.952 262.256 303.072 260.32 305.136 260.32C307.04 260.32 308.128 261.968 308.288 265.696H310.112ZM305.136 271.584C306.272 271.584 306.8 270.032 306.8 266.672C306.8 263.312 306.272 261.76 305.136 261.76C304 261.76 303.456 263.312 303.456 266.672C303.456 270.032 304 271.584 305.136 271.584ZM317.438 269.776L317.038 260.512H319.07L318.654 269.776H317.438ZM318.046 273.584C317.374 273.584 316.862 273.072 316.862 272.4C316.862 271.744 317.374 271.232 318.046 271.232C318.718 271.232 319.23 271.744 319.23 272.4C319.23 273.072 318.718 273.584 318.046 273.584Z" fill="black"/>
<path d="M139.16 537.328V533.216H137.272V531.792H139.16V530H140.744V537.328H139.16ZM132.568 534.8C130.168 534.8 128.584 533.904 128.584 532.416C128.584 530.944 130.168 530.032 132.568 530.032C134.968 530.032 136.552 530.944 136.552 532.416C136.552 533.904 134.968 534.8 132.568 534.8ZM132.568 531.2C131.096 531.2 130.12 531.648 130.12 532.416C130.12 533.168 131.096 533.632 132.568 533.632C134.056 533.632 135.016 533.168 135.016 532.416C135.016 531.648 134.056 531.2 132.568 531.2ZM130.728 542.32H141.08V543.488H129.16V540.224H139.192V539.248H129.128V538.08H131.704V536.896H127.88V535.68H133.528C135.4 535.68 137.064 535.52 138.008 535.136V536.352C137.144 536.736 135.432 536.896 133.48 536.896H133.272V538.08H140.744V541.344H130.728V542.32ZM147.019 543.328V542.24L151.563 537.68C153.195 536.032 153.835 534.992 153.835 534.08C153.835 532.576 152.811 531.696 151.211 531.696C149.483 531.696 148.555 533.008 148.555 534.432H146.875C146.875 532.112 148.555 530.208 151.227 530.208C153.803 530.208 155.499 531.76 155.499 534.064C155.499 535.44 154.715 536.608 152.795 538.576L149.435 541.872H155.931V543.328H147.019ZM161.967 543.616C159.263 543.616 157.231 541.392 157.231 536.912C157.231 532.432 159.263 530.208 161.967 530.208C164.655 530.208 166.687 532.432 166.687 536.912C166.687 541.392 164.655 543.616 161.967 543.616ZM161.967 542.128C163.695 542.128 165.071 540.4 165.071 536.912C165.071 533.44 163.695 531.696 161.967 531.696C160.223 531.696 158.847 533.44 158.847 536.912C158.847 540.4 160.223 542.128 161.967 542.128ZM172.741 543.616C170.037 543.616 168.005 541.392 168.005 536.912C168.005 532.432 170.037 530.208 172.741 530.208C175.429 530.208 177.461 532.432 177.461 536.912C177.461 541.392 175.429 543.616 172.741 543.616ZM172.741 542.128C174.469 542.128 175.845 540.4 175.845 536.912C175.845 533.44 174.469 531.696 172.741 531.696C170.997 531.696 169.621 533.44 169.621 536.912C169.621 540.4 170.997 542.128 172.741 542.128ZM183.515 543.616C180.811 543.616 178.779 541.392 178.779 536.912C178.779 532.432 180.811 530.208 183.515 530.208C186.203 530.208 188.235 532.432 188.235 536.912C188.235 541.392 186.203 543.616 183.515 543.616ZM183.515 542.128C185.243 542.128 186.619 540.4 186.619 536.912C186.619 533.44 185.243 531.696 183.515 531.696C181.771 531.696 180.395 533.44 180.395 536.912C180.395 540.4 181.771 542.128 183.515 542.128ZM200.784 530H202.368V543.664H200.784V530ZM195.728 530.4C195.712 532.496 195.536 534.384 195.184 536.016L199.6 541.904L198.32 542.816L194.688 537.856C193.68 540.864 192.016 542.688 189.856 542.848V541.248C192.592 540.816 194.096 536.08 194.112 530.336L195.728 530.4ZM217.055 533.248H218.975V534.768H217.055V540.144H215.471V530H217.055V533.248ZM212.911 532.192C212.911 536.08 209.727 538 205.039 538V536.576C208.863 536.56 211.311 535.104 211.311 532.384V531.728H205.039V530.336H212.911V532.192ZM207.231 539.184V542.048H217.423V543.488H205.631V539.184H207.231ZM234.046 535.536V537.056H232.206V543.664H230.67V530H232.206V535.536H234.046ZM220.062 531.936V530.496H223.982V533.584C223.982 538.72 222.974 542.208 220.062 542.336V540.864C221.87 540.624 222.446 537.872 222.446 533.728V531.936H220.062ZM224.686 531.936V530.496H228.574V533.792C228.574 539.28 227.262 542.672 224.254 542.816V541.344C226.174 541.12 227.038 538.48 227.038 533.936V531.936H224.686ZM245.996 530H247.58V543.664H245.996V530ZM240.668 531.952C240.652 533.536 240.492 534.992 240.236 536.272L244.7 541.792L243.452 542.736L239.772 538.048C238.828 540.912 237.196 542.608 235.132 542.848V541.28C237.564 540.832 239.004 537.024 239.068 531.952H235.452V530.496H244.172V531.952H240.668ZM259.791 533.584C259.743 534.704 259.615 535.744 259.423 536.704L263.775 541.824L262.575 542.832L258.927 538.432C257.983 541.04 256.335 542.608 254.287 542.848V541.296C256.591 540.88 258.015 537.728 258.191 533.584H254.527V532.112H258.191V529.872H259.807V532.112H263.279V533.584H259.791ZM265.343 530H266.927V543.664H265.343V537.28H262.415V535.792H265.343V530ZM280.302 543.664V530H281.886V543.664H280.302ZM269.918 542.848V535.84H276.03V531.952H269.886V530.496H277.614V537.296H271.502V541.392H275.502C276.798 541.392 278.206 541.136 279.038 540.736V542.192C278.206 542.608 276.782 542.848 275.454 542.848H269.918ZM302.657 535.536V537.056H300.737V543.664H299.153V530H300.737V535.536H302.657ZM288.865 531.952V530.496H296.305V533.792C296.305 539.232 293.505 542.816 288.865 542.816V541.312C292.577 541.296 294.689 538.4 294.689 533.824V531.952H288.865ZM304.415 534.816V530H306.015V533.536H316.271V534.816H304.415ZM303.439 537.456V536.176H317.087V537.456H303.439ZM310.255 543.696C306.991 543.696 304.255 543.056 304.255 541.184C304.255 539.312 306.991 538.688 310.255 538.688C313.519 538.688 316.255 539.312 316.255 541.184C316.255 543.056 313.519 543.696 310.255 543.696ZM310.255 542.448C312.463 542.448 314.591 542.128 314.591 541.184C314.591 540.256 312.463 539.936 310.255 539.936C308.047 539.936 305.919 540.256 305.919 541.184C305.919 542.128 308.047 542.448 310.255 542.448Z" fill="black"/>
<rect x="30" y="29" width="386" height="218" fill="#D9D9D9"/>
<rect x="30" y="299" width="386" height="218" fill="#D9D9D9"/>
<rect x="31.5" y="610.5" width="195" height="67" rx="33.5" fill="white" stroke="url(#paint1_linear_172_2)"/>
<path d="M99.778 639.406C99.76 640.648 99.688 641.8 99.544 642.826L103.252 648.946L101.83 649.792L99.112 645.184C98.374 648.028 97.024 649.666 95.062 649.954V648.262C97.06 647.812 97.996 644.338 98.068 639.406H95.224V637.786H98.068V635.464H99.778V637.786H102.568V639.406H99.778ZM108.076 635.5H109.768V650.872H108.076V635.5ZM104.098 641.728V635.59H105.79V650.602H104.098V643.402H101.956V641.728H104.098ZM122.42 636.796V638.182H111.98V636.796H116.3V635.23H118.1V636.796H122.42ZM124.634 635.5H126.416V644.644H124.634V641.746H122.222V640.162H124.634V635.5ZM117.2 644.536C114.698 644.536 112.718 643.546 112.718 641.782C112.718 640.036 114.698 639.028 117.2 639.028C119.702 639.028 121.664 640.036 121.664 641.782C121.664 643.546 119.702 644.536 117.2 644.536ZM117.2 640.36C115.49 640.36 114.41 640.972 114.41 641.782C114.41 642.592 115.49 643.222 117.2 643.222C118.91 643.222 119.972 642.592 119.972 641.782C119.972 640.972 118.91 640.36 117.2 640.36ZM113.33 650.674V645.508H126.362V650.674H113.33ZM115.094 646.93V649.252H124.598V646.93H115.094ZM135.127 635.464V637.93H139.213V639.514H129.241V637.93H133.309V635.464H135.127ZM144.973 641.728V643.438H142.813V650.872H141.031V635.5H142.813V641.728H144.973ZM134.227 640.738C136.729 640.738 138.493 642.61 138.493 645.436C138.493 648.262 136.729 650.134 134.227 650.134C131.725 650.134 129.943 648.262 129.943 645.436C129.943 642.61 131.725 640.738 134.227 640.738ZM134.227 648.586C135.649 648.586 136.765 647.398 136.765 645.436C136.765 643.474 135.649 642.286 134.227 642.286C132.787 642.286 131.671 643.474 131.671 645.436C131.671 647.398 132.787 648.586 134.227 648.586ZM158.417 650.872V635.5H160.199V650.872H158.417ZM146.573 649.918V648.226C150.767 648.208 153.287 644.95 153.287 639.802V637.696H146.573V636.058H155.105V639.766C155.105 645.922 151.829 649.918 146.573 649.918Z" fill="black"/>
<defs>
<linearGradient id="paint0_linear_172_2" x1="222.5" y1="0" x2="222.5" y2="755" gradientUnits="userSpaceOnUse">
<stop stop-color="#DCD8FF"/>
<stop offset="1" stop-color="white"/>
</linearGradient>
<linearGradient id="paint1_linear_172_2" x1="31" y1="642" x2="229" y2="642.5" gradientUnits="userSpaceOnUse">
<stop stop-color="#15B1E4"/>
<stop offset="1" stop-color="#B800FF"/>
</linearGradient>
</defs>
</svg>
