<svg width="445" height="755" viewBox="0 0 445 755" fill="none" xmlns="http://www.w3.org/2000/svg">
<rect x="0.25" y="0.25" width="444.5" height="754.5" fill="url(#paint0_linear_67_3)" fill-opacity="0.7" stroke="white" stroke-width="0.5"/>
<path d="M94.4205 261.016H89.8285V272.328H88.1485V261.016H83.5405V259.512H94.4205V261.016ZM94.596 263.176H96.244V264.584C96.644 263.896 97.748 262.952 99.54 262.952C100.1 262.952 100.468 263 100.788 263.112V264.68C100.436 264.52 99.988 264.424 99.428 264.424C97.556 264.424 96.244 265.928 96.244 267.592V272.328H94.596V263.176ZM105.668 272.552C103.076 272.552 101.14 270.488 101.14 267.752C101.14 265.016 103.076 262.952 105.668 262.952C107.332 262.952 108.452 263.752 108.916 264.536V263.176H110.564V272.328H108.916V270.968C108.452 271.752 107.332 272.552 105.668 272.552ZM105.812 271.096C107.668 271.096 108.948 269.656 108.948 267.752C108.948 265.848 107.668 264.408 105.812 264.408C103.972 264.408 102.756 265.848 102.756 267.752C102.756 269.656 103.972 271.096 105.812 271.096ZM112.831 263.176H114.479V264.568C114.863 263.896 115.903 262.952 117.583 262.952C119.743 262.952 121.263 264.504 121.263 266.968V272.328H119.615V267.256C119.615 265.4 118.719 264.392 117.231 264.392C115.631 264.392 114.479 265.896 114.479 267.592V272.328H112.831V263.176ZM126.877 262.952C129.117 262.952 130.797 264.056 130.877 265.608H129.261C129.197 264.84 128.157 264.296 126.829 264.296C125.501 264.296 124.541 264.824 124.541 265.512C124.541 266.264 125.117 266.728 127.357 267.032C130.109 267.4 131.085 268.296 131.085 269.72C131.085 271.496 129.213 272.552 126.941 272.552C124.493 272.552 122.925 271.368 122.813 269.768H124.429C124.525 270.488 125.357 271.208 126.989 271.208C128.397 271.208 129.469 270.632 129.469 269.816C129.469 269.064 128.765 268.632 126.573 268.344C124.077 268.008 122.925 267.208 122.925 265.608C122.925 263.992 124.637 262.952 126.877 262.952ZM137.33 263.176V264.632H135.298V272.328H133.65V264.632H131.842V263.176H133.65V261.624C133.65 260.104 134.53 259.048 136.098 259.048C136.498 259.048 136.882 259.08 137.17 259.144V260.536C136.946 260.488 136.626 260.488 136.386 260.488C135.714 260.488 135.298 260.92 135.298 261.672V263.176H137.33ZM142.516 262.952C145.22 262.952 147.188 265 147.188 267.752C147.188 270.504 145.22 272.552 142.516 272.552C139.796 272.552 137.828 270.504 137.828 267.752C137.828 265 139.796 262.952 142.516 262.952ZM142.516 264.408C140.692 264.408 139.444 265.848 139.444 267.752C139.444 269.656 140.692 271.096 142.516 271.096C144.324 271.096 145.572 269.656 145.572 267.752C145.572 265.848 144.324 264.408 142.516 264.408ZM148.973 263.176H150.621V264.584C151.021 263.896 152.125 262.952 153.917 262.952C154.477 262.952 154.845 263 155.165 263.112V264.68C154.813 264.52 154.365 264.424 153.805 264.424C151.933 264.424 150.621 265.928 150.621 267.592V272.328H148.973V263.176ZM156.481 263.176H158.129V264.472C158.545 263.8 159.361 262.952 160.897 262.952C162.257 262.952 163.297 263.704 163.745 264.872C164.289 263.72 165.441 262.952 166.993 262.952C168.945 262.952 170.353 264.44 170.353 266.76V272.328H168.705V267.032C168.705 265.384 167.905 264.392 166.609 264.392C165.233 264.392 164.241 265.736 164.241 267.4V272.328H162.593V267.096C162.593 265.384 161.777 264.392 160.497 264.392C159.137 264.392 158.129 265.736 158.129 267.384V272.328H156.481V263.176ZM173.196 258.952C173.836 258.952 174.3 259.416 174.3 260.04C174.3 260.664 173.836 261.128 173.196 261.128C172.572 261.128 172.108 260.664 172.108 260.04C172.108 259.416 172.572 258.952 173.196 258.952ZM174.028 272.344H172.38V263.176H174.028V272.344ZM176.294 263.176H177.942V264.568C178.326 263.896 179.366 262.952 181.046 262.952C183.206 262.952 184.726 264.504 184.726 266.968V272.328H183.078V267.256C183.078 265.4 182.182 264.392 180.694 264.392C179.094 264.392 177.942 265.896 177.942 267.592V272.328H176.294V263.176ZM191.22 276.44C188.596 276.44 187.204 274.92 186.884 273.192H188.564C188.756 274.168 189.572 275.016 191.22 275.016C192.884 275.016 194.036 273.896 194.036 272.104V270.84C193.572 271.624 192.452 272.424 190.788 272.424C188.196 272.424 186.26 270.392 186.26 267.704C186.26 265 188.196 262.952 190.788 262.952C192.452 262.952 193.572 263.752 194.036 264.536V263.176H195.684V272.12C195.684 274.648 193.844 276.44 191.22 276.44ZM190.932 271C192.788 271 194.068 269.576 194.068 267.704C194.068 265.832 192.788 264.408 190.932 264.408C189.092 264.408 187.876 265.832 187.876 267.704C187.876 269.576 189.092 271 190.932 271ZM208.355 272.616C204.483 272.616 201.635 269.784 201.635 265.912C201.635 262.04 204.483 259.208 208.355 259.208C211.667 259.208 213.955 261.128 214.627 263.816H212.915C212.371 262.008 210.723 260.76 208.387 260.76C205.443 260.76 203.315 262.904 203.315 265.912C203.315 268.904 205.459 271.064 208.387 271.064C210.787 271.064 212.579 269.656 213.043 267.832H214.755C214.195 270.504 211.747 272.616 208.355 272.616ZM218.146 272.328H216.498V259.112H218.146V272.328ZM224.461 272.552C221.869 272.552 219.933 270.488 219.933 267.752C219.933 265.016 221.869 262.952 224.461 262.952C226.125 262.952 227.245 263.752 227.709 264.536V263.176H229.357V272.328H227.709V270.968C227.245 271.752 226.125 272.552 224.461 272.552ZM224.605 271.096C226.461 271.096 227.741 269.656 227.741 267.752C227.741 265.848 226.461 264.408 224.605 264.408C222.765 264.408 221.549 265.848 221.549 267.752C221.549 269.656 222.765 271.096 224.605 271.096ZM235.224 262.952C237.464 262.952 239.144 264.056 239.224 265.608H237.608C237.544 264.84 236.504 264.296 235.176 264.296C233.848 264.296 232.888 264.824 232.888 265.512C232.888 266.264 233.464 266.728 235.704 267.032C238.456 267.4 239.432 268.296 239.432 269.72C239.432 271.496 237.56 272.552 235.288 272.552C232.84 272.552 231.272 271.368 231.16 269.768H232.776C232.872 270.488 233.704 271.208 235.336 271.208C236.744 271.208 237.816 270.632 237.816 269.816C237.816 269.064 237.112 268.632 234.92 268.344C232.424 268.008 231.272 267.208 231.272 265.608C231.272 263.992 232.984 262.952 235.224 262.952ZM244.795 262.952C247.035 262.952 248.715 264.056 248.795 265.608H247.179C247.115 264.84 246.075 264.296 244.747 264.296C243.419 264.296 242.459 264.824 242.459 265.512C242.459 266.264 243.035 266.728 245.275 267.032C248.027 267.4 249.003 268.296 249.003 269.72C249.003 271.496 247.131 272.552 244.859 272.552C242.411 272.552 240.843 271.368 240.731 269.768H242.347C242.443 270.488 243.275 271.208 244.907 271.208C246.315 271.208 247.387 270.632 247.387 269.816C247.387 269.064 246.683 268.632 244.491 268.344C241.995 268.008 240.843 267.208 240.843 265.608C240.843 263.992 242.555 262.952 244.795 262.952ZM251.581 258.952C252.221 258.952 252.685 259.416 252.685 260.04C252.685 260.664 252.221 261.128 251.581 261.128C250.957 261.128 250.493 260.664 250.493 260.04C250.493 259.416 250.957 258.952 251.581 258.952ZM252.413 272.344H250.765V263.176H252.413V272.344ZM263.208 269.224C262.712 271.208 261.032 272.552 258.904 272.552C256.184 272.552 254.2 270.504 254.2 267.752C254.2 265 256.168 262.952 258.872 262.952C261.032 262.952 262.728 264.344 263.176 266.248H261.496C261.128 265.16 260.168 264.408 258.872 264.408C257.048 264.408 255.816 265.848 255.816 267.752C255.816 269.656 257.048 271.096 258.872 271.096C260.168 271.096 261.16 270.328 261.528 269.224H263.208ZM269.935 272.328L275.151 260.984H268.303V259.512H277.087V260.632L271.711 272.328H269.935ZM282.538 272.616C279.834 272.616 277.802 270.392 277.802 265.912C277.802 261.432 279.834 259.208 282.538 259.208C285.226 259.208 287.258 261.432 287.258 265.912C287.258 270.392 285.226 272.616 282.538 272.616ZM282.538 271.128C284.266 271.128 285.642 269.4 285.642 265.912C285.642 262.44 284.266 260.696 282.538 260.696C280.794 260.696 279.418 262.44 279.418 265.912C279.418 269.4 280.794 271.128 282.538 271.128ZM292.656 262.952C294.896 262.952 296.576 264.056 296.656 265.608H295.04C294.976 264.84 293.936 264.296 292.608 264.296C291.28 264.296 290.32 264.824 290.32 265.512C290.32 266.264 290.896 266.728 293.136 267.032C295.888 267.4 296.864 268.296 296.864 269.72C296.864 271.496 294.992 272.552 292.72 272.552C290.272 272.552 288.704 271.368 288.592 269.768H290.208C290.304 270.488 291.136 271.208 292.768 271.208C294.176 271.208 295.248 270.632 295.248 269.816C295.248 269.064 294.544 268.632 292.352 268.344C289.856 268.008 288.704 267.208 288.704 265.608C288.704 263.992 290.416 262.952 292.656 262.952ZM306.839 272.552C304.247 272.552 302.311 270.488 302.311 267.752C302.311 265.016 304.247 262.952 306.839 262.952C308.503 262.952 309.623 263.752 310.087 264.536V263.176H311.735V272.328H310.087V270.968C309.623 271.752 308.503 272.552 306.839 272.552ZM306.983 271.096C308.839 271.096 310.119 269.656 310.119 267.752C310.119 265.848 308.839 264.408 306.983 264.408C305.143 264.408 303.927 265.848 303.927 267.752C303.927 269.656 305.143 271.096 306.983 271.096ZM314.002 263.176H315.65V264.568C316.034 263.896 317.074 262.952 318.754 262.952C320.914 262.952 322.434 264.504 322.434 266.968V272.328H320.786V267.256C320.786 265.4 319.89 264.392 318.402 264.392C316.802 264.392 315.65 265.896 315.65 267.592V272.328H314.002V263.176ZM328.496 272.552C325.904 272.552 323.968 270.488 323.968 267.752C323.968 265.016 325.904 262.952 328.496 262.952C330.16 262.952 331.28 263.752 331.744 264.536V259.112H333.392V272.328H331.744V270.968C331.28 271.752 330.16 272.552 328.496 272.552ZM328.64 271.096C330.496 271.096 331.776 269.656 331.776 267.752C331.776 265.848 330.496 264.408 328.64 264.408C326.8 264.408 325.584 265.848 325.584 267.752C325.584 269.656 326.8 271.096 328.64 271.096ZM343.791 272.616C341.103 272.616 339.247 271.112 339.247 268.968C339.247 267.032 340.783 265.96 341.935 265.688C340.943 265.384 339.695 264.344 339.695 262.712C339.695 260.792 341.343 259.208 343.791 259.208C346.223 259.208 347.871 260.808 347.871 262.712C347.871 264.344 346.623 265.384 345.631 265.688C346.799 265.96 348.319 267.032 348.319 268.968C348.319 271.112 346.463 272.616 343.791 272.616ZM343.791 264.936C345.247 264.936 346.271 263.976 346.271 262.76C346.271 261.576 345.295 260.616 343.791 260.616C342.287 260.616 341.311 261.544 341.311 262.728C341.311 263.96 342.335 264.936 343.791 264.936ZM343.791 271.208C345.551 271.208 346.687 270.2 346.687 268.872C346.687 267.528 345.455 266.488 343.791 266.488C342.111 266.488 340.879 267.528 340.879 268.872C340.879 270.2 342.015 271.208 343.791 271.208ZM354.275 272.616C351.571 272.616 349.539 270.392 349.539 265.912C349.539 261.432 351.571 259.208 354.275 259.208C356.963 259.208 358.995 261.432 358.995 265.912C358.995 270.392 356.963 272.616 354.275 272.616ZM354.275 271.128C356.003 271.128 357.379 269.4 357.379 265.912C357.379 262.44 356.003 260.696 354.275 260.696C352.531 260.696 351.155 262.44 351.155 265.912C351.155 269.4 352.531 271.128 354.275 271.128ZM364.393 262.952C366.633 262.952 368.313 264.056 368.393 265.608H366.777C366.713 264.84 365.673 264.296 364.345 264.296C363.017 264.296 362.057 264.824 362.057 265.512C362.057 266.264 362.633 266.728 364.873 267.032C367.625 267.4 368.601 268.296 368.601 269.72C368.601 271.496 366.729 272.552 364.457 272.552C362.009 272.552 360.441 271.368 360.329 269.768H361.945C362.041 270.488 362.873 271.208 364.505 271.208C365.913 271.208 366.985 270.632 366.985 269.816C366.985 269.064 366.281 268.632 364.089 268.344C361.593 268.008 360.441 267.208 360.441 265.608C360.441 263.992 362.153 262.952 364.393 262.952ZM81.8241 281.512H86.3681C90.7841 281.512 93.3441 284.104 93.3441 287.928C93.3441 291.752 90.7841 294.328 86.3681 294.328H81.8241V281.512ZM86.4161 292.808C89.6641 292.808 91.6481 291.048 91.6481 287.928C91.6481 284.808 89.6641 283.016 86.4161 283.016H83.5041V292.808H86.4161ZM95.1585 285.176H96.8065V286.584C97.2065 285.896 98.3105 284.952 100.102 284.952C100.662 284.952 101.03 285 101.35 285.112V286.68C100.998 286.52 100.55 286.424 99.9905 286.424C98.1185 286.424 96.8065 287.928 96.8065 289.592V294.328H95.1585V285.176ZM106.23 294.552C103.638 294.552 101.702 292.488 101.702 289.752C101.702 287.016 103.638 284.952 106.23 284.952C107.894 284.952 109.014 285.752 109.478 286.536V285.176H111.126V294.328H109.478V292.968C109.014 293.752 107.894 294.552 106.23 294.552ZM106.374 293.096C108.23 293.096 109.51 291.656 109.51 289.752C109.51 287.848 108.23 286.408 106.374 286.408C104.534 286.408 103.318 287.848 103.318 289.752C103.318 291.656 104.534 293.096 106.374 293.096ZM113.393 285.176H115.041V286.472C115.457 285.8 116.273 284.952 117.809 284.952C119.169 284.952 120.209 285.704 120.657 286.872C121.201 285.72 122.353 284.952 123.905 284.952C125.857 284.952 127.265 286.44 127.265 288.76V294.328H125.617V289.032C125.617 287.384 124.817 286.392 123.521 286.392C122.145 286.392 121.153 287.736 121.153 289.4V294.328H119.505V289.096C119.505 287.384 118.689 286.392 117.409 286.392C116.049 286.392 115.041 287.736 115.041 289.384V294.328H113.393V285.176ZM133.34 294.552C130.748 294.552 128.812 292.488 128.812 289.752C128.812 287.016 130.748 284.952 133.34 284.952C135.004 284.952 136.124 285.752 136.588 286.536V285.176H138.236V294.328H136.588V292.968C136.124 293.752 135.004 294.552 133.34 294.552ZM133.484 293.096C135.34 293.096 136.62 291.656 136.62 289.752C136.62 287.848 135.34 286.408 133.484 286.408C131.644 286.408 130.428 287.848 130.428 289.752C130.428 291.656 131.644 293.096 133.484 293.096ZM144.103 284.952C146.343 284.952 148.023 286.056 148.103 287.608H146.487C146.423 286.84 145.383 286.296 144.055 286.296C142.727 286.296 141.767 286.824 141.767 287.512C141.767 288.264 142.343 288.728 144.583 289.032C147.335 289.4 148.311 290.296 148.311 291.72C148.311 293.496 146.439 294.552 144.167 294.552C141.719 294.552 140.151 293.368 140.039 291.768H141.655C141.751 292.488 142.583 293.208 144.215 293.208C145.623 293.208 146.695 292.632 146.695 291.816C146.695 291.064 145.991 290.632 143.799 290.344C141.303 290.008 140.151 289.208 140.151 287.608C140.151 285.992 141.863 284.952 144.103 284.952ZM155.054 280.952C155.694 280.952 156.158 281.416 156.158 282.04C156.158 282.664 155.694 283.128 155.054 283.128C154.43 283.128 153.966 282.664 153.966 282.04C153.966 281.416 154.43 280.952 155.054 280.952ZM155.886 294.344H154.238V285.176H155.886V294.344ZM158.153 285.176H159.801V286.568C160.185 285.896 161.225 284.952 162.905 284.952C165.065 284.952 166.585 286.504 166.585 288.968V294.328H164.937V289.256C164.937 287.4 164.041 286.392 162.553 286.392C160.953 286.392 159.801 287.896 159.801 289.592V294.328H158.153V285.176ZM173.258 285.176V286.632H171.226V294.328H169.578V286.632H167.546V285.176H169.578V282.392H171.226V285.176H173.258ZM178.549 284.952C181.253 284.952 183.221 287 183.221 289.752C183.221 292.504 181.253 294.552 178.549 294.552C175.829 294.552 173.861 292.504 173.861 289.752C173.861 287 175.829 284.952 178.549 284.952ZM178.549 286.408C176.725 286.408 175.477 287.848 175.477 289.752C175.477 291.656 176.725 293.096 178.549 293.096C180.357 293.096 181.605 291.656 181.605 289.752C181.605 287.848 180.357 286.408 178.549 286.408ZM189.25 281.512H198.354V283H190.93V287.032H197.794V288.52H190.93V292.84H198.498V294.328H189.25V281.512ZM204.023 294.552C201.431 294.552 199.495 292.488 199.495 289.752C199.495 287.016 201.431 284.952 204.023 284.952C205.687 284.952 206.807 285.752 207.271 286.536V281.112H208.919V294.328H207.271V292.968C206.807 293.752 205.687 294.552 204.023 294.552ZM204.167 293.096C206.023 293.096 207.303 291.656 207.303 289.752C207.303 287.848 206.023 286.408 204.167 286.408C202.327 286.408 201.111 287.848 201.111 289.752C201.111 291.656 202.327 293.096 204.167 293.096ZM219.41 294.328H217.762V292.936C217.378 293.608 216.338 294.552 214.658 294.552C212.498 294.552 210.978 293 210.978 290.536V285.176H212.626V290.248C212.626 292.104 213.522 293.112 215.01 293.112C216.61 293.112 217.762 291.608 217.762 289.912V285.176H219.41V294.328ZM230.206 291.224C229.71 293.208 228.03 294.552 225.902 294.552C223.182 294.552 221.198 292.504 221.198 289.752C221.198 287 223.166 284.952 225.87 284.952C228.03 284.952 229.726 286.344 230.174 288.248H228.494C228.126 287.16 227.166 286.408 225.87 286.408C224.046 286.408 222.814 287.848 222.814 289.752C222.814 291.656 224.046 293.096 225.87 293.096C227.166 293.096 228.158 292.328 228.526 291.224H230.206ZM235.953 294.552C233.361 294.552 231.425 292.488 231.425 289.752C231.425 287.016 233.361 284.952 235.953 284.952C237.617 284.952 238.737 285.752 239.201 286.536V285.176H240.849V294.328H239.201V292.968C238.737 293.752 237.617 294.552 235.953 294.552ZM236.097 293.096C237.953 293.096 239.233 291.656 239.233 289.752C239.233 287.848 237.953 286.408 236.097 286.408C234.257 286.408 233.041 287.848 233.041 289.752C233.041 291.656 234.257 293.096 236.097 293.096ZM247.917 285.176V286.632H245.885V294.328H244.237V286.632H242.205V285.176H244.237V282.392H245.885V285.176H247.917ZM250.113 280.952C250.753 280.952 251.217 281.416 251.217 282.04C251.217 282.664 250.753 283.128 250.113 283.128C249.489 283.128 249.025 282.664 249.025 282.04C249.025 281.416 249.489 280.952 250.113 280.952ZM250.945 294.344H249.297V285.176H250.945V294.344ZM257.419 284.952C260.123 284.952 262.091 287 262.091 289.752C262.091 292.504 260.123 294.552 257.419 294.552C254.699 294.552 252.731 292.504 252.731 289.752C252.731 287 254.699 284.952 257.419 284.952ZM257.419 286.408C255.595 286.408 254.347 287.848 254.347 289.752C254.347 291.656 255.595 293.096 257.419 293.096C259.227 293.096 260.475 291.656 260.475 289.752C260.475 287.848 259.227 286.408 257.419 286.408ZM263.875 285.176H265.523V286.568C265.907 285.896 266.947 284.952 268.627 284.952C270.787 284.952 272.307 286.504 272.307 288.968V294.328H270.659V289.256C270.659 287.4 269.763 286.392 268.275 286.392C266.675 286.392 265.523 287.896 265.523 289.592V294.328H263.875V285.176ZM278.369 294.552C275.777 294.552 273.841 292.488 273.841 289.752C273.841 287.016 275.777 284.952 278.369 284.952C280.033 284.952 281.153 285.752 281.617 286.536V285.176H283.265V294.328H281.617V292.968C281.153 293.752 280.033 294.552 278.369 294.552ZM278.513 293.096C280.369 293.096 281.649 291.656 281.649 289.752C281.649 287.848 280.369 286.408 278.513 286.408C276.673 286.408 275.457 287.848 275.457 289.752C275.457 291.656 276.673 293.096 278.513 293.096ZM287.18 294.328H285.532V281.112H287.18V294.328ZM293.691 281.512H295.163L300.107 290.216L305.051 281.512H306.523V294.328H304.843V284.872L300.715 292.168H299.499L295.371 284.872V294.328H293.691V281.512ZM312.901 294.552C310.309 294.552 308.373 292.488 308.373 289.752C308.373 287.016 310.309 284.952 312.901 284.952C314.565 284.952 315.685 285.752 316.149 286.536V285.176H317.797V294.328H316.149V292.968C315.685 293.752 314.565 294.552 312.901 294.552ZM313.045 293.096C314.901 293.096 316.181 291.656 316.181 289.752C316.181 287.848 314.901 286.408 313.045 286.408C311.205 286.408 309.989 287.848 309.989 289.752C309.989 291.656 311.205 293.096 313.045 293.096ZM324.865 285.176V286.632H322.833V294.328H321.185V286.632H319.153V285.176H321.185V282.392H322.833V285.176H324.865ZM330.06 294.552C327.388 294.552 325.468 292.504 325.468 289.752C325.468 287 327.388 284.952 330.06 284.952C332.732 284.952 334.636 287 334.636 289.752C334.636 289.96 334.636 290.2 334.604 290.424H327.116C327.292 291.992 328.428 293.16 330.06 293.16C331.308 293.16 332.284 292.584 332.62 291.832H334.3C333.804 293.416 332.156 294.552 330.06 294.552ZM333.02 289.08C332.828 287.48 331.708 286.344 330.06 286.344C328.412 286.344 327.292 287.496 327.116 289.08H333.02ZM336.409 285.176H338.057V286.584C338.457 285.896 339.561 284.952 341.353 284.952C341.913 284.952 342.281 285 342.601 285.112V286.68C342.249 286.52 341.801 286.424 341.241 286.424C339.369 286.424 338.057 287.928 338.057 289.592V294.328H336.409V285.176ZM344.733 280.952C345.373 280.952 345.837 281.416 345.837 282.04C345.837 282.664 345.373 283.128 344.733 283.128C344.109 283.128 343.645 282.664 343.645 282.04C343.645 281.416 344.109 280.952 344.733 280.952ZM345.565 294.344H343.917V285.176H345.565V294.344ZM351.88 294.552C349.288 294.552 347.352 292.488 347.352 289.752C347.352 287.016 349.288 284.952 351.88 284.952C353.544 284.952 354.664 285.752 355.128 286.536V285.176H356.776V294.328H355.128V292.968C354.664 293.752 353.544 294.552 351.88 294.552ZM352.024 293.096C353.88 293.096 355.16 291.656 355.16 289.752C355.16 287.848 353.88 286.408 352.024 286.408C350.184 286.408 348.968 287.848 348.968 289.752C348.968 291.656 350.184 293.096 352.024 293.096ZM360.691 294.328H359.043V281.112H360.691V294.328ZM366.557 284.952C368.797 284.952 370.477 286.056 370.557 287.608H368.941C368.877 286.84 367.837 286.296 366.509 286.296C365.181 286.296 364.221 286.824 364.221 287.512C364.221 288.264 364.797 288.728 367.037 289.032C369.789 289.4 370.765 290.296 370.765 291.72C370.765 293.496 368.893 294.552 366.621 294.552C364.173 294.552 362.605 293.368 362.493 291.768H364.109C364.205 292.488 365.037 293.208 366.669 293.208C368.077 293.208 369.149 292.632 369.149 291.816C369.149 291.064 368.445 290.632 366.253 290.344C363.757 290.008 362.605 289.208 362.605 287.608C362.605 285.992 364.317 284.952 366.557 284.952Z" fill="black"/>
<path d="M85.7784 554.273C85.7102 553.697 85.4337 553.25 84.9488 552.932C84.464 552.614 83.8693 552.455 83.1647 552.455C82.6496 552.455 82.1988 552.538 81.8124 552.705C81.4299 552.871 81.1306 553.1 80.9147 553.392C80.7026 553.684 80.5965 554.015 80.5965 554.386C80.5965 554.697 80.6704 554.964 80.8181 555.188C80.9696 555.407 81.1628 555.591 81.3977 555.739C81.6325 555.883 81.8787 556.002 82.1363 556.097C82.3939 556.187 82.6306 556.261 82.8465 556.318L84.0284 556.636C84.3314 556.716 84.6685 556.826 85.0397 556.966C85.4147 557.106 85.7727 557.297 86.1136 557.54C86.4583 557.778 86.7424 558.085 86.9659 558.46C87.1893 558.835 87.3011 559.295 87.3011 559.841C87.3011 560.47 87.1363 561.038 86.8068 561.545C86.481 562.053 86.0037 562.456 85.3749 562.756C84.7499 563.055 83.9905 563.205 83.0965 563.205C82.2632 563.205 81.5416 563.07 80.9318 562.801C80.3257 562.532 79.8484 562.157 79.4999 561.676C79.1553 561.195 78.9602 560.636 78.9147 560H80.3693C80.4071 560.439 80.5549 560.803 80.8124 561.091C81.0738 561.375 81.4034 561.587 81.8011 561.727C82.2026 561.864 82.6344 561.932 83.0965 561.932C83.6344 561.932 84.1174 561.845 84.5454 561.67C84.9734 561.492 85.3124 561.246 85.5624 560.932C85.8124 560.614 85.9374 560.242 85.9374 559.818C85.9374 559.432 85.8295 559.117 85.6136 558.875C85.3977 558.633 85.1136 558.436 84.7613 558.284C84.409 558.133 84.0284 558 83.6193 557.886L82.1874 557.477C81.2784 557.216 80.5587 556.843 80.0284 556.358C79.4981 555.873 79.2329 555.239 79.2329 554.455C79.2329 553.803 79.409 553.235 79.7613 552.75C80.1174 552.261 80.5946 551.883 81.1931 551.614C81.7954 551.341 82.4678 551.205 83.2102 551.205C83.9602 551.205 84.6268 551.339 85.2102 551.608C85.7935 551.873 86.2556 552.237 86.5965 552.699C86.9412 553.161 87.1231 553.686 87.142 554.273H85.7784ZM94.616 559.432V554.273H95.9569V563H94.616V561.523H94.5251C94.3206 561.966 94.0024 562.343 93.5706 562.653C93.1388 562.96 92.5933 563.114 91.9342 563.114C91.3888 563.114 90.9039 562.994 90.4797 562.756C90.0554 562.513 89.7221 562.15 89.4797 561.665C89.2372 561.176 89.116 560.561 89.116 559.818V554.273H90.4569V559.727C90.4569 560.364 90.635 560.871 90.991 561.25C91.3509 561.629 91.8092 561.818 92.366 561.818C92.6994 561.818 93.0384 561.733 93.3831 561.562C93.7316 561.392 94.0232 561.131 94.2581 560.778C94.4967 560.426 94.616 559.977 94.616 559.432ZM98.0929 566.273V554.273H99.3884V555.659H99.5474C99.6459 555.508 99.7823 555.314 99.9565 555.08C100.135 554.841 100.388 554.629 100.718 554.443C101.051 554.254 101.502 554.159 102.07 554.159C102.805 554.159 103.453 554.343 104.013 554.71C104.574 555.078 105.011 555.598 105.326 556.273C105.64 556.947 105.797 557.742 105.797 558.659C105.797 559.583 105.64 560.384 105.326 561.062C105.011 561.737 104.576 562.259 104.019 562.631C103.462 562.998 102.82 563.182 102.093 563.182C101.532 563.182 101.083 563.089 100.746 562.903C100.409 562.714 100.15 562.5 99.9679 562.261C99.7861 562.019 99.6459 561.818 99.5474 561.659H99.4338V566.273H98.0929ZM99.4111 558.636C99.4111 559.295 99.5077 559.877 99.7009 560.381C99.894 560.881 100.176 561.273 100.547 561.557C100.919 561.837 101.373 561.977 101.911 561.977C102.472 561.977 102.939 561.83 103.314 561.534C103.693 561.235 103.977 560.833 104.167 560.33C104.36 559.822 104.457 559.258 104.457 558.636C104.457 558.023 104.362 557.47 104.172 556.977C103.987 556.481 103.705 556.089 103.326 555.801C102.951 555.509 102.479 555.364 101.911 555.364C101.366 555.364 100.907 555.502 100.536 555.778C100.165 556.051 99.8846 556.434 99.6952 556.926C99.5058 557.415 99.4111 557.985 99.4111 558.636ZM111.182 563.182C110.341 563.182 109.616 562.996 109.006 562.625C108.4 562.25 107.932 561.727 107.602 561.057C107.277 560.383 107.114 559.598 107.114 558.705C107.114 557.811 107.277 557.023 107.602 556.341C107.932 555.655 108.39 555.121 108.977 554.739C109.568 554.352 110.258 554.159 111.046 554.159C111.5 554.159 111.949 554.235 112.392 554.386C112.835 554.538 113.239 554.784 113.602 555.125C113.966 555.462 114.256 555.909 114.472 556.466C114.688 557.023 114.796 557.708 114.796 558.523V559.091H108.068V557.932H113.432C113.432 557.439 113.334 557 113.137 556.614C112.943 556.227 112.667 555.922 112.307 555.699C111.951 555.475 111.53 555.364 111.046 555.364C110.512 555.364 110.049 555.496 109.659 555.761C109.273 556.023 108.976 556.364 108.767 556.784C108.559 557.205 108.455 557.655 108.455 558.136V558.909C108.455 559.568 108.568 560.127 108.796 560.585C109.027 561.04 109.347 561.386 109.756 561.625C110.165 561.86 110.64 561.977 111.182 561.977C111.534 561.977 111.852 561.928 112.137 561.83C112.424 561.727 112.673 561.576 112.881 561.375C113.089 561.17 113.25 560.917 113.364 560.614L114.659 560.977C114.523 561.417 114.294 561.803 113.972 562.136C113.65 562.466 113.252 562.723 112.779 562.909C112.305 563.091 111.773 563.182 111.182 563.182ZM116.515 563V554.273H117.811V555.591H117.902C118.061 555.159 118.349 554.809 118.765 554.54C119.182 554.271 119.652 554.136 120.174 554.136C120.273 554.136 120.396 554.138 120.544 554.142C120.692 554.146 120.803 554.152 120.879 554.159V555.523C120.834 555.511 120.729 555.494 120.567 555.472C120.407 555.445 120.239 555.432 120.061 555.432C119.637 555.432 119.258 555.521 118.924 555.699C118.595 555.873 118.334 556.116 118.14 556.426C117.951 556.733 117.856 557.083 117.856 557.477V563H116.515ZM129.551 554.273L126.323 563H124.96L121.732 554.273H123.187L125.596 561.227H125.687L128.096 554.273H129.551ZM131 563V554.273H132.341V563H131ZM131.682 552.818C131.421 552.818 131.195 552.729 131.006 552.551C130.82 552.373 130.728 552.159 130.728 551.909C130.728 551.659 130.82 551.445 131.006 551.267C131.195 551.089 131.421 551 131.682 551C131.944 551 132.167 551.089 132.353 551.267C132.542 551.445 132.637 551.659 132.637 551.909C132.637 552.159 132.542 552.373 132.353 552.551C132.167 552.729 131.944 552.818 131.682 552.818ZM140.659 556.227L139.455 556.568C139.379 556.367 139.267 556.172 139.119 555.983C138.975 555.79 138.778 555.631 138.528 555.506C138.278 555.381 137.958 555.318 137.568 555.318C137.034 555.318 136.589 555.441 136.233 555.688C135.881 555.93 135.705 556.239 135.705 556.614C135.705 556.947 135.826 557.21 136.068 557.403C136.311 557.597 136.689 557.758 137.205 557.886L138.5 558.205C139.28 558.394 139.862 558.684 140.244 559.074C140.627 559.46 140.818 559.958 140.818 560.568C140.818 561.068 140.674 561.515 140.386 561.909C140.102 562.303 139.705 562.614 139.193 562.841C138.682 563.068 138.087 563.182 137.409 563.182C136.519 563.182 135.782 562.989 135.199 562.602C134.616 562.216 134.246 561.652 134.091 560.909L135.364 560.591C135.485 561.061 135.714 561.413 136.051 561.648C136.392 561.883 136.837 562 137.386 562C138.011 562 138.508 561.867 138.875 561.602C139.246 561.333 139.432 561.011 139.432 560.636C139.432 560.333 139.326 560.08 139.114 559.875C138.902 559.667 138.576 559.511 138.136 559.409L136.682 559.068C135.883 558.879 135.295 558.585 134.92 558.188C134.549 557.786 134.364 557.284 134.364 556.682C134.364 556.189 134.502 555.754 134.778 555.375C135.059 554.996 135.439 554.699 135.92 554.483C136.405 554.267 136.955 554.159 137.568 554.159C138.432 554.159 139.11 554.348 139.602 554.727C140.098 555.106 140.451 555.606 140.659 556.227ZM146.176 563.182C145.335 563.182 144.609 562.996 144 562.625C143.394 562.25 142.926 561.727 142.596 561.057C142.27 560.383 142.108 559.598 142.108 558.705C142.108 557.811 142.27 557.023 142.596 556.341C142.926 555.655 143.384 555.121 143.971 554.739C144.562 554.352 145.252 554.159 146.039 554.159C146.494 554.159 146.943 554.235 147.386 554.386C147.829 554.538 148.233 554.784 148.596 555.125C148.96 555.462 149.25 555.909 149.466 556.466C149.681 557.023 149.789 557.708 149.789 558.523V559.091H143.062V557.932H148.426C148.426 557.439 148.327 557 148.13 556.614C147.937 556.227 147.661 555.922 147.301 555.699C146.945 555.475 146.524 555.364 146.039 555.364C145.505 555.364 145.043 555.496 144.653 555.761C144.267 556.023 143.969 556.364 143.761 556.784C143.553 557.205 143.448 557.655 143.448 558.136V558.909C143.448 559.568 143.562 560.127 143.789 560.585C144.02 561.04 144.341 561.386 144.75 561.625C145.159 561.86 145.634 561.977 146.176 561.977C146.528 561.977 146.846 561.928 147.13 561.83C147.418 561.727 147.666 561.576 147.875 561.375C148.083 561.17 148.244 560.917 148.358 560.614L149.653 560.977C149.517 561.417 149.287 561.803 148.966 562.136C148.644 562.466 148.246 562.723 147.772 562.909C147.299 563.091 146.767 563.182 146.176 563.182ZM154.805 563.182C154.077 563.182 153.435 562.998 152.878 562.631C152.322 562.259 151.886 561.737 151.572 561.062C151.257 560.384 151.1 559.583 151.1 558.659C151.1 557.742 151.257 556.947 151.572 556.273C151.886 555.598 152.324 555.078 152.884 554.71C153.445 554.343 154.092 554.159 154.827 554.159C155.396 554.159 155.844 554.254 156.174 554.443C156.507 554.629 156.761 554.841 156.935 555.08C157.113 555.314 157.252 555.508 157.35 555.659H157.464V551.364H158.805V563H157.509V561.659H157.35C157.252 561.818 157.111 562.019 156.93 562.261C156.748 562.5 156.488 562.714 156.151 562.903C155.814 563.089 155.365 563.182 154.805 563.182ZM154.986 561.977C155.524 561.977 155.979 561.837 156.35 561.557C156.721 561.273 157.003 560.881 157.197 560.381C157.39 559.877 157.486 559.295 157.486 558.636C157.486 557.985 157.392 557.415 157.202 556.926C157.013 556.434 156.733 556.051 156.361 555.778C155.99 555.502 155.532 555.364 154.986 555.364C154.418 555.364 153.945 555.509 153.566 555.801C153.191 556.089 152.909 556.481 152.719 556.977C152.534 557.47 152.441 558.023 152.441 558.636C152.441 559.258 152.536 559.822 152.725 560.33C152.918 560.833 153.202 561.235 153.577 561.534C153.956 561.83 154.426 561.977 154.986 561.977ZM165.488 563V551.364H166.829V555.659H166.943C167.042 555.508 167.178 555.314 167.352 555.08C167.53 554.841 167.784 554.629 168.113 554.443C168.447 554.254 168.898 554.159 169.466 554.159C170.201 554.159 170.848 554.343 171.409 554.71C171.97 555.078 172.407 555.598 172.721 556.273C173.036 556.947 173.193 557.742 173.193 558.659C173.193 559.583 173.036 560.384 172.721 561.062C172.407 561.737 171.971 562.259 171.415 562.631C170.858 562.998 170.216 563.182 169.488 563.182C168.928 563.182 168.479 563.089 168.142 562.903C167.805 562.714 167.545 562.5 167.363 562.261C167.182 562.019 167.042 561.818 166.943 561.659H166.784V563H165.488ZM166.807 558.636C166.807 559.295 166.903 559.877 167.096 560.381C167.29 560.881 167.572 561.273 167.943 561.557C168.314 561.837 168.769 561.977 169.307 561.977C169.867 561.977 170.335 561.83 170.71 561.534C171.089 561.235 171.373 560.833 171.562 560.33C171.756 559.822 171.852 559.258 171.852 558.636C171.852 558.023 171.757 557.47 171.568 556.977C171.382 556.481 171.1 556.089 170.721 555.801C170.346 555.509 169.875 555.364 169.307 555.364C168.761 555.364 168.303 555.502 167.932 555.778C167.56 556.051 167.28 556.434 167.091 556.926C166.901 557.415 166.807 557.985 166.807 558.636ZM175.475 566.273C175.248 566.273 175.045 566.254 174.867 566.216C174.689 566.182 174.566 566.148 174.498 566.114L174.839 564.932C175.165 565.015 175.453 565.045 175.703 565.023C175.953 565 176.174 564.888 176.367 564.688C176.564 564.491 176.744 564.17 176.907 563.727L177.157 563.045L173.93 554.273H175.384L177.793 561.227H177.884L180.293 554.273H181.748L178.043 564.273C177.877 564.723 177.67 565.097 177.424 565.392C177.178 565.691 176.892 565.913 176.566 566.057C176.244 566.201 175.881 566.273 175.475 566.273ZM191.173 554.273V555.409H186.651V554.273H191.173ZM187.969 552.182H189.31V560.5C189.31 560.879 189.365 561.163 189.474 561.352C189.588 561.538 189.732 561.663 189.906 561.727C190.084 561.788 190.272 561.818 190.469 561.818C190.617 561.818 190.738 561.811 190.832 561.795C190.927 561.777 191.003 561.761 191.06 561.75L191.332 562.955C191.242 562.989 191.115 563.023 190.952 563.057C190.789 563.095 190.582 563.114 190.332 563.114C189.954 563.114 189.582 563.032 189.219 562.869C188.859 562.706 188.56 562.458 188.321 562.125C188.086 561.792 187.969 561.371 187.969 560.864V552.182ZM194.399 557.75V563H193.058V551.364H194.399V555.636H194.512C194.717 555.186 195.024 554.828 195.433 554.562C195.846 554.294 196.395 554.159 197.081 554.159C197.675 554.159 198.196 554.278 198.643 554.517C199.09 554.752 199.437 555.114 199.683 555.602C199.933 556.087 200.058 556.705 200.058 557.455V563H198.717V557.545C198.717 556.852 198.537 556.316 198.177 555.938C197.821 555.555 197.327 555.364 196.694 555.364C196.255 555.364 195.861 555.456 195.512 555.642C195.168 555.828 194.895 556.098 194.694 556.455C194.497 556.811 194.399 557.242 194.399 557.75ZM205.85 563.182C205.009 563.182 204.284 562.996 203.674 562.625C203.068 562.25 202.6 561.727 202.271 561.057C201.945 560.383 201.782 559.598 201.782 558.705C201.782 557.811 201.945 557.023 202.271 556.341C202.6 555.655 203.058 555.121 203.646 554.739C204.236 554.352 204.926 554.159 205.714 554.159C206.168 554.159 206.617 554.235 207.06 554.386C207.504 554.538 207.907 554.784 208.271 555.125C208.634 555.462 208.924 555.909 209.14 556.466C209.356 557.023 209.464 557.708 209.464 558.523V559.091H202.736V557.932H208.1C208.1 557.439 208.002 557 207.805 556.614C207.611 556.227 207.335 555.922 206.975 555.699C206.619 555.475 206.199 555.364 205.714 555.364C205.18 555.364 204.718 555.496 204.327 555.761C203.941 556.023 203.644 556.364 203.435 556.784C203.227 557.205 203.123 557.655 203.123 558.136V558.909C203.123 559.568 203.236 560.127 203.464 560.585C203.695 561.04 204.015 561.386 204.424 561.625C204.833 561.86 205.308 561.977 205.85 561.977C206.202 561.977 206.521 561.928 206.805 561.83C207.093 561.727 207.341 561.576 207.549 561.375C207.757 561.17 207.918 560.917 208.032 560.614L209.327 560.977C209.191 561.417 208.962 561.803 208.64 562.136C208.318 562.466 207.92 562.723 207.447 562.909C206.973 563.091 206.441 563.182 205.85 563.182ZM215.545 563V551.364H219.614C220.424 551.364 221.093 551.504 221.619 551.784C222.146 552.061 222.538 552.434 222.795 552.903C223.053 553.369 223.182 553.886 223.182 554.455C223.182 554.955 223.093 555.367 222.915 555.693C222.74 556.019 222.509 556.277 222.221 556.466C221.937 556.655 221.629 556.795 221.295 556.886V557C221.651 557.023 222.009 557.148 222.369 557.375C222.729 557.602 223.03 557.928 223.273 558.352C223.515 558.777 223.636 559.295 223.636 559.909C223.636 560.492 223.504 561.017 223.239 561.483C222.973 561.949 222.555 562.318 221.983 562.591C221.411 562.864 220.667 563 219.75 563H215.545ZM216.954 561.75H219.75C220.67 561.75 221.324 561.572 221.71 561.216C222.1 560.856 222.295 560.42 222.295 559.909C222.295 559.515 222.195 559.152 221.994 558.818C221.793 558.481 221.507 558.212 221.136 558.011C220.765 557.807 220.326 557.705 219.818 557.705H216.954V561.75ZM216.954 556.477H219.568C219.992 556.477 220.375 556.394 220.716 556.227C221.061 556.061 221.333 555.826 221.534 555.523C221.739 555.22 221.841 554.864 221.841 554.455C221.841 553.943 221.663 553.509 221.307 553.153C220.951 552.794 220.386 552.614 219.614 552.614H216.954V556.477ZM225.45 563V554.273H226.745V555.591H226.836C226.995 555.159 227.283 554.809 227.7 554.54C228.116 554.271 228.586 554.136 229.109 554.136C229.207 554.136 229.33 554.138 229.478 554.142C229.626 554.146 229.738 554.152 229.813 554.159V555.523C229.768 555.511 229.664 555.494 229.501 555.472C229.342 555.445 229.173 555.432 228.995 555.432C228.571 555.432 228.192 555.521 227.859 555.699C227.529 555.873 227.268 556.116 227.075 556.426C226.885 556.733 226.791 557.083 226.791 557.477V563H225.45ZM233.651 563.205C233.098 563.205 232.596 563.1 232.145 562.892C231.695 562.68 231.337 562.375 231.072 561.977C230.806 561.576 230.674 561.091 230.674 560.523C230.674 560.023 230.772 559.617 230.969 559.307C231.166 558.992 231.43 558.746 231.759 558.568C232.089 558.39 232.452 558.258 232.85 558.17C233.251 558.08 233.655 558.008 234.06 557.955C234.59 557.886 235.02 557.835 235.35 557.801C235.683 557.763 235.926 557.701 236.077 557.614C236.233 557.527 236.31 557.375 236.31 557.159V557.114C236.31 556.553 236.157 556.117 235.85 555.807C235.547 555.496 235.087 555.341 234.469 555.341C233.829 555.341 233.327 555.481 232.964 555.761C232.6 556.042 232.344 556.341 232.197 556.659L230.924 556.205C231.151 555.674 231.454 555.261 231.833 554.966C232.215 554.667 232.632 554.458 233.083 554.341C233.537 554.22 233.984 554.159 234.424 554.159C234.704 554.159 235.026 554.193 235.39 554.261C235.757 554.326 236.111 554.46 236.452 554.665C236.797 554.869 237.083 555.178 237.31 555.591C237.537 556.004 237.651 556.557 237.651 557.25V563H236.31V561.818H236.242C236.151 562.008 236 562.21 235.787 562.426C235.575 562.642 235.293 562.826 234.941 562.977C234.589 563.129 234.159 563.205 233.651 563.205ZM233.856 562C234.386 562 234.833 561.896 235.197 561.688C235.564 561.479 235.84 561.21 236.026 560.881C236.215 560.551 236.31 560.205 236.31 559.841V558.614C236.253 558.682 236.128 558.744 235.935 558.801C235.746 558.854 235.526 558.902 235.276 558.943C235.03 558.981 234.789 559.015 234.555 559.045C234.323 559.072 234.136 559.095 233.992 559.114C233.644 559.159 233.318 559.233 233.015 559.335C232.715 559.434 232.473 559.583 232.287 559.784C232.106 559.981 232.015 560.25 232.015 560.591C232.015 561.057 232.187 561.409 232.532 561.648C232.88 561.883 233.322 562 233.856 562ZM239.779 563V554.273H241.119V563H239.779ZM240.46 552.818C240.199 552.818 239.974 552.729 239.784 552.551C239.599 552.373 239.506 552.159 239.506 551.909C239.506 551.659 239.599 551.445 239.784 551.267C239.974 551.089 240.199 551 240.46 551C240.722 551 240.945 551.089 241.131 551.267C241.32 551.445 241.415 551.659 241.415 551.909C241.415 552.159 241.32 552.373 241.131 552.551C240.945 552.729 240.722 552.818 240.46 552.818ZM244.596 557.75V563H243.255V554.273H244.551V555.636H244.665C244.869 555.193 245.18 554.837 245.596 554.568C246.013 554.295 246.551 554.159 247.21 554.159C247.801 554.159 248.318 554.28 248.761 554.523C249.204 554.761 249.549 555.125 249.795 555.614C250.041 556.098 250.165 556.712 250.165 557.455V563H248.824V557.545C248.824 556.86 248.646 556.326 248.29 555.943C247.933 555.557 247.445 555.364 246.824 555.364C246.396 555.364 246.013 555.456 245.676 555.642C245.343 555.828 245.079 556.098 244.886 556.455C244.693 556.811 244.596 557.242 244.596 557.75ZM256.657 563V551.364H258.066V556.545H264.27V551.364H265.679V563H264.27V557.795H258.066V563H256.657ZM271.658 563.182C270.817 563.182 270.091 562.996 269.481 562.625C268.875 562.25 268.408 561.727 268.078 561.057C267.752 560.383 267.589 559.598 267.589 558.705C267.589 557.811 267.752 557.023 268.078 556.341C268.408 555.655 268.866 555.121 269.453 554.739C270.044 554.352 270.733 554.159 271.521 554.159C271.976 554.159 272.425 554.235 272.868 554.386C273.311 554.538 273.714 554.784 274.078 555.125C274.442 555.462 274.731 555.909 274.947 556.466C275.163 557.023 275.271 557.708 275.271 558.523V559.091H268.544V557.932H273.908C273.908 557.439 273.809 557 273.612 556.614C273.419 556.227 273.142 555.922 272.783 555.699C272.427 555.475 272.006 555.364 271.521 555.364C270.987 555.364 270.525 555.496 270.135 555.761C269.749 556.023 269.451 556.364 269.243 556.784C269.035 557.205 268.93 557.655 268.93 558.136V558.909C268.93 559.568 269.044 560.127 269.271 560.585C269.502 561.04 269.822 561.386 270.231 561.625C270.641 561.86 271.116 561.977 271.658 561.977C272.01 561.977 272.328 561.928 272.612 561.83C272.9 561.727 273.148 561.576 273.356 561.375C273.565 561.17 273.726 560.917 273.839 560.614L275.135 560.977C274.999 561.417 274.769 561.803 274.447 562.136C274.125 562.466 273.728 562.723 273.254 562.909C272.781 563.091 272.249 563.182 271.658 563.182ZM279.559 563.205C279.006 563.205 278.504 563.1 278.054 562.892C277.603 562.68 277.245 562.375 276.98 561.977C276.715 561.576 276.582 561.091 276.582 560.523C276.582 560.023 276.68 559.617 276.877 559.307C277.074 558.992 277.338 558.746 277.667 558.568C277.997 558.39 278.36 558.258 278.758 558.17C279.16 558.08 279.563 558.008 279.968 557.955C280.499 557.886 280.929 557.835 281.258 557.801C281.591 557.763 281.834 557.701 281.985 557.614C282.141 557.527 282.218 557.375 282.218 557.159V557.114C282.218 556.553 282.065 556.117 281.758 555.807C281.455 555.496 280.995 555.341 280.377 555.341C279.737 555.341 279.235 555.481 278.872 555.761C278.508 556.042 278.252 556.341 278.105 556.659L276.832 556.205C277.059 555.674 277.362 555.261 277.741 554.966C278.124 554.667 278.54 554.458 278.991 554.341C279.446 554.22 279.893 554.159 280.332 554.159C280.612 554.159 280.934 554.193 281.298 554.261C281.665 554.326 282.019 554.46 282.36 554.665C282.705 554.869 282.991 555.178 283.218 555.591C283.446 556.004 283.559 556.557 283.559 557.25V563H282.218V561.818H282.15C282.059 562.008 281.908 562.21 281.696 562.426C281.483 562.642 281.201 562.826 280.849 562.977C280.497 563.129 280.067 563.205 279.559 563.205ZM279.764 562C280.294 562 280.741 561.896 281.105 561.688C281.472 561.479 281.749 561.21 281.934 560.881C282.124 560.551 282.218 560.205 282.218 559.841V558.614C282.161 558.682 282.036 558.744 281.843 558.801C281.654 558.854 281.434 558.902 281.184 558.943C280.938 558.981 280.697 559.015 280.463 559.045C280.232 559.072 280.044 559.095 279.9 559.114C279.552 559.159 279.226 559.233 278.923 559.335C278.624 559.434 278.381 559.583 278.196 559.784C278.014 559.981 277.923 560.25 277.923 560.591C277.923 561.057 278.095 561.409 278.44 561.648C278.788 561.883 279.23 562 279.764 562ZM287.028 551.364V563H285.687V551.364H287.028ZM292.959 554.273V555.409H288.436V554.273H292.959ZM289.754 552.182H291.095V560.5C291.095 560.879 291.15 561.163 291.26 561.352C291.374 561.538 291.518 561.663 291.692 561.727C291.87 561.788 292.057 561.818 292.254 561.818C292.402 561.818 292.523 561.811 292.618 561.795C292.713 561.777 292.789 561.761 292.845 561.75L293.118 562.955C293.027 562.989 292.9 563.023 292.737 563.057C292.575 563.095 292.368 563.114 292.118 563.114C291.739 563.114 291.368 563.032 291.004 562.869C290.645 562.706 290.345 562.458 290.107 562.125C289.872 561.792 289.754 561.371 289.754 560.864V552.182ZM296.184 557.75V563H294.844V551.364H296.184V555.636H296.298C296.503 555.186 296.809 554.828 297.219 554.562C297.631 554.294 298.181 554.159 298.866 554.159C299.461 554.159 299.982 554.278 300.429 554.517C300.876 554.752 301.222 555.114 301.469 555.602C301.719 556.087 301.844 556.705 301.844 557.455V563H300.503V557.545C300.503 556.852 300.323 556.316 299.963 555.938C299.607 555.555 299.112 555.364 298.48 555.364C298.04 555.364 297.647 555.456 297.298 555.642C296.953 555.828 296.681 556.098 296.48 556.455C296.283 556.811 296.184 557.242 296.184 557.75ZM317.702 555H316.293C316.21 554.595 316.064 554.239 315.856 553.932C315.651 553.625 315.401 553.367 315.106 553.159C314.814 552.947 314.49 552.788 314.134 552.682C313.778 552.576 313.407 552.523 313.02 552.523C312.316 552.523 311.677 552.701 311.106 553.057C310.537 553.413 310.085 553.938 309.748 554.631C309.414 555.324 309.248 556.174 309.248 557.182C309.248 558.189 309.414 559.04 309.748 559.733C310.085 560.426 310.537 560.951 311.106 561.307C311.677 561.663 312.316 561.841 313.02 561.841C313.407 561.841 313.778 561.788 314.134 561.682C314.49 561.576 314.814 561.419 315.106 561.21C315.401 560.998 315.651 560.739 315.856 560.432C316.064 560.121 316.21 559.765 316.293 559.364H317.702C317.596 559.958 317.403 560.491 317.123 560.96C316.842 561.43 316.494 561.83 316.077 562.159C315.66 562.485 315.193 562.733 314.674 562.903C314.159 563.074 313.607 563.159 313.02 563.159C312.028 563.159 311.145 562.917 310.373 562.432C309.6 561.947 308.992 561.258 308.549 560.364C308.106 559.47 307.884 558.409 307.884 557.182C307.884 555.955 308.106 554.894 308.549 554C308.992 553.106 309.6 552.417 310.373 551.932C311.145 551.447 312.028 551.205 313.02 551.205C313.607 551.205 314.159 551.29 314.674 551.46C315.193 551.631 315.66 551.881 316.077 552.21C316.494 552.536 316.842 552.934 317.123 553.403C317.403 553.869 317.596 554.402 317.702 555ZM323.136 563.182C322.295 563.182 321.57 562.996 320.96 562.625C320.354 562.25 319.886 561.727 319.557 561.057C319.231 560.383 319.068 559.598 319.068 558.705C319.068 557.811 319.231 557.023 319.557 556.341C319.886 555.655 320.345 555.121 320.932 554.739C321.523 554.352 322.212 554.159 323 554.159C323.455 554.159 323.903 554.235 324.347 554.386C324.79 554.538 325.193 554.784 325.557 555.125C325.92 555.462 326.21 555.909 326.426 556.466C326.642 557.023 326.75 557.708 326.75 558.523V559.091H320.023V557.932H325.386C325.386 557.439 325.288 557 325.091 556.614C324.898 556.227 324.621 555.922 324.261 555.699C323.905 555.475 323.485 555.364 323 555.364C322.466 555.364 322.004 555.496 321.614 555.761C321.227 556.023 320.93 556.364 320.722 556.784C320.513 557.205 320.409 557.655 320.409 558.136V558.909C320.409 559.568 320.523 560.127 320.75 560.585C320.981 561.04 321.301 561.386 321.71 561.625C322.119 561.86 322.595 561.977 323.136 561.977C323.489 561.977 323.807 561.928 324.091 561.83C324.379 561.727 324.627 561.576 324.835 561.375C325.044 561.17 325.205 560.917 325.318 560.614L326.614 560.977C326.477 561.417 326.248 561.803 325.926 562.136C325.604 562.466 325.206 562.723 324.733 562.909C324.259 563.091 323.727 563.182 323.136 563.182ZM329.811 557.75V563H328.47V554.273H329.765V555.636H329.879C330.083 555.193 330.394 554.837 330.811 554.568C331.227 554.295 331.765 554.159 332.424 554.159C333.015 554.159 333.532 554.28 333.975 554.523C334.419 554.761 334.763 555.125 335.01 555.614C335.256 556.098 335.379 556.712 335.379 557.455V563H334.038V557.545C334.038 556.86 333.86 556.326 333.504 555.943C333.148 555.557 332.659 555.364 332.038 555.364C331.61 555.364 331.227 555.456 330.89 555.642C330.557 555.828 330.294 556.098 330.1 556.455C329.907 556.811 329.811 557.242 329.811 557.75ZM341.305 554.273V555.409H336.782V554.273H341.305ZM338.1 552.182H339.441V560.5C339.441 560.879 339.496 561.163 339.606 561.352C339.719 561.538 339.863 561.663 340.038 561.727C340.216 561.788 340.403 561.818 340.6 561.818C340.748 561.818 340.869 561.811 340.964 561.795C341.058 561.777 341.134 561.761 341.191 561.75L341.464 562.955C341.373 562.989 341.246 563.023 341.083 563.057C340.92 563.095 340.714 563.114 340.464 563.114C340.085 563.114 339.714 563.032 339.35 562.869C338.99 562.706 338.691 562.458 338.452 562.125C338.217 561.792 338.1 561.371 338.1 560.864V552.182ZM346.567 563.182C345.726 563.182 345.001 562.996 344.391 562.625C343.785 562.25 343.317 561.727 342.987 561.057C342.662 560.383 342.499 559.598 342.499 558.705C342.499 557.811 342.662 557.023 342.987 556.341C343.317 555.655 343.775 555.121 344.362 554.739C344.953 554.352 345.643 554.159 346.431 554.159C346.885 554.159 347.334 554.235 347.777 554.386C348.22 554.538 348.624 554.784 348.987 555.125C349.351 555.462 349.641 555.909 349.857 556.466C350.073 557.023 350.181 557.708 350.181 558.523V559.091H343.453V557.932H348.817C348.817 557.439 348.718 557 348.522 556.614C348.328 556.227 348.052 555.922 347.692 555.699C347.336 555.475 346.915 555.364 346.431 555.364C345.897 555.364 345.434 555.496 345.044 555.761C344.658 556.023 344.361 556.364 344.152 556.784C343.944 557.205 343.84 557.655 343.84 558.136V558.909C343.84 559.568 343.953 560.127 344.181 560.585C344.412 561.04 344.732 561.386 345.141 561.625C345.55 561.86 346.025 561.977 346.567 561.977C346.919 561.977 347.237 561.928 347.522 561.83C347.809 561.727 348.057 561.576 348.266 561.375C348.474 561.17 348.635 560.917 348.749 560.614L350.044 560.977C349.908 561.417 349.679 561.803 349.357 562.136C349.035 562.466 348.637 562.723 348.164 562.909C347.69 563.091 347.158 563.182 346.567 563.182ZM351.9 563V554.273H353.196V555.591H353.287C353.446 555.159 353.734 554.809 354.15 554.54C354.567 554.271 355.037 554.136 355.56 554.136C355.658 554.136 355.781 554.138 355.929 554.142C356.077 554.146 356.188 554.152 356.264 554.159V555.523C356.219 555.511 356.114 555.494 355.952 555.472C355.792 555.445 355.624 555.432 355.446 555.432C355.022 555.432 354.643 555.521 354.31 555.699C353.98 555.873 353.719 556.116 353.525 556.426C353.336 556.733 353.241 557.083 353.241 557.477V563H351.9ZM364.282 563.205C363.729 563.205 363.227 563.1 362.776 562.892C362.325 562.68 361.967 562.375 361.702 561.977C361.437 561.576 361.304 561.091 361.304 560.523C361.304 560.023 361.403 559.617 361.6 559.307C361.797 558.992 362.06 558.746 362.39 558.568C362.719 558.39 363.083 558.258 363.481 558.17C363.882 558.08 364.286 558.008 364.691 557.955C365.221 557.886 365.651 557.835 365.981 557.801C366.314 557.763 366.556 557.701 366.708 557.614C366.863 557.527 366.941 557.375 366.941 557.159V557.114C366.941 556.553 366.787 556.117 366.481 555.807C366.178 555.496 365.717 555.341 365.1 555.341C364.46 555.341 363.958 555.481 363.594 555.761C363.231 556.042 362.975 556.341 362.827 556.659L361.554 556.205C361.782 555.674 362.085 555.261 362.464 554.966C362.846 554.667 363.263 554.458 363.714 554.341C364.168 554.22 364.615 554.159 365.054 554.159C365.335 554.159 365.657 554.193 366.02 554.261C366.388 554.326 366.742 554.46 367.083 554.665C367.428 554.869 367.714 555.178 367.941 555.591C368.168 556.004 368.282 556.557 368.282 557.25V563H366.941V561.818H366.873C366.782 562.008 366.63 562.21 366.418 562.426C366.206 562.642 365.924 562.826 365.571 562.977C365.219 563.129 364.789 563.205 364.282 563.205ZM364.486 562C365.017 562 365.464 561.896 365.827 561.688C366.195 561.479 366.471 561.21 366.657 560.881C366.846 560.551 366.941 560.205 366.941 559.841V558.614C366.884 558.682 366.759 558.744 366.566 558.801C366.376 558.854 366.157 558.902 365.907 558.943C365.661 558.981 365.42 559.015 365.185 559.045C364.954 559.072 364.767 559.095 364.623 559.114C364.274 559.159 363.948 559.233 363.645 559.335C363.346 559.434 363.104 559.583 362.918 559.784C362.736 559.981 362.645 560.25 362.645 560.591C362.645 561.057 362.818 561.409 363.162 561.648C363.511 561.883 363.952 562 364.486 562ZM374.205 554.273V555.409H369.682V554.273H374.205ZM371 552.182H372.341V560.5C372.341 560.879 372.396 561.163 372.506 561.352C372.619 561.538 372.763 561.663 372.938 561.727C373.116 561.788 373.303 561.818 373.5 561.818C373.648 561.818 373.769 561.811 373.864 561.795C373.958 561.777 374.034 561.761 374.091 561.75L374.364 562.955C374.273 562.989 374.146 563.023 373.983 563.057C373.82 563.095 373.614 563.114 373.364 563.114C372.985 563.114 372.614 563.032 372.25 562.869C371.89 562.706 371.591 562.458 371.352 562.125C371.117 561.792 371 561.371 371 560.864V552.182ZM127.585 573.364H129.198L132.426 578.795H132.562L135.789 573.364H137.403L133.198 580.205V585H131.789V580.205L127.585 573.364ZM141.148 585.182C140.307 585.182 139.582 584.996 138.972 584.625C138.366 584.25 137.898 583.727 137.569 583.057C137.243 582.383 137.08 581.598 137.08 580.705C137.08 579.811 137.243 579.023 137.569 578.341C137.898 577.655 138.357 577.121 138.944 576.739C139.535 576.352 140.224 576.159 141.012 576.159C141.466 576.159 141.915 576.235 142.358 576.386C142.802 576.538 143.205 576.784 143.569 577.125C143.932 577.462 144.222 577.909 144.438 578.466C144.654 579.023 144.762 579.708 144.762 580.523V581.091H138.035V579.932H143.398C143.398 579.439 143.3 579 143.103 578.614C142.91 578.227 142.633 577.922 142.273 577.699C141.917 577.475 141.497 577.364 141.012 577.364C140.478 577.364 140.016 577.496 139.626 577.761C139.239 578.023 138.942 578.364 138.733 578.784C138.525 579.205 138.421 579.655 138.421 580.136V580.909C138.421 581.568 138.535 582.127 138.762 582.585C138.993 583.04 139.313 583.386 139.722 583.625C140.131 583.86 140.607 583.977 141.148 583.977C141.501 583.977 141.819 583.928 142.103 583.83C142.391 583.727 142.639 583.576 142.847 583.375C143.055 583.17 143.216 582.917 143.33 582.614L144.626 582.977C144.489 583.417 144.26 583.803 143.938 584.136C143.616 584.466 143.218 584.723 142.745 584.909C142.271 585.091 141.739 585.182 141.148 585.182ZM150.027 585.182C149.239 585.182 148.548 584.994 147.953 584.619C147.362 584.244 146.9 583.72 146.567 583.045C146.237 582.371 146.073 581.583 146.073 580.682C146.073 579.773 146.237 578.979 146.567 578.301C146.9 577.623 147.362 577.097 147.953 576.722C148.548 576.347 149.239 576.159 150.027 576.159C150.815 576.159 151.504 576.347 152.095 576.722C152.69 577.097 153.152 577.623 153.482 578.301C153.815 578.979 153.982 579.773 153.982 580.682C153.982 581.583 153.815 582.371 153.482 583.045C153.152 583.72 152.69 584.244 152.095 584.619C151.504 584.994 150.815 585.182 150.027 585.182ZM150.027 583.977C150.626 583.977 151.118 583.824 151.504 583.517C151.891 583.21 152.177 582.807 152.362 582.307C152.548 581.807 152.641 581.265 152.641 580.682C152.641 580.098 152.548 579.555 152.362 579.051C152.177 578.547 151.891 578.14 151.504 577.83C151.118 577.519 150.626 577.364 150.027 577.364C149.429 577.364 148.936 577.519 148.55 577.83C148.163 578.14 147.877 578.547 147.692 579.051C147.506 579.555 147.413 580.098 147.413 580.682C147.413 581.265 147.506 581.807 147.692 582.307C147.877 582.807 148.163 583.21 148.55 583.517C148.936 583.824 149.429 583.977 150.027 583.977ZM161.209 581.432V576.273H162.549V585H161.209V583.523H161.118C160.913 583.966 160.595 584.343 160.163 584.653C159.731 584.96 159.186 585.114 158.527 585.114C157.981 585.114 157.496 584.994 157.072 584.756C156.648 584.513 156.315 584.15 156.072 583.665C155.83 583.176 155.709 582.561 155.709 581.818V576.273H157.049V581.727C157.049 582.364 157.227 582.871 157.584 583.25C157.943 583.629 158.402 583.818 158.959 583.818C159.292 583.818 159.631 583.733 159.976 583.562C160.324 583.392 160.616 583.131 160.851 582.778C161.089 582.426 161.209 581.977 161.209 581.432ZM164.685 585V576.273H166.026V585H164.685ZM165.367 574.818C165.106 574.818 164.88 574.729 164.691 574.551C164.505 574.373 164.413 574.159 164.413 573.909C164.413 573.659 164.505 573.445 164.691 573.267C164.88 573.089 165.106 573 165.367 573C165.629 573 165.852 573.089 166.038 573.267C166.227 573.445 166.322 573.659 166.322 573.909C166.322 574.159 166.227 574.373 166.038 574.551C165.852 574.729 165.629 574.818 165.367 574.818ZM171.458 585.182C170.73 585.182 170.088 584.998 169.532 584.631C168.975 584.259 168.539 583.737 168.225 583.062C167.91 582.384 167.753 581.583 167.753 580.659C167.753 579.742 167.91 578.947 168.225 578.273C168.539 577.598 168.977 577.078 169.537 576.71C170.098 576.343 170.746 576.159 171.48 576.159C172.049 576.159 172.498 576.254 172.827 576.443C173.16 576.629 173.414 576.841 173.588 577.08C173.766 577.314 173.905 577.508 174.003 577.659H174.117V573.364H175.458V585H174.162V583.659H174.003C173.905 583.818 173.765 584.019 173.583 584.261C173.401 584.5 173.141 584.714 172.804 584.903C172.467 585.089 172.018 585.182 171.458 585.182ZM171.64 583.977C172.177 583.977 172.632 583.837 173.003 583.557C173.374 583.273 173.657 582.881 173.85 582.381C174.043 581.877 174.14 581.295 174.14 580.636C174.14 579.985 174.045 579.415 173.855 578.926C173.666 578.434 173.386 578.051 173.015 577.778C172.643 577.502 172.185 577.364 171.64 577.364C171.071 577.364 170.598 577.509 170.219 577.801C169.844 578.089 169.562 578.481 169.373 578.977C169.187 579.47 169.094 580.023 169.094 580.636C169.094 581.258 169.189 581.822 169.378 582.33C169.571 582.833 169.855 583.235 170.23 583.534C170.609 583.83 171.079 583.977 171.64 583.977ZM181.325 585.182C180.537 585.182 179.846 584.994 179.251 584.619C178.66 584.244 178.198 583.72 177.865 583.045C177.535 582.371 177.371 581.583 177.371 580.682C177.371 579.773 177.535 578.979 177.865 578.301C178.198 577.623 178.66 577.097 179.251 576.722C179.846 576.347 180.537 576.159 181.325 576.159C182.113 576.159 182.803 576.347 183.393 576.722C183.988 577.097 184.45 577.623 184.78 578.301C185.113 578.979 185.28 579.773 185.28 580.682C185.28 581.583 185.113 582.371 184.78 583.045C184.45 583.72 183.988 584.244 183.393 584.619C182.803 584.994 182.113 585.182 181.325 585.182ZM181.325 583.977C181.924 583.977 182.416 583.824 182.803 583.517C183.189 583.21 183.475 582.807 183.66 582.307C183.846 581.807 183.939 581.265 183.939 580.682C183.939 580.098 183.846 579.555 183.66 579.051C183.475 578.547 183.189 578.14 182.803 577.83C182.416 577.519 181.924 577.364 181.325 577.364C180.727 577.364 180.234 577.519 179.848 577.83C179.462 578.14 179.176 578.547 178.99 579.051C178.804 579.555 178.712 580.098 178.712 580.682C178.712 581.265 178.804 581.807 178.99 582.307C179.176 582.807 179.462 583.21 179.848 583.517C180.234 583.824 180.727 583.977 181.325 583.977ZM197.732 576.273C197.664 575.697 197.387 575.25 196.903 574.932C196.418 574.614 195.823 574.455 195.118 574.455C194.603 574.455 194.153 574.538 193.766 574.705C193.384 574.871 193.084 575.1 192.868 575.392C192.656 575.684 192.55 576.015 192.55 576.386C192.55 576.697 192.624 576.964 192.772 577.188C192.923 577.407 193.117 577.591 193.351 577.739C193.586 577.883 193.832 578.002 194.09 578.097C194.348 578.187 194.584 578.261 194.8 578.318L195.982 578.636C196.285 578.716 196.622 578.826 196.993 578.966C197.368 579.106 197.726 579.297 198.067 579.54C198.412 579.778 198.696 580.085 198.92 580.46C199.143 580.835 199.255 581.295 199.255 581.841C199.255 582.47 199.09 583.038 198.761 583.545C198.435 584.053 197.957 584.456 197.329 584.756C196.704 585.055 195.944 585.205 195.05 585.205C194.217 585.205 193.495 585.07 192.886 584.801C192.279 584.532 191.802 584.157 191.454 583.676C191.109 583.195 190.914 582.636 190.868 582H192.323C192.361 582.439 192.509 582.803 192.766 583.091C193.028 583.375 193.357 583.587 193.755 583.727C194.156 583.864 194.588 583.932 195.05 583.932C195.588 583.932 196.071 583.845 196.499 583.67C196.927 583.492 197.266 583.246 197.516 582.932C197.766 582.614 197.891 582.242 197.891 581.818C197.891 581.432 197.783 581.117 197.567 580.875C197.351 580.633 197.067 580.436 196.715 580.284C196.363 580.133 195.982 580 195.573 579.886L194.141 579.477C193.232 579.216 192.512 578.843 191.982 578.358C191.452 577.873 191.187 577.239 191.187 576.455C191.187 575.803 191.363 575.235 191.715 574.75C192.071 574.261 192.548 573.883 193.147 573.614C193.749 573.341 194.422 573.205 195.164 573.205C195.914 573.205 196.581 573.339 197.164 573.608C197.747 573.873 198.209 574.237 198.55 574.699C198.895 575.161 199.077 575.686 199.096 576.273H197.732ZM204.865 576.273V577.409H200.343V576.273H204.865ZM201.661 574.182H203.002V582.5C203.002 582.879 203.057 583.163 203.166 583.352C203.28 583.538 203.424 583.663 203.598 583.727C203.776 583.788 203.964 583.818 204.161 583.818C204.308 583.818 204.43 583.811 204.524 583.795C204.619 583.777 204.695 583.761 204.752 583.75L205.024 584.955C204.933 584.989 204.807 585.023 204.644 585.057C204.481 585.095 204.274 585.114 204.024 585.114C203.646 585.114 203.274 585.032 202.911 584.869C202.551 584.706 202.252 584.458 202.013 584.125C201.778 583.792 201.661 583.371 201.661 582.864V574.182ZM207.54 585.091C207.259 585.091 207.019 584.991 206.818 584.79C206.617 584.589 206.517 584.348 206.517 584.068C206.517 583.788 206.617 583.547 206.818 583.347C207.019 583.146 207.259 583.045 207.54 583.045C207.82 583.045 208.06 583.146 208.261 583.347C208.462 583.547 208.562 583.788 208.562 584.068C208.562 584.254 208.515 584.424 208.42 584.58C208.329 584.735 208.206 584.86 208.051 584.955C207.899 585.045 207.729 585.091 207.54 585.091ZM215.01 573.364H216.692L220.647 583.023H220.783L224.738 573.364H226.419V585H225.101V576.159H224.988L221.351 585H220.079L216.442 576.159H216.329V585H215.01V573.364ZM231.311 585.205C230.758 585.205 230.256 585.1 229.805 584.892C229.355 584.68 228.997 584.375 228.732 583.977C228.466 583.576 228.334 583.091 228.334 582.523C228.334 582.023 228.432 581.617 228.629 581.307C228.826 580.992 229.089 580.746 229.419 580.568C229.749 580.39 230.112 580.258 230.51 580.17C230.911 580.08 231.315 580.008 231.72 579.955C232.25 579.886 232.68 579.835 233.01 579.801C233.343 579.763 233.586 579.701 233.737 579.614C233.893 579.527 233.97 579.375 233.97 579.159V579.114C233.97 578.553 233.817 578.117 233.51 577.807C233.207 577.496 232.747 577.341 232.129 577.341C231.489 577.341 230.987 577.481 230.624 577.761C230.26 578.042 230.004 578.341 229.857 578.659L228.584 578.205C228.811 577.674 229.114 577.261 229.493 576.966C229.875 576.667 230.292 576.458 230.743 576.341C231.197 576.22 231.644 576.159 232.084 576.159C232.364 576.159 232.686 576.193 233.05 576.261C233.417 576.326 233.771 576.46 234.112 576.665C234.457 576.869 234.743 577.178 234.97 577.591C235.197 578.004 235.311 578.557 235.311 579.25V585H233.97V583.818H233.902C233.811 584.008 233.66 584.21 233.447 584.426C233.235 584.642 232.953 584.826 232.601 584.977C232.249 585.129 231.819 585.205 231.311 585.205ZM231.516 584C232.046 584 232.493 583.896 232.857 583.688C233.224 583.479 233.5 583.21 233.686 582.881C233.875 582.551 233.97 582.205 233.97 581.841V580.614C233.913 580.682 233.788 580.744 233.595 580.801C233.406 580.854 233.186 580.902 232.936 580.943C232.69 580.981 232.449 581.015 232.214 581.045C231.983 581.072 231.796 581.095 231.652 581.114C231.304 581.159 230.978 581.233 230.675 581.335C230.375 581.434 230.133 581.583 229.947 581.784C229.766 581.981 229.675 582.25 229.675 582.591C229.675 583.057 229.847 583.409 230.192 583.648C230.54 583.883 230.982 584 231.516 584ZM237.439 585V576.273H238.734V577.591H238.825C238.984 577.159 239.272 576.809 239.689 576.54C240.105 576.271 240.575 576.136 241.098 576.136C241.196 576.136 241.319 576.138 241.467 576.142C241.615 576.146 241.726 576.152 241.802 576.159V577.523C241.757 577.511 241.653 577.494 241.49 577.472C241.331 577.445 241.162 577.432 240.984 577.432C240.56 577.432 240.181 577.521 239.848 577.699C239.518 577.873 239.257 578.116 239.064 578.426C238.874 578.733 238.779 579.083 238.779 579.477V585H237.439ZM244.201 588.273C243.974 588.273 243.771 588.254 243.593 588.216C243.415 588.182 243.292 588.148 243.224 588.114L243.565 586.932C243.89 587.015 244.178 587.045 244.428 587.023C244.678 587 244.9 586.888 245.093 586.688C245.29 586.491 245.47 586.17 245.633 585.727L245.883 585.045L242.655 576.273H244.11L246.519 583.227H246.61L249.019 576.273H250.474L246.769 586.273C246.602 586.723 246.396 587.097 246.15 587.392C245.904 587.691 245.618 587.913 245.292 588.057C244.97 588.201 244.606 588.273 244.201 588.273ZM253.083 573.364V577.364H251.833V573.364H253.083ZM261.332 578.227L260.128 578.568C260.052 578.367 259.94 578.172 259.792 577.983C259.649 577.79 259.452 577.631 259.202 577.506C258.952 577.381 258.631 577.318 258.241 577.318C257.707 577.318 257.262 577.441 256.906 577.688C256.554 577.93 256.378 578.239 256.378 578.614C256.378 578.947 256.499 579.21 256.741 579.403C256.984 579.597 257.363 579.758 257.878 579.886L259.173 580.205C259.953 580.394 260.535 580.684 260.917 581.074C261.3 581.46 261.491 581.958 261.491 582.568C261.491 583.068 261.347 583.515 261.059 583.909C260.775 584.303 260.378 584.614 259.866 584.841C259.355 585.068 258.76 585.182 258.082 585.182C257.192 585.182 256.455 584.989 255.872 584.602C255.289 584.216 254.919 583.652 254.764 582.909L256.037 582.591C256.158 583.061 256.387 583.413 256.724 583.648C257.065 583.883 257.51 584 258.059 584C258.684 584 259.181 583.867 259.548 583.602C259.919 583.333 260.105 583.011 260.105 582.636C260.105 582.333 259.999 582.08 259.787 581.875C259.575 581.667 259.249 581.511 258.809 581.409L257.355 581.068C256.556 580.879 255.969 580.585 255.594 580.188C255.222 579.786 255.037 579.284 255.037 578.682C255.037 578.189 255.175 577.754 255.452 577.375C255.732 576.996 256.113 576.699 256.594 576.483C257.078 576.267 257.628 576.159 258.241 576.159C259.105 576.159 259.783 576.348 260.275 576.727C260.772 577.106 261.124 577.606 261.332 578.227ZM267.552 585V573.364H268.961V578.545H275.165V573.364H276.574V585H275.165V579.795H268.961V585H267.552ZM282.439 585.182C281.651 585.182 280.96 584.994 280.365 584.619C279.774 584.244 279.312 583.72 278.979 583.045C278.649 582.371 278.484 581.583 278.484 580.682C278.484 579.773 278.649 578.979 278.979 578.301C279.312 577.623 279.774 577.097 280.365 576.722C280.96 576.347 281.651 576.159 282.439 576.159C283.227 576.159 283.916 576.347 284.507 576.722C285.102 577.097 285.564 577.623 285.894 578.301C286.227 578.979 286.394 579.773 286.394 580.682C286.394 581.583 286.227 582.371 285.894 583.045C285.564 583.72 285.102 584.244 284.507 584.619C283.916 584.994 283.227 585.182 282.439 585.182ZM282.439 583.977C283.037 583.977 283.53 583.824 283.916 583.517C284.303 583.21 284.589 582.807 284.774 582.307C284.96 581.807 285.053 581.265 285.053 580.682C285.053 580.098 284.96 579.555 284.774 579.051C284.589 578.547 284.303 578.14 283.916 577.83C283.53 577.519 283.037 577.364 282.439 577.364C281.841 577.364 281.348 577.519 280.962 577.83C280.575 578.14 280.289 578.547 280.104 579.051C279.918 579.555 279.825 580.098 279.825 580.682C279.825 581.265 279.918 581.807 280.104 582.307C280.289 582.807 280.575 583.21 280.962 583.517C281.348 583.824 281.841 583.977 282.439 583.977ZM294.302 578.227L293.098 578.568C293.022 578.367 292.91 578.172 292.762 577.983C292.619 577.79 292.422 577.631 292.172 577.506C291.922 577.381 291.601 577.318 291.211 577.318C290.677 577.318 290.232 577.441 289.876 577.688C289.524 577.93 289.348 578.239 289.348 578.614C289.348 578.947 289.469 579.21 289.711 579.403C289.954 579.597 290.333 579.758 290.848 579.886L292.143 580.205C292.923 580.394 293.505 580.684 293.887 581.074C294.27 581.46 294.461 581.958 294.461 582.568C294.461 583.068 294.317 583.515 294.029 583.909C293.745 584.303 293.348 584.614 292.836 584.841C292.325 585.068 291.73 585.182 291.052 585.182C290.162 585.182 289.425 584.989 288.842 584.602C288.259 584.216 287.889 583.652 287.734 582.909L289.007 582.591C289.128 583.061 289.357 583.413 289.694 583.648C290.035 583.883 290.48 584 291.029 584C291.654 584 292.151 583.867 292.518 583.602C292.889 583.333 293.075 583.011 293.075 582.636C293.075 582.333 292.969 582.08 292.757 581.875C292.545 581.667 292.219 581.511 291.779 581.409L290.325 581.068C289.526 580.879 288.939 580.585 288.564 580.188C288.192 579.786 288.007 579.284 288.007 578.682C288.007 578.189 288.145 577.754 288.422 577.375C288.702 576.996 289.083 576.699 289.564 576.483C290.048 576.267 290.598 576.159 291.211 576.159C292.075 576.159 292.753 576.348 293.245 576.727C293.742 577.106 294.094 577.606 294.302 578.227ZM296.16 588.273V576.273H297.455V577.659H297.614C297.713 577.508 297.849 577.314 298.023 577.08C298.201 576.841 298.455 576.629 298.785 576.443C299.118 576.254 299.569 576.159 300.137 576.159C300.872 576.159 301.52 576.343 302.08 576.71C302.641 577.078 303.078 577.598 303.393 578.273C303.707 578.947 303.864 579.742 303.864 580.659C303.864 581.583 303.707 582.384 303.393 583.062C303.078 583.737 302.643 584.259 302.086 584.631C301.529 584.998 300.887 585.182 300.16 585.182C299.599 585.182 299.15 585.089 298.813 584.903C298.476 584.714 298.217 584.5 298.035 584.261C297.853 584.019 297.713 583.818 297.614 583.659H297.501V588.273H296.16ZM297.478 580.636C297.478 581.295 297.575 581.877 297.768 582.381C297.961 582.881 298.243 583.273 298.614 583.557C298.986 583.837 299.44 583.977 299.978 583.977C300.539 583.977 301.006 583.83 301.381 583.534C301.76 583.235 302.044 582.833 302.234 582.33C302.427 581.822 302.523 581.258 302.523 580.636C302.523 580.023 302.429 579.47 302.239 578.977C302.054 578.481 301.772 578.089 301.393 577.801C301.018 577.509 300.546 577.364 299.978 577.364C299.433 577.364 298.974 577.502 298.603 577.778C298.232 578.051 297.951 578.434 297.762 578.926C297.573 579.415 297.478 579.985 297.478 580.636ZM305.59 585V576.273H306.931V585H305.59ZM306.272 574.818C306.01 574.818 305.785 574.729 305.595 574.551C305.41 574.373 305.317 574.159 305.317 573.909C305.317 573.659 305.41 573.445 305.595 573.267C305.785 573.089 306.01 573 306.272 573C306.533 573 306.756 573.089 306.942 573.267C307.131 573.445 307.226 573.659 307.226 573.909C307.226 574.159 307.131 574.373 306.942 574.551C306.756 574.729 306.533 574.818 306.272 574.818ZM312.862 576.273V577.409H308.339V576.273H312.862ZM309.658 574.182H310.998V582.5C310.998 582.879 311.053 583.163 311.163 583.352C311.277 583.538 311.421 583.663 311.595 583.727C311.773 583.788 311.961 583.818 312.158 583.818C312.305 583.818 312.427 583.811 312.521 583.795C312.616 583.777 312.692 583.761 312.748 583.75L313.021 584.955C312.93 584.989 312.803 585.023 312.641 585.057C312.478 585.095 312.271 585.114 312.021 585.114C311.642 585.114 311.271 585.032 310.908 584.869C310.548 584.706 310.248 584.458 310.01 584.125C309.775 583.792 309.658 583.371 309.658 582.864V574.182ZM317.127 585.205C316.574 585.205 316.072 585.1 315.622 584.892C315.171 584.68 314.813 584.375 314.548 583.977C314.283 583.576 314.15 583.091 314.15 582.523C314.15 582.023 314.249 581.617 314.446 581.307C314.642 580.992 314.906 580.746 315.235 580.568C315.565 580.39 315.928 580.258 316.326 580.17C316.728 580.08 317.131 580.008 317.536 579.955C318.067 579.886 318.497 579.835 318.826 579.801C319.16 579.763 319.402 579.701 319.553 579.614C319.709 579.527 319.786 579.375 319.786 579.159V579.114C319.786 578.553 319.633 578.117 319.326 577.807C319.023 577.496 318.563 577.341 317.946 577.341C317.305 577.341 316.803 577.481 316.44 577.761C316.076 578.042 315.821 578.341 315.673 578.659L314.4 578.205C314.627 577.674 314.93 577.261 315.309 576.966C315.692 576.667 316.108 576.458 316.559 576.341C317.014 576.22 317.461 576.159 317.9 576.159C318.18 576.159 318.502 576.193 318.866 576.261C319.233 576.326 319.588 576.46 319.928 576.665C320.273 576.869 320.559 577.178 320.786 577.591C321.014 578.004 321.127 578.557 321.127 579.25V585H319.786V583.818H319.718C319.627 584.008 319.476 584.21 319.264 584.426C319.052 584.642 318.769 584.826 318.417 584.977C318.065 585.129 317.635 585.205 317.127 585.205ZM317.332 584C317.862 584 318.309 583.896 318.673 583.688C319.04 583.479 319.317 583.21 319.502 582.881C319.692 582.551 319.786 582.205 319.786 581.841V580.614C319.73 580.682 319.605 580.744 319.411 580.801C319.222 580.854 319.002 580.902 318.752 580.943C318.506 580.981 318.266 581.015 318.031 581.045C317.8 581.072 317.612 581.095 317.468 581.114C317.12 581.159 316.794 581.233 316.491 581.335C316.192 581.434 315.949 581.583 315.764 581.784C315.582 581.981 315.491 582.25 315.491 582.591C315.491 583.057 315.663 583.409 316.008 583.648C316.356 583.883 316.798 584 317.332 584ZM324.596 573.364V585H323.255V573.364H324.596Z" fill="black"/>
<rect x="30" y="29" width="386" height="218" fill="#D9D9D9"/>
<rect x="30" y="320" width="386" height="218" fill="#D9D9D9"/>
<rect x="125.5" y="612.5" width="195" height="67" rx="33.5" fill="white" stroke="url(#paint1_linear_67_3)"/>
<path d="M175.386 642V630.364H182.408V631.614H176.795V635.545H182.045V636.795H176.795V640.75H182.499V642H175.386ZM185.766 633.273L187.857 636.841L189.948 633.273H191.494L188.675 637.636L191.494 642H189.948L187.857 638.614L185.766 642H184.221L186.994 637.636L184.221 633.273H185.766ZM193.407 645.273V633.273H194.702V634.659H194.862C194.96 634.508 195.096 634.314 195.271 634.08C195.449 633.841 195.702 633.629 196.032 633.443C196.365 633.254 196.816 633.159 197.384 633.159C198.119 633.159 198.767 633.343 199.327 633.71C199.888 634.078 200.326 634.598 200.64 635.273C200.954 635.947 201.112 636.742 201.112 637.659C201.112 638.583 200.954 639.384 200.64 640.062C200.326 640.737 199.89 641.259 199.333 641.631C198.776 641.998 198.134 642.182 197.407 642.182C196.846 642.182 196.397 642.089 196.06 641.903C195.723 641.714 195.464 641.5 195.282 641.261C195.1 641.019 194.96 640.818 194.862 640.659H194.748V645.273H193.407ZM194.725 637.636C194.725 638.295 194.822 638.877 195.015 639.381C195.208 639.881 195.49 640.273 195.862 640.557C196.233 640.837 196.687 640.977 197.225 640.977C197.786 640.977 198.254 640.83 198.629 640.534C199.007 640.235 199.291 639.833 199.481 639.33C199.674 638.822 199.771 638.258 199.771 637.636C199.771 637.023 199.676 636.47 199.487 635.977C199.301 635.481 199.019 635.089 198.64 634.801C198.265 634.509 197.793 634.364 197.225 634.364C196.68 634.364 196.221 634.502 195.85 634.778C195.479 635.051 195.199 635.434 195.009 635.926C194.82 636.415 194.725 636.985 194.725 637.636ZM206.816 642.182C205.975 642.182 205.25 641.996 204.64 641.625C204.034 641.25 203.566 640.727 203.237 640.057C202.911 639.383 202.748 638.598 202.748 637.705C202.748 636.811 202.911 636.023 203.237 635.341C203.566 634.655 204.024 634.121 204.612 633.739C205.202 633.352 205.892 633.159 206.68 633.159C207.134 633.159 207.583 633.235 208.026 633.386C208.469 633.538 208.873 633.784 209.237 634.125C209.6 634.462 209.89 634.909 210.106 635.466C210.322 636.023 210.43 636.708 210.43 637.523V638.091H203.702V636.932H209.066C209.066 636.439 208.968 636 208.771 635.614C208.577 635.227 208.301 634.922 207.941 634.699C207.585 634.475 207.165 634.364 206.68 634.364C206.146 634.364 205.683 634.496 205.293 634.761C204.907 635.023 204.61 635.364 204.401 635.784C204.193 636.205 204.089 636.655 204.089 637.136V637.909C204.089 638.568 204.202 639.127 204.43 639.585C204.661 640.04 204.981 640.386 205.39 640.625C205.799 640.86 206.274 640.977 206.816 640.977C207.168 640.977 207.487 640.928 207.771 640.83C208.058 640.727 208.307 640.576 208.515 640.375C208.723 640.17 208.884 639.917 208.998 639.614L210.293 639.977C210.157 640.417 209.928 640.803 209.606 641.136C209.284 641.466 208.886 641.723 208.413 641.909C207.939 642.091 207.407 642.182 206.816 642.182ZM212.469 642V633.273H213.765V634.591H213.856C214.015 634.159 214.303 633.809 214.719 633.54C215.136 633.271 215.606 633.136 216.129 633.136C216.227 633.136 216.35 633.138 216.498 633.142C216.646 633.146 216.757 633.152 216.833 633.159V634.523C216.788 634.511 216.683 634.494 216.521 634.472C216.362 634.445 216.193 634.432 216.015 634.432C215.591 634.432 215.212 634.521 214.879 634.699C214.549 634.873 214.288 635.116 214.094 635.426C213.905 635.733 213.81 636.083 213.81 636.477V642H212.469ZM218.423 642V633.273H219.763V642H218.423ZM219.104 631.818C218.843 631.818 218.618 631.729 218.428 631.551C218.243 631.373 218.15 631.159 218.15 630.909C218.15 630.659 218.243 630.445 218.428 630.267C218.618 630.089 218.843 630 219.104 630C219.366 630 219.589 630.089 219.775 630.267C219.964 630.445 220.059 630.659 220.059 630.909C220.059 631.159 219.964 631.373 219.775 631.551C219.589 631.729 219.366 631.818 219.104 631.818ZM225.879 642.182C225.038 642.182 224.312 641.996 223.702 641.625C223.096 641.25 222.629 640.727 222.299 640.057C221.973 639.383 221.81 638.598 221.81 637.705C221.81 636.811 221.973 636.023 222.299 635.341C222.629 634.655 223.087 634.121 223.674 633.739C224.265 633.352 224.954 633.159 225.742 633.159C226.197 633.159 226.646 633.235 227.089 633.386C227.532 633.538 227.935 633.784 228.299 634.125C228.663 634.462 228.952 634.909 229.168 635.466C229.384 636.023 229.492 636.708 229.492 637.523V638.091H222.765V636.932H228.129C228.129 636.439 228.03 636 227.833 635.614C227.64 635.227 227.363 634.922 227.004 634.699C226.647 634.475 226.227 634.364 225.742 634.364C225.208 634.364 224.746 634.496 224.356 634.761C223.969 635.023 223.672 635.364 223.464 635.784C223.255 636.205 223.151 636.655 223.151 637.136V637.909C223.151 638.568 223.265 639.127 223.492 639.585C223.723 640.04 224.043 640.386 224.452 640.625C224.862 640.86 225.337 640.977 225.879 640.977C226.231 640.977 226.549 640.928 226.833 640.83C227.121 640.727 227.369 640.576 227.577 640.375C227.786 640.17 227.947 639.917 228.06 639.614L229.356 639.977C229.219 640.417 228.99 640.803 228.668 641.136C228.346 641.466 227.949 641.723 227.475 641.909C227.002 642.091 226.469 642.182 225.879 642.182ZM232.873 636.75V642H231.532V633.273H232.827V634.636H232.941C233.146 634.193 233.456 633.837 233.873 633.568C234.29 633.295 234.827 633.159 235.487 633.159C236.077 633.159 236.594 633.28 237.038 633.523C237.481 633.761 237.826 634.125 238.072 634.614C238.318 635.098 238.441 635.712 238.441 636.455V642H237.1V636.545C237.1 635.86 236.922 635.326 236.566 634.943C236.21 634.557 235.721 634.364 235.1 634.364C234.672 634.364 234.29 634.456 233.952 634.642C233.619 634.828 233.356 635.098 233.163 635.455C232.969 635.811 232.873 636.242 232.873 636.75ZM244.437 642.182C243.619 642.182 242.914 641.989 242.323 641.602C241.732 641.216 241.278 640.684 240.96 640.006C240.641 639.328 240.482 638.553 240.482 637.682C240.482 636.795 240.645 636.013 240.971 635.335C241.3 634.653 241.759 634.121 242.346 633.739C242.937 633.352 243.626 633.159 244.414 633.159C245.028 633.159 245.581 633.273 246.073 633.5C246.566 633.727 246.969 634.045 247.283 634.455C247.598 634.864 247.793 635.341 247.869 635.886H246.528C246.425 635.489 246.198 635.136 245.846 634.83C245.497 634.519 245.028 634.364 244.437 634.364C243.914 634.364 243.456 634.5 243.062 634.773C242.672 635.042 242.367 635.422 242.147 635.915C241.931 636.403 241.823 636.977 241.823 637.636C241.823 638.311 241.929 638.898 242.141 639.398C242.357 639.898 242.66 640.286 243.05 640.562C243.444 640.839 243.906 640.977 244.437 640.977C244.785 640.977 245.102 640.917 245.386 640.795C245.67 640.674 245.91 640.5 246.107 640.273C246.304 640.045 246.444 639.773 246.528 639.455H247.869C247.793 639.97 247.605 640.434 247.306 640.847C247.011 641.256 246.619 641.581 246.13 641.824C245.645 642.062 245.081 642.182 244.437 642.182ZM253.488 642.182C252.647 642.182 251.922 641.996 251.312 641.625C250.706 641.25 250.238 640.727 249.908 640.057C249.583 639.383 249.42 638.598 249.42 637.705C249.42 636.811 249.583 636.023 249.908 635.341C250.238 634.655 250.696 634.121 251.283 633.739C251.874 633.352 252.564 633.159 253.352 633.159C253.806 633.159 254.255 633.235 254.698 633.386C255.141 633.538 255.545 633.784 255.908 634.125C256.272 634.462 256.562 634.909 256.778 635.466C256.994 636.023 257.102 636.708 257.102 637.523V638.091H250.374V636.932H255.738C255.738 636.439 255.639 636 255.442 635.614C255.249 635.227 254.973 634.922 254.613 634.699C254.257 634.475 253.836 634.364 253.352 634.364C252.817 634.364 252.355 634.496 251.965 634.761C251.579 635.023 251.281 635.364 251.073 635.784C250.865 636.205 250.761 636.655 250.761 637.136V637.909C250.761 638.568 250.874 639.127 251.102 639.585C251.333 640.04 251.653 640.386 252.062 640.625C252.471 640.86 252.946 640.977 253.488 640.977C253.84 640.977 254.158 640.928 254.442 640.83C254.73 640.727 254.978 640.576 255.187 640.375C255.395 640.17 255.556 639.917 255.67 639.614L256.965 639.977C256.829 640.417 256.6 640.803 256.278 641.136C255.956 641.466 255.558 641.723 255.085 641.909C254.611 642.091 254.079 642.182 253.488 642.182ZM263.641 642V633.273H264.982V642H263.641ZM264.323 631.818C264.062 631.818 263.836 631.729 263.647 631.551C263.461 631.373 263.369 631.159 263.369 630.909C263.369 630.659 263.461 630.445 263.647 630.267C263.836 630.089 264.062 630 264.323 630C264.585 630 264.808 630.089 264.994 630.267C265.183 630.445 265.278 630.659 265.278 630.909C265.278 631.159 265.183 631.373 264.994 631.551C264.808 631.729 264.585 631.818 264.323 631.818ZM271.234 633.273V634.409H266.711V633.273H271.234ZM268.029 631.182H269.37V639.5C269.37 639.879 269.425 640.163 269.535 640.352C269.648 640.538 269.792 640.663 269.967 640.727C270.145 640.788 270.332 640.818 270.529 640.818C270.677 640.818 270.798 640.811 270.893 640.795C270.987 640.777 271.063 640.761 271.12 640.75L271.393 641.955C271.302 641.989 271.175 642.023 271.012 642.057C270.849 642.095 270.643 642.114 270.393 642.114C270.014 642.114 269.643 642.032 269.279 641.869C268.919 641.706 268.62 641.458 268.381 641.125C268.147 640.792 268.029 640.371 268.029 639.864V631.182ZM184.692 652.273V653.409H179.987V652.273H184.692ZM181.396 661V651.068C181.396 650.568 181.514 650.152 181.749 649.818C181.983 649.485 182.288 649.235 182.663 649.068C183.038 648.902 183.434 648.818 183.851 648.818C184.18 648.818 184.449 648.845 184.658 648.898C184.866 648.951 185.021 649 185.124 649.045L184.737 650.205C184.669 650.182 184.574 650.153 184.453 650.119C184.336 650.085 184.18 650.068 183.987 650.068C183.544 650.068 183.224 650.18 183.027 650.403C182.834 650.627 182.737 650.955 182.737 651.386V661H181.396ZM189.757 661.182C188.969 661.182 188.278 660.994 187.683 660.619C187.092 660.244 186.63 659.72 186.297 659.045C185.967 658.371 185.803 657.583 185.803 656.682C185.803 655.773 185.967 654.979 186.297 654.301C186.63 653.623 187.092 653.097 187.683 652.722C188.278 652.347 188.969 652.159 189.757 652.159C190.545 652.159 191.234 652.347 191.825 652.722C192.42 653.097 192.882 653.623 193.212 654.301C193.545 654.979 193.712 655.773 193.712 656.682C193.712 657.583 193.545 658.371 193.212 659.045C192.882 659.72 192.42 660.244 191.825 660.619C191.234 660.994 190.545 661.182 189.757 661.182ZM189.757 659.977C190.356 659.977 190.848 659.824 191.234 659.517C191.621 659.21 191.907 658.807 192.092 658.307C192.278 657.807 192.371 657.265 192.371 656.682C192.371 656.098 192.278 655.555 192.092 655.051C191.907 654.547 191.621 654.14 191.234 653.83C190.848 653.519 190.356 653.364 189.757 653.364C189.159 653.364 188.666 653.519 188.28 653.83C187.893 654.14 187.607 654.547 187.422 655.051C187.236 655.555 187.143 656.098 187.143 656.682C187.143 657.265 187.236 657.807 187.422 658.307C187.607 658.807 187.893 659.21 188.28 659.517C188.666 659.824 189.159 659.977 189.757 659.977ZM195.759 661V652.273H197.054V653.591H197.145C197.304 653.159 197.592 652.809 198.009 652.54C198.425 652.271 198.895 652.136 199.418 652.136C199.516 652.136 199.639 652.138 199.787 652.142C199.935 652.146 200.046 652.152 200.122 652.159V653.523C200.077 653.511 199.973 653.494 199.81 653.472C199.651 653.445 199.482 653.432 199.304 653.432C198.88 653.432 198.501 653.521 198.168 653.699C197.838 653.873 197.577 654.116 197.384 654.426C197.194 654.733 197.099 655.083 197.099 655.477V661H195.759ZM205.393 649.364H207.007L210.234 654.795H210.371L213.598 649.364H215.212L211.007 656.205V661H209.598V656.205L205.393 649.364ZM219.163 661.182C218.375 661.182 217.684 660.994 217.089 660.619C216.499 660.244 216.036 659.72 215.703 659.045C215.374 658.371 215.209 657.583 215.209 656.682C215.209 655.773 215.374 654.979 215.703 654.301C216.036 653.623 216.499 653.097 217.089 652.722C217.684 652.347 218.375 652.159 219.163 652.159C219.951 652.159 220.641 652.347 221.232 652.722C221.826 653.097 222.288 653.623 222.618 654.301C222.951 654.979 223.118 655.773 223.118 656.682C223.118 657.583 222.951 658.371 222.618 659.045C222.288 659.72 221.826 660.244 221.232 660.619C220.641 660.994 219.951 661.182 219.163 661.182ZM219.163 659.977C219.762 659.977 220.254 659.824 220.641 659.517C221.027 659.21 221.313 658.807 221.499 658.307C221.684 657.807 221.777 657.265 221.777 656.682C221.777 656.098 221.684 655.555 221.499 655.051C221.313 654.547 221.027 654.14 220.641 653.83C220.254 653.519 219.762 653.364 219.163 653.364C218.565 653.364 218.072 653.519 217.686 653.83C217.3 654.14 217.014 654.547 216.828 655.051C216.643 655.555 216.55 656.098 216.55 656.682C216.55 657.265 216.643 657.807 216.828 658.307C217.014 658.807 217.3 659.21 217.686 659.517C218.072 659.824 218.565 659.977 219.163 659.977ZM230.665 657.432V652.273H232.006V661H230.665V659.523H230.574C230.369 659.966 230.051 660.343 229.619 660.653C229.188 660.96 228.642 661.114 227.983 661.114C227.438 661.114 226.953 660.994 226.528 660.756C226.104 660.513 225.771 660.15 225.528 659.665C225.286 659.176 225.165 658.561 225.165 657.818V652.273H226.506V657.727C226.506 658.364 226.684 658.871 227.04 659.25C227.4 659.629 227.858 659.818 228.415 659.818C228.748 659.818 229.087 659.733 229.432 659.562C229.78 659.392 230.072 659.131 230.307 658.778C230.545 658.426 230.665 657.977 230.665 657.432ZM234.462 661V652.273H235.757V653.591H235.848C236.007 653.159 236.295 652.809 236.712 652.54C237.128 652.271 237.598 652.136 238.121 652.136C238.219 652.136 238.342 652.138 238.49 652.142C238.638 652.146 238.75 652.152 238.825 652.159V653.523C238.78 653.511 238.676 653.494 238.513 653.472C238.354 653.445 238.185 653.432 238.007 653.432C237.583 653.432 237.204 653.521 236.871 653.699C236.541 653.873 236.28 654.116 236.087 654.426C235.897 654.733 235.803 655.083 235.803 655.477V661H234.462ZM246.597 654.227L245.392 654.568C245.316 654.367 245.205 654.172 245.057 653.983C244.913 653.79 244.716 653.631 244.466 653.506C244.216 653.381 243.896 653.318 243.506 653.318C242.972 653.318 242.527 653.441 242.17 653.688C241.818 653.93 241.642 654.239 241.642 654.614C241.642 654.947 241.763 655.21 242.006 655.403C242.248 655.597 242.627 655.758 243.142 655.886L244.438 656.205C245.218 656.394 245.799 656.684 246.182 657.074C246.564 657.46 246.756 657.958 246.756 658.568C246.756 659.068 246.612 659.515 246.324 659.909C246.04 660.303 245.642 660.614 245.131 660.841C244.619 661.068 244.025 661.182 243.347 661.182C242.456 661.182 241.72 660.989 241.136 660.602C240.553 660.216 240.184 659.652 240.028 658.909L241.301 658.591C241.422 659.061 241.652 659.413 241.989 659.648C242.33 659.883 242.775 660 243.324 660C243.949 660 244.445 659.867 244.812 659.602C245.184 659.333 245.369 659.011 245.369 658.636C245.369 658.333 245.263 658.08 245.051 657.875C244.839 657.667 244.513 657.511 244.074 657.409L242.619 657.068C241.82 656.879 241.233 656.585 240.858 656.188C240.487 655.786 240.301 655.284 240.301 654.682C240.301 654.189 240.439 653.754 240.716 653.375C240.996 652.996 241.377 652.699 241.858 652.483C242.343 652.267 242.892 652.159 243.506 652.159C244.369 652.159 245.047 652.348 245.54 652.727C246.036 653.106 246.388 653.606 246.597 654.227ZM252.433 661.182C251.592 661.182 250.867 660.996 250.257 660.625C249.651 660.25 249.183 659.727 248.854 659.057C248.528 658.383 248.365 657.598 248.365 656.705C248.365 655.811 248.528 655.023 248.854 654.341C249.183 653.655 249.642 653.121 250.229 652.739C250.82 652.352 251.509 652.159 252.297 652.159C252.751 652.159 253.2 652.235 253.643 652.386C254.087 652.538 254.49 652.784 254.854 653.125C255.217 653.462 255.507 653.909 255.723 654.466C255.939 655.023 256.047 655.708 256.047 656.523V657.091H249.32V655.932H254.683C254.683 655.439 254.585 655 254.388 654.614C254.195 654.227 253.918 653.922 253.558 653.699C253.202 653.475 252.782 653.364 252.297 653.364C251.763 653.364 251.301 653.496 250.911 653.761C250.524 654.023 250.227 654.364 250.018 654.784C249.81 655.205 249.706 655.655 249.706 656.136V656.909C249.706 657.568 249.82 658.127 250.047 658.585C250.278 659.04 250.598 659.386 251.007 659.625C251.416 659.86 251.892 659.977 252.433 659.977C252.786 659.977 253.104 659.928 253.388 659.83C253.676 659.727 253.924 659.576 254.132 659.375C254.34 659.17 254.501 658.917 254.615 658.614L255.911 658.977C255.774 659.417 255.545 659.803 255.223 660.136C254.901 660.466 254.503 660.723 254.03 660.909C253.556 661.091 253.024 661.182 252.433 661.182ZM259.428 649.364V661H258.087V649.364H259.428ZM265.77 652.273V653.409H261.065V652.273H265.77ZM262.474 661V651.068C262.474 650.568 262.592 650.152 262.827 649.818C263.062 649.485 263.366 649.235 263.741 649.068C264.116 648.902 264.512 648.818 264.929 648.818C265.259 648.818 265.527 648.845 265.736 648.898C265.944 648.951 266.099 649 266.202 649.045L265.815 650.205C265.747 650.182 265.652 650.153 265.531 650.119C265.414 650.085 265.259 650.068 265.065 650.068C264.622 650.068 264.302 650.18 264.105 650.403C263.912 650.627 263.815 650.955 263.815 651.386V661H262.474Z" fill="black"/>
<defs>
<linearGradient id="paint0_linear_67_3" x1="222.5" y1="0" x2="222.5" y2="755" gradientUnits="userSpaceOnUse">
<stop stop-color="white"/>
<stop offset="1" stop-color="white" stop-opacity="0"/>
</linearGradient>
<linearGradient id="paint1_linear_67_3" x1="125" y1="644" x2="323" y2="644.5" gradientUnits="userSpaceOnUse">
<stop stop-color="#15B1E4"/>
<stop offset="1" stop-color="#B800FF"/>
</linearGradient>
</defs>
</svg>
