<svg width="445" height="755" viewBox="0 0 445 755" fill="none" xmlns="http://www.w3.org/2000/svg">
<rect width="445" height="755" fill="url(#paint0_linear_174_6)"/>
<rect x="31.5" y="610.5" width="195" height="67" rx="33.5" fill="white" stroke="url(#paint1_linear_174_6)"/>
<path d="M81.3857 640V628.364H88.4084V629.614H82.7947V633.545H88.0447V634.795H82.7947V638.75H88.4993V640H81.3857ZM91.7663 631.273L93.8572 634.841L95.9482 631.273H97.4936L94.6754 635.636L97.4936 640H95.9482L93.8572 636.614L91.7663 640H90.2209L92.9936 635.636L90.2209 631.273H91.7663ZM99.407 643.273V631.273H100.702V632.659H100.862C100.96 632.508 101.096 632.314 101.271 632.08C101.449 631.841 101.702 631.629 102.032 631.443C102.365 631.254 102.816 631.159 103.384 631.159C104.119 631.159 104.767 631.343 105.327 631.71C105.888 632.078 106.326 632.598 106.64 633.273C106.954 633.947 107.112 634.742 107.112 635.659C107.112 636.583 106.954 637.384 106.64 638.062C106.326 638.737 105.89 639.259 105.333 639.631C104.776 639.998 104.134 640.182 103.407 640.182C102.846 640.182 102.397 640.089 102.06 639.903C101.723 639.714 101.464 639.5 101.282 639.261C101.1 639.019 100.96 638.818 100.862 638.659H100.748V643.273H99.407ZM100.725 635.636C100.725 636.295 100.822 636.877 101.015 637.381C101.208 637.881 101.49 638.273 101.862 638.557C102.233 638.837 102.687 638.977 103.225 638.977C103.786 638.977 104.254 638.83 104.629 638.534C105.007 638.235 105.291 637.833 105.481 637.33C105.674 636.822 105.771 636.258 105.771 635.636C105.771 635.023 105.676 634.47 105.487 633.977C105.301 633.481 105.019 633.089 104.64 632.801C104.265 632.509 103.793 632.364 103.225 632.364C102.68 632.364 102.221 632.502 101.85 632.778C101.479 633.051 101.199 633.434 101.009 633.926C100.82 634.415 100.725 634.985 100.725 635.636ZM112.816 640.182C111.975 640.182 111.25 639.996 110.64 639.625C110.034 639.25 109.566 638.727 109.237 638.057C108.911 637.383 108.748 636.598 108.748 635.705C108.748 634.811 108.911 634.023 109.237 633.341C109.566 632.655 110.024 632.121 110.612 631.739C111.202 631.352 111.892 631.159 112.68 631.159C113.134 631.159 113.583 631.235 114.026 631.386C114.469 631.538 114.873 631.784 115.237 632.125C115.6 632.462 115.89 632.909 116.106 633.466C116.322 634.023 116.43 634.708 116.43 635.523V636.091H109.702V634.932H115.066C115.066 634.439 114.968 634 114.771 633.614C114.577 633.227 114.301 632.922 113.941 632.699C113.585 632.475 113.165 632.364 112.68 632.364C112.146 632.364 111.683 632.496 111.293 632.761C110.907 633.023 110.61 633.364 110.401 633.784C110.193 634.205 110.089 634.655 110.089 635.136V635.909C110.089 636.568 110.202 637.127 110.43 637.585C110.661 638.04 110.981 638.386 111.39 638.625C111.799 638.86 112.274 638.977 112.816 638.977C113.168 638.977 113.487 638.928 113.771 638.83C114.058 638.727 114.307 638.576 114.515 638.375C114.723 638.17 114.884 637.917 114.998 637.614L116.293 637.977C116.157 638.417 115.928 638.803 115.606 639.136C115.284 639.466 114.886 639.723 114.413 639.909C113.939 640.091 113.407 640.182 112.816 640.182ZM118.469 640V631.273H119.765V632.591H119.856C120.015 632.159 120.303 631.809 120.719 631.54C121.136 631.271 121.606 631.136 122.129 631.136C122.227 631.136 122.35 631.138 122.498 631.142C122.646 631.146 122.757 631.152 122.833 631.159V632.523C122.788 632.511 122.683 632.494 122.521 632.472C122.362 632.445 122.193 632.432 122.015 632.432C121.591 632.432 121.212 632.521 120.879 632.699C120.549 632.873 120.288 633.116 120.094 633.426C119.905 633.733 119.81 634.083 119.81 634.477V640H118.469ZM124.423 640V631.273H125.763V640H124.423ZM125.104 629.818C124.843 629.818 124.618 629.729 124.428 629.551C124.243 629.373 124.15 629.159 124.15 628.909C124.15 628.659 124.243 628.445 124.428 628.267C124.618 628.089 124.843 628 125.104 628C125.366 628 125.589 628.089 125.775 628.267C125.964 628.445 126.059 628.659 126.059 628.909C126.059 629.159 125.964 629.373 125.775 629.551C125.589 629.729 125.366 629.818 125.104 629.818ZM131.879 640.182C131.038 640.182 130.312 639.996 129.702 639.625C129.096 639.25 128.629 638.727 128.299 638.057C127.973 637.383 127.81 636.598 127.81 635.705C127.81 634.811 127.973 634.023 128.299 633.341C128.629 632.655 129.087 632.121 129.674 631.739C130.265 631.352 130.954 631.159 131.742 631.159C132.197 631.159 132.646 631.235 133.089 631.386C133.532 631.538 133.935 631.784 134.299 632.125C134.663 632.462 134.952 632.909 135.168 633.466C135.384 634.023 135.492 634.708 135.492 635.523V636.091H128.765V634.932H134.129C134.129 634.439 134.03 634 133.833 633.614C133.64 633.227 133.363 632.922 133.004 632.699C132.647 632.475 132.227 632.364 131.742 632.364C131.208 632.364 130.746 632.496 130.356 632.761C129.969 633.023 129.672 633.364 129.464 633.784C129.255 634.205 129.151 634.655 129.151 635.136V635.909C129.151 636.568 129.265 637.127 129.492 637.585C129.723 638.04 130.043 638.386 130.452 638.625C130.862 638.86 131.337 638.977 131.879 638.977C132.231 638.977 132.549 638.928 132.833 638.83C133.121 638.727 133.369 638.576 133.577 638.375C133.786 638.17 133.947 637.917 134.06 637.614L135.356 637.977C135.219 638.417 134.99 638.803 134.668 639.136C134.346 639.466 133.949 639.723 133.475 639.909C133.002 640.091 132.469 640.182 131.879 640.182ZM138.873 634.75V640H137.532V631.273H138.827V632.636H138.941C139.146 632.193 139.456 631.837 139.873 631.568C140.29 631.295 140.827 631.159 141.487 631.159C142.077 631.159 142.594 631.28 143.038 631.523C143.481 631.761 143.826 632.125 144.072 632.614C144.318 633.098 144.441 633.712 144.441 634.455V640H143.1V634.545C143.1 633.86 142.922 633.326 142.566 632.943C142.21 632.557 141.721 632.364 141.1 632.364C140.672 632.364 140.29 632.456 139.952 632.642C139.619 632.828 139.356 633.098 139.163 633.455C138.969 633.811 138.873 634.242 138.873 634.75ZM150.437 640.182C149.619 640.182 148.914 639.989 148.323 639.602C147.732 639.216 147.278 638.684 146.96 638.006C146.641 637.328 146.482 636.553 146.482 635.682C146.482 634.795 146.645 634.013 146.971 633.335C147.3 632.653 147.759 632.121 148.346 631.739C148.937 631.352 149.626 631.159 150.414 631.159C151.028 631.159 151.581 631.273 152.073 631.5C152.566 631.727 152.969 632.045 153.283 632.455C153.598 632.864 153.793 633.341 153.869 633.886H152.528C152.425 633.489 152.198 633.136 151.846 632.83C151.497 632.519 151.028 632.364 150.437 632.364C149.914 632.364 149.456 632.5 149.062 632.773C148.672 633.042 148.367 633.422 148.147 633.915C147.931 634.403 147.823 634.977 147.823 635.636C147.823 636.311 147.929 636.898 148.141 637.398C148.357 637.898 148.66 638.286 149.05 638.562C149.444 638.839 149.906 638.977 150.437 638.977C150.785 638.977 151.102 638.917 151.386 638.795C151.67 638.674 151.91 638.5 152.107 638.273C152.304 638.045 152.444 637.773 152.528 637.455H153.869C153.793 637.97 153.605 638.434 153.306 638.847C153.011 639.256 152.619 639.581 152.13 639.824C151.645 640.062 151.081 640.182 150.437 640.182ZM159.488 640.182C158.647 640.182 157.922 639.996 157.312 639.625C156.706 639.25 156.238 638.727 155.908 638.057C155.583 637.383 155.42 636.598 155.42 635.705C155.42 634.811 155.583 634.023 155.908 633.341C156.238 632.655 156.696 632.121 157.283 631.739C157.874 631.352 158.564 631.159 159.352 631.159C159.806 631.159 160.255 631.235 160.698 631.386C161.141 631.538 161.545 631.784 161.908 632.125C162.272 632.462 162.562 632.909 162.778 633.466C162.994 634.023 163.102 634.708 163.102 635.523V636.091H156.374V634.932H161.738C161.738 634.439 161.639 634 161.442 633.614C161.249 633.227 160.973 632.922 160.613 632.699C160.257 632.475 159.836 632.364 159.352 632.364C158.817 632.364 158.355 632.496 157.965 632.761C157.579 633.023 157.281 633.364 157.073 633.784C156.865 634.205 156.761 634.655 156.761 635.136V635.909C156.761 636.568 156.874 637.127 157.102 637.585C157.333 638.04 157.653 638.386 158.062 638.625C158.471 638.86 158.946 638.977 159.488 638.977C159.84 638.977 160.158 638.928 160.442 638.83C160.73 638.727 160.978 638.576 161.187 638.375C161.395 638.17 161.556 637.917 161.67 637.614L162.965 637.977C162.829 638.417 162.6 638.803 162.278 639.136C161.956 639.466 161.558 639.723 161.085 639.909C160.611 640.091 160.079 640.182 159.488 640.182ZM169.641 640V631.273H170.982V640H169.641ZM170.323 629.818C170.062 629.818 169.836 629.729 169.647 629.551C169.461 629.373 169.369 629.159 169.369 628.909C169.369 628.659 169.461 628.445 169.647 628.267C169.836 628.089 170.062 628 170.323 628C170.585 628 170.808 628.089 170.994 628.267C171.183 628.445 171.278 628.659 171.278 628.909C171.278 629.159 171.183 629.373 170.994 629.551C170.808 629.729 170.585 629.818 170.323 629.818ZM177.234 631.273V632.409H172.711V631.273H177.234ZM174.029 629.182H175.37V637.5C175.37 637.879 175.425 638.163 175.535 638.352C175.648 638.538 175.792 638.663 175.967 638.727C176.145 638.788 176.332 638.818 176.529 638.818C176.677 638.818 176.798 638.811 176.893 638.795C176.987 638.777 177.063 638.761 177.12 638.75L177.393 639.955C177.302 639.989 177.175 640.023 177.012 640.057C176.849 640.095 176.643 640.114 176.393 640.114C176.014 640.114 175.643 640.032 175.279 639.869C174.919 639.706 174.62 639.458 174.381 639.125C174.147 638.792 174.029 638.371 174.029 637.864V629.182ZM90.6918 650.273V651.409H85.9872V650.273H90.6918ZM87.3963 659V649.068C87.3963 648.568 87.5137 648.152 87.7486 647.818C87.9834 647.485 88.2884 647.235 88.6634 647.068C89.0384 646.902 89.4342 646.818 89.8509 646.818C90.1804 646.818 90.4493 646.845 90.6577 646.898C90.866 646.951 91.0213 647 91.1236 647.045L90.7372 648.205C90.669 648.182 90.5743 648.153 90.4531 648.119C90.3357 648.085 90.1804 648.068 89.9872 648.068C89.544 648.068 89.224 648.18 89.027 648.403C88.8338 648.627 88.7372 648.955 88.7372 649.386V659H87.3963ZM95.7571 659.182C94.9692 659.182 94.2779 658.994 93.6832 658.619C93.0923 658.244 92.6302 657.72 92.2969 657.045C91.9673 656.371 91.8026 655.583 91.8026 654.682C91.8026 653.773 91.9673 652.979 92.2969 652.301C92.6302 651.623 93.0923 651.097 93.6832 650.722C94.2779 650.347 94.9692 650.159 95.7571 650.159C96.545 650.159 97.2344 650.347 97.8253 650.722C98.42 651.097 98.8821 651.623 99.2116 652.301C99.545 652.979 99.7116 653.773 99.7116 654.682C99.7116 655.583 99.545 656.371 99.2116 657.045C98.8821 657.72 98.42 658.244 97.8253 658.619C97.2344 658.994 96.545 659.182 95.7571 659.182ZM95.7571 657.977C96.3556 657.977 96.848 657.824 97.2344 657.517C97.6207 657.21 97.9067 656.807 98.0923 656.307C98.2779 655.807 98.3707 655.265 98.3707 654.682C98.3707 654.098 98.2779 653.555 98.0923 653.051C97.9067 652.547 97.6207 652.14 97.2344 651.83C96.848 651.519 96.3556 651.364 95.7571 651.364C95.1586 651.364 94.6662 651.519 94.2798 651.83C93.8935 652.14 93.6075 652.547 93.4219 653.051C93.2363 653.555 93.1435 654.098 93.1435 654.682C93.1435 655.265 93.2363 655.807 93.4219 656.307C93.6075 656.807 93.8935 657.21 94.2798 657.517C94.6662 657.824 95.1586 657.977 95.7571 657.977ZM101.759 659V650.273H103.054V651.591H103.145C103.304 651.159 103.592 650.809 104.009 650.54C104.425 650.271 104.895 650.136 105.418 650.136C105.516 650.136 105.639 650.138 105.787 650.142C105.935 650.146 106.046 650.152 106.122 650.159V651.523C106.077 651.511 105.973 651.494 105.81 651.472C105.651 651.445 105.482 651.432 105.304 651.432C104.88 651.432 104.501 651.521 104.168 651.699C103.838 651.873 103.577 652.116 103.384 652.426C103.194 652.733 103.099 653.083 103.099 653.477V659H101.759ZM111.393 647.364H113.007L116.234 652.795H116.371L119.598 647.364H121.212L117.007 654.205V659H115.598V654.205L111.393 647.364ZM125.163 659.182C124.375 659.182 123.684 658.994 123.089 658.619C122.499 658.244 122.036 657.72 121.703 657.045C121.374 656.371 121.209 655.583 121.209 654.682C121.209 653.773 121.374 652.979 121.703 652.301C122.036 651.623 122.499 651.097 123.089 650.722C123.684 650.347 124.375 650.159 125.163 650.159C125.951 650.159 126.641 650.347 127.232 650.722C127.826 651.097 128.288 651.623 128.618 652.301C128.951 652.979 129.118 653.773 129.118 654.682C129.118 655.583 128.951 656.371 128.618 657.045C128.288 657.72 127.826 658.244 127.232 658.619C126.641 658.994 125.951 659.182 125.163 659.182ZM125.163 657.977C125.762 657.977 126.254 657.824 126.641 657.517C127.027 657.21 127.313 656.807 127.499 656.307C127.684 655.807 127.777 655.265 127.777 654.682C127.777 654.098 127.684 653.555 127.499 653.051C127.313 652.547 127.027 652.14 126.641 651.83C126.254 651.519 125.762 651.364 125.163 651.364C124.565 651.364 124.072 651.519 123.686 651.83C123.3 652.14 123.014 652.547 122.828 653.051C122.643 653.555 122.55 654.098 122.55 654.682C122.55 655.265 122.643 655.807 122.828 656.307C123.014 656.807 123.3 657.21 123.686 657.517C124.072 657.824 124.565 657.977 125.163 657.977ZM136.665 655.432V650.273H138.006V659H136.665V657.523H136.574C136.369 657.966 136.051 658.343 135.619 658.653C135.188 658.96 134.642 659.114 133.983 659.114C133.438 659.114 132.953 658.994 132.528 658.756C132.104 658.513 131.771 658.15 131.528 657.665C131.286 657.176 131.165 656.561 131.165 655.818V650.273H132.506V655.727C132.506 656.364 132.684 656.871 133.04 657.25C133.4 657.629 133.858 657.818 134.415 657.818C134.748 657.818 135.087 657.733 135.432 657.562C135.78 657.392 136.072 657.131 136.307 656.778C136.545 656.426 136.665 655.977 136.665 655.432ZM140.462 659V650.273H141.757V651.591H141.848C142.007 651.159 142.295 650.809 142.712 650.54C143.128 650.271 143.598 650.136 144.121 650.136C144.219 650.136 144.342 650.138 144.49 650.142C144.638 650.146 144.75 650.152 144.825 650.159V651.523C144.78 651.511 144.676 651.494 144.513 651.472C144.354 651.445 144.185 651.432 144.007 651.432C143.583 651.432 143.204 651.521 142.871 651.699C142.541 651.873 142.28 652.116 142.087 652.426C141.897 652.733 141.803 653.083 141.803 653.477V659H140.462ZM152.597 652.227L151.392 652.568C151.316 652.367 151.205 652.172 151.057 651.983C150.913 651.79 150.716 651.631 150.466 651.506C150.216 651.381 149.896 651.318 149.506 651.318C148.972 651.318 148.527 651.441 148.17 651.688C147.818 651.93 147.642 652.239 147.642 652.614C147.642 652.947 147.763 653.21 148.006 653.403C148.248 653.597 148.627 653.758 149.142 653.886L150.438 654.205C151.218 654.394 151.799 654.684 152.182 655.074C152.564 655.46 152.756 655.958 152.756 656.568C152.756 657.068 152.612 657.515 152.324 657.909C152.04 658.303 151.642 658.614 151.131 658.841C150.619 659.068 150.025 659.182 149.347 659.182C148.456 659.182 147.72 658.989 147.136 658.602C146.553 658.216 146.184 657.652 146.028 656.909L147.301 656.591C147.422 657.061 147.652 657.413 147.989 657.648C148.33 657.883 148.775 658 149.324 658C149.949 658 150.445 657.867 150.812 657.602C151.184 657.333 151.369 657.011 151.369 656.636C151.369 656.333 151.263 656.08 151.051 655.875C150.839 655.667 150.513 655.511 150.074 655.409L148.619 655.068C147.82 654.879 147.233 654.585 146.858 654.188C146.487 653.786 146.301 653.284 146.301 652.682C146.301 652.189 146.439 651.754 146.716 651.375C146.996 650.996 147.377 650.699 147.858 650.483C148.343 650.267 148.892 650.159 149.506 650.159C150.369 650.159 151.047 650.348 151.54 650.727C152.036 651.106 152.388 651.606 152.597 652.227ZM158.433 659.182C157.592 659.182 156.867 658.996 156.257 658.625C155.651 658.25 155.183 657.727 154.854 657.057C154.528 656.383 154.365 655.598 154.365 654.705C154.365 653.811 154.528 653.023 154.854 652.341C155.183 651.655 155.642 651.121 156.229 650.739C156.82 650.352 157.509 650.159 158.297 650.159C158.751 650.159 159.2 650.235 159.643 650.386C160.087 650.538 160.49 650.784 160.854 651.125C161.217 651.462 161.507 651.909 161.723 652.466C161.939 653.023 162.047 653.708 162.047 654.523V655.091H155.32V653.932H160.683C160.683 653.439 160.585 653 160.388 652.614C160.195 652.227 159.918 651.922 159.558 651.699C159.202 651.475 158.782 651.364 158.297 651.364C157.763 651.364 157.301 651.496 156.911 651.761C156.524 652.023 156.227 652.364 156.018 652.784C155.81 653.205 155.706 653.655 155.706 654.136V654.909C155.706 655.568 155.82 656.127 156.047 656.585C156.278 657.04 156.598 657.386 157.007 657.625C157.416 657.86 157.892 657.977 158.433 657.977C158.786 657.977 159.104 657.928 159.388 657.83C159.676 657.727 159.924 657.576 160.132 657.375C160.34 657.17 160.501 656.917 160.615 656.614L161.911 656.977C161.774 657.417 161.545 657.803 161.223 658.136C160.901 658.466 160.503 658.723 160.03 658.909C159.556 659.091 159.024 659.182 158.433 659.182ZM165.428 647.364V659H164.087V647.364H165.428ZM171.77 650.273V651.409H167.065V650.273H171.77ZM168.474 659V649.068C168.474 648.568 168.592 648.152 168.827 647.818C169.062 647.485 169.366 647.235 169.741 647.068C170.116 646.902 170.512 646.818 170.929 646.818C171.259 646.818 171.527 646.845 171.736 646.898C171.944 646.951 172.099 647 172.202 647.045L171.815 648.205C171.747 648.182 171.652 648.153 171.531 648.119C171.414 648.085 171.259 648.068 171.065 648.068C170.622 648.068 170.302 648.18 170.105 648.403C169.912 648.627 169.815 648.955 169.815 649.386V659H168.474Z" fill="black"/>
<path d="M38.7727 265.273C38.7045 264.697 38.428 264.25 37.9432 263.932C37.4583 263.614 36.8636 263.455 36.1591 263.455C35.6439 263.455 35.1932 263.538 34.8068 263.705C34.4242 263.871 34.125 264.1 33.9091 264.392C33.697 264.684 33.5909 265.015 33.5909 265.386C33.5909 265.697 33.6648 265.964 33.8125 266.188C33.964 266.407 34.1572 266.591 34.392 266.739C34.6269 266.883 34.8731 267.002 35.1307 267.097C35.3883 267.187 35.625 267.261 35.8409 267.318L37.0227 267.636C37.3258 267.716 37.6629 267.826 38.0341 267.966C38.4091 268.106 38.767 268.297 39.108 268.54C39.4527 268.778 39.7367 269.085 39.9602 269.46C40.1837 269.835 40.2955 270.295 40.2955 270.841C40.2955 271.47 40.1307 272.038 39.8011 272.545C39.4754 273.053 38.9981 273.456 38.3693 273.756C37.7443 274.055 36.9848 274.205 36.0909 274.205C35.2576 274.205 34.536 274.07 33.9261 273.801C33.3201 273.532 32.8428 273.157 32.4943 272.676C32.1496 272.195 31.9545 271.636 31.9091 271H33.3636C33.4015 271.439 33.5492 271.803 33.8068 272.091C34.0682 272.375 34.3977 272.587 34.7955 272.727C35.197 272.864 35.6288 272.932 36.0909 272.932C36.6288 272.932 37.1117 272.845 37.5398 272.67C37.9678 272.492 38.3068 272.246 38.5568 271.932C38.8068 271.614 38.9318 271.242 38.9318 270.818C38.9318 270.432 38.8239 270.117 38.608 269.875C38.392 269.633 38.108 269.436 37.7557 269.284C37.4034 269.133 37.0227 269 36.6136 268.886L35.1818 268.477C34.2727 268.216 33.553 267.843 33.0227 267.358C32.4924 266.873 32.2273 266.239 32.2273 265.455C32.2273 264.803 32.4034 264.235 32.7557 263.75C33.1117 263.261 33.589 262.883 34.1875 262.614C34.7898 262.341 35.4621 262.205 36.2045 262.205C36.9545 262.205 37.6212 262.339 38.2045 262.608C38.7879 262.873 39.25 263.237 39.5909 263.699C39.9356 264.161 40.1174 264.686 40.1364 265.273H38.7727ZM45.9759 274.182C45.1577 274.182 44.4531 273.989 43.8622 273.602C43.2713 273.216 42.8168 272.684 42.4986 272.006C42.1804 271.328 42.0213 270.553 42.0213 269.682C42.0213 268.795 42.1842 268.013 42.5099 267.335C42.8395 266.653 43.2978 266.121 43.8849 265.739C44.4759 265.352 45.1652 265.159 45.9531 265.159C46.5668 265.159 47.1198 265.273 47.6122 265.5C48.1046 265.727 48.508 266.045 48.8224 266.455C49.1368 266.864 49.3319 267.341 49.4077 267.886H48.0668C47.9645 267.489 47.7372 267.136 47.3849 266.83C47.0365 266.519 46.5668 266.364 45.9759 266.364C45.4531 266.364 44.9948 266.5 44.6009 266.773C44.2107 267.042 43.9058 267.422 43.6861 267.915C43.4702 268.403 43.3622 268.977 43.3622 269.636C43.3622 270.311 43.4683 270.898 43.6804 271.398C43.8963 271.898 44.1993 272.286 44.5895 272.562C44.9834 272.839 45.4455 272.977 45.9759 272.977C46.3243 272.977 46.6406 272.917 46.9247 272.795C47.2088 272.674 47.4493 272.5 47.6463 272.273C47.8433 272.045 47.9834 271.773 48.0668 271.455H49.4077C49.3319 271.97 49.1444 272.434 48.8452 272.847C48.5497 273.256 48.1577 273.581 47.669 273.824C47.1842 274.062 46.6198 274.182 45.9759 274.182ZM55.027 274.182C54.1861 274.182 53.4607 273.996 52.8509 273.625C52.2448 273.25 51.777 272.727 51.4474 272.057C51.1217 271.383 50.9588 270.598 50.9588 269.705C50.9588 268.811 51.1217 268.023 51.4474 267.341C51.777 266.655 52.2353 266.121 52.8224 265.739C53.4134 265.352 54.1027 265.159 54.8906 265.159C55.3452 265.159 55.794 265.235 56.2372 265.386C56.6804 265.538 57.0838 265.784 57.4474 266.125C57.8111 266.462 58.1009 266.909 58.3168 267.466C58.5327 268.023 58.6406 268.708 58.6406 269.523V270.091H51.9134V268.932H57.277C57.277 268.439 57.1785 268 56.9815 267.614C56.7884 267.227 56.5118 266.922 56.152 266.699C55.7959 266.475 55.3755 266.364 54.8906 266.364C54.3565 266.364 53.8944 266.496 53.5043 266.761C53.1179 267.023 52.8205 267.364 52.6122 267.784C52.4039 268.205 52.2997 268.655 52.2997 269.136V269.909C52.2997 270.568 52.4134 271.127 52.6406 271.585C52.8717 272.04 53.1918 272.386 53.6009 272.625C54.0099 272.86 54.4853 272.977 55.027 272.977C55.3793 272.977 55.6974 272.928 55.9815 272.83C56.2694 272.727 56.5175 272.576 56.7259 272.375C56.9342 272.17 57.0952 271.917 57.2088 271.614L58.5043 271.977C58.3679 272.417 58.1387 272.803 57.8168 273.136C57.4948 273.466 57.0971 273.723 56.6236 273.909C56.1501 274.091 55.6179 274.182 55.027 274.182ZM62.0213 268.75V274H60.6804V265.273H61.9759V266.636H62.0895C62.294 266.193 62.6046 265.837 63.0213 265.568C63.438 265.295 63.9759 265.159 64.6349 265.159C65.2259 265.159 65.7429 265.28 66.1861 265.523C66.6293 265.761 66.974 266.125 67.2202 266.614C67.4664 267.098 67.5895 267.712 67.5895 268.455V274H66.2486V268.545C66.2486 267.86 66.0705 267.326 65.7145 266.943C65.3584 266.557 64.8698 266.364 64.2486 266.364C63.8205 266.364 63.438 266.456 63.1009 266.642C62.7675 266.828 62.5043 267.098 62.3111 267.455C62.1179 267.811 62.0213 268.242 62.0213 268.75ZM73.6989 274.182C72.858 274.182 72.1326 273.996 71.5227 273.625C70.9167 273.25 70.4489 272.727 70.1193 272.057C69.7936 271.383 69.6307 270.598 69.6307 269.705C69.6307 268.811 69.7936 268.023 70.1193 267.341C70.4489 266.655 70.9072 266.121 71.4943 265.739C72.0852 265.352 72.7746 265.159 73.5625 265.159C74.017 265.159 74.4659 265.235 74.9091 265.386C75.3523 265.538 75.7557 265.784 76.1193 266.125C76.483 266.462 76.7727 266.909 76.9886 267.466C77.2045 268.023 77.3125 268.708 77.3125 269.523V270.091H70.5852V268.932H75.9489C75.9489 268.439 75.8504 268 75.6534 267.614C75.4602 267.227 75.1837 266.922 74.8239 266.699C74.4678 266.475 74.0473 266.364 73.5625 266.364C73.0284 266.364 72.5663 266.496 72.1761 266.761C71.7898 267.023 71.4924 267.364 71.2841 267.784C71.0758 268.205 70.9716 268.655 70.9716 269.136V269.909C70.9716 270.568 71.0852 271.127 71.3125 271.585C71.5436 272.04 71.8636 272.386 72.2727 272.625C72.6818 272.86 73.1572 272.977 73.6989 272.977C74.0511 272.977 74.3693 272.928 74.6534 272.83C74.9413 272.727 75.1894 272.576 75.3977 272.375C75.6061 272.17 75.767 271.917 75.8807 271.614L77.1761 271.977C77.0398 272.417 76.8106 272.803 76.4886 273.136C76.1667 273.466 75.7689 273.723 75.2955 273.909C74.822 274.091 74.2898 274.182 73.6989 274.182ZM90.3977 265.273C90.3295 264.697 90.053 264.25 89.5682 263.932C89.0833 263.614 88.4886 263.455 87.7841 263.455C87.2689 263.455 86.8182 263.538 86.4318 263.705C86.0492 263.871 85.75 264.1 85.5341 264.392C85.322 264.684 85.2159 265.015 85.2159 265.386C85.2159 265.697 85.2898 265.964 85.4375 266.188C85.589 266.407 85.7822 266.591 86.017 266.739C86.2519 266.883 86.4981 267.002 86.7557 267.097C87.0133 267.187 87.25 267.261 87.4659 267.318L88.6477 267.636C88.9508 267.716 89.2879 267.826 89.6591 267.966C90.0341 268.106 90.392 268.297 90.733 268.54C91.0777 268.778 91.3617 269.085 91.5852 269.46C91.8087 269.835 91.9205 270.295 91.9205 270.841C91.9205 271.47 91.7557 272.038 91.4261 272.545C91.1004 273.053 90.6231 273.456 89.9943 273.756C89.3693 274.055 88.6098 274.205 87.7159 274.205C86.8826 274.205 86.161 274.07 85.5511 273.801C84.9451 273.532 84.4678 273.157 84.1193 272.676C83.7746 272.195 83.5795 271.636 83.5341 271H84.9886C85.0265 271.439 85.1742 271.803 85.4318 272.091C85.6932 272.375 86.0227 272.587 86.4205 272.727C86.822 272.864 87.2538 272.932 87.7159 272.932C88.2538 272.932 88.7367 272.845 89.1648 272.67C89.5928 272.492 89.9318 272.246 90.1818 271.932C90.4318 271.614 90.5568 271.242 90.5568 270.818C90.5568 270.432 90.4489 270.117 90.233 269.875C90.017 269.633 89.733 269.436 89.3807 269.284C89.0284 269.133 88.6477 269 88.2386 268.886L86.8068 268.477C85.8977 268.216 85.178 267.843 84.6477 267.358C84.1174 266.873 83.8523 266.239 83.8523 265.455C83.8523 264.803 84.0284 264.235 84.3807 263.75C84.7367 263.261 85.214 262.883 85.8125 262.614C86.4148 262.341 87.0871 262.205 87.8295 262.205C88.5795 262.205 89.2462 262.339 89.8295 262.608C90.4129 262.873 90.875 263.237 91.2159 263.699C91.5606 264.161 91.7424 264.686 91.7614 265.273H90.3977ZM97.7145 274.182C96.8736 274.182 96.1482 273.996 95.5384 273.625C94.9323 273.25 94.4645 272.727 94.1349 272.057C93.8092 271.383 93.6463 270.598 93.6463 269.705C93.6463 268.811 93.8092 268.023 94.1349 267.341C94.4645 266.655 94.9228 266.121 95.5099 265.739C96.1009 265.352 96.7902 265.159 97.5781 265.159C98.0327 265.159 98.4815 265.235 98.9247 265.386C99.3679 265.538 99.7713 265.784 100.135 266.125C100.499 266.462 100.788 266.909 101.004 267.466C101.22 268.023 101.328 268.708 101.328 269.523V270.091H94.6009V268.932H99.9645C99.9645 268.439 99.866 268 99.669 267.614C99.4759 267.227 99.1993 266.922 98.8395 266.699C98.4834 266.475 98.063 266.364 97.5781 266.364C97.044 266.364 96.5819 266.496 96.1918 266.761C95.8054 267.023 95.508 267.364 95.2997 267.784C95.0914 268.205 94.9872 268.655 94.9872 269.136V269.909C94.9872 270.568 95.1009 271.127 95.3281 271.585C95.5592 272.04 95.8793 272.386 96.2884 272.625C96.6974 272.86 97.1728 272.977 97.7145 272.977C98.0668 272.977 98.3849 272.928 98.669 272.83C98.9569 272.727 99.205 272.576 99.4134 272.375C99.6217 272.17 99.7827 271.917 99.8963 271.614L101.192 271.977C101.055 272.417 100.826 272.803 100.504 273.136C100.182 273.466 99.7846 273.723 99.3111 273.909C98.8376 274.091 98.3054 274.182 97.7145 274.182ZM105.936 274.205C105.383 274.205 104.881 274.1 104.43 273.892C103.98 273.68 103.622 273.375 103.357 272.977C103.091 272.576 102.959 272.091 102.959 271.523C102.959 271.023 103.057 270.617 103.254 270.307C103.451 269.992 103.714 269.746 104.044 269.568C104.374 269.39 104.737 269.258 105.135 269.17C105.536 269.08 105.94 269.008 106.345 268.955C106.875 268.886 107.305 268.835 107.635 268.801C107.968 268.763 108.211 268.701 108.362 268.614C108.518 268.527 108.595 268.375 108.595 268.159V268.114C108.595 267.553 108.442 267.117 108.135 266.807C107.832 266.496 107.372 266.341 106.754 266.341C106.114 266.341 105.612 266.481 105.249 266.761C104.885 267.042 104.629 267.341 104.482 267.659L103.209 267.205C103.436 266.674 103.739 266.261 104.118 265.966C104.5 265.667 104.917 265.458 105.368 265.341C105.822 265.22 106.269 265.159 106.709 265.159C106.989 265.159 107.311 265.193 107.675 265.261C108.042 265.326 108.396 265.46 108.737 265.665C109.082 265.869 109.368 266.178 109.595 266.591C109.822 267.004 109.936 267.557 109.936 268.25V274H108.595V272.818H108.527C108.436 273.008 108.285 273.21 108.072 273.426C107.86 273.642 107.578 273.826 107.226 273.977C106.874 274.129 106.444 274.205 105.936 274.205ZM106.141 273C106.671 273 107.118 272.896 107.482 272.688C107.849 272.479 108.125 272.21 108.311 271.881C108.5 271.551 108.595 271.205 108.595 270.841V269.614C108.538 269.682 108.413 269.744 108.22 269.801C108.031 269.854 107.811 269.902 107.561 269.943C107.315 269.981 107.074 270.015 106.839 270.045C106.608 270.072 106.421 270.095 106.277 270.114C105.929 270.159 105.603 270.233 105.3 270.335C105 270.434 104.758 270.583 104.572 270.784C104.391 270.981 104.3 271.25 104.3 271.591C104.3 272.057 104.472 272.409 104.817 272.648C105.165 272.883 105.607 273 106.141 273ZM112.384 274V265.273H113.679V266.591H113.77C113.929 266.159 114.217 265.809 114.634 265.54C115.05 265.271 115.52 265.136 116.043 265.136C116.141 265.136 116.264 265.138 116.412 265.142C116.56 265.146 116.671 265.152 116.747 265.159V266.523C116.702 266.511 116.598 266.494 116.435 266.472C116.276 266.445 116.107 266.432 115.929 266.432C115.505 266.432 115.126 266.521 114.793 266.699C114.463 266.873 114.202 267.116 114.009 267.426C113.819 267.733 113.724 268.083 113.724 268.477V274H112.384ZM121.616 274.182C120.798 274.182 120.094 273.989 119.503 273.602C118.912 273.216 118.457 272.684 118.139 272.006C117.821 271.328 117.662 270.553 117.662 269.682C117.662 268.795 117.825 268.013 118.151 267.335C118.48 266.653 118.938 266.121 119.526 265.739C120.116 265.352 120.806 265.159 121.594 265.159C122.207 265.159 122.76 265.273 123.253 265.5C123.745 265.727 124.149 266.045 124.463 266.455C124.777 266.864 124.973 267.341 125.048 267.886H123.707C123.605 267.489 123.378 267.136 123.026 266.83C122.677 266.519 122.207 266.364 121.616 266.364C121.094 266.364 120.635 266.5 120.241 266.773C119.851 267.042 119.546 267.422 119.327 267.915C119.111 268.403 119.003 268.977 119.003 269.636C119.003 270.311 119.109 270.898 119.321 271.398C119.537 271.898 119.84 272.286 120.23 272.562C120.624 272.839 121.086 272.977 121.616 272.977C121.965 272.977 122.281 272.917 122.565 272.795C122.849 272.674 123.09 272.5 123.287 272.273C123.484 272.045 123.624 271.773 123.707 271.455H125.048C124.973 271.97 124.785 272.434 124.486 272.847C124.19 273.256 123.798 273.581 123.31 273.824C122.825 274.062 122.26 274.182 121.616 274.182ZM128.349 268.75V274H127.009V262.364H128.349V266.636H128.463C128.668 266.186 128.974 265.828 129.384 265.562C129.796 265.294 130.346 265.159 131.031 265.159C131.626 265.159 132.147 265.278 132.594 265.517C133.041 265.752 133.387 266.114 133.634 266.602C133.884 267.087 134.009 267.705 134.009 268.455V274H132.668V268.545C132.668 267.852 132.488 267.316 132.128 266.938C131.772 266.555 131.277 266.364 130.645 266.364C130.205 266.364 129.812 266.456 129.463 266.642C129.118 266.828 128.846 267.098 128.645 267.455C128.448 267.811 128.349 268.242 128.349 268.75ZM140.507 263.614V262.364H149.234V263.614H145.575V274H144.166V263.614H140.507ZM152.568 268.75V274H151.227V262.364H152.568V266.636H152.682C152.886 266.186 153.193 265.828 153.602 265.562C154.015 265.294 154.564 265.159 155.25 265.159C155.845 265.159 156.366 265.278 156.812 265.517C157.259 265.752 157.606 266.114 157.852 266.602C158.102 267.087 158.227 267.705 158.227 268.455V274H156.886V268.545C156.886 267.852 156.706 267.316 156.347 266.938C155.991 266.555 155.496 266.364 154.864 266.364C154.424 266.364 154.03 266.456 153.682 266.642C153.337 266.828 153.064 267.098 152.864 267.455C152.667 267.811 152.568 268.242 152.568 268.75ZM160.68 274V265.273H161.976V266.591H162.067C162.226 266.159 162.514 265.809 162.93 265.54C163.347 265.271 163.817 265.136 164.339 265.136C164.438 265.136 164.561 265.138 164.709 265.142C164.857 265.146 164.968 265.152 165.044 265.159V266.523C164.999 266.511 164.894 266.494 164.732 266.472C164.572 266.445 164.404 266.432 164.226 266.432C163.802 266.432 163.423 266.521 163.089 266.699C162.76 266.873 162.499 267.116 162.305 267.426C162.116 267.733 162.021 268.083 162.021 268.477V274H160.68ZM169.913 274.182C169.125 274.182 168.434 273.994 167.839 273.619C167.249 273.244 166.786 272.72 166.453 272.045C166.124 271.371 165.959 270.583 165.959 269.682C165.959 268.773 166.124 267.979 166.453 267.301C166.786 266.623 167.249 266.097 167.839 265.722C168.434 265.347 169.125 265.159 169.913 265.159C170.701 265.159 171.391 265.347 171.982 265.722C172.576 266.097 173.038 266.623 173.368 267.301C173.701 267.979 173.868 268.773 173.868 269.682C173.868 270.583 173.701 271.371 173.368 272.045C173.038 272.72 172.576 273.244 171.982 273.619C171.391 273.994 170.701 274.182 169.913 274.182ZM169.913 272.977C170.512 272.977 171.004 272.824 171.391 272.517C171.777 272.21 172.063 271.807 172.249 271.307C172.434 270.807 172.527 270.265 172.527 269.682C172.527 269.098 172.434 268.555 172.249 268.051C172.063 267.547 171.777 267.14 171.391 266.83C171.004 266.519 170.512 266.364 169.913 266.364C169.315 266.364 168.822 266.519 168.436 266.83C168.05 267.14 167.764 267.547 167.578 268.051C167.393 268.555 167.3 269.098 167.3 269.682C167.3 270.265 167.393 270.807 167.578 271.307C167.764 271.807 168.05 272.21 168.436 272.517C168.822 272.824 169.315 272.977 169.913 272.977ZM181.415 270.432V265.273H182.756V274H181.415V272.523H181.324C181.119 272.966 180.801 273.343 180.369 273.653C179.938 273.96 179.392 274.114 178.733 274.114C178.188 274.114 177.703 273.994 177.278 273.756C176.854 273.513 176.521 273.15 176.278 272.665C176.036 272.176 175.915 271.561 175.915 270.818V265.273H177.256V270.727C177.256 271.364 177.434 271.871 177.79 272.25C178.15 272.629 178.608 272.818 179.165 272.818C179.498 272.818 179.837 272.733 180.182 272.562C180.53 272.392 180.822 272.131 181.057 271.778C181.295 271.426 181.415 270.977 181.415 270.432ZM188.734 277.455C188.087 277.455 187.53 277.371 187.064 277.205C186.598 277.042 186.21 276.826 185.899 276.557C185.592 276.292 185.348 276.008 185.166 275.705L186.234 274.955C186.356 275.114 186.509 275.295 186.695 275.5C186.88 275.708 187.134 275.888 187.456 276.04C187.782 276.195 188.208 276.273 188.734 276.273C189.439 276.273 190.02 276.102 190.479 275.761C190.937 275.42 191.166 274.886 191.166 274.159V272.386H191.053C190.954 272.545 190.814 272.742 190.632 272.977C190.454 273.208 190.196 273.415 189.859 273.597C189.526 273.775 189.075 273.864 188.507 273.864C187.803 273.864 187.17 273.697 186.609 273.364C186.053 273.03 185.611 272.545 185.286 271.909C184.964 271.273 184.803 270.5 184.803 269.591C184.803 268.697 184.96 267.919 185.274 267.256C185.589 266.589 186.026 266.074 186.587 265.71C187.147 265.343 187.795 265.159 188.53 265.159C189.098 265.159 189.549 265.254 189.882 265.443C190.219 265.629 190.477 265.841 190.655 266.08C190.837 266.314 190.977 266.508 191.075 266.659H191.212V265.273H192.507V274.25C192.507 275 192.337 275.61 191.996 276.08C191.659 276.553 191.204 276.9 190.632 277.119C190.064 277.343 189.431 277.455 188.734 277.455ZM188.689 272.659C189.227 272.659 189.681 272.536 190.053 272.29C190.424 272.044 190.706 271.689 190.899 271.227C191.092 270.765 191.189 270.212 191.189 269.568C191.189 268.939 191.094 268.384 190.905 267.903C190.715 267.422 190.435 267.045 190.064 266.773C189.693 266.5 189.234 266.364 188.689 266.364C188.121 266.364 187.647 266.508 187.268 266.795C186.893 267.083 186.611 267.47 186.422 267.955C186.236 268.439 186.143 268.977 186.143 269.568C186.143 270.174 186.238 270.71 186.428 271.176C186.621 271.638 186.905 272.002 187.28 272.267C187.659 272.528 188.128 272.659 188.689 272.659ZM196.303 268.75V274H194.962V262.364H196.303V266.636H196.416C196.621 266.186 196.928 265.828 197.337 265.562C197.75 265.294 198.299 265.159 198.984 265.159C199.579 265.159 200.1 265.278 200.547 265.517C200.994 265.752 201.34 266.114 201.587 266.602C201.837 267.087 201.962 267.705 201.962 268.455V274H200.621V268.545C200.621 267.852 200.441 267.316 200.081 266.938C199.725 266.555 199.231 266.364 198.598 266.364C198.159 266.364 197.765 266.456 197.416 266.642C197.071 266.828 196.799 267.098 196.598 267.455C196.401 267.811 196.303 268.242 196.303 268.75ZM209.574 274H208.097L212.369 262.364H213.824L218.097 274H216.619L213.142 264.205H213.051L209.574 274ZM210.119 269.455H216.074V270.705H210.119V269.455ZM221.318 262.364V274H219.909V262.364H221.318ZM228.643 274V262.364H235.621V263.614H230.053V267.545H235.098V268.795H230.053V274H228.643ZM240.42 274.205C239.867 274.205 239.366 274.1 238.915 273.892C238.464 273.68 238.106 273.375 237.841 272.977C237.576 272.576 237.443 272.091 237.443 271.523C237.443 271.023 237.542 270.617 237.739 270.307C237.936 269.992 238.199 269.746 238.528 269.568C238.858 269.39 239.222 269.258 239.619 269.17C240.021 269.08 240.424 269.008 240.83 268.955C241.36 268.886 241.79 268.835 242.119 268.801C242.453 268.763 242.695 268.701 242.847 268.614C243.002 268.527 243.08 268.375 243.08 268.159V268.114C243.08 267.553 242.926 267.117 242.619 266.807C242.316 266.496 241.856 266.341 241.239 266.341C240.598 266.341 240.097 266.481 239.733 266.761C239.369 267.042 239.114 267.341 238.966 267.659L237.693 267.205C237.92 266.674 238.223 266.261 238.602 265.966C238.985 265.667 239.402 265.458 239.852 265.341C240.307 265.22 240.754 265.159 241.193 265.159C241.473 265.159 241.795 265.193 242.159 265.261C242.527 265.326 242.881 265.46 243.222 265.665C243.566 265.869 243.852 266.178 244.08 266.591C244.307 267.004 244.42 267.557 244.42 268.25V274H243.08V272.818H243.011C242.92 273.008 242.769 273.21 242.557 273.426C242.345 273.642 242.063 273.826 241.71 273.977C241.358 274.129 240.928 274.205 240.42 274.205ZM240.625 273C241.155 273 241.602 272.896 241.966 272.688C242.333 272.479 242.61 272.21 242.795 271.881C242.985 271.551 243.08 271.205 243.08 270.841V269.614C243.023 269.682 242.898 269.744 242.705 269.801C242.515 269.854 242.295 269.902 242.045 269.943C241.799 269.981 241.559 270.015 241.324 270.045C241.093 270.072 240.905 270.095 240.761 270.114C240.413 270.159 240.087 270.233 239.784 270.335C239.485 270.434 239.242 270.583 239.057 270.784C238.875 270.981 238.784 271.25 238.784 271.591C238.784 272.057 238.956 272.409 239.301 272.648C239.65 272.883 240.091 273 240.625 273ZM250.413 274.182C249.595 274.182 248.891 273.989 248.3 273.602C247.709 273.216 247.254 272.684 246.936 272.006C246.618 271.328 246.459 270.553 246.459 269.682C246.459 268.795 246.622 268.013 246.947 267.335C247.277 266.653 247.735 266.121 248.322 265.739C248.913 265.352 249.603 265.159 250.391 265.159C251.004 265.159 251.557 265.273 252.05 265.5C252.542 265.727 252.946 266.045 253.26 266.455C253.574 266.864 253.769 267.341 253.845 267.886H252.504C252.402 267.489 252.175 267.136 251.822 266.83C251.474 266.519 251.004 266.364 250.413 266.364C249.891 266.364 249.432 266.5 249.038 266.773C248.648 267.042 248.343 267.422 248.124 267.915C247.908 268.403 247.8 268.977 247.8 269.636C247.8 270.311 247.906 270.898 248.118 271.398C248.334 271.898 248.637 272.286 249.027 272.562C249.421 272.839 249.883 272.977 250.413 272.977C250.762 272.977 251.078 272.917 251.362 272.795C251.646 272.674 251.887 272.5 252.084 272.273C252.281 272.045 252.421 271.773 252.504 271.455H253.845C253.769 271.97 253.582 272.434 253.283 272.847C252.987 273.256 252.595 273.581 252.107 273.824C251.622 274.062 251.057 274.182 250.413 274.182ZM259.464 274.182C258.624 274.182 257.898 273.996 257.288 273.625C256.682 273.25 256.214 272.727 255.885 272.057C255.559 271.383 255.396 270.598 255.396 269.705C255.396 268.811 255.559 268.023 255.885 267.341C256.214 266.655 256.673 266.121 257.26 265.739C257.851 265.352 258.54 265.159 259.328 265.159C259.783 265.159 260.232 265.235 260.675 265.386C261.118 265.538 261.521 265.784 261.885 266.125C262.249 266.462 262.538 266.909 262.754 267.466C262.97 268.023 263.078 268.708 263.078 269.523V270.091H256.351V268.932H261.714C261.714 268.439 261.616 268 261.419 267.614C261.226 267.227 260.949 266.922 260.589 266.699C260.233 266.475 259.813 266.364 259.328 266.364C258.794 266.364 258.332 266.496 257.942 266.761C257.555 267.023 257.258 267.364 257.05 267.784C256.841 268.205 256.737 268.655 256.737 269.136V269.909C256.737 270.568 256.851 271.127 257.078 271.585C257.309 272.04 257.629 272.386 258.038 272.625C258.447 272.86 258.923 272.977 259.464 272.977C259.817 272.977 260.135 272.928 260.419 272.83C260.707 272.727 260.955 272.576 261.163 272.375C261.372 272.17 261.533 271.917 261.646 271.614L262.942 271.977C262.805 272.417 262.576 272.803 262.254 273.136C261.932 273.466 261.535 273.723 261.061 273.909C260.588 274.091 260.055 274.182 259.464 274.182ZM269.8 274V262.364H273.732C274.641 262.364 275.387 262.519 275.97 262.83C276.554 263.136 276.985 263.559 277.266 264.097C277.546 264.634 277.686 265.246 277.686 265.932C277.686 266.617 277.546 267.225 277.266 267.756C276.985 268.286 276.555 268.703 275.976 269.006C275.396 269.305 274.656 269.455 273.754 269.455H270.572V268.182H273.709C274.33 268.182 274.83 268.091 275.209 267.909C275.591 267.727 275.868 267.47 276.038 267.136C276.213 266.799 276.3 266.398 276.3 265.932C276.3 265.466 276.213 265.059 276.038 264.71C275.864 264.362 275.586 264.093 275.203 263.903C274.821 263.71 274.315 263.614 273.686 263.614H271.209V274H269.8ZM275.277 268.773L278.141 274H276.504L273.686 268.773H275.277ZM283.418 274.182C282.577 274.182 281.851 273.996 281.241 273.625C280.635 273.25 280.168 272.727 279.838 272.057C279.512 271.383 279.349 270.598 279.349 269.705C279.349 268.811 279.512 268.023 279.838 267.341C280.168 266.655 280.626 266.121 281.213 265.739C281.804 265.352 282.493 265.159 283.281 265.159C283.736 265.159 284.185 265.235 284.628 265.386C285.071 265.538 285.474 265.784 285.838 266.125C286.202 266.462 286.491 266.909 286.707 267.466C286.923 268.023 287.031 268.708 287.031 269.523V270.091H280.304V268.932H285.668C285.668 268.439 285.569 268 285.372 267.614C285.179 267.227 284.902 266.922 284.543 266.699C284.187 266.475 283.766 266.364 283.281 266.364C282.747 266.364 282.285 266.496 281.895 266.761C281.509 267.023 281.211 267.364 281.003 267.784C280.795 268.205 280.69 268.655 280.69 269.136V269.909C280.69 270.568 280.804 271.127 281.031 271.585C281.262 272.04 281.582 272.386 281.991 272.625C282.401 272.86 282.876 272.977 283.418 272.977C283.77 272.977 284.088 272.928 284.372 272.83C284.66 272.727 284.908 272.576 285.116 272.375C285.325 272.17 285.486 271.917 285.599 271.614L286.895 271.977C286.759 272.417 286.529 272.803 286.207 273.136C285.885 273.466 285.488 273.723 285.014 273.909C284.541 274.091 284.009 274.182 283.418 274.182ZM292.616 274.182C291.798 274.182 291.094 273.989 290.503 273.602C289.912 273.216 289.457 272.684 289.139 272.006C288.821 271.328 288.662 270.553 288.662 269.682C288.662 268.795 288.825 268.013 289.151 267.335C289.48 266.653 289.938 266.121 290.526 265.739C291.116 265.352 291.806 265.159 292.594 265.159C293.207 265.159 293.76 265.273 294.253 265.5C294.745 265.727 295.149 266.045 295.463 266.455C295.777 266.864 295.973 267.341 296.048 267.886H294.707C294.605 267.489 294.378 267.136 294.026 266.83C293.677 266.519 293.207 266.364 292.616 266.364C292.094 266.364 291.635 266.5 291.241 266.773C290.851 267.042 290.546 267.422 290.327 267.915C290.111 268.403 290.003 268.977 290.003 269.636C290.003 270.311 290.109 270.898 290.321 271.398C290.537 271.898 290.84 272.286 291.23 272.562C291.624 272.839 292.086 272.977 292.616 272.977C292.965 272.977 293.281 272.917 293.565 272.795C293.849 272.674 294.09 272.5 294.287 272.273C294.484 272.045 294.624 271.773 294.707 271.455H296.048C295.973 271.97 295.785 272.434 295.486 272.847C295.19 273.256 294.798 273.581 294.31 273.824C293.825 274.062 293.26 274.182 292.616 274.182ZM301.554 274.182C300.766 274.182 300.075 273.994 299.48 273.619C298.889 273.244 298.427 272.72 298.094 272.045C297.764 271.371 297.599 270.583 297.599 269.682C297.599 268.773 297.764 267.979 298.094 267.301C298.427 266.623 298.889 266.097 299.48 265.722C300.075 265.347 300.766 265.159 301.554 265.159C302.342 265.159 303.031 265.347 303.622 265.722C304.217 266.097 304.679 266.623 305.009 267.301C305.342 267.979 305.509 268.773 305.509 269.682C305.509 270.583 305.342 271.371 305.009 272.045C304.679 272.72 304.217 273.244 303.622 273.619C303.031 273.994 302.342 274.182 301.554 274.182ZM301.554 272.977C302.152 272.977 302.645 272.824 303.031 272.517C303.418 272.21 303.704 271.807 303.889 271.307C304.075 270.807 304.168 270.265 304.168 269.682C304.168 269.098 304.075 268.555 303.889 268.051C303.704 267.547 303.418 267.14 303.031 266.83C302.645 266.519 302.152 266.364 301.554 266.364C300.955 266.364 300.463 266.519 300.077 266.83C299.69 267.14 299.404 267.547 299.219 268.051C299.033 268.555 298.94 269.098 298.94 269.682C298.94 270.265 299.033 270.807 299.219 271.307C299.404 271.807 299.69 272.21 300.077 272.517C300.463 272.824 300.955 272.977 301.554 272.977ZM311.078 277.455C310.43 277.455 309.874 277.371 309.408 277.205C308.942 277.042 308.554 276.826 308.243 276.557C307.936 276.292 307.692 276.008 307.51 275.705L308.578 274.955C308.699 275.114 308.853 275.295 309.038 275.5C309.224 275.708 309.478 275.888 309.8 276.04C310.125 276.195 310.552 276.273 311.078 276.273C311.783 276.273 312.364 276.102 312.822 275.761C313.281 275.42 313.51 274.886 313.51 274.159V272.386H313.396C313.298 272.545 313.158 272.742 312.976 272.977C312.798 273.208 312.54 273.415 312.203 273.597C311.87 273.775 311.419 273.864 310.851 273.864C310.146 273.864 309.514 273.697 308.953 273.364C308.396 273.03 307.955 272.545 307.629 271.909C307.307 271.273 307.146 270.5 307.146 269.591C307.146 268.697 307.304 267.919 307.618 267.256C307.932 266.589 308.37 266.074 308.93 265.71C309.491 265.343 310.139 265.159 310.874 265.159C311.442 265.159 311.893 265.254 312.226 265.443C312.563 265.629 312.821 265.841 312.999 266.08C313.18 266.314 313.321 266.508 313.419 266.659H313.555V265.273H314.851V274.25C314.851 275 314.68 275.61 314.339 276.08C314.002 276.553 313.548 276.9 312.976 277.119C312.408 277.343 311.775 277.455 311.078 277.455ZM311.033 272.659C311.571 272.659 312.025 272.536 312.396 272.29C312.768 272.044 313.05 271.689 313.243 271.227C313.436 270.765 313.533 270.212 313.533 269.568C313.533 268.939 313.438 268.384 313.249 267.903C313.059 267.422 312.779 267.045 312.408 266.773C312.036 266.5 311.578 266.364 311.033 266.364C310.464 266.364 309.991 266.508 309.612 266.795C309.237 267.083 308.955 267.47 308.766 267.955C308.58 268.439 308.487 268.977 308.487 269.568C308.487 270.174 308.582 270.71 308.771 271.176C308.964 271.638 309.249 272.002 309.624 272.267C310.002 272.528 310.472 272.659 311.033 272.659ZM318.646 268.75V274H317.305V265.273H318.601V266.636H318.714C318.919 266.193 319.23 265.837 319.646 265.568C320.063 265.295 320.601 265.159 321.26 265.159C321.851 265.159 322.368 265.28 322.811 265.523C323.254 265.761 323.599 266.125 323.845 266.614C324.091 267.098 324.214 267.712 324.214 268.455V274H322.874V268.545C322.874 267.86 322.696 267.326 322.339 266.943C321.983 266.557 321.495 266.364 320.874 266.364C320.446 266.364 320.063 266.456 319.726 266.642C319.393 266.828 319.129 267.098 318.936 267.455C318.743 267.811 318.646 268.242 318.646 268.75ZM326.665 274V265.273H328.006V274H326.665ZM327.347 263.818C327.085 263.818 326.86 263.729 326.67 263.551C326.485 263.373 326.392 263.159 326.392 262.909C326.392 262.659 326.485 262.445 326.67 262.267C326.86 262.089 327.085 262 327.347 262C327.608 262 327.831 262.089 328.017 262.267C328.206 262.445 328.301 262.659 328.301 262.909C328.301 263.159 328.206 263.373 328.017 263.551C327.831 263.729 327.608 263.818 327.347 263.818ZM334.257 265.273V266.409H329.734V265.273H334.257ZM331.053 263.182H332.393V271.5C332.393 271.879 332.448 272.163 332.558 272.352C332.672 272.538 332.816 272.663 332.99 272.727C333.168 272.788 333.356 272.818 333.553 272.818C333.7 272.818 333.821 272.811 333.916 272.795C334.011 272.777 334.087 272.761 334.143 272.75L334.416 273.955C334.325 273.989 334.198 274.023 334.036 274.057C333.873 274.095 333.666 274.114 333.416 274.114C333.037 274.114 332.666 274.032 332.303 273.869C331.943 273.706 331.643 273.458 331.405 273.125C331.17 272.792 331.053 272.371 331.053 271.864V263.182ZM336.274 274V265.273H337.615V274H336.274ZM336.956 263.818C336.695 263.818 336.469 263.729 336.28 263.551C336.094 263.373 336.001 263.159 336.001 262.909C336.001 262.659 336.094 262.445 336.28 262.267C336.469 262.089 336.695 262 336.956 262C337.217 262 337.441 262.089 337.626 262.267C337.816 262.445 337.911 262.659 337.911 262.909C337.911 263.159 337.816 263.373 337.626 263.551C337.441 263.729 337.217 263.818 336.956 263.818ZM343.616 274.182C342.829 274.182 342.137 273.994 341.543 273.619C340.952 273.244 340.49 272.72 340.156 272.045C339.827 271.371 339.662 270.583 339.662 269.682C339.662 268.773 339.827 267.979 340.156 267.301C340.49 266.623 340.952 266.097 341.543 265.722C342.137 265.347 342.829 265.159 343.616 265.159C344.404 265.159 345.094 265.347 345.685 265.722C346.279 266.097 346.741 266.623 347.071 267.301C347.404 267.979 347.571 268.773 347.571 269.682C347.571 270.583 347.404 271.371 347.071 272.045C346.741 272.72 346.279 273.244 345.685 273.619C345.094 273.994 344.404 274.182 343.616 274.182ZM343.616 272.977C344.215 272.977 344.707 272.824 345.094 272.517C345.48 272.21 345.766 271.807 345.952 271.307C346.137 270.807 346.23 270.265 346.23 269.682C346.23 269.098 346.137 268.555 345.952 268.051C345.766 267.547 345.48 267.14 345.094 266.83C344.707 266.519 344.215 266.364 343.616 266.364C343.018 266.364 342.526 266.519 342.139 266.83C341.753 267.14 341.467 267.547 341.281 268.051C341.096 268.555 341.003 269.098 341.003 269.682C341.003 270.265 341.096 270.807 341.281 271.307C341.467 271.807 341.753 272.21 342.139 272.517C342.526 272.824 343.018 272.977 343.616 272.977ZM350.959 268.75V274H349.618V265.273H350.913V266.636H351.027C351.232 266.193 351.542 265.837 351.959 265.568C352.375 265.295 352.913 265.159 353.572 265.159C354.163 265.159 354.68 265.28 355.124 265.523C355.567 265.761 355.911 266.125 356.158 266.614C356.404 267.098 356.527 267.712 356.527 268.455V274H355.186V268.545C355.186 267.86 355.008 267.326 354.652 266.943C354.296 266.557 353.807 266.364 353.186 266.364C352.758 266.364 352.375 266.456 352.038 266.642C351.705 266.828 351.442 267.098 351.249 267.455C351.055 267.811 350.959 268.242 350.959 268.75ZM359.955 274.091C359.674 274.091 359.434 273.991 359.233 273.79C359.032 273.589 358.932 273.348 358.932 273.068C358.932 272.788 359.032 272.547 359.233 272.347C359.434 272.146 359.674 272.045 359.955 272.045C360.235 272.045 360.475 272.146 360.676 272.347C360.877 272.547 360.977 272.788 360.977 273.068C360.977 273.254 360.93 273.424 360.835 273.58C360.744 273.735 360.621 273.86 360.466 273.955C360.314 274.045 360.144 274.091 359.955 274.091Z" fill="black"/>
<path d="M40.3636 536C40.2386 535.617 40.0739 535.275 39.8693 534.972C39.6686 534.665 39.428 534.403 39.1477 534.188C38.8712 533.972 38.5568 533.807 38.2045 533.693C37.8523 533.58 37.4659 533.523 37.0455 533.523C36.3561 533.523 35.7292 533.701 35.1648 534.057C34.6004 534.413 34.1515 534.938 33.8182 535.631C33.4848 536.324 33.3182 537.174 33.3182 538.182C33.3182 539.189 33.4867 540.04 33.8239 540.733C34.161 541.426 34.6174 541.951 35.1932 542.307C35.7689 542.663 36.4167 542.841 37.1364 542.841C37.803 542.841 38.3902 542.699 38.8977 542.415C39.4091 542.127 39.8068 541.722 40.0909 541.199C40.3788 540.672 40.5227 540.053 40.5227 539.341L40.9545 539.432H37.4545V538.182H41.8864V539.432C41.8864 540.39 41.6818 541.223 41.2727 541.932C40.8674 542.64 40.3068 543.189 39.5909 543.58C38.8788 543.966 38.0606 544.159 37.1364 544.159C36.1061 544.159 35.2008 543.917 34.4205 543.432C33.6439 542.947 33.0379 542.258 32.6023 541.364C32.1705 540.47 31.9545 539.409 31.9545 538.182C31.9545 537.261 32.0777 536.434 32.3239 535.699C32.5739 534.96 32.9261 534.331 33.3807 533.812C33.8352 533.294 34.3731 532.896 34.9943 532.619C35.6155 532.343 36.2992 532.205 37.0455 532.205C37.6591 532.205 38.2311 532.297 38.7614 532.483C39.2955 532.665 39.7708 532.924 40.1875 533.261C40.608 533.595 40.9583 533.994 41.2386 534.46C41.5189 534.922 41.7121 535.436 41.8182 536H40.3636ZM47.777 544.182C46.9361 544.182 46.2107 543.996 45.6009 543.625C44.9948 543.25 44.527 542.727 44.1974 542.057C43.8717 541.383 43.7088 540.598 43.7088 539.705C43.7088 538.811 43.8717 538.023 44.1974 537.341C44.527 536.655 44.9853 536.121 45.5724 535.739C46.1634 535.352 46.8527 535.159 47.6406 535.159C48.0952 535.159 48.544 535.235 48.9872 535.386C49.4304 535.538 49.8338 535.784 50.1974 536.125C50.5611 536.462 50.8509 536.909 51.0668 537.466C51.2827 538.023 51.3906 538.708 51.3906 539.523V540.091H44.6634V538.932H50.027C50.027 538.439 49.9285 538 49.7315 537.614C49.5384 537.227 49.2618 536.922 48.902 536.699C48.5459 536.475 48.1255 536.364 47.6406 536.364C47.1065 536.364 46.6444 536.496 46.2543 536.761C45.8679 537.023 45.5705 537.364 45.3622 537.784C45.1539 538.205 45.0497 538.655 45.0497 539.136V539.909C45.0497 540.568 45.1634 541.127 45.3906 541.585C45.6217 542.04 45.9418 542.386 46.3509 542.625C46.7599 542.86 47.2353 542.977 47.777 542.977C48.1293 542.977 48.4474 542.928 48.7315 542.83C49.0194 542.727 49.2675 542.576 49.4759 542.375C49.6842 542.17 49.8452 541.917 49.9588 541.614L51.2543 541.977C51.1179 542.417 50.8887 542.803 50.5668 543.136C50.2448 543.466 49.8471 543.723 49.3736 543.909C48.9001 544.091 48.3679 544.182 47.777 544.182ZM54.7713 538.75V544H53.4304V535.273H54.7259V536.636H54.8395C55.044 536.193 55.3546 535.837 55.7713 535.568C56.188 535.295 56.7259 535.159 57.3849 535.159C57.9759 535.159 58.4929 535.28 58.9361 535.523C59.3793 535.761 59.724 536.125 59.9702 536.614C60.2164 537.098 60.3395 537.712 60.3395 538.455V544H58.9986V538.545C58.9986 537.86 58.8205 537.326 58.4645 536.943C58.1084 536.557 57.6198 536.364 56.9986 536.364C56.5705 536.364 56.188 536.456 55.8509 536.642C55.5175 536.828 55.2543 537.098 55.0611 537.455C54.8679 537.811 54.7713 538.242 54.7713 538.75ZM66.4489 544.182C65.608 544.182 64.8826 543.996 64.2727 543.625C63.6667 543.25 63.1989 542.727 62.8693 542.057C62.5436 541.383 62.3807 540.598 62.3807 539.705C62.3807 538.811 62.5436 538.023 62.8693 537.341C63.1989 536.655 63.6572 536.121 64.2443 535.739C64.8352 535.352 65.5246 535.159 66.3125 535.159C66.767 535.159 67.2159 535.235 67.6591 535.386C68.1023 535.538 68.5057 535.784 68.8693 536.125C69.233 536.462 69.5227 536.909 69.7386 537.466C69.9545 538.023 70.0625 538.708 70.0625 539.523V540.091H63.3352V538.932H68.6989C68.6989 538.439 68.6004 538 68.4034 537.614C68.2102 537.227 67.9337 536.922 67.5739 536.699C67.2178 536.475 66.7973 536.364 66.3125 536.364C65.7784 536.364 65.3163 536.496 64.9261 536.761C64.5398 537.023 64.2424 537.364 64.0341 537.784C63.8258 538.205 63.7216 538.655 63.7216 539.136V539.909C63.7216 540.568 63.8352 541.127 64.0625 541.585C64.2936 542.04 64.6136 542.386 65.0227 542.625C65.4318 542.86 65.9072 542.977 66.4489 542.977C66.8011 542.977 67.1193 542.928 67.4034 542.83C67.6913 542.727 67.9394 542.576 68.1477 542.375C68.3561 542.17 68.517 541.917 68.6307 541.614L69.9261 541.977C69.7898 542.417 69.5606 542.803 69.2386 543.136C68.9167 543.466 68.5189 543.723 68.0455 543.909C67.572 544.091 67.0398 544.182 66.4489 544.182ZM72.1023 544V535.273H73.3977V536.591H73.4886C73.6477 536.159 73.9356 535.809 74.3523 535.54C74.7689 535.271 75.2386 535.136 75.7614 535.136C75.8598 535.136 75.983 535.138 76.1307 535.142C76.2784 535.146 76.3902 535.152 76.4659 535.159V536.523C76.4205 536.511 76.3163 536.494 76.1534 536.472C75.9943 536.445 75.8258 536.432 75.6477 536.432C75.2235 536.432 74.8447 536.521 74.5114 536.699C74.1818 536.873 73.9205 537.116 73.7273 537.426C73.5379 537.733 73.4432 538.083 73.4432 538.477V544H72.1023ZM80.6236 544.205C80.0705 544.205 79.5687 544.1 79.1179 543.892C78.6671 543.68 78.3092 543.375 78.044 542.977C77.7789 542.576 77.6463 542.091 77.6463 541.523C77.6463 541.023 77.7448 540.617 77.9418 540.307C78.1387 539.992 78.402 539.746 78.7315 539.568C79.0611 539.39 79.4247 539.258 79.8224 539.17C80.224 539.08 80.6274 539.008 81.0327 538.955C81.563 538.886 81.9929 538.835 82.3224 538.801C82.6558 538.763 82.8982 538.701 83.0497 538.614C83.205 538.527 83.2827 538.375 83.2827 538.159V538.114C83.2827 537.553 83.1293 537.117 82.8224 536.807C82.5194 536.496 82.0592 536.341 81.4418 536.341C80.8016 536.341 80.2997 536.481 79.9361 536.761C79.5724 537.042 79.3168 537.341 79.169 537.659L77.8963 537.205C78.1236 536.674 78.4266 536.261 78.8054 535.966C79.188 535.667 79.6046 535.458 80.0554 535.341C80.5099 535.22 80.9569 535.159 81.3963 535.159C81.6766 535.159 81.9986 535.193 82.3622 535.261C82.7296 535.326 83.0838 535.46 83.4247 535.665C83.7694 535.869 84.0554 536.178 84.2827 536.591C84.5099 537.004 84.6236 537.557 84.6236 538.25V544H83.2827V542.818H83.2145C83.1236 543.008 82.9721 543.21 82.7599 543.426C82.5478 543.642 82.2656 543.826 81.9134 543.977C81.5611 544.129 81.1312 544.205 80.6236 544.205ZM80.8281 543C81.3584 543 81.8054 542.896 82.169 542.688C82.5365 542.479 82.813 542.21 82.9986 541.881C83.188 541.551 83.2827 541.205 83.2827 540.841V539.614C83.2259 539.682 83.1009 539.744 82.9077 539.801C82.7183 539.854 82.4986 539.902 82.2486 539.943C82.0024 539.981 81.7618 540.015 81.527 540.045C81.2959 540.072 81.1084 540.095 80.9645 540.114C80.616 540.159 80.2902 540.233 79.9872 540.335C79.688 540.434 79.4455 540.583 79.2599 540.784C79.0781 540.981 78.9872 541.25 78.9872 541.591C78.9872 542.057 79.1596 542.409 79.5043 542.648C79.8527 542.883 80.294 543 80.8281 543ZM90.8665 535.273V536.409H86.3438V535.273H90.8665ZM87.6619 533.182H89.0028V541.5C89.0028 541.879 89.0578 542.163 89.1676 542.352C89.2813 542.538 89.4252 542.663 89.5994 542.727C89.7775 542.788 89.965 542.818 90.1619 542.818C90.3097 542.818 90.4309 542.811 90.5256 542.795C90.6203 542.777 90.696 542.761 90.7528 542.75L91.0256 543.955C90.9347 543.989 90.8078 544.023 90.6449 544.057C90.482 544.095 90.2756 544.114 90.0256 544.114C89.6468 544.114 89.2756 544.032 88.9119 543.869C88.5521 543.706 88.2528 543.458 88.0142 543.125C87.7794 542.792 87.6619 542.371 87.6619 541.864V533.182ZM96.4489 544.182C95.608 544.182 94.8826 543.996 94.2727 543.625C93.6667 543.25 93.1989 542.727 92.8693 542.057C92.5436 541.383 92.3807 540.598 92.3807 539.705C92.3807 538.811 92.5436 538.023 92.8693 537.341C93.1989 536.655 93.6572 536.121 94.2443 535.739C94.8352 535.352 95.5246 535.159 96.3125 535.159C96.767 535.159 97.2159 535.235 97.6591 535.386C98.1023 535.538 98.5057 535.784 98.8693 536.125C99.233 536.462 99.5227 536.909 99.7386 537.466C99.9545 538.023 100.062 538.708 100.062 539.523V540.091H93.3352V538.932H98.6989C98.6989 538.439 98.6004 538 98.4034 537.614C98.2102 537.227 97.9337 536.922 97.5739 536.699C97.2178 536.475 96.7973 536.364 96.3125 536.364C95.7784 536.364 95.3163 536.496 94.9261 536.761C94.5398 537.023 94.2424 537.364 94.0341 537.784C93.8258 538.205 93.7216 538.655 93.7216 539.136V539.909C93.7216 540.568 93.8352 541.127 94.0625 541.585C94.2936 542.04 94.6136 542.386 95.0227 542.625C95.4318 542.86 95.9072 542.977 96.4489 542.977C96.8011 542.977 97.1193 542.928 97.4034 542.83C97.6913 542.727 97.9394 542.576 98.1477 542.375C98.3561 542.17 98.517 541.917 98.6307 541.614L99.9261 541.977C99.7898 542.417 99.5606 542.803 99.2386 543.136C98.9167 543.466 98.5189 543.723 98.0455 543.909C97.572 544.091 97.0398 544.182 96.4489 544.182ZM107.261 544H105.784L110.057 532.364H111.511L115.784 544H114.307L110.83 534.205H110.739L107.261 544ZM107.807 539.455H113.761V540.705H107.807V539.455ZM119.006 532.364V544H117.597V532.364H119.006ZM128.126 544L125.467 535.273H126.876L128.763 541.955H128.854L130.717 535.273H132.149L133.99 541.932H134.081L135.967 535.273H137.376L134.717 544H133.399L131.49 537.295H131.354L129.445 544H128.126ZM139.149 544V535.273H140.49V544H139.149ZM139.831 533.818C139.57 533.818 139.344 533.729 139.155 533.551C138.969 533.373 138.876 533.159 138.876 532.909C138.876 532.659 138.969 532.445 139.155 532.267C139.344 532.089 139.57 532 139.831 532C140.092 532 140.316 532.089 140.501 532.267C140.691 532.445 140.786 532.659 140.786 532.909C140.786 533.159 140.691 533.373 140.501 533.551C140.316 533.729 140.092 533.818 139.831 533.818ZM146.741 535.273V536.409H142.219V535.273H146.741ZM143.537 533.182H144.878V541.5C144.878 541.879 144.933 542.163 145.043 542.352C145.156 542.538 145.3 542.663 145.474 542.727C145.652 542.788 145.84 542.818 146.037 542.818C146.185 542.818 146.306 542.811 146.401 542.795C146.495 542.777 146.571 542.761 146.628 542.75L146.901 543.955C146.81 543.989 146.683 544.023 146.52 544.057C146.357 544.095 146.151 544.114 145.901 544.114C145.522 544.114 145.151 544.032 144.787 543.869C144.427 543.706 144.128 543.458 143.889 543.125C143.654 542.792 143.537 542.371 143.537 541.864V533.182ZM150.287 538.75V544H148.946V532.364H150.287V536.636H150.401C150.605 536.186 150.912 535.828 151.321 535.562C151.734 535.294 152.283 535.159 152.969 535.159C153.563 535.159 154.084 535.278 154.531 535.517C154.978 535.752 155.325 536.114 155.571 536.602C155.821 537.087 155.946 537.705 155.946 538.455V544H154.605V538.545C154.605 537.852 154.425 537.316 154.065 536.938C153.709 536.555 153.215 536.364 152.582 536.364C152.143 536.364 151.749 536.456 151.401 536.642C151.056 536.828 150.783 537.098 150.582 537.455C150.385 537.811 150.287 538.242 150.287 538.75ZM166.672 544H163.081V532.364H166.831C167.96 532.364 168.926 532.597 169.729 533.062C170.532 533.525 171.147 534.189 171.575 535.057C172.003 535.92 172.217 536.955 172.217 538.159C172.217 539.371 172.001 540.415 171.57 541.29C171.138 542.161 170.509 542.831 169.683 543.301C168.857 543.767 167.854 544 166.672 544ZM164.49 542.75H166.581C167.543 542.75 168.34 542.564 168.973 542.193C169.606 541.822 170.077 541.294 170.388 540.608C170.698 539.922 170.854 539.106 170.854 538.159C170.854 537.22 170.7 536.411 170.393 535.733C170.087 535.051 169.628 534.528 169.018 534.165C168.409 533.797 167.649 533.614 166.74 533.614H164.49V542.75ZM174.399 544V535.273H175.74V544H174.399ZM175.081 533.818C174.82 533.818 174.594 533.729 174.405 533.551C174.219 533.373 174.126 533.159 174.126 532.909C174.126 532.659 174.219 532.445 174.405 532.267C174.594 532.089 174.82 532 175.081 532C175.342 532 175.566 532.089 175.751 532.267C175.941 532.445 176.036 532.659 176.036 532.909C176.036 533.159 175.941 533.373 175.751 533.551C175.566 533.729 175.342 533.818 175.081 533.818ZM180.764 544.205C180.211 544.205 179.709 544.1 179.259 543.892C178.808 543.68 178.45 543.375 178.185 542.977C177.92 542.576 177.787 542.091 177.787 541.523C177.787 541.023 177.885 540.617 178.082 540.307C178.279 539.992 178.543 539.746 178.872 539.568C179.202 539.39 179.565 539.258 179.963 539.17C180.365 539.08 180.768 539.008 181.173 538.955C181.704 538.886 182.134 538.835 182.463 538.801C182.796 538.763 183.039 538.701 183.19 538.614C183.346 538.527 183.423 538.375 183.423 538.159V538.114C183.423 537.553 183.27 537.117 182.963 536.807C182.66 536.496 182.2 536.341 181.582 536.341C180.942 536.341 180.44 536.481 180.077 536.761C179.713 537.042 179.457 537.341 179.31 537.659L178.037 537.205C178.264 536.674 178.567 536.261 178.946 535.966C179.329 535.667 179.745 535.458 180.196 535.341C180.651 535.22 181.098 535.159 181.537 535.159C181.817 535.159 182.139 535.193 182.503 535.261C182.87 535.326 183.224 535.46 183.565 535.665C183.91 535.869 184.196 536.178 184.423 536.591C184.651 537.004 184.764 537.557 184.764 538.25V544H183.423V542.818H183.355C183.264 543.008 183.113 543.21 182.901 543.426C182.688 543.642 182.406 543.826 182.054 543.977C181.702 544.129 181.272 544.205 180.764 544.205ZM180.969 543C181.499 543 181.946 542.896 182.31 542.688C182.677 542.479 182.954 542.21 183.139 541.881C183.329 541.551 183.423 541.205 183.423 540.841V539.614C183.366 539.682 183.241 539.744 183.048 539.801C182.859 539.854 182.639 539.902 182.389 539.943C182.143 539.981 181.902 540.015 181.668 540.045C181.437 540.072 181.249 540.095 181.105 540.114C180.757 540.159 180.431 540.233 180.128 540.335C179.829 540.434 179.586 540.583 179.401 540.784C179.219 540.981 179.128 541.25 179.128 541.591C179.128 542.057 179.3 542.409 179.645 542.648C179.993 542.883 180.435 543 180.969 543ZM188.553 532.364V544H187.212V532.364H188.553ZM194.554 544.182C193.766 544.182 193.075 543.994 192.48 543.619C191.889 543.244 191.427 542.72 191.094 542.045C190.764 541.371 190.599 540.583 190.599 539.682C190.599 538.773 190.764 537.979 191.094 537.301C191.427 536.623 191.889 536.097 192.48 535.722C193.075 535.347 193.766 535.159 194.554 535.159C195.342 535.159 196.031 535.347 196.622 535.722C197.217 536.097 197.679 536.623 198.009 537.301C198.342 537.979 198.509 538.773 198.509 539.682C198.509 540.583 198.342 541.371 198.009 542.045C197.679 542.72 197.217 543.244 196.622 543.619C196.031 543.994 195.342 544.182 194.554 544.182ZM194.554 542.977C195.152 542.977 195.645 542.824 196.031 542.517C196.418 542.21 196.704 541.807 196.889 541.307C197.075 540.807 197.168 540.265 197.168 539.682C197.168 539.098 197.075 538.555 196.889 538.051C196.704 537.547 196.418 537.14 196.031 536.83C195.645 536.519 195.152 536.364 194.554 536.364C193.955 536.364 193.463 536.519 193.077 536.83C192.69 537.14 192.404 537.547 192.219 538.051C192.033 538.555 191.94 539.098 191.94 539.682C191.94 540.265 192.033 540.807 192.219 541.307C192.404 541.807 192.69 542.21 193.077 542.517C193.463 542.824 193.955 542.977 194.554 542.977ZM204.078 547.455C203.43 547.455 202.874 547.371 202.408 547.205C201.942 547.042 201.554 546.826 201.243 546.557C200.936 546.292 200.692 546.008 200.51 545.705L201.578 544.955C201.699 545.114 201.853 545.295 202.038 545.5C202.224 545.708 202.478 545.888 202.8 546.04C203.125 546.195 203.552 546.273 204.078 546.273C204.783 546.273 205.364 546.102 205.822 545.761C206.281 545.42 206.51 544.886 206.51 544.159V542.386H206.396C206.298 542.545 206.158 542.742 205.976 542.977C205.798 543.208 205.54 543.415 205.203 543.597C204.87 543.775 204.419 543.864 203.851 543.864C203.146 543.864 202.514 543.697 201.953 543.364C201.396 543.03 200.955 542.545 200.629 541.909C200.307 541.273 200.146 540.5 200.146 539.591C200.146 538.697 200.304 537.919 200.618 537.256C200.932 536.589 201.37 536.074 201.93 535.71C202.491 535.343 203.139 535.159 203.874 535.159C204.442 535.159 204.893 535.254 205.226 535.443C205.563 535.629 205.821 535.841 205.999 536.08C206.18 536.314 206.321 536.508 206.419 536.659H206.555V535.273H207.851V544.25C207.851 545 207.68 545.61 207.339 546.08C207.002 546.553 206.548 546.9 205.976 547.119C205.408 547.343 204.775 547.455 204.078 547.455ZM204.033 542.659C204.571 542.659 205.025 542.536 205.396 542.29C205.768 542.044 206.05 541.689 206.243 541.227C206.436 540.765 206.533 540.212 206.533 539.568C206.533 538.939 206.438 538.384 206.249 537.903C206.059 537.422 205.779 537.045 205.408 536.773C205.036 536.5 204.578 536.364 204.033 536.364C203.464 536.364 202.991 536.508 202.612 536.795C202.237 537.083 201.955 537.47 201.766 537.955C201.58 538.439 201.487 538.977 201.487 539.568C201.487 540.174 201.582 540.71 201.771 541.176C201.964 541.638 202.249 542.002 202.624 542.267C203.002 542.528 203.472 542.659 204.033 542.659ZM215.805 540.432V535.273H217.146V544H215.805V542.523H215.714C215.51 542.966 215.192 543.343 214.76 543.653C214.328 543.96 213.783 544.114 213.124 544.114C212.578 544.114 212.093 543.994 211.669 543.756C211.245 543.513 210.911 543.15 210.669 542.665C210.427 542.176 210.305 541.561 210.305 540.818V535.273H211.646V540.727C211.646 541.364 211.824 541.871 212.18 542.25C212.54 542.629 212.999 542.818 213.555 542.818C213.889 542.818 214.228 542.733 214.572 542.562C214.921 542.392 215.213 542.131 215.447 541.778C215.686 541.426 215.805 540.977 215.805 540.432ZM223.261 544.182C222.42 544.182 221.695 543.996 221.085 543.625C220.479 543.25 220.011 542.727 219.682 542.057C219.356 541.383 219.193 540.598 219.193 539.705C219.193 538.811 219.356 538.023 219.682 537.341C220.011 536.655 220.47 536.121 221.057 535.739C221.648 535.352 222.337 535.159 223.125 535.159C223.58 535.159 224.028 535.235 224.472 535.386C224.915 535.538 225.318 535.784 225.682 536.125C226.045 536.462 226.335 536.909 226.551 537.466C226.767 538.023 226.875 538.708 226.875 539.523V540.091H220.148V538.932H225.511C225.511 538.439 225.413 538 225.216 537.614C225.023 537.227 224.746 536.922 224.386 536.699C224.03 536.475 223.61 536.364 223.125 536.364C222.591 536.364 222.129 536.496 221.739 536.761C221.352 537.023 221.055 537.364 220.847 537.784C220.638 538.205 220.534 538.655 220.534 539.136V539.909C220.534 540.568 220.648 541.127 220.875 541.585C221.106 542.04 221.426 542.386 221.835 542.625C222.244 542.86 222.72 542.977 223.261 542.977C223.614 542.977 223.932 542.928 224.216 542.83C224.504 542.727 224.752 542.576 224.96 542.375C225.169 542.17 225.33 541.917 225.443 541.614L226.739 541.977C226.602 542.417 226.373 542.803 226.051 543.136C225.729 543.466 225.331 543.723 224.858 543.909C224.384 544.091 223.852 544.182 223.261 544.182ZM235.983 544.205C235.43 544.205 234.928 544.1 234.477 543.892C234.027 543.68 233.669 543.375 233.403 542.977C233.138 542.576 233.006 542.091 233.006 541.523C233.006 541.023 233.104 540.617 233.301 540.307C233.498 539.992 233.761 539.746 234.091 539.568C234.42 539.39 234.784 539.258 235.182 539.17C235.583 539.08 235.987 539.008 236.392 538.955C236.922 538.886 237.352 538.835 237.682 538.801C238.015 538.763 238.258 538.701 238.409 538.614C238.564 538.527 238.642 538.375 238.642 538.159V538.114C238.642 537.553 238.489 537.117 238.182 536.807C237.879 536.496 237.419 536.341 236.801 536.341C236.161 536.341 235.659 536.481 235.295 536.761C234.932 537.042 234.676 537.341 234.528 537.659L233.256 537.205C233.483 536.674 233.786 536.261 234.165 535.966C234.547 535.667 234.964 535.458 235.415 535.341C235.869 535.22 236.316 535.159 236.756 535.159C237.036 535.159 237.358 535.193 237.722 535.261C238.089 535.326 238.443 535.46 238.784 535.665C239.129 535.869 239.415 536.178 239.642 536.591C239.869 537.004 239.983 537.557 239.983 538.25V544H238.642V542.818H238.574C238.483 543.008 238.331 543.21 238.119 543.426C237.907 543.642 237.625 543.826 237.273 543.977C236.92 544.129 236.491 544.205 235.983 544.205ZM236.188 543C236.718 543 237.165 542.896 237.528 542.688C237.896 542.479 238.172 542.21 238.358 541.881C238.547 541.551 238.642 541.205 238.642 540.841V539.614C238.585 539.682 238.46 539.744 238.267 539.801C238.078 539.854 237.858 539.902 237.608 539.943C237.362 539.981 237.121 540.015 236.886 540.045C236.655 540.072 236.468 540.095 236.324 540.114C235.975 540.159 235.65 540.233 235.347 540.335C235.047 540.434 234.805 540.583 234.619 540.784C234.438 540.981 234.347 541.25 234.347 541.591C234.347 542.057 234.519 542.409 234.864 542.648C235.212 542.883 235.653 543 236.188 543ZM243.771 538.75V544H242.43V535.273H243.726V536.636H243.839C244.044 536.193 244.355 535.837 244.771 535.568C245.188 535.295 245.726 535.159 246.385 535.159C246.976 535.159 247.493 535.28 247.936 535.523C248.379 535.761 248.724 536.125 248.97 536.614C249.216 537.098 249.339 537.712 249.339 538.455V544H247.999V538.545C247.999 537.86 247.821 537.326 247.464 536.943C247.108 536.557 246.62 536.364 245.999 536.364C245.571 536.364 245.188 536.456 244.851 536.642C244.518 536.828 244.254 537.098 244.061 537.455C243.868 537.811 243.771 538.242 243.771 538.75ZM255.085 544.182C254.358 544.182 253.716 543.998 253.159 543.631C252.602 543.259 252.167 542.737 251.852 542.062C251.538 541.384 251.381 540.583 251.381 539.659C251.381 538.742 251.538 537.947 251.852 537.273C252.167 536.598 252.604 536.078 253.165 535.71C253.725 535.343 254.373 535.159 255.108 535.159C255.676 535.159 256.125 535.254 256.455 535.443C256.788 535.629 257.042 535.841 257.216 536.08C257.394 536.314 257.532 536.508 257.631 536.659H257.744V532.364H259.085V544H257.79V542.659H257.631C257.532 542.818 257.392 543.019 257.21 543.261C257.028 543.5 256.769 543.714 256.432 543.903C256.095 544.089 255.646 544.182 255.085 544.182ZM255.267 542.977C255.805 542.977 256.259 542.837 256.631 542.557C257.002 542.273 257.284 541.881 257.477 541.381C257.67 540.877 257.767 540.295 257.767 539.636C257.767 538.985 257.672 538.415 257.483 537.926C257.294 537.434 257.013 537.051 256.642 536.778C256.271 536.502 255.813 536.364 255.267 536.364C254.699 536.364 254.225 536.509 253.847 536.801C253.472 537.089 253.189 537.481 253 537.977C252.814 538.47 252.722 539.023 252.722 539.636C252.722 540.258 252.816 540.822 253.006 541.33C253.199 541.833 253.483 542.235 253.858 542.534C254.237 542.83 254.706 542.977 255.267 542.977ZM272.773 535.273C272.705 534.697 272.428 534.25 271.943 533.932C271.458 533.614 270.864 533.455 270.159 533.455C269.644 533.455 269.193 533.538 268.807 533.705C268.424 533.871 268.125 534.1 267.909 534.392C267.697 534.684 267.591 535.015 267.591 535.386C267.591 535.697 267.665 535.964 267.812 536.188C267.964 536.407 268.157 536.591 268.392 536.739C268.627 536.883 268.873 537.002 269.131 537.097C269.388 537.187 269.625 537.261 269.841 537.318L271.023 537.636C271.326 537.716 271.663 537.826 272.034 537.966C272.409 538.106 272.767 538.297 273.108 538.54C273.453 538.778 273.737 539.085 273.96 539.46C274.184 539.835 274.295 540.295 274.295 540.841C274.295 541.47 274.131 542.038 273.801 542.545C273.475 543.053 272.998 543.456 272.369 543.756C271.744 544.055 270.985 544.205 270.091 544.205C269.258 544.205 268.536 544.07 267.926 543.801C267.32 543.532 266.843 543.157 266.494 542.676C266.15 542.195 265.955 541.636 265.909 541H267.364C267.402 541.439 267.549 541.803 267.807 542.091C268.068 542.375 268.398 542.587 268.795 542.727C269.197 542.864 269.629 542.932 270.091 542.932C270.629 542.932 271.112 542.845 271.54 542.67C271.968 542.492 272.307 542.246 272.557 541.932C272.807 541.614 272.932 541.242 272.932 540.818C272.932 540.432 272.824 540.117 272.608 539.875C272.392 539.633 272.108 539.436 271.756 539.284C271.403 539.133 271.023 539 270.614 538.886L269.182 538.477C268.273 538.216 267.553 537.843 267.023 537.358C266.492 536.873 266.227 536.239 266.227 535.455C266.227 534.803 266.403 534.235 266.756 533.75C267.112 533.261 267.589 532.883 268.188 532.614C268.79 532.341 269.462 532.205 270.205 532.205C270.955 532.205 271.621 532.339 272.205 532.608C272.788 532.873 273.25 533.237 273.591 533.699C273.936 534.161 274.117 534.686 274.136 535.273H272.773ZM281.93 540.432V535.273H283.271V544H281.93V542.523H281.839C281.635 542.966 281.317 543.343 280.885 543.653C280.453 543.96 279.908 544.114 279.249 544.114C278.703 544.114 278.218 543.994 277.794 543.756C277.37 543.513 277.036 543.15 276.794 542.665C276.552 542.176 276.43 541.561 276.43 540.818V535.273H277.771V540.727C277.771 541.364 277.949 541.871 278.305 542.25C278.665 542.629 279.124 542.818 279.68 542.818C280.014 542.818 280.353 542.733 280.697 542.562C281.046 542.392 281.338 542.131 281.572 541.778C281.811 541.426 281.93 540.977 281.93 540.432ZM285.909 544V532.364H287.25V536.659H287.364C287.462 536.508 287.598 536.314 287.773 536.08C287.951 535.841 288.205 535.629 288.534 535.443C288.867 535.254 289.318 535.159 289.886 535.159C290.621 535.159 291.269 535.343 291.83 535.71C292.39 536.078 292.828 536.598 293.142 537.273C293.456 537.947 293.614 538.742 293.614 539.659C293.614 540.583 293.456 541.384 293.142 542.062C292.828 542.737 292.392 543.259 291.835 543.631C291.278 543.998 290.636 544.182 289.909 544.182C289.348 544.182 288.9 544.089 288.562 543.903C288.225 543.714 287.966 543.5 287.784 543.261C287.602 543.019 287.462 542.818 287.364 542.659H287.205V544H285.909ZM287.227 539.636C287.227 540.295 287.324 540.877 287.517 541.381C287.71 541.881 287.992 542.273 288.364 542.557C288.735 542.837 289.189 542.977 289.727 542.977C290.288 542.977 290.756 542.83 291.131 542.534C291.509 542.235 291.794 541.833 291.983 541.33C292.176 540.822 292.273 540.258 292.273 539.636C292.273 539.023 292.178 538.47 291.989 537.977C291.803 537.481 291.521 537.089 291.142 536.801C290.767 536.509 290.295 536.364 289.727 536.364C289.182 536.364 288.723 536.502 288.352 536.778C287.981 537.051 287.701 537.434 287.511 537.926C287.322 538.415 287.227 538.985 287.227 539.636ZM299.46 535.273V536.409H294.938V535.273H299.46ZM296.256 533.182H297.597V541.5C297.597 541.879 297.652 542.163 297.761 542.352C297.875 542.538 298.019 542.663 298.193 542.727C298.371 542.788 298.559 542.818 298.756 542.818C298.903 542.818 299.025 542.811 299.119 542.795C299.214 542.777 299.29 542.761 299.347 542.75L299.619 543.955C299.528 543.989 299.402 544.023 299.239 544.057C299.076 544.095 298.869 544.114 298.619 544.114C298.241 544.114 297.869 544.032 297.506 543.869C297.146 543.706 296.847 543.458 296.608 543.125C296.373 542.792 296.256 542.371 296.256 541.864V533.182ZM301.477 544V535.273H302.818V544H301.477ZM302.159 533.818C301.898 533.818 301.672 533.729 301.483 533.551C301.297 533.373 301.205 533.159 301.205 532.909C301.205 532.659 301.297 532.445 301.483 532.267C301.672 532.089 301.898 532 302.159 532C302.42 532 302.644 532.089 302.83 532.267C303.019 532.445 303.114 532.659 303.114 532.909C303.114 533.159 303.019 533.373 302.83 533.551C302.644 533.729 302.42 533.818 302.159 533.818ZM309.07 535.273V536.409H304.547V535.273H309.07ZM305.865 533.182H307.206V541.5C307.206 541.879 307.261 542.163 307.371 542.352C307.484 542.538 307.628 542.663 307.803 542.727C307.981 542.788 308.168 542.818 308.365 542.818C308.513 542.818 308.634 542.811 308.729 542.795C308.823 542.777 308.899 542.761 308.956 542.75L309.229 543.955C309.138 543.989 309.011 544.023 308.848 544.057C308.685 544.095 308.479 544.114 308.229 544.114C307.85 544.114 307.479 544.032 307.115 543.869C306.755 543.706 306.456 543.458 306.217 543.125C305.982 542.792 305.865 542.371 305.865 541.864V533.182ZM312.615 532.364V544H311.274V532.364H312.615ZM318.73 544.182C317.889 544.182 317.164 543.996 316.554 543.625C315.948 543.25 315.48 542.727 315.151 542.057C314.825 541.383 314.662 540.598 314.662 539.705C314.662 538.811 314.825 538.023 315.151 537.341C315.48 536.655 315.938 536.121 316.526 535.739C317.116 535.352 317.806 535.159 318.594 535.159C319.048 535.159 319.497 535.235 319.94 535.386C320.384 535.538 320.787 535.784 321.151 536.125C321.514 536.462 321.804 536.909 322.02 537.466C322.236 538.023 322.344 538.708 322.344 539.523V540.091H315.616V538.932H320.98C320.98 538.439 320.882 538 320.685 537.614C320.491 537.227 320.215 536.922 319.855 536.699C319.499 536.475 319.079 536.364 318.594 536.364C318.06 536.364 317.598 536.496 317.207 536.761C316.821 537.023 316.524 537.364 316.315 537.784C316.107 538.205 316.003 538.655 316.003 539.136V539.909C316.003 540.568 316.116 541.127 316.344 541.585C316.575 542.04 316.895 542.386 317.304 542.625C317.713 542.86 318.188 542.977 318.73 542.977C319.082 542.977 319.401 542.928 319.685 542.83C319.973 542.727 320.221 542.576 320.429 542.375C320.637 542.17 320.798 541.917 320.912 541.614L322.207 541.977C322.071 542.417 321.842 542.803 321.52 543.136C321.198 543.466 320.8 543.723 320.327 543.909C319.853 544.091 319.321 544.182 318.73 544.182ZM330.565 537.227L329.361 537.568C329.285 537.367 329.173 537.172 329.026 536.983C328.882 536.79 328.685 536.631 328.435 536.506C328.185 536.381 327.865 536.318 327.474 536.318C326.94 536.318 326.495 536.441 326.139 536.688C325.787 536.93 325.611 537.239 325.611 537.614C325.611 537.947 325.732 538.21 325.974 538.403C326.217 538.597 326.596 538.758 327.111 538.886L328.406 539.205C329.187 539.394 329.768 539.684 330.151 540.074C330.533 540.46 330.724 540.958 330.724 541.568C330.724 542.068 330.58 542.515 330.293 542.909C330.009 543.303 329.611 543.614 329.099 543.841C328.588 544.068 327.993 544.182 327.315 544.182C326.425 544.182 325.688 543.989 325.105 543.602C324.522 543.216 324.152 542.652 323.997 541.909L325.27 541.591C325.391 542.061 325.62 542.413 325.957 542.648C326.298 542.883 326.743 543 327.293 543C327.918 543 328.414 542.867 328.781 542.602C329.152 542.333 329.338 542.011 329.338 541.636C329.338 541.333 329.232 541.08 329.02 540.875C328.808 540.667 328.482 540.511 328.043 540.409L326.588 540.068C325.789 539.879 325.202 539.585 324.827 539.188C324.455 538.786 324.27 538.284 324.27 537.682C324.27 537.189 324.408 536.754 324.685 536.375C324.965 535.996 325.346 535.699 325.827 535.483C326.312 535.267 326.861 535.159 327.474 535.159C328.338 535.159 329.016 535.348 329.509 535.727C330.005 536.106 330.357 536.606 330.565 537.227ZM333.72 544.091C333.44 544.091 333.199 543.991 332.999 543.79C332.798 543.589 332.697 543.348 332.697 543.068C332.697 542.788 332.798 542.547 332.999 542.347C333.199 542.146 333.44 542.045 333.72 542.045C334 542.045 334.241 542.146 334.442 542.347C334.643 542.547 334.743 542.788 334.743 543.068C334.743 543.254 334.696 543.424 334.601 543.58C334.51 543.735 334.387 543.86 334.232 543.955C334.08 544.045 333.91 544.091 333.72 544.091Z" fill="black"/>
<rect x="30" y="29" width="386" height="218" fill="#D9D9D9"/>
<rect x="30" y="299" width="386" height="218" fill="#D9D9D9"/>
<defs>
<linearGradient id="paint0_linear_174_6" x1="222.5" y1="0" x2="222.5" y2="755" gradientUnits="userSpaceOnUse">
<stop stop-color="#DCD8FF"/>
<stop offset="1" stop-color="white"/>
</linearGradient>
<linearGradient id="paint1_linear_174_6" x1="31" y1="642" x2="229" y2="642.5" gradientUnits="userSpaceOnUse">
<stop stop-color="#15B1E4"/>
<stop offset="1" stop-color="#B800FF"/>
</linearGradient>
</defs>
</svg>
