<svg width="445" height="755" viewBox="0 0 445 755" fill="none" xmlns="http://www.w3.org/2000/svg">
<rect x="0.25" y="0.25" width="444.5" height="754.5" fill="url(#paint0_linear_174_12)" fill-opacity="0.7" stroke="white" stroke-width="0.5"/>
<path d="M114.168 265.408V266.928H112.28V273.664H110.696V260H112.28V265.408H114.168ZM106.6 269.232V262H100.376V260.528H108.2V269.232H106.6ZM103.864 271.36H105.08C106.92 271.36 108.584 271.2 109.56 270.784V272.272C108.584 272.672 106.968 272.848 105.096 272.848H99.88V271.36H102.264V265.568H103.864V271.36ZM126.231 260H127.815V273.664H126.231V267.04H122.583C121.671 270.608 119.159 272.816 115.527 272.816V271.312C119.239 271.296 121.351 268.4 121.351 263.824V261.952H115.527V260.496H122.967V263.792C122.967 264.4 122.935 264.992 122.855 265.552H126.231V260ZM146.97 264.944V266.416H135.13V260.16H136.762V264.944H146.97ZM147.834 268.112V269.568H144.458V273.984H142.89V269.568H139.114V273.984H137.546V269.568H134.186V268.112H147.834ZM155.896 264.592C154.36 267.008 152.04 268.592 149.528 268.592V267.088C152.488 267.088 155.208 263.888 155.912 260.064L157.544 260.352C157.352 261.408 157.032 262.416 156.584 263.328L162.6 267.376L161.736 268.64L155.896 264.592ZM149.256 271.52H162.904V273.008H149.256V271.52ZM178.615 265.408V266.928H176.727V273.664H175.143V260H176.727V265.408H178.615ZM169.591 268.688V271.36C171.399 271.36 173.047 271.2 174.007 270.784V272.272C173.031 272.672 171.415 272.848 169.543 272.848H164.327V271.36H168.023V268.688C166.023 268.352 164.663 266.736 164.663 264.528C164.663 262.032 166.391 260.288 168.807 260.288C171.207 260.288 172.983 262.032 172.983 264.528C172.983 266.736 171.591 268.352 169.591 268.688ZM166.215 264.528C166.215 266.112 167.207 267.328 168.807 267.328C170.391 267.328 171.431 266.112 171.431 264.528C171.431 262.928 170.391 261.712 168.807 261.712C167.207 261.712 166.215 262.928 166.215 264.528ZM194.73 260H196.314V273.664H194.73V260ZM189.674 260.4C189.658 262.496 189.482 264.384 189.13 266.016L193.546 271.904L192.266 272.816L188.634 267.856C187.626 270.864 185.962 272.688 183.802 272.848V271.248C186.538 270.816 188.042 266.08 188.058 260.336L189.674 260.4ZM212.921 265.536V267.056H211.001V273.664H209.417V260H211.001V265.536H212.921ZM204.537 260.4C204.521 262.528 204.345 264.432 203.993 266.08L208.297 271.904L207.017 272.816L203.497 267.936C202.521 270.912 200.873 272.688 198.745 272.848V271.248C201.481 270.816 202.905 266.08 202.921 260.336L204.537 260.4ZM229.02 269.504V261.952H218.684V260.48H230.636V269.504H229.02ZM226.396 271.552H231.516V273.008H217.868V271.552H220.524V266.064H222.108V271.552H224.796V266.064H226.396V271.552ZM247.226 262.672H245.306V264.592H247.226V265.936H245.306V267.552H243.722V260H245.306V261.312H247.226V262.672ZM241.418 263.616C241.418 265.68 239.786 267.088 237.21 267.088C234.618 267.088 232.986 265.68 232.986 263.616C232.986 261.568 234.618 260.144 237.21 260.144C239.786 260.144 241.418 261.568 241.418 263.616ZM234.57 263.616C234.57 264.976 235.642 265.776 237.21 265.776C238.778 265.776 239.834 264.976 239.834 263.616C239.834 262.256 238.778 261.456 237.21 261.456C235.642 261.456 234.57 262.256 234.57 263.616ZM239.738 268C242.97 268 245.514 268.784 245.514 270.832C245.514 272.88 242.97 273.664 239.738 273.664C236.522 273.664 233.962 272.88 233.962 270.832C233.962 268.784 236.522 268 239.738 268ZM239.738 272.352C242.026 272.352 243.818 271.888 243.818 270.832C243.818 269.792 242.026 269.312 239.738 269.312C237.466 269.312 235.658 269.792 235.658 270.832C235.658 271.888 237.466 272.352 239.738 272.352ZM263.245 266.4V264.72H253.117V263.424H263.245V261.456H253.117V260.128H264.829V266.4H263.245ZM258.941 267.296H265.821V268.64H252.173V267.296H257.341V265.456H258.941V267.296ZM254.733 269.776V272.16H265.117V273.504H253.117V269.776H254.733ZM280.38 260V270.432H278.876V260H280.38ZM275.58 270.192V264.864H273.868V263.424H275.58V260.08H277.068V270.192H275.58ZM274.348 268.032C273.452 268.384 272.044 268.544 270.476 268.544H267.66V260.336H273.596V261.68H269.164V263.76H273.164V265.056H269.164V267.2H270.604C272.124 267.2 273.436 267.056 274.348 266.704V268.032ZM270.14 272.048H280.716V273.488H268.524V269.584H270.14V272.048ZM288.906 265.808C287.626 267.632 285.37 268.736 282.698 268.896V267.44C285.578 267.216 287.866 265.552 288.33 263.024H283.05V261.568H288.282V259.824H289.914V261.568H295.21V263.024H289.994C289.914 263.584 289.786 264.096 289.578 264.576L295.562 267.648L294.858 268.96L288.906 265.808ZM282.314 271.536H295.962V273.008H282.314V271.536ZM298.377 265.296V262.208H308.521V261.28H298.377V260.16H310.057V263.264H299.913V264.176H310.249V265.296H298.377ZM297.385 267.44V266.288H311.033V267.44H297.385ZM298.329 273.504V270.432H308.553V269.552H298.297V268.432H310.089V271.488H299.865V272.384H310.329V273.504H298.329ZM325.804 260.704V261.824H316.668V260.704H320.38V259.616H321.996V260.704H325.804ZM329.02 262.88H330.908V264.256H329.02V267.968H327.436V260H329.02V262.88ZM326.3 267.376C325.436 267.76 323.692 267.92 321.756 267.92H316.62V266.768H320.412V265.936C318.444 265.808 317.276 265.184 317.276 264.176C317.276 263.04 318.764 262.384 321.212 262.384C323.644 262.384 325.148 263.04 325.148 264.176C325.148 265.184 323.964 265.824 321.98 265.952V266.768C323.788 266.752 325.452 266.592 326.3 266.24V267.376ZM318.764 264.176C318.764 264.576 319.58 264.896 321.212 264.896C322.844 264.896 323.66 264.576 323.66 264.176C323.66 263.776 322.844 263.456 321.212 263.456C319.58 263.456 318.764 263.776 318.764 264.176ZM318.988 271.632V272.384H329.372V273.488H317.436V270.56H327.468V269.808H317.404V268.704H329.02V271.632H318.988ZM342.331 266.4H345.339V267.68H331.691V266.4H334.683V264.688C333.339 264.288 332.475 263.584 332.475 262.528C332.475 260.672 335.195 259.92 338.507 259.92C341.819 259.92 344.539 260.672 344.539 262.528C344.539 263.584 343.675 264.288 342.331 264.688V266.4ZM334.155 262.528C334.155 263.488 336.123 263.904 338.507 263.904C340.891 263.904 342.859 263.488 342.859 262.528C342.859 261.584 340.891 261.168 338.507 261.168C336.123 261.168 334.155 261.584 334.155 262.528ZM336.251 265.024V266.4H340.763V265.024C340.059 265.104 339.307 265.152 338.507 265.152C337.707 265.152 336.955 265.104 336.251 265.024ZM338.507 268.736C341.771 268.736 344.507 269.328 344.507 271.2C344.507 273.072 341.771 273.696 338.507 273.696C335.243 273.696 332.507 273.072 332.507 271.2C332.507 269.328 335.243 268.736 338.507 268.736ZM338.507 272.448C340.715 272.448 342.843 272.144 342.843 271.2C342.843 270.272 340.715 269.984 338.507 269.984C336.299 269.984 334.187 270.272 334.187 271.2C334.187 272.144 336.299 272.448 338.507 272.448Z" fill="black"/>
<path d="M68.944 534.976V531.488H65.68V530.16H70.496V534.976H68.944ZM76.032 535.136V531.488H71.296V530.16H77.6V535.136H76.032ZM73.344 536.304H78.528V537.648H64.88V536.304H71.776V533.376H73.344V536.304ZM65.712 540.512V539.152H77.568V543.68H75.968V540.512H65.712ZM96.867 530V536.848H95.283V530H96.867ZM94.291 535.744C93.459 536.112 91.843 536.352 89.891 536.352H84.275V535.088H86.035V531.6H84.323V530.336H93.699V531.6H91.971V535.008C92.931 534.912 93.699 534.736 94.291 534.464V535.744ZM87.571 531.6V535.088H90.003H90.435V531.6H87.571ZM86.867 542.256H97.203V543.488H85.299V539.952H95.299V538.832H85.267V537.6H96.867V541.12H86.867V542.256ZM109.698 541.552H112.834V543.008H99.1856V541.552H102.322V537.856C100.754 537.136 99.8416 535.936 99.8416 534.4C99.8416 531.872 102.274 530.24 106.002 530.24C109.73 530.24 112.162 531.872 112.162 534.4C112.162 535.92 111.25 537.136 109.698 537.84V541.552ZM101.522 534.4C101.522 536.032 103.314 537.104 106.002 537.104C108.69 537.104 110.498 536.032 110.498 534.4C110.498 532.736 108.69 531.68 106.002 531.68C103.314 531.68 101.522 532.736 101.522 534.4ZM103.906 538.352V541.552H108.114V538.352C107.474 538.48 106.77 538.544 106.002 538.544C105.25 538.544 104.546 538.48 103.906 538.352ZM123.488 531.296V532.592H114.208V531.296H118.048V529.76H119.648V531.296H123.488ZM126.624 533.744H128.544V535.264H126.624V540.24H125.04V530H126.624V533.744ZM118.848 538.96C116.576 538.96 114.8 537.952 114.8 536.16C114.8 534.368 116.576 533.36 118.848 533.36C121.12 533.36 122.88 534.368 122.88 536.16C122.88 537.952 121.12 538.96 118.848 538.96ZM118.848 534.576C117.312 534.576 116.336 535.248 116.336 536.16C116.336 537.088 117.312 537.744 118.848 537.744C120.384 537.744 121.36 537.088 121.36 536.16C121.36 535.248 120.384 534.576 118.848 534.576ZM116.8 539.744V542.08H126.992V543.488H115.2V539.744H116.8ZM142.947 531.584V532.976H133.555V531.584H137.443V529.856H139.059V531.584H142.947ZM144.691 530H146.275V543.664H144.691V530ZM139.059 541.44H139.075C140.947 541.44 142.579 541.28 143.555 540.832V542.272C142.691 542.656 141.011 542.848 139.091 542.848H133.491V541.44H137.475V539.408C135.491 539.2 134.275 538.192 134.275 536.64C134.275 534.896 135.827 533.808 138.275 533.808C140.723 533.808 142.275 534.896 142.275 536.64C142.275 538.192 141.043 539.216 139.059 539.424V541.44ZM135.779 536.64C135.779 537.504 136.627 538.16 138.275 538.16C139.923 538.16 140.771 537.504 140.771 536.64C140.771 535.776 139.923 535.104 138.275 535.104C136.627 535.104 135.779 535.776 135.779 536.64ZM160.93 532.608H162.85V534.112H160.93V537.552H159.346V530H160.93V532.608ZM153.218 534.288C152.226 535.888 150.626 537.008 148.594 537.28V535.84C151.186 535.376 152.706 533.008 152.738 530.128L154.322 530.224C154.322 531.232 154.146 532.176 153.826 533.04L158.066 535.792L157.25 536.96L153.218 534.288ZM155.282 538C158.562 538 161.138 538.784 161.138 540.832C161.138 542.88 158.562 543.664 155.282 543.664C152.018 543.664 149.426 542.88 149.426 540.832C149.426 538.784 152.018 538 155.282 538ZM155.282 542.352C157.618 542.352 159.442 541.888 159.442 540.832C159.442 539.792 157.618 539.312 155.282 539.312C152.962 539.312 151.122 539.792 151.122 540.832C151.122 541.888 152.962 542.352 155.282 542.352ZM178.309 541.552H181.445V543.008H167.797V541.552H170.933V537.856C169.365 537.136 168.453 535.936 168.453 534.4C168.453 531.872 170.885 530.24 174.613 530.24C178.341 530.24 180.773 531.872 180.773 534.4C180.773 535.92 179.861 537.136 178.309 537.84V541.552ZM170.133 534.4C170.133 536.032 171.925 537.104 174.613 537.104C177.301 537.104 179.109 536.032 179.109 534.4C179.109 532.736 177.301 531.68 174.613 531.68C171.925 531.68 170.133 532.736 170.133 534.4ZM172.517 538.352V541.552H176.725V538.352C176.085 538.48 175.381 538.544 174.613 538.544C173.861 538.544 173.157 538.48 172.517 538.352ZM189.524 534.496C187.988 536.848 185.668 538.368 183.14 538.368V536.864C186.1 536.864 188.82 533.84 189.524 530.064L191.156 530.352C190.964 531.376 190.644 532.352 190.228 533.232L196.212 537.152L195.348 538.416L189.524 534.496ZM190.484 541.52H196.516V543.008H182.868V541.52H188.868V537.696H190.484V541.52ZM210.306 533.248H212.226V534.768H210.306V540.144H208.722V530H210.306V533.248ZM206.402 530.336V537.712H198.418V530.336H206.402ZM204.834 536.336V531.712H199.986V536.336H204.834ZM200.482 539.056V542.048H210.674V543.488H198.882V539.056H200.482ZM224.773 536.624H230.821V537.872H217.173V536.624H223.205V535.408H218.005V530.08H219.445V531.504H222.165V530.08H223.541V534.96H224.453V530.08H225.829V531.504H228.549V530.08H229.989V535.408H224.773V536.624ZM219.445 534.176H222.165V532.72H219.445V534.176ZM228.549 532.72H225.829V534.176H228.549V532.72ZM228.309 539.792V538.768H229.861V543.504H218.117V538.768H219.685V539.792H228.309ZM219.685 542.272H228.309V541.008H219.685V542.272ZM246.532 535.536V537.056H244.612V543.664H243.028V530H244.612V535.536H246.532ZM236.756 530.32C239.14 530.32 240.82 532.336 240.82 536.672C240.82 541.008 239.14 543.024 236.756 543.024C234.356 543.024 232.676 541.008 232.676 536.672C232.676 532.336 234.356 530.32 236.756 530.32ZM236.756 541.568C238.164 541.568 239.236 540.144 239.236 536.672C239.236 533.216 238.164 531.776 236.756 531.776C235.332 531.776 234.26 533.216 234.26 536.672C234.26 540.144 235.332 541.568 236.756 541.568ZM263.847 533.248H265.767V534.768H263.847V540.144H262.263V530H263.847V533.248ZM259.943 530.336V537.712H251.959V530.336H259.943ZM258.375 536.336V531.712H253.527V536.336H258.375ZM254.023 539.056V542.048H264.215V543.488H252.423V539.056H254.023ZM267.525 535.6V530.16H279.221V531.488H269.125V534.288H279.381V535.6H267.525ZM266.549 538.416V537.072H280.197V538.416H266.549ZM267.493 543.504V539.504H269.109V542.144H279.493V543.504H267.493ZM288.28 543.328V531.984H285.624V530.512H289.96V543.328H288.28ZM292.603 543.328V542.24L297.147 537.68C298.779 536.032 299.419 534.992 299.419 534.08C299.419 532.576 298.395 531.696 296.795 531.696C295.067 531.696 294.139 533.008 294.139 534.432H292.459C292.459 532.112 294.139 530.208 296.811 530.208C299.387 530.208 301.083 531.76 301.083 534.064C301.083 535.44 300.299 536.608 298.379 538.576L295.019 541.872H301.515V543.328H292.603ZM309.423 534.432C308.047 536.064 305.791 537.056 303.327 537.216V535.744C306.111 535.52 308.431 534.064 309.007 531.792H303.663V530.352H315.727V531.792H310.687C310.591 532.288 310.431 532.768 310.223 533.2L316.175 535.84L315.519 537.168L309.423 534.432ZM316.527 538.688V540.16H310.479V543.984H308.879V540.16H302.879V538.688H316.527ZM333.394 530H334.978V543.664H333.394V537.04H329.954C329.058 540.72 326.306 542.8 322.69 542.816V541.328C325.57 541.312 327.666 539.808 328.386 536.896H322.69V535.456H328.626C328.658 535.12 328.674 534.784 328.674 534.416V531.952H322.69V530.496H330.258V534.32C330.258 534.752 330.242 535.152 330.194 535.552H333.394V530ZM348.352 543.664V530H349.936V543.664H348.352ZM337.968 542.848V535.84H344.08V531.952H337.936V530.496H345.664V537.296H339.552V541.392H343.552C344.848 541.392 346.256 541.136 347.088 540.736V542.192C346.256 542.608 344.832 542.848 343.504 542.848H337.968ZM363.327 534.912V533.952H353.199V532.752H363.327V531.344H353.199V530.128H364.911V534.912H363.327ZM365.903 536.784H362.415V538.096H364.959V541.36H354.751V542.336H365.199V543.504H353.199V540.24H363.407V539.264H353.167V538.096H355.727V536.784H352.255V535.584H365.903V536.784ZM360.863 538.096V536.784H357.279V538.096H360.863ZM378.606 530H380.19V538H378.606V534H376.238V532.56H378.606V530ZM367.886 533.28H373.774V531.632H367.854V530.336H375.342V534.544H369.454V536.224H372.702C374.558 536.224 376.126 536 377.006 535.616V536.912C376.174 537.28 374.542 537.52 372.606 537.52H367.886V533.28ZM368.558 543.488V538.752H380.142V543.488H368.558ZM370.126 540.048V542.192H378.574V540.048H370.126Z" fill="black"/>
<rect x="30" y="29" width="386" height="218" fill="#D9D9D9"/>
<rect x="30" y="299" width="386" height="218" fill="#D9D9D9"/>
<rect x="125.5" y="612.5" width="195" height="67" rx="33.5" fill="white" stroke="url(#paint1_linear_174_12)"/>
<path d="M193.778 641.406C193.76 642.648 193.688 643.8 193.544 644.826L197.252 650.946L195.83 651.792L193.112 647.184C192.374 650.028 191.024 651.666 189.062 651.954V650.262C191.06 649.812 191.996 646.338 192.068 641.406H189.224V639.786H192.068V637.464H193.778V639.786H196.568V641.406H193.778ZM202.076 637.5H203.768V652.872H202.076V637.5ZM198.098 643.728V637.59H199.79V652.602H198.098V645.402H195.956V643.728H198.098ZM216.42 638.796V640.182H205.98V638.796H210.3V637.23H212.1V638.796H216.42ZM218.634 637.5H220.416V646.644H218.634V643.746H216.222V642.162H218.634V637.5ZM211.2 646.536C208.698 646.536 206.718 645.546 206.718 643.782C206.718 642.036 208.698 641.028 211.2 641.028C213.702 641.028 215.664 642.036 215.664 643.782C215.664 645.546 213.702 646.536 211.2 646.536ZM211.2 642.36C209.49 642.36 208.41 642.972 208.41 643.782C208.41 644.592 209.49 645.222 211.2 645.222C212.91 645.222 213.972 644.592 213.972 643.782C213.972 642.972 212.91 642.36 211.2 642.36ZM207.33 652.674V647.508H220.362V652.674H207.33ZM209.094 648.93V651.252H218.598V648.93H209.094ZM229.127 637.464V639.93H233.213V641.514H223.241V639.93H227.309V637.464H229.127ZM238.973 643.728V645.438H236.813V652.872H235.031V637.5H236.813V643.728H238.973ZM228.227 642.738C230.729 642.738 232.493 644.61 232.493 647.436C232.493 650.262 230.729 652.134 228.227 652.134C225.725 652.134 223.943 650.262 223.943 647.436C223.943 644.61 225.725 642.738 228.227 642.738ZM228.227 650.586C229.649 650.586 230.765 649.398 230.765 647.436C230.765 645.474 229.649 644.286 228.227 644.286C226.787 644.286 225.671 645.474 225.671 647.436C225.671 649.398 226.787 650.586 228.227 650.586ZM252.417 652.872V637.5H254.199V652.872H252.417ZM240.573 651.918V650.226C244.767 650.208 247.287 646.95 247.287 641.802V639.696H240.573V638.058H249.105V641.766C249.105 647.922 245.829 651.918 240.573 651.918Z" fill="black"/>
<defs>
<linearGradient id="paint0_linear_174_12" x1="222.5" y1="0" x2="222.5" y2="755" gradientUnits="userSpaceOnUse">
<stop stop-color="white"/>
<stop offset="1" stop-color="white" stop-opacity="0"/>
</linearGradient>
<linearGradient id="paint1_linear_174_12" x1="125" y1="644" x2="323" y2="644.5" gradientUnits="userSpaceOnUse">
<stop stop-color="#15B1E4"/>
<stop offset="1" stop-color="#B800FF"/>
</linearGradient>
</defs>
</svg>
