<svg width="146" height="52" viewBox="0 0 146 52" fill="none" xmlns="http://www.w3.org/2000/svg">
<g clip-path="url(#clip0_46_179)">
<path d="M83.1987 51.9978C75.8188 51.9978 69.813 45.9878 69.813 38.6027C69.813 31.2175 75.8188 25.2051 83.1987 25.2051C90.5787 25.2051 96.5845 31.2151 96.5845 38.6027C96.5845 45.9902 90.5787 51.9978 83.1987 51.9978ZM83.1987 31.6405C79.3629 31.6405 76.2439 34.7642 76.2439 38.6027C76.2439 42.4411 79.3654 45.5624 83.1987 45.5624C87.0321 45.5624 90.1536 42.4387 90.1536 38.6027C90.1536 34.7666 87.0321 31.6405 83.1987 31.6405Z" fill="#2EB1F7"/>
<path d="M123.354 51.9978C115.974 51.9978 109.968 45.9878 109.968 38.6027C109.968 31.2175 115.974 25.2051 123.354 25.2051C130.733 25.2051 136.739 31.2151 136.739 38.6027C136.739 45.9902 130.733 51.9978 123.354 51.9978ZM123.354 31.6405C119.518 31.6405 116.399 34.7642 116.399 38.6027C116.399 42.4411 119.52 45.5624 123.354 45.5624C127.187 45.5624 130.308 42.4387 130.308 38.6027C130.308 34.7666 127.187 31.6405 123.354 31.6405Z" fill="#2EB1F7"/>
<path d="M29.9153 0.121094H23.5041L0 0.123567V23.5131L3.14377 23.5749C3.17343 23.5774 3.25499 23.5774 3.38598 23.5774C4.94057 23.5774 13.2671 23.3894 20.8275 19.5262L17.9111 13.808C13.8257 15.893 9.32998 16.682 6.41359 16.9787V6.54411H23.5041V27.2205C21.4775 25.9838 19.1024 25.2715 16.5641 25.2715C9.19899 25.2715 3.20803 31.2642 3.20803 38.637C3.20803 46.0097 9.20146 51.9999 16.5641 51.9999C23.9268 51.9999 29.9177 46.0072 29.9177 38.637C29.9177 38.5009 29.9153 38.3674 29.9103 38.2313H29.9177V0.121094H29.9153ZM16.5616 45.5794C12.7333 45.5794 9.62162 42.468 9.62162 38.637C9.62162 34.8059 12.7357 31.6921 16.5616 31.6921C20.3876 31.6921 23.4992 34.8084 23.4992 38.637C23.4992 42.4655 20.39 45.5794 16.5616 45.5794Z" fill="url(#paint0_linear_46_179)"/>
<path d="M64.7614 38.2313H64.7639V0.121094H58.3552L34.8486 0.123567V23.5131L37.9924 23.5749C38.0245 23.5774 38.1061 23.5774 38.2396 23.5774C39.7941 23.5774 48.1207 23.3894 55.6811 19.5262L52.7622 13.808C48.6768 15.893 44.186 16.682 41.2647 16.9787V6.54411H58.3577V27.2205C56.3311 25.9838 53.9535 25.2715 51.4127 25.2715C44.0476 25.2715 38.0591 31.2642 38.0591 38.637C38.0591 46.0097 44.0476 51.9999 51.4127 51.9999C58.7779 51.9999 64.7688 46.0072 64.7688 38.637C64.7688 38.5009 64.7664 38.3674 64.7614 38.2313ZM51.4127 45.5794C47.5844 45.5794 44.4752 42.468 44.4752 38.637C44.4752 34.8059 47.5844 31.6921 51.4127 31.6921C55.2411 31.6921 58.3528 34.8084 58.3528 38.637C58.3528 42.4655 55.2387 45.5794 51.4127 45.5794Z" fill="url(#paint1_linear_46_179)"/>
<path d="M120.405 19.4496C115.101 22.1603 109.419 23.068 105.959 23.3648V52H99.5278V0H105.959V16.8972C108.88 16.598 113.388 15.809 117.481 13.7191L120.402 19.4496H120.405Z" fill="#2EB1F7"/>
<path d="M146.003 0H139.572V51.9975H146.003V0Z" fill="#2EB1F7"/>
</g>
<defs>
<linearGradient id="paint0_linear_46_179" x1="-13.0422" y1="-7.48167" x2="67.4595" y2="72.9613" gradientUnits="userSpaceOnUse">
<stop stop-color="#15B1E4"/>
<stop offset="1" stop-color="#B800FF"/>
</linearGradient>
<linearGradient id="paint1_linear_46_179" x1="3.1613" y1="-26.1423" x2="80.2177" y2="50.8603" gradientUnits="userSpaceOnUse">
<stop stop-color="#15B1E4"/>
<stop offset="1" stop-color="#B800FF"/>
</linearGradient>
<clipPath id="clip0_46_179">
<rect width="146" height="52" fill="white"/>
</clipPath>
</defs>
</svg>
