<svg width="63" height="51" viewBox="0 0 63 51" fill="none" xmlns="http://www.w3.org/2000/svg">
<g clip-path="url(#clip0_46_578)">
<path d="M30.3938 37.0836V0H23.882H0V22.7622L3.19331 22.8222C3.22461 22.8222 3.3081 22.8222 3.44376 22.8222C5.02476 22.8222 13.4829 22.6372 21.1635 18.8819L18.1998 13.3163C14.0516 15.3465 9.486 16.1116 6.51706 16.4016V6.25061H23.882V26.3676C21.8262 25.1625 19.4051 24.4724 16.8275 24.4724C9.34512 24.4724 3.26114 30.303 3.26114 37.4787C3.26114 44.6544 9.34512 50.48 16.8275 50.48C24.3098 50.48 30.399 44.6494 30.399 37.4787C30.399 37.3487 30.399 37.2187 30.3938 37.0836ZM16.8327 44.2343C12.9454 44.2343 9.78342 41.204 9.78342 37.4787C9.78342 33.7533 12.9454 30.718 16.8327 30.718C20.72 30.718 23.8872 33.7483 23.8872 37.4787C23.8872 41.209 20.7252 44.2343 16.8327 44.2343ZM34.7872 27.5377H62.4991V33.7833C62.4991 33.8133 62.4991 33.8933 62.4991 34.0183C62.4991 35.5335 62.3112 43.6443 58.3874 51L52.22 47.8897C52.9087 46.2495 55.3089 43.0342 55.6794 33.7783H34.7924V27.5327L34.7872 27.5377ZM63.0052 19.4669V25.7125H34.4063V19.4669H44.5759V14.7514H51.0355V19.4669H63.0052ZM55.982 12.8613H35.1681V7.92078H55.982V4.94048H35.1681V0H62.4991V17.6367H55.982V12.8613Z" fill="url(#paint0_linear_46_578)"/>
</g>
<defs>
<linearGradient id="paint0_linear_46_578" x1="13.2272" y1="8.22081" x2="62.4973" y2="45.9293" gradientUnits="userSpaceOnUse">
<stop offset="0.15" stop-color="#2EB1F7"/>
<stop offset="0.76" stop-color="#9056FF"/>
</linearGradient>
<clipPath id="clip0_46_578">
<rect width="63" height="51" fill="white"/>
</clipPath>
</defs>
</svg>
