<svg width="180" height="52" viewBox="0 0 180 52" fill="none" xmlns="http://www.w3.org/2000/svg">
<g clip-path="url(#clip0_46_102)">
<path d="M30.0527 0.628906H23.6105V0.633301H0V23.791L3.15875 23.8526C3.18771 23.857 3.27014 23.857 3.40156 23.857C4.96312 23.857 13.33 23.6702 20.9217 19.8468L17.9924 14.1843C13.8892 16.2498 9.37157 17.0298 6.44226 17.3243V6.9902H23.6127V27.465C21.5767 26.2411 19.1909 25.5335 16.6403 25.5335C9.24236 25.5335 3.22336 31.4685 3.22336 38.7681C3.22336 46.0677 9.24459 52.0005 16.6403 52.0005C24.0359 52.0005 30.0549 46.0655 30.0549 38.7681C30.0549 38.6341 30.0505 38.5022 30.0483 38.3682H30.0549V0.628906H30.0527ZM16.638 45.6436C12.7932 45.6436 9.66561 42.5607 9.66561 38.7681C9.66561 34.9755 12.7932 31.8904 16.638 31.8904C20.4829 31.8904 23.6082 34.9755 23.6082 38.7681C23.6082 42.5607 20.4829 45.6436 16.638 45.6436Z" fill="url(#paint0_linear_46_102)"/>
<path d="M65.0575 38.3682H65.062V0.628906H58.6242V0.633301H35.0093V23.791L38.168 23.8526C38.2014 23.857 38.2816 23.857 38.4153 23.857C39.9769 23.857 48.3438 23.6702 55.9355 19.8468L53.0039 14.1843C48.9007 16.2498 44.3875 17.0298 41.4538 17.3243V6.9902H58.6242V27.465C56.5882 26.2411 54.2002 25.5335 51.6473 25.5335C44.2494 25.5335 38.2326 31.4685 38.2326 38.7681C38.2326 46.0677 44.2494 52.0005 51.6473 52.0005C59.0452 52.0005 65.0642 46.0655 65.0642 38.7681C65.0642 38.6341 65.0598 38.5022 65.0575 38.3682ZM51.6473 45.6436C47.8025 45.6436 44.6771 42.5607 44.6771 38.7681C44.6771 34.9755 47.8025 31.8904 51.6473 31.8904C55.4922 31.8904 58.6197 34.9755 58.6197 38.7681C58.6197 42.5607 55.4922 45.6436 51.6473 45.6436Z" fill="url(#paint1_linear_46_102)"/>
<path d="M157.802 34.5907C150.903 34.5907 145.287 29.0534 145.287 22.246C145.287 15.4387 150.901 9.90137 157.802 9.90137C164.703 9.90137 170.317 15.4387 170.317 22.246C170.317 29.0534 164.703 34.5907 157.802 34.5907ZM157.802 15.832C154.215 15.832 151.299 18.7105 151.299 22.246C151.299 25.7815 154.215 28.66 157.802 28.66C161.388 28.66 164.304 25.7837 164.304 22.246C164.304 18.7083 161.388 15.832 157.802 15.832Z" fill="#2EB1F7"/>
<path d="M180 0H173.54V51.4902H180V0Z" fill="#2EB1F7"/>
<path d="M133.628 10.0898H127.558V51.4921H133.628V10.0898Z" fill="#2EB1F7"/>
<path d="M141.638 10.0898H135.568V51.4921H141.638V10.0898Z" fill="#2EB1F7"/>
<path d="M125.029 10.0947H108.752V16.4538H125.029V10.0947Z" fill="#2EB1F7"/>
<path d="M115.21 23.4717V51.1493C114.825 51.2109 114.448 51.2614 114.094 51.3032C112.363 51.4987 110.975 51.5712 110.12 51.591H109.995L108.754 51.5602V23.9133C111.267 23.9243 114.074 23.5947 114.074 23.5947C114.428 23.564 114.805 23.5222 115.21 23.4717Z" fill="#2EB1F7"/>
<path d="M125.029 10.0947V27.6383C122.768 28.4667 120.552 29.0248 118.567 29.3874V10.0947H125.029Z" fill="#2EB1F7"/>
<path d="M104.373 51.4904V45.1182H70.593V51.4904H104.373Z" fill="#2EB1F7"/>
<path d="M95.3575 9.90332V18.4598H79.6105V9.90332H72.001V39.697H102.965V9.90332H95.3553H95.3575ZM95.3575 32.916H79.6105V24.7991H95.3575V32.916Z" fill="#2EB1F7"/>
<path d="M153.877 45.1182H178.723V51.4904H147.417V37.9746H153.877V45.1182Z" fill="#2EB1F7"/>
<path d="M124.034 41.9297C121.04 43.4415 117.848 44.2545 115.21 44.7071C114.825 44.7686 114.448 44.8302 114.094 44.8829C113.51 44.9554 112.978 45.0279 112.488 45.0785C107.607 45.6542 109.973 45.7157 108.754 45.5729L109.995 51.5914H110.12C110.975 51.5716 112.363 51.4991 114.094 51.3035C114.448 51.2618 114.825 51.2112 115.21 51.1497C118.558 50.6663 122.877 49.6577 126.976 47.59L124.036 41.9319L124.034 41.9297Z" fill="#2EB1F7"/>
<path d="M120.173 22.494C119.62 22.6478 119.088 22.7708 118.567 22.8961C117.368 23.1532 116.219 23.3377 115.208 23.4718C114.8 23.5223 114.426 23.5641 114.071 23.5948C114.071 23.5948 111.265 23.9244 108.752 23.9134V30.0858L110.786 30.1275H111.035C111.505 30.1275 112.59 30.1077 114.092 29.9825C114.437 29.9517 114.811 29.921 115.208 29.8682C116.21 29.7649 117.346 29.6111 118.567 29.3848C120.549 29.0244 122.77 28.4597 125.034 27.6357V20.7207C123.407 21.481 121.759 22.0677 120.173 22.4896V22.494Z" fill="#2EB1F7"/>
<path d="M132.59 35.3908C127.849 37.7815 122.757 38.5879 119.665 38.8428V33.1319C122.28 32.877 126.312 32.1783 129.974 30.3369L132.59 35.3886V35.3908Z" fill="#2EB1F7"/>
</g>
<defs>
<linearGradient id="paint0_linear_46_102" x1="-13.1006" y1="-6.89917" x2="66.607" y2="73.9066" gradientUnits="userSpaceOnUse">
<stop stop-color="#15B1E4"/>
<stop offset="1" stop-color="#B800FF"/>
</linearGradient>
<linearGradient id="paint1_linear_46_102" x1="3.1767" y1="-25.3766" x2="79.4743" y2="51.97" gradientUnits="userSpaceOnUse">
<stop stop-color="#15B1E4"/>
<stop offset="1" stop-color="#B800FF"/>
</linearGradient>
<clipPath id="clip0_46_102">
<rect width="180" height="52" fill="white"/>
</clipPath>
</defs>
</svg>
