<svg width="118" height="38" viewBox="0 0 118 38" fill="none" xmlns="http://www.w3.org/2000/svg">
<g clip-path="url(#clip0_46_498)">
<path d="M106.73 2.82L97.7899 5.99L89.8799 2.81L98.7599 0L106.73 2.82Z" fill="black"/>
<path d="M92.67 3.38953L92.8 4.36953L93.03 5.84953L92.16 5.85953H91.25L91.92 4.33953L92.39 3.26953L92.67 3.38953Z" fill="black"/>
<path d="M20.4399 21.92L0.539883 22.82L2.90988 7L19.8099 7.05L18.9799 12.6L8.41988 12.57L7.70988 17.32L21.2499 16.56L20.4499 21.92H20.4399ZM4.59988 37.28C1.03988 37.27 -0.300117 34.31 0.0498831 31.94L0.379883 29.73C0.759883 27.16 2.93988 24.54 6.49988 24.55L21.3499 24.59C24.8199 24.59 26.1599 27.14 25.7599 29.8L25.4299 31.98C25.0399 34.58 22.8799 37.33 19.4399 37.32L4.58988 37.28H4.59988ZM17.7299 32.02C19.3299 32.02 19.6499 29.87 18.0499 29.87L8.05988 29.84C6.45988 29.84 6.13988 31.99 7.73988 31.99L17.7299 32.02ZM26.3799 23.66L20.0399 23.64L22.5199 7.04L28.8599 7.06L26.3799 23.66Z" fill="black"/>
<path d="M49.2099 21.9995L29.3099 22.8995L31.6799 7.01953L48.5799 7.06953L47.7399 12.6795L37.1799 12.6495L36.4699 17.3995L50.0099 16.6395L49.2099 21.9995ZM33.3699 37.3595C29.8099 37.3495 28.4699 34.3895 28.8199 32.0195L29.1499 29.8095C29.5299 27.2395 31.7099 24.6195 35.2699 24.6295L50.1199 24.6695C53.5899 24.6695 54.9299 27.2195 54.5299 29.8795L54.1999 32.0595C53.8099 34.6595 51.6499 37.4095 48.2099 37.3995L33.3599 37.3595H33.3699ZM46.4999 32.0995C48.0999 32.0995 48.4199 29.9495 46.8199 29.9495L36.8299 29.9195C35.2299 29.9195 34.9099 32.0695 36.5099 32.0695L46.4999 32.0995ZM55.1499 23.7395L48.8099 23.7195L51.2999 7.02953L57.6399 7.04953L55.1499 23.7395Z" fill="black"/>
<path d="M82.3498 37.4602L76.7998 37.4402L78.9498 23.0302H77.6798L75.5298 37.4402L70.1898 37.4202L70.7598 33.5902L56.0698 34.2902L60.1498 6.99023L73.3698 7.03023L72.5498 12.4902L65.3698 12.4702L62.9398 28.7602L71.5598 28.2702L74.7398 7.02023L80.0798 7.04023L78.5098 17.5702H79.7798L81.3598 7.03023L86.9098 7.05023L82.3698 37.4602H82.3498Z" fill="black"/>
<path d="M100.85 7.21L106.76 7.23L105.91 12.89H104.94C104.93 13.19 104.91 13.49 104.87 13.75L104.34 17.28C103.86 20.47 101.01 23.63 96.5399 23.62H93.5399C89.3499 23.6 86.9199 20.4 87.3899 17.24L87.9199 13.71C87.9599 13.41 88.0399 13.14 88.1099 12.85H87.1399L87.9899 7.19L93.9699 7.21L100.85 7.23V7.21ZM110.99 37.57L104.42 37.55L105.45 30.69L86.3599 30.64L87.2099 24.98L112.87 25.05L111 37.57H110.99ZM98.0399 15.29C98.2699 13.76 97.4099 13.19 96.4799 13.19C95.4799 13.19 94.5199 13.75 94.2899 15.28L94.2199 15.75C94.0199 17.08 94.7799 17.85 95.7499 17.85C96.7799 17.85 97.7599 17.19 97.9699 15.76L98.0399 15.29ZM117 18.27H113.87L113.01 23.98L106.44 23.96L109.31 4.75L115.88 4.77L114.71 12.6H117.84L116.99 18.27H117Z" fill="black"/>
</g>
<defs>
<clipPath id="clip0_46_498">
<rect width="117.85" height="37.57" fill="white"/>
</clipPath>
</defs>
</svg>
